<svg width="50" height="50" viewBox="0 0 50 50" fill="none" xmlns="http://www.w3.org/2000/svg">
<path d="M33.3473 33.0356C38.6679 24.6867 37.999 25.7283 38.1523 25.5106C40.0895 22.7784 41.1133 19.5627 41.1133 16.2109C41.1133 7.32227 33.9003 0 25 0C16.1287 0 8.88672 7.30781 8.88672 16.2109C8.88672 19.5605 9.93203 22.8605 11.9326 25.6295L16.6525 33.0357C11.6062 33.8112 3.02734 36.1223 3.02734 41.2109C3.02734 43.0659 4.23809 45.7095 10.0061 47.7694C14.0336 49.2078 19.3585 50 25 50C35.5493 50 46.9727 47.0242 46.9727 41.2109C46.9727 36.1214 38.4039 33.8128 33.3473 33.0356ZM14.3798 24.0181C14.3637 23.9929 14.3469 23.9683 14.3293 23.944C12.6646 21.6538 11.8164 18.9396 11.8164 16.2109C11.8164 8.88496 17.7154 2.92969 25 2.92969C32.2694 2.92969 38.1836 8.8876 38.1836 16.2109C38.1836 18.9439 37.3515 21.5661 35.7768 23.796C35.6356 23.9821 36.3719 22.8384 25 40.6825L14.3798 24.0181ZM25 47.0703C13.4771 47.0703 5.95703 43.6833 5.95703 41.2109C5.95703 39.5492 9.82109 36.8169 18.3836 35.7519L23.7646 44.1955C24.0336 44.6176 24.4994 44.873 24.9999 44.873C25.5004 44.873 25.9663 44.6175 26.2352 44.1955L31.6161 35.7519C40.1788 36.8169 44.043 39.5492 44.043 41.2109C44.043 43.6623 36.5905 47.0703 25 47.0703Z" fill="#FFFBF3"/>
<path d="M25 8.88672C20.9614 8.88672 17.6758 12.1724 17.6758 16.2109C17.6758 20.2495 20.9614 23.5352 25 23.5352C29.0386 23.5352 32.3242 20.2495 32.3242 16.2109C32.3242 12.1724 29.0386 8.88672 25 8.88672ZM25 20.6055C22.5769 20.6055 20.6055 18.6341 20.6055 16.2109C20.6055 13.7878 22.5769 11.8164 25 11.8164C27.4231 11.8164 29.3945 13.7878 29.3945 16.2109C29.3945 18.6341 27.4231 20.6055 25 20.6055Z" fill="#FFFBF3"/>
</svg>
