<svg width="50" height="50" viewBox="0 0 50 50" fill="none" xmlns="http://www.w3.org/2000/svg">
<path d="M45.6055 7.42188H4.39453C1.97637 7.42188 0 9.38955 0 11.8164V38.1836C0 40.6113 1.97764 42.5781 4.39453 42.5781H45.6055C48.0236 42.5781 50 40.6104 50 38.1836V11.8164C50 9.38896 48.0227 7.42188 45.6055 7.42188ZM44.9307 10.3516C43.5099 11.7771 26.8208 28.5205 26.1352 29.2084C25.5625 29.7828 24.4378 29.7832 23.8648 29.2084L5.06934 10.3516H44.9307ZM2.92969 37.645V12.355L15.5337 25L2.92969 37.645ZM5.06934 39.6484L17.602 27.075L21.7899 31.2767C23.5062 32.9984 26.4945 32.9978 28.2102 31.2767L32.3981 27.0751L44.9307 39.6484H5.06934ZM47.0703 37.645L34.4663 25L47.0703 12.355V37.645Z" fill="#FFFBF3"/>
</svg>
