<svg width="50" height="50" viewBox="0 0 50 50" fill="none" xmlns="http://www.w3.org/2000/svg">
<g clip-path="url(#clip0_354_1985)">
<path d="M39.5146 30.9732C38.4909 29.9074 37.2562 29.3375 35.9477 29.3375C34.6497 29.3375 33.4045 29.8968 32.3386 30.9627L29.0039 34.2868C28.7295 34.1391 28.4552 34.0019 28.1914 33.8647C27.8114 33.6747 27.4527 33.4953 27.1466 33.3054C24.023 31.3214 21.1843 28.736 18.4616 25.3907C17.1425 23.7234 16.2561 22.3199 15.6124 20.8952C16.4777 20.1038 17.2797 19.2807 18.0606 18.4892C18.3561 18.1937 18.6516 17.8877 18.9471 17.5922C21.1632 15.3761 21.1632 12.5057 18.9471 10.2896L16.0661 7.40871C15.739 7.08157 15.4013 6.74388 15.0847 6.40619C14.4516 5.75191 13.7867 5.07653 13.1008 4.44336C12.0772 3.43028 10.853 2.89209 9.56558 2.89209C8.27814 2.89209 7.0329 3.43028 5.97762 4.44336C5.96707 4.45391 5.96707 4.45391 5.95651 4.46446L2.36855 8.08409C1.01778 9.43485 0.247425 11.0811 0.0785796 12.9912C-0.174689 16.0726 0.732856 18.943 1.42934 20.8214C3.1389 25.433 5.69269 29.7069 9.50227 34.2868C14.1244 39.8059 19.6858 44.1643 26.0386 47.2351C28.4657 48.3854 31.7054 49.7467 35.3251 49.9789C35.5467 49.9894 35.7788 50 35.9899 50C38.4276 50 40.4749 49.1241 42.0789 47.3829C42.0894 47.3618 42.1106 47.3512 42.1211 47.3301C42.6699 46.6653 43.303 46.0638 43.9679 45.42C44.4216 44.9874 44.8859 44.5336 45.3397 44.0587C46.3845 42.9718 46.9332 41.7054 46.9332 40.4074C46.9332 39.0989 46.3739 37.8431 45.3081 36.7878L39.5146 30.9732ZM43.2925 42.0853C43.2819 42.0959 43.2819 42.0853 43.2925 42.0853C42.8809 42.5286 42.4588 42.9296 42.005 43.3728C41.3191 44.0271 40.6226 44.713 39.9683 45.4834C38.9025 46.6231 37.6467 47.1613 36.0005 47.1613C35.8422 47.1613 35.6733 47.1613 35.515 47.1507C32.3808 46.9502 29.4682 45.7261 27.2838 44.6813C21.3109 41.7899 16.0661 37.6848 11.7078 32.4823C8.10929 28.145 5.70324 24.135 4.10977 19.8294C3.12835 17.2017 2.76955 15.1545 2.92785 13.2233C3.03338 11.9886 3.50825 10.965 4.38414 10.0891L7.98266 6.49061C8.49975 6.00518 9.0485 5.74136 9.58669 5.74136C10.2515 5.74136 10.7897 6.14237 11.1274 6.48006C11.138 6.49061 11.1485 6.50116 11.1591 6.51172C11.8028 7.11323 12.4149 7.73584 13.0586 8.40067C13.3857 8.73836 13.7234 9.07606 14.0611 9.4243L16.942 12.3052C18.0606 13.4238 18.0606 14.458 16.942 15.5766C16.636 15.8826 16.3405 16.1887 16.0345 16.4841C15.148 17.3917 14.3038 18.2359 13.3857 19.059C13.3646 19.0801 13.3435 19.0907 13.3329 19.1118C12.4254 20.0194 12.5943 20.9058 12.7842 21.5073C12.7948 21.539 12.8053 21.5706 12.8159 21.6023C13.5651 23.4174 14.6204 25.1269 16.2244 27.1636L16.235 27.1742C19.1476 30.7621 22.2184 33.5586 25.6059 35.7009C26.0386 35.9752 26.4818 36.1969 26.9039 36.4079C27.2838 36.5979 27.6426 36.7773 27.9486 36.9672C27.9908 36.9883 28.0331 37.02 28.0753 37.0411C28.4341 37.2205 28.7718 37.3049 29.12 37.3049C29.9959 37.3049 30.5446 36.7562 30.724 36.5768L34.3331 32.9677C34.6919 32.6089 35.2618 32.1762 35.9266 32.1762C36.5809 32.1762 37.1191 32.5878 37.4462 32.9466C37.4567 32.9571 37.4567 32.9571 37.4673 32.9677L43.2819 38.7823C44.3689 39.8587 44.3689 40.9667 43.2925 42.0853Z" fill="#FFFBF3"/>
<path d="M27.0203 11.8935C29.7852 12.3578 32.2967 13.6664 34.3018 15.6714C36.3068 17.6765 37.6048 20.188 38.0797 22.9529C38.1958 23.6494 38.7973 24.1348 39.4832 24.1348C39.5676 24.1348 39.6415 24.1243 39.7259 24.1137C40.5068 23.9871 41.0239 23.2484 40.8973 22.4675C40.3274 19.1222 38.7445 16.0724 36.3279 13.6558C33.9113 11.2392 30.8615 9.65631 27.5163 9.08646C26.7354 8.95982 26.0072 9.47691 25.8701 10.2473C25.7329 11.0176 26.2394 11.7669 27.0203 11.8935Z" fill="#FFFBF3"/>
<path d="M49.943 22.0561C49.0038 16.5475 46.4078 11.5349 42.4188 7.5459C38.4298 3.55692 33.4172 0.960922 27.9087 0.0217193C27.1383 -0.115468 26.4102 0.412175 26.273 1.18253C26.1463 1.96344 26.6634 2.69159 27.4443 2.82878C32.362 3.66245 36.8469 5.99463 40.4138 9.55094C43.9806 13.1178 46.3023 17.6028 47.1359 22.5204C47.252 23.2169 47.8535 23.7023 48.5395 23.7023C48.6239 23.7023 48.6978 23.6917 48.7822 23.6812C49.5525 23.5651 50.0802 22.8264 49.943 22.0561Z" fill="#FFFBF3"/>
</g>
<defs>
<clipPath id="clip0_354_1985">
<rect width="50" height="50" fill="white"/>
</clipPath>
</defs>
</svg>
