<svg width="142" height="34" viewBox="0 0 142 34" fill="none" xmlns="http://www.w3.org/2000/svg">
<g clip-path="url(#clip0_1456_278)">
<path fill-rule="evenodd" clip-rule="evenodd" d="M29.4273 34.0001C28.8252 34.0016 28.2288 33.8828 27.6731 33.6508C27.1174 33.4189 26.6136 33.0784 26.1912 32.6492C25.3329 31.7828 24.8515 30.6125 24.8515 29.393C24.8515 28.1734 25.3329 27.0032 26.1912 26.1367C26.6144 25.7091 27.1182 25.3696 27.6734 25.1377C28.2286 24.9058 28.8243 24.7863 29.4259 24.7858C30.0276 24.7854 30.6234 24.9042 31.1789 25.1353C31.7345 25.3663 32.2387 25.7052 32.6626 26.1322C33.5199 27.0009 34.0006 28.1724 34.0006 29.393C34.0006 30.6136 33.5199 31.785 32.6626 32.6538C32.2396 33.0816 31.7357 33.421 31.1803 33.6521C30.6248 33.8833 30.0289 34.0015 29.4273 34.0001ZM4.57264 9.4288C3.97035 9.43017 3.37385 9.31139 2.81803 9.07944C2.2622 8.84748 1.7582 8.50698 1.33556 8.07788C0.47745 7.21137 -0.00390625 6.04115 -0.00390625 4.82164C-0.00390625 3.60213 0.47745 2.43197 1.33556 1.56545C1.75879 1.13785 2.26253 0.798315 2.81769 0.566459C3.37285 0.334602 3.96847 0.215019 4.5701 0.214595C5.17174 0.21417 5.7675 0.332879 6.32299 0.563952C6.87848 0.795025 7.38268 1.13388 7.80652 1.56088C8.66574 2.42866 9.14773 3.60045 9.14773 4.82164C9.14773 6.04283 8.66574 7.21467 7.80652 8.08245C7.3837 8.51011 6.88005 8.84942 6.32485 9.08055C5.76966 9.31169 5.17402 9.43007 4.57264 9.4288ZM29.2233 9.29186C28.6215 9.29316 28.0255 9.1748 27.4698 8.94367C26.9142 8.71255 26.41 8.37329 25.9867 7.94557C25.1301 7.07736 24.6498 5.90672 24.6498 4.68704C24.6498 3.46736 25.1301 2.29673 25.9867 1.42851C26.41 1.00057 26.914 0.660832 27.4695 0.428967C28.025 0.197101 28.6209 0.0777153 29.2229 0.0777153C29.8248 0.0777153 30.4208 0.197101 30.9763 0.428967C31.5317 0.660832 32.0357 1.00057 32.459 1.42851C33.3159 2.29662 33.7963 3.46729 33.7963 4.68704C33.7963 5.9068 33.3159 7.07747 32.459 7.94557C32.0359 8.37337 31.532 8.7127 30.9764 8.94384C30.4209 9.17498 29.825 9.29327 29.2233 9.29186ZM4.69175 34.0001C4.08895 34.0017 3.4919 33.883 2.93552 33.6511C2.37914 33.4191 1.87463 33.0786 1.45149 32.6492C0.593464 31.7816 0.11246 30.6104 0.112973 29.3902C0.113486 28.1699 0.595465 26.9991 1.45422 26.1322C1.65062 25.9358 1.86653 25.7599 2.09861 25.6073C2.17666 25.5526 2.24878 25.507 2.32363 25.4613C2.49294 25.3655 2.66133 25.2742 2.81878 25.2012C2.90458 25.1646 2.99268 25.1236 3.08532 25.0871C3.26802 25.022 3.4542 24.9671 3.64301 24.9228C3.68499 24.9091 3.72196 24.9 3.75938 24.8909C3.78312 24.8817 3.80502 24.8771 3.82966 24.868L4.84829 24.7995C4.97699 24.8041 5.11528 24.8224 5.26269 24.8407L5.3211 24.8497C5.36361 24.8555 5.40645 24.8586 5.44934 24.8589L5.4904 24.8634L5.53606 24.8726H5.57667C5.65106 24.8726 5.72545 24.8771 5.79892 24.8771C7.59588 24.8455 9.30682 24.102 10.5561 22.8099C11.8053 21.5179 12.4908 19.7829 12.462 17.9859V17.9357L12.4524 17.8809C12.4444 17.8326 12.4391 17.7838 12.4365 17.7349C12.4324 17.6755 12.4273 17.6162 12.42 17.5569L12.4086 17.4519C12.399 17.3652 12.389 17.2785 12.3831 17.1872L12.4611 16.1604C12.4668 16.1356 12.474 16.1112 12.4826 16.0873L12.5008 16.0234C12.5443 15.8266 12.6011 15.6329 12.671 15.4438C12.7033 15.3519 12.7409 15.2621 12.7838 15.1746C12.8623 14.9993 12.9508 14.8286 13.0489 14.6635C13.0923 14.5904 13.1338 14.5174 13.1835 14.4444C13.3385 14.2108 13.5151 13.9922 13.7111 13.7918C14.1346 13.3641 14.6386 13.0246 15.194 12.7928C15.7493 12.5609 16.3452 12.4413 16.947 12.4409C17.5489 12.4405 18.1448 12.5592 18.7005 12.7903C19.2563 13.0213 19.7607 13.3602 20.1848 13.7872C21.0412 14.6567 21.5208 15.8284 21.5201 17.0488C21.5193 18.2693 21.0382 19.4404 20.1807 20.3088C19.9833 20.5043 19.7673 20.6801 19.5358 20.8337C19.4596 20.8884 19.3875 20.9295 19.3149 20.9751C19.1549 21.0723 18.9896 21.1607 18.8198 21.2398C18.7285 21.2764 18.6409 21.322 18.5546 21.3539C18.3728 21.4198 18.1872 21.4747 17.9988 21.5182L17.8892 21.5501C17.8646 21.5547 17.84 21.5639 17.8153 21.5684L16.7871 21.6415C16.6666 21.6369 16.5402 21.6232 16.4065 21.6049L16.3152 21.5913C16.2846 21.5867 16.2362 21.5867 16.1883 21.5821L16.1518 21.5776L16.0993 21.5684H16.0582C15.9834 21.5639 15.9095 21.5639 15.8351 21.5639C14.9447 21.573 14.0653 21.7607 13.2488 22.1158C12.4322 22.4709 11.6953 22.9862 11.0815 23.6312C10.4601 24.269 9.97149 25.0238 9.64416 25.8519C9.31684 26.68 9.15727 27.5648 9.17472 28.4551V28.5053L9.18431 28.5601C9.19233 28.6084 9.19768 28.6572 9.2003 28.7061C9.2044 28.7655 9.20943 28.8248 9.21673 28.8841C9.21673 28.9206 9.22585 28.9845 9.23361 29.0439C9.24291 29.1135 9.24854 29.1835 9.25049 29.2538V29.2812L9.17701 30.2669C9.17199 30.2852 9.13914 30.3993 9.13138 30.4358C9.08755 30.6293 9.03146 30.8198 8.96344 31.0062C8.93145 31.0947 8.89504 31.1816 8.85436 31.2664C8.77495 31.4398 8.6887 31.6087 8.59058 31.7821C8.54494 31.8506 8.49656 31.9327 8.44453 32.0103C8.29072 32.2383 8.11692 32.4521 7.92518 32.6492C7.50339 33.0783 7.00014 33.4188 6.44497 33.6508C5.8898 33.8828 5.29343 34.0015 4.69175 34.0001ZM17.0472 34.0001C16.4444 34.0018 15.8473 33.8833 15.2909 33.6513C14.7345 33.4193 14.23 33.0787 13.807 32.6492C13.3255 32.1737 12.9554 31.5973 12.7234 30.9616C12.4913 30.3259 12.4031 29.6467 12.4651 28.9728C12.5271 28.2989 12.7377 27.6472 13.0818 27.0644C13.4259 26.4817 13.8948 25.9825 14.455 25.6028C14.523 25.5571 14.596 25.5115 14.6722 25.4659C14.8334 25.3689 14.9996 25.2805 15.1701 25.2012C15.2614 25.1646 15.3468 25.1236 15.4353 25.0871C15.6147 25.0198 15.799 24.9664 15.9866 24.9273C15.9866 24.9273 16.1477 24.8817 16.1692 24.8726L17.2038 24.7995C17.3256 24.8041 17.4575 24.8224 17.5953 24.8407L17.6715 24.8497C17.7227 24.8543 17.7651 24.8589 17.8085 24.8589C17.8253 24.8581 17.8422 24.8596 17.8587 24.8634L17.891 24.868L17.9367 24.8726C18.0125 24.8726 18.0891 24.8771 18.1649 24.8771C19.0535 24.8666 19.9311 24.6787 20.7461 24.3245C21.5612 23.9703 22.2972 23.4568 22.9112 22.8143C23.532 22.1753 24.0201 21.4196 24.3472 20.5908C24.6744 19.7621 24.834 18.8767 24.817 17.9859L24.8106 17.7713L24.7919 17.7486C24.7919 17.744 24.7919 17.7348 24.7919 17.7257C24.7892 17.6755 24.7864 17.6253 24.7814 17.5751L24.7645 17.4291C24.755 17.3469 24.7445 17.2648 24.7417 17.1827L24.8124 16.1877C24.8184 16.1649 24.854 16.0372 24.8622 16.0007C24.9065 15.8088 24.9624 15.6198 25.0297 15.4347C25.0621 15.3434 25.1018 15.2567 25.1419 15.1655C25.2212 14.9937 25.3093 14.8262 25.4057 14.6635L25.4258 14.6315C25.4594 14.5702 25.4964 14.5107 25.5367 14.4535C25.6918 14.2165 25.8692 13.9949 26.0666 13.7918C26.4898 13.3638 26.9937 13.024 27.5492 12.7921C28.1047 12.5602 28.7006 12.4408 29.3025 12.4408C29.9044 12.4408 30.5004 12.5602 31.0558 12.7921C31.6113 13.024 32.1152 13.3638 32.5384 13.7918C33.0215 14.2665 33.3929 14.8427 33.6259 15.4786C33.8589 16.1145 33.9475 16.7943 33.8855 17.4687C33.8235 18.1431 33.6123 18.7953 33.2673 19.378C32.9222 19.9608 32.4519 20.4596 31.8904 20.8382C31.8388 20.8747 31.7891 20.9021 31.7393 20.9341L31.6595 20.9842C31.5061 21.0755 31.34 21.1623 31.1775 21.2398C31.0863 21.2809 30.9996 21.322 30.9087 21.3539C30.7263 21.4214 30.5395 21.4763 30.3497 21.5182C30.304 21.5319 30.2689 21.541 30.2333 21.5501C30.2099 21.5598 30.1858 21.5674 30.1612 21.573L29.1439 21.6415C28.9951 21.6369 28.834 21.614 28.6784 21.5958C28.625 21.5866 28.5839 21.5867 28.5415 21.5821H28.4959L28.4091 21.573C28.3334 21.5684 28.2585 21.5684 28.181 21.5684C27.292 21.5772 26.414 21.7643 25.5987 22.1187C24.7834 22.473 24.0475 22.9874 23.4347 23.6312C22.8137 24.2692 22.3257 25.0241 21.999 25.8522C21.6723 26.6803 21.5134 27.5651 21.5316 28.4551V28.5053L21.5416 28.5555C21.5497 28.6084 21.5549 28.6618 21.5571 28.7153C21.5603 28.77 21.5649 28.8202 21.5704 28.875C21.574 28.9161 21.5804 28.9754 21.5859 29.0302C21.5955 29.1077 21.6046 29.1853 21.6064 29.2629L21.5316 30.2715C21.5261 30.2943 21.4859 30.4313 21.4859 30.4313C21.4421 30.6278 21.386 30.8213 21.318 31.0108C21.2874 31.093 21.2514 31.1751 21.2144 31.2573L21.2016 31.2847C21.1248 31.4518 21.0393 31.6147 20.9456 31.773C20.8999 31.8506 20.8543 31.9281 20.8041 32.0012C20.6476 32.234 20.4706 32.4525 20.2752 32.6538C19.8537 33.0815 19.3512 33.4209 18.7971 33.6521C18.2429 33.8832 17.6476 34.0016 17.0472 34.0001ZM4.69311 21.5593C4.09102 21.5607 3.4947 21.442 2.93908 21.21C2.38347 20.9781 1.87975 20.6376 1.45742 20.2084C0.598609 19.3425 0.116415 18.1725 0.115731 16.9529C0.115047 15.7333 0.595932 14.5628 1.45377 13.6959C1.65279 13.4979 1.87008 13.3191 2.10274 13.162C2.17165 13.1163 2.24968 13.0661 2.32772 13.0205C2.48608 12.9247 2.64719 12.8425 2.8197 12.7603C2.90768 12.7176 2.99785 12.6795 3.08986 12.6463C3.26864 12.5796 3.45159 12.5247 3.63752 12.482L3.75345 12.45C3.7749 12.4455 3.79543 12.4363 3.81688 12.4318L4.85239 12.3587C4.99719 12.3658 5.14149 12.3811 5.28458 12.4044L5.31653 12.4089C5.36947 12.4135 5.411 12.4135 5.45344 12.4181C5.4688 12.4172 5.48421 12.4188 5.49909 12.4226L5.54472 12.4272L5.58625 12.4318H5.81444C6.70337 12.4231 7.58152 12.2361 8.39682 11.8817C9.21212 11.5274 9.94797 11.013 10.5608 10.3689C11.1812 9.73063 11.6689 8.97565 11.9957 8.14763C12.3224 7.31961 12.4817 6.43502 12.4643 5.54503V5.49484L12.4547 5.44464C12.4458 5.38876 12.4404 5.33236 12.4387 5.27579C12.436 5.23015 12.4333 5.17992 12.4282 5.13428L12.4127 4.99278C12.4022 4.90607 12.3913 4.81939 12.3894 4.73724L12.4584 3.76972L12.4643 3.74688V3.72867C12.4702 3.70585 12.5099 3.57803 12.5099 3.57803C12.5537 3.3785 12.6098 3.18192 12.6779 2.98934C12.7107 2.90263 12.7509 2.81588 12.792 2.72917C12.8689 2.55507 12.9566 2.38589 13.0544 2.2226L13.0699 2.19525C13.1096 2.13136 13.1488 2.06288 13.1931 1.99898C13.3467 1.76716 13.5217 1.55018 13.7157 1.35091C14.1391 0.922909 14.6433 0.58314 15.1989 0.351251C15.7546 0.119362 16.3507 0 16.9528 0C17.5548 0 18.1509 0.119362 18.7066 0.351251C19.2622 0.58314 19.7664 0.922909 20.1898 1.35091C21.0468 2.21895 21.5273 3.38965 21.5273 4.60944C21.5273 5.82923 21.0468 6.99992 20.1898 7.86797C19.9928 8.0637 19.777 8.2395 19.5454 8.39281C19.4751 8.44301 19.4149 8.47953 19.3524 8.51604L19.3186 8.53426C19.1611 8.6308 18.9979 8.7177 18.8298 8.79443C18.7385 8.84006 18.6509 8.87658 18.5633 8.91309C18.3808 8.98077 18.1939 9.03566 18.0038 9.07738C17.9581 9.0865 17.9216 9.10017 17.8828 9.1093C17.8591 9.11843 17.8372 9.12301 17.8112 9.13214L16.7967 9.20061C16.6684 9.19604 16.5311 9.17775 16.3859 9.15949L16.3239 9.15041C16.2782 9.14585 16.2326 9.14584 16.192 9.14128C16.175 9.14202 16.1579 9.14048 16.1413 9.13671L16.1071 9.13214L16.0614 9.12757H15.8333C14.9448 9.1364 14.0671 9.32309 13.2519 9.67659C12.4367 10.0301 11.7006 10.5433 11.0869 11.1859C10.4661 11.8249 9.97799 12.5806 9.65088 13.4094C9.32376 14.2381 9.16411 15.1235 9.18113 16.0143V16.0645L9.19024 16.1148C9.19932 16.1676 9.20481 16.2209 9.20667 16.2745C9.20987 16.3292 9.21443 16.3794 9.21991 16.4342C9.22447 16.4753 9.23087 16.5346 9.23726 16.5848C9.24547 16.6624 9.2555 16.7399 9.25687 16.8175L9.18386 17.8216C9.17838 17.8444 9.16973 17.8718 9.16197 17.8991L9.1364 17.9905C9.09361 18.1855 9.03828 18.3776 8.97074 18.5655C8.93788 18.6568 8.89635 18.7435 8.85436 18.8347C8.77833 19.0058 8.69159 19.172 8.59467 19.3322C8.54903 19.4143 8.5034 19.4873 8.45777 19.5604C8.30418 19.7931 8.1281 20.0102 7.93203 20.2084C7.51035 20.6374 7.00724 20.9778 6.45224 21.2098C5.89723 21.4418 5.30149 21.5606 4.69996 21.5593H4.69311Z" fill="#4C4B4B"/>
<path fill-rule="evenodd" clip-rule="evenodd" d="M44.0932 25.2956H47.2363L49.0326 19.7141C49.693 17.5783 49.9307 16.661 50.0626 16.054C50.2952 17.2739 50.6041 18.478 50.9873 19.6593L52.7831 25.2956H55.7952L60.3133 12.2889H56.906L55.1626 17.8704C54.9249 18.6873 54.5023 20.2389 54.291 21.2156C54.1326 20.3439 53.6064 18.3952 53.4458 17.8704L51.7024 12.2889H48.4252L46.6289 17.8704C46.2469 18.9694 45.9469 20.0951 45.7312 21.2384C45.4934 20.029 45.2291 18.8972 44.9384 17.8704L43.2216 12.2889H39.8672L44.0932 25.2956ZM65.5155 25.6379C67.5491 25.6379 69.3189 24.716 69.8739 23.3742L70.1112 25.2956H72.9376V17.3957C72.9376 13.7904 70.7716 11.8919 67.2589 11.8919C63.7192 11.8919 61.3949 13.7356 61.3949 16.5514H64.1418C64.1418 15.1823 65.1983 14.3928 67.1005 14.3928C68.738 14.3928 69.7931 15.1047 69.7931 16.8709V17.1584L65.8838 17.4505C62.7937 17.6878 61.0503 19.1847 61.0503 21.5807C61.0517 24.0315 62.7421 25.6379 65.5155 25.6379ZM66.572 23.2145C65.1194 23.2145 64.3271 22.6349 64.3271 21.4483C64.3271 20.3987 65.0929 19.7415 67.1005 19.5544L69.821 19.3445V20.029C69.821 22.028 68.5532 23.2145 66.572 23.2145ZM74.602 31.3243C75.3879 31.5209 76.1955 31.6175 77.0057 31.6118C79.1452 31.6118 80.5198 30.6124 81.496 28.189L87.888 12.2889H84.5601L81.0204 21.7678L77.6661 12.2889H74.2588L79.5148 25.8478L79.1452 26.8199C78.5907 28.3488 77.798 28.6363 76.5302 28.6363H74.602V31.3243ZM88.4165 12.2889V14.9724H90.2917V25.2956H93.4863V14.9724H96.6034V12.2889H93.4863V10.7098C93.4863 9.41823 93.8829 8.57397 95.5204 8.57397H96.6595V5.83571C96.1097 5.74301 95.5526 5.70023 94.9951 5.70791C92.1692 5.70791 90.2945 7.18199 90.2945 10.7098V12.2889H88.4192H88.4165ZM102.574 25.6105C104.74 25.6105 106.483 24.6612 107.275 23.0548L107.513 25.2956H109.044V17.0534C109.044 13.6854 106.879 12.2113 103.92 12.2113C100.777 12.2113 98.6639 13.868 98.6639 16.4465H100.328C100.328 14.7351 101.649 13.7356 103.868 13.7356C105.743 13.7356 107.248 14.5252 107.248 17.0261V17.4505L103.022 17.7928C100.038 18.0301 98.2413 19.5042 98.2413 21.8454C98.2422 24.0816 99.8542 25.6105 102.574 25.6105ZM102.997 24.1364C101.253 24.1364 100.091 23.3469 100.091 21.7906C100.091 20.3713 101.069 19.3171 103.472 19.1071L107.249 18.8196V19.5042C107.247 22.2653 105.691 24.1364 102.997 24.1364ZM119.373 12.3939C118.985 12.301 118.586 12.2565 118.187 12.2615C116.389 12.2615 115.042 13.156 114.54 14.5251L114.408 12.5536H112.692V25.2956H114.513V18.0301C114.513 15.6067 116.019 14.0277 118.369 14.0277H119.373V12.3939ZM126.662 25.6105C129.674 25.6105 131.654 24.1638 132.344 21.4758H130.6C130.126 23.1598 128.775 24.0588 126.689 24.0588C123.942 24.0588 122.303 22.2653 122.171 19.1619H132.344V18.2629C132.344 14.6575 129.993 12.2113 126.529 12.2113C122.887 12.2113 120.405 14.9495 120.405 18.9246C120.405 22.927 122.91 25.6105 126.662 25.6105ZM126.529 13.763C128.934 13.763 130.518 15.3968 130.518 17.843H122.226C122.541 15.342 124.129 13.763 126.529 13.763ZM141.932 12.3939C141.542 12.301 141.142 12.2565 140.741 12.2615C138.947 12.2615 137.601 13.156 137.099 14.5251L136.967 12.5536H135.246V25.2956H137.072V18.0301C137.072 15.6067 138.578 14.0277 140.928 14.0277H141.932V12.3939Z" fill="#4C4B4B"/>
</g>
<defs>
<clipPath id="clip0_1456_278">
<rect width="142" height="34" fill="white"/>
</clipPath>
</defs>
</svg>
