<svg width="118" height="34" viewBox="0 0 118 34" fill="none" xmlns="http://www.w3.org/2000/svg">
<path d="M21.1367 8.34489C21.1367 5.28489 23.6404 2.78125 26.7004 2.78125C29.7604 2.78125 32.264 5.28489 32.264 8.34489C32.264 11.4049 29.7604 13.9085 26.7004 13.9085C23.6404 13.9085 21.1367 11.4049 21.1367 8.34489Z" fill="#4C4B4B"/>
<path d="M27.0404 16.3804V20.3986C27.0404 22.1604 27.0404 23.4276 26.9476 24.4167C26.8549 25.3748 26.7004 25.9622 26.484 26.4258C26.0204 27.3222 25.2786 28.064 24.3822 28.5277C23.9186 28.7749 23.3313 28.9295 22.3731 28.9913C21.384 29.084 20.1476 29.084 18.3549 29.084H14.6458C12.884 29.084 11.6167 29.084 10.6276 28.9913C9.66946 28.8986 9.0822 28.744 8.61856 28.5277C7.7222 28.064 6.98037 27.3222 6.51674 26.4258C6.26946 25.9622 6.11492 25.3748 6.0531 24.4167C5.96037 23.4276 5.96037 22.1913 5.96037 20.3986V16.6895C5.96037 14.9277 5.96037 13.6603 6.0531 12.6712C6.14583 11.713 6.30037 11.1257 6.51674 10.6621C6.98037 9.7658 7.7222 9.02398 8.61856 8.56034C9.0822 8.31307 9.66946 8.15853 10.6276 8.09671C11.6167 8.00398 12.8531 8.00398 14.6458 8.00398H18.664C18.6949 7.13853 18.8804 6.30398 19.1586 5.53125H14.6149C12.9149 5.53125 11.5549 5.53125 10.4422 5.62398C9.32946 5.71671 8.37128 5.90216 7.50583 6.3658C6.14583 7.07671 5.06401 8.15853 4.3531 9.51853C3.88946 10.384 3.70401 11.3422 3.61128 12.4549C3.51855 13.5368 3.51855 14.8968 3.51855 16.6277V20.4295C3.51855 22.1295 3.51855 23.4894 3.61128 24.6021C3.70401 25.7148 3.88946 26.6731 4.3531 27.5386C5.06401 28.8986 6.14583 29.9803 7.50583 30.6912C8.37128 31.1548 9.32946 31.3404 10.4422 31.4331C11.524 31.5258 12.884 31.5258 14.6149 31.5258H18.4167C20.1167 31.5258 21.4767 31.5258 22.5895 31.4331C23.7022 31.3404 24.6604 31.1548 25.5258 30.6912C26.8858 29.9803 27.9676 28.8986 28.6786 27.5386C29.1422 26.6731 29.3276 25.7148 29.4204 24.6021C29.5131 23.5203 29.5131 22.1604 29.5131 20.4295V15.8857C28.7404 16.1639 27.9058 16.3495 27.0404 16.3804Z" fill="#4C4B4B"/>
<path d="M48.1822 16.1664C48.1822 16.9391 47.9967 17.65 47.6258 18.2991C47.2858 18.9482 46.6985 19.5046 45.9258 19.9064C45.1531 20.3082 44.1949 20.5246 43.0513 20.5246H40.6713V25.9646H37.8276V11.7773H43.0513C44.164 11.7773 45.0913 11.9627 45.864 12.3337C46.6367 12.7046 47.224 13.23 47.5949 13.91C47.9658 14.5591 48.1822 15.3318 48.1822 16.1664ZM42.9276 18.2064C43.7004 18.2064 44.2876 18.0209 44.6895 17.6809C45.0604 17.31 45.2458 16.8155 45.2458 16.1664C45.2458 14.7755 44.4731 14.0955 42.9276 14.0955H40.6713V18.2373H42.9276V18.2064Z" fill="#4C4B4B"/>
<path d="M52.2313 16.444C52.6022 15.8568 53.0659 15.3931 53.6532 15.0531C54.2404 14.7131 54.9204 14.5586 55.6932 14.5586V17.5568H54.9513C54.055 17.5568 53.375 17.7731 52.9113 18.175C52.4786 18.6077 52.2313 19.3186 52.2313 20.3695V25.964H49.3877V14.7131H52.2313V16.444Z" fill="#4C4B4B"/>
<path d="M61.7821 26.1488C60.7003 26.1488 59.7112 25.9015 58.8458 25.4379C57.9803 24.9434 57.3003 24.2634 56.8058 23.3979C56.3112 22.5015 56.064 21.5125 56.064 20.3379C56.064 19.1634 56.3112 18.1743 56.8058 17.2779C57.3312 16.3815 58.0112 15.7325 58.9076 15.2379C59.804 14.7434 60.7621 14.4961 61.844 14.4961C62.9258 14.4961 63.9149 14.7434 64.7803 15.2379C65.6458 15.7015 66.3567 16.3815 66.8512 17.2779C67.3767 18.1743 67.624 19.1634 67.624 20.3379C67.624 21.5125 67.3458 22.5015 66.8203 23.3979C66.2949 24.2943 65.6149 24.9743 64.7185 25.4379C63.884 25.9015 62.8949 26.1488 61.7821 26.1488ZM61.7821 23.6761C62.3076 23.6761 62.7712 23.5525 63.2349 23.3052C63.6985 23.0579 64.0694 22.6561 64.3476 22.1615C64.6258 21.667 64.7494 21.0488 64.7494 20.3379C64.7494 19.2561 64.4712 18.4525 63.884 17.8652C63.3276 17.2779 62.6476 16.9997 61.844 16.9997C61.0403 16.9997 60.3603 17.2779 59.804 17.8652C59.2476 18.4215 59.0003 19.2561 59.0003 20.3379C59.0003 21.4197 59.2785 22.2234 59.804 22.8106C60.2985 23.367 60.9785 23.6761 61.7821 23.6761Z" fill="#4C4B4B"/>
<path d="M68.2109 20.2757C68.2109 19.132 68.4273 18.112 68.8909 17.2466C69.3546 16.3502 69.9728 15.7011 70.7764 15.2066C71.5491 14.7429 72.4455 14.4957 73.4037 14.4957C74.1455 14.4957 74.8255 14.6502 75.5055 14.9902C76.1546 15.2993 76.7109 15.732 77.0818 16.2575V10.9102H79.9564V25.9629H77.0818V24.2938C76.7418 24.8502 76.2473 25.2829 75.5982 25.6229C74.9491 25.9629 74.2073 26.1175 73.3728 26.1175C72.4146 26.1175 71.5491 25.8702 70.7764 25.3757C70.0037 24.8811 69.3546 24.2011 68.8909 23.3357C68.4273 22.4702 68.2109 21.4502 68.2109 20.2757ZM77.0818 20.3375C77.0818 19.6575 76.9582 19.0702 76.68 18.5757C76.4018 18.0811 76.0309 17.6793 75.5673 17.432C75.1037 17.1538 74.6091 17.0302 74.0837 17.0302C73.5582 17.0302 73.0637 17.1538 72.6309 17.4011C72.1982 17.6484 71.8273 18.0502 71.5182 18.5448C71.24 19.0393 71.1164 19.6266 71.1164 20.3066C71.1164 20.9866 71.24 21.5738 71.5182 22.0993C71.7964 22.5938 72.1673 22.9957 72.6309 23.2429C73.0946 23.5211 73.5891 23.6448 74.0837 23.6448C74.6091 23.6448 75.1037 23.5211 75.5673 23.2429C76.0309 22.9648 76.4018 22.5938 76.68 22.0993C76.9273 21.6048 77.0818 21.0175 77.0818 20.3375Z" fill="#4C4B4B"/>
<path d="M92.5366 14.7148V25.9657H89.6621V24.5439C89.2912 25.0384 88.8275 25.4093 88.2094 25.7184C87.6221 25.9966 87.0039 26.1202 86.293 26.1202C85.3966 26.1202 84.6239 25.9348 83.9439 25.5639C83.2639 25.193 82.7385 24.6366 82.3366 23.9257C81.9657 23.1839 81.7803 22.3184 81.7803 21.3293V14.7148H84.6239V20.9275C84.6239 21.8239 84.8403 22.5039 85.3039 22.9984C85.7366 23.4621 86.3548 23.7093 87.1275 23.7093C87.9003 23.7093 88.5185 23.4621 88.9821 22.9984C89.4148 22.5039 89.6621 21.8239 89.6621 20.9275V14.7148H92.5366Z" fill="#4C4B4B"/>
<path d="M93.8037 20.3379C93.8037 19.1634 94.051 18.1434 94.5146 17.2779C94.9783 16.3815 95.6583 15.7325 96.4928 15.2379C97.3273 14.7434 98.2855 14.4961 99.3673 14.4961C100.758 14.4961 101.902 14.8361 102.829 15.547C103.756 16.227 104.375 17.2161 104.684 18.4834H101.624C101.469 17.9888 101.191 17.6179 100.789 17.3397C100.418 17.0615 99.9237 16.907 99.3673 16.907C98.5637 16.907 97.9146 17.2161 97.4201 17.8034C96.9564 18.3906 96.7092 19.2252 96.7092 20.307C96.7092 21.3888 96.9564 22.2234 97.4201 22.8106C97.8837 23.3979 98.5328 23.6761 99.3673 23.6761C100.511 23.6761 101.284 23.1506 101.624 22.1306H104.684C104.375 23.3361 103.756 24.3252 102.829 25.0361C101.902 25.747 100.758 26.1179 99.3673 26.1179C98.2855 26.1179 97.3273 25.8706 96.4928 25.407C95.6583 24.9125 95.0092 24.2325 94.5146 23.367C94.051 22.5325 93.8037 21.4815 93.8037 20.3379Z" fill="#4C4B4B"/>
<path d="M109.258 17.0332V22.4732C109.258 22.8441 109.351 23.1223 109.537 23.3077C109.722 23.4623 110.031 23.555 110.464 23.555H111.793V25.9659H110C107.589 25.9659 106.415 24.7914 106.415 22.4732V17.0332H105.055V14.6841H106.384V11.9023H109.258V14.6841H111.793V17.0332H109.258Z" fill="#4C4B4B"/>
<path d="M114.296 26.1194C113.771 26.1194 113.369 25.9648 113.029 25.6557C112.689 25.3157 112.535 24.9448 112.535 24.4503C112.535 23.9867 112.689 23.5848 113.029 23.2757C113.369 22.9357 113.802 22.7812 114.296 22.7812C114.791 22.7812 115.224 22.9357 115.533 23.2757C115.873 23.5848 116.027 23.9867 116.027 24.4503C116.027 24.9139 115.873 25.3157 115.533 25.6557C115.193 25.9648 114.791 26.1194 114.296 26.1194Z" fill="#4C4B4B"/>
</svg>
