<svg width="166" height="35" viewBox="0 0 166 35" fill="none" xmlns="http://www.w3.org/2000/svg">
<path d="M29.5068 23.2947C35.4929 19.9196 43.103 22.0211 46.5418 27.9754L41.3517 30.9684C35.3337 34.4391 27.6282 32.3058 24.2212 26.2559L29.5068 23.2947Z" fill="#4C4B4B"/>
<path d="M27.3098 20.9379C30.7486 15.0154 38.3268 12.9776 44.2493 16.3846L41.1607 21.7657C37.7218 27.6882 30.1436 29.726 24.2212 26.319L27.3098 20.9379Z" fill="#4C4B4B" fill-opacity="0.8"/>
<path d="M23.9663 20.3667C23.9663 13.1706 29.7932 7.34375 36.9893 7.34375V13.4254C36.9893 20.6214 31.1624 26.4485 23.9663 26.4485V20.3667Z" fill="#4C4B4B" fill-opacity="0.8"/>
<path d="M20.8778 20.5879C17.439 14.6655 19.4768 7.08728 25.4311 3.64844L28.5197 9.02959C31.9586 14.952 29.9207 22.5621 23.9664 25.9691L20.8778 20.5879Z" fill="#4C4B4B" fill-opacity="0.8"/>
<path d="M23.9665 19.4758C23.9665 12.7573 18.5217 7.3125 11.8032 7.3125V14.2538C11.8032 20.9723 17.2481 26.4171 23.9665 26.4171V19.4758Z" fill="#4C4B4B" fill-opacity="0.8"/>
<path d="M21.3238 20.9394C17.9168 14.9851 10.3067 12.9473 4.38428 16.3861L7.47287 21.7673C10.9117 27.6897 18.4899 29.7276 24.4123 26.3206L21.3238 20.9394Z" fill="#4C4B4B" fill-opacity="0.8"/>
<path d="M19.1267 23.2948C13.1406 19.9196 5.56238 21.9893 2.12354 27.9436L7.31364 30.9367C13.2998 34.4392 21.0053 32.3058 24.4442 26.256L19.1267 23.2948Z" fill="#4C4B4B"/>
<path d="M68.6392 11.9883V25.4571H65.9328V16.7008L62.3348 25.4571H60.2968L56.667 16.7008V25.4571H53.9604V11.9883H57.0173L61.3158 22.0183L65.6144 11.9883H68.6392Z" fill="#4C4B4B"/>
<path d="M71.919 13.4888C71.4414 13.4888 71.0593 13.3296 70.7091 13.043C70.3907 12.7246 70.2314 12.3425 70.2314 11.8967C70.2314 11.451 70.3907 11.0689 70.7091 10.7823C71.0275 10.4639 71.4414 10.3047 71.919 10.3047C72.3966 10.3047 72.7787 10.4639 73.0971 10.7823C73.4156 11.0689 73.5748 11.451 73.5748 11.8967C73.5748 12.3425 73.4156 12.7246 73.0971 13.043C72.7787 13.3614 72.3966 13.4888 71.919 13.4888ZM73.2564 14.7624V25.4611H70.5499V14.7624H73.2564Z" fill="#4C4B4B"/>
<path d="M81.0895 14.6367C82.3632 14.6367 83.3821 15.0506 84.1781 15.8466C84.9742 16.6427 85.3563 17.7571 85.3563 19.1899V25.4626H82.6498V19.572C82.6498 18.7123 82.4269 18.0755 82.0129 17.6297C81.599 17.1521 80.994 16.9292 80.2617 16.9292C79.5293 16.9292 78.9243 17.1521 78.4786 17.6297C78.0646 18.0755 77.8417 18.7442 77.8417 19.572V25.4626H75.1353V14.764H77.8417V16.1014C78.192 15.6237 78.6696 15.2735 79.2109 15.0188C79.7841 14.764 80.4209 14.6367 81.0895 14.6367Z" fill="#4C4B4B"/>
<path d="M86.4385 20.079C86.4385 18.9964 86.6614 18.0412 87.0753 17.2133C87.5211 16.3854 88.0942 15.7486 88.8584 15.271C89.5907 14.8252 90.4505 14.6023 91.342 14.6023C92.0425 14.6023 92.7112 14.7615 93.3162 15.0799C93.953 15.3665 94.4624 15.7804 94.8127 16.2899V11.1953H97.551V25.4601H94.8127V23.8681C94.4624 24.4094 94.0167 24.8233 93.4117 25.1417C92.8067 25.4601 92.1062 25.6193 91.3102 25.6193C90.4186 25.6193 89.5907 25.3965 88.8266 24.9188C88.0942 24.4412 87.4892 23.8044 87.0435 22.9765C86.6614 22.1487 86.4385 21.1616 86.4385 20.079ZM94.8445 20.1108C94.8445 19.4422 94.7172 18.9009 94.4624 18.4232C94.2077 17.9456 93.8575 17.5954 93.4117 17.3406C92.9659 17.0859 92.5201 16.9586 92.0107 16.9586C91.5012 16.9586 91.0554 17.0859 90.6097 17.3406C90.1957 17.5954 89.8455 17.9456 89.5589 18.4232C89.3042 18.9009 89.1768 19.4422 89.1768 20.079C89.1768 20.7158 89.3042 21.2889 89.5589 21.7666C89.8136 22.2442 90.1639 22.5944 90.6097 22.881C91.0554 23.1357 91.5012 23.2631 92.0107 23.2631C92.5201 23.2631 92.9659 23.1357 93.4117 22.881C93.8575 22.6263 94.2077 22.276 94.4624 21.7984C94.7172 21.3526 94.8445 20.7795 94.8445 20.1108Z" fill="#4C4B4B"/>
<path d="M104.333 16.9908H102.455V25.4605H99.7163V16.9908H98.5063V14.7619H99.7163V14.2206C99.7163 12.9151 100.098 11.928 100.831 11.323C101.563 10.7181 102.709 10.4315 104.206 10.4633V12.7559C103.537 12.7559 103.091 12.8514 102.837 13.0743C102.582 13.2972 102.455 13.7111 102.455 14.3161V14.7619H104.333V16.9908Z" fill="#4C4B4B"/>
<path d="M115.414 14.7617V25.4603H112.707V24.123C112.357 24.6006 111.911 24.9509 111.338 25.2374C110.797 25.4922 110.192 25.6195 109.523 25.6195C108.695 25.6195 107.963 25.4603 107.294 25.1101C106.657 24.7598 106.148 24.2185 105.766 23.5499C105.416 22.8494 105.225 22.0215 105.225 21.0663V14.7617H107.931V20.6523C107.931 21.512 108.154 22.1489 108.568 22.6265C108.982 23.0723 109.587 23.2951 110.319 23.2951C111.052 23.2951 111.657 23.0723 112.07 22.6265C112.484 22.1489 112.707 21.512 112.707 20.6523V14.7617H115.414Z" fill="#4C4B4B"/>
<path d="M119.999 11.1953V25.4601H117.293V11.1953H119.999Z" fill="#4C4B4B"/>
<path d="M127.832 14.6367C129.106 14.6367 130.125 15.0506 130.921 15.8466C131.717 16.6427 132.099 17.7571 132.099 19.1899V25.4626H129.392V19.572C129.392 18.7123 129.17 18.0755 128.756 17.6297C128.342 17.1521 127.737 16.9292 127.004 16.9292C126.272 16.9292 125.667 17.1521 125.221 17.6297C124.807 18.0755 124.584 18.7442 124.584 19.572V25.4626H121.878V14.764H124.584V16.1014C124.935 15.6237 125.412 15.2735 125.954 15.0188C126.559 14.764 127.164 14.6367 127.832 14.6367Z" fill="#4C4B4B"/>
<path d="M143.816 19.8872C143.816 20.2693 143.785 20.6195 143.753 20.9379H135.952C136.015 21.7021 136.302 22.3071 136.748 22.7529C137.225 23.1987 137.798 23.4216 138.499 23.4216C139.518 23.4216 140.218 22.9758 140.632 22.1161H143.562C143.243 23.135 142.67 23.9947 141.779 24.6634C140.919 25.332 139.836 25.6504 138.563 25.6504C137.544 25.6504 136.62 25.4275 135.793 24.9818C134.996 24.5042 134.36 23.8673 133.882 23.0395C133.436 22.2116 133.213 21.2245 133.213 20.1419C133.213 19.0275 133.436 18.0722 133.882 17.2125C134.328 16.3847 134.965 15.7478 135.761 15.2702C136.557 14.8244 137.512 14.6016 138.563 14.6016C139.582 14.6016 140.473 14.8244 141.269 15.2702C142.065 15.716 142.702 16.321 143.148 17.1489C143.594 17.913 143.816 18.8364 143.816 19.8872ZM141.046 19.123C141.046 18.4225 140.792 17.8812 140.282 17.4673C139.804 17.0533 139.2 16.8304 138.499 16.8304C137.83 16.8304 137.257 17.0215 136.811 17.4354C136.366 17.8494 136.079 18.3907 135.984 19.123H141.046Z" fill="#4C4B4B"/>
<path d="M149.134 25.6504C148.274 25.6504 147.478 25.4912 146.778 25.1728C146.077 24.8544 145.536 24.4086 145.122 23.8673C144.708 23.326 144.517 22.721 144.453 22.0842H147.16C147.223 22.4982 147.414 22.8484 147.765 23.1031C148.115 23.3579 148.561 23.5171 149.102 23.5171C149.611 23.5171 150.025 23.4216 150.312 23.1987C150.598 23.0076 150.758 22.721 150.758 22.4026C150.758 22.0524 150.567 21.7977 150.216 21.6384C149.866 21.4474 149.325 21.2564 148.529 21.0653C147.733 20.8743 147.064 20.6832 146.555 20.4603C146.045 20.2693 145.599 19.9509 145.249 19.5051C144.899 19.0912 144.708 18.518 144.708 17.7857C144.708 17.1807 144.867 16.6394 145.217 16.1618C145.568 15.6842 146.045 15.3021 146.682 15.0155C147.319 14.7289 148.083 14.6016 148.943 14.6016C150.216 14.6016 151.235 14.92 151.999 15.5568C152.764 16.1936 153.178 17.0533 153.241 18.1359H150.662C150.63 17.722 150.439 17.3717 150.121 17.117C149.802 16.8623 149.388 16.7349 148.879 16.7349C148.401 16.7349 148.019 16.8304 147.733 16.9896C147.478 17.1807 147.351 17.4354 147.351 17.7538C147.351 18.1041 147.542 18.3907 147.892 18.5817C148.242 18.7727 148.815 18.9638 149.58 19.1548C150.344 19.3459 150.981 19.5369 151.49 19.7598C151.999 19.9509 152.413 20.3011 152.796 20.7151C153.178 21.129 153.369 21.7021 153.369 22.4026C153.369 23.0076 153.209 23.5808 152.859 24.0584C152.509 24.536 152.031 24.9181 151.394 25.2047C150.694 25.4912 149.962 25.6504 149.134 25.6504Z" fill="#4C4B4B"/>
<path d="M158.877 25.6504C158.018 25.6504 157.222 25.4912 156.521 25.1728C155.821 24.8544 155.279 24.4086 154.865 23.8673C154.452 23.326 154.26 22.721 154.197 22.0842H156.903C156.967 22.4982 157.158 22.8484 157.508 23.1031C157.859 23.3579 158.304 23.5171 158.846 23.5171C159.355 23.5171 159.769 23.4216 160.056 23.1987C160.342 23.0076 160.501 22.721 160.501 22.4026C160.501 22.0524 160.31 21.7977 159.96 21.6384C159.61 21.4474 159.068 21.2564 158.272 21.0653C157.476 20.8743 156.808 20.6832 156.298 20.4603C155.789 20.2693 155.343 19.9509 154.993 19.5051C154.643 19.0912 154.452 18.518 154.452 17.7857C154.452 17.1807 154.611 16.6394 154.961 16.1618C155.311 15.6842 155.789 15.3021 156.426 15.0155C157.062 14.7289 157.827 14.6016 158.686 14.6016C159.96 14.6016 160.979 14.92 161.743 15.5568C162.507 16.1936 162.921 17.0533 162.985 18.1359H160.374C160.342 17.722 160.151 17.3717 159.833 17.117C159.514 16.8623 159.1 16.7349 158.591 16.7349C158.113 16.7349 157.731 16.8304 157.445 16.9896C157.19 17.1807 157.062 17.4354 157.062 17.7538C157.062 18.1041 157.254 18.3907 157.604 18.5817C157.954 18.7727 158.527 18.9638 159.291 19.1548C160.056 19.3459 160.692 19.5369 161.202 19.7598C161.711 19.9509 162.125 20.3011 162.507 20.7151C162.889 21.129 163.08 21.7021 163.08 22.4026C163.08 23.0076 162.921 23.5808 162.571 24.0584C162.221 24.536 161.743 24.9181 161.106 25.2047C160.438 25.4912 159.705 25.6504 158.877 25.6504Z" fill="#4C4B4B"/>
</svg>
