<svg width="137" height="34" viewBox="0 0 137 34" fill="none" xmlns="http://www.w3.org/2000/svg">
<path d="M22.0742 17.0222C23.1914 16.0867 23.9018 14.6815 23.9018 13.1104C23.9018 11.5393 23.1914 10.1341 22.0742 9.19859C22.2023 9.13658 22.3255 9.0693 22.4428 8.99637C23.1839 8.53562 24.0585 8.26953 24.9953 8.26953C27.6688 8.26953 29.8361 10.4369 29.8361 13.1104C29.8361 15.7839 27.6688 17.9512 24.9953 17.9512C24.0585 17.9512 23.1839 17.6851 22.4428 17.2244C22.3255 17.1515 22.2023 17.0842 22.0742 17.0222Z" fill="#4C4B4B"/>
<path d="M20.7283 13.8696C21.228 12.5008 21.1407 10.9287 20.3551 9.56807C19.5695 8.20747 18.2517 7.34576 16.8164 7.09415C16.8963 6.97647 16.9693 6.85658 17.0345 6.73474C17.4459 5.96522 18.0703 5.29745 18.8815 4.82906C21.1969 3.49228 24.1576 4.28558 25.4944 6.60094C26.8311 8.9163 26.0378 11.8769 23.7224 13.2137C22.9112 13.6821 22.0206 13.8889 21.1485 13.8605C21.0105 13.8559 20.8701 13.8593 20.7283 13.8696Z" fill="#4C4B4B"/>
<path d="M17.9903 11.8155C17.7387 10.3803 16.877 9.06245 15.5164 8.27691C14.1558 7.49135 12.5836 7.40403 11.2148 7.90374C11.2252 7.76189 11.2285 7.62154 11.224 7.48346C11.1955 6.61133 11.4024 5.72082 11.8708 4.90953C13.2076 2.59417 16.1682 1.80087 18.4836 3.13764C20.7989 4.47442 21.5923 7.43506 20.2554 9.75041C19.787 10.5616 19.1193 11.1861 18.3497 11.5975C18.228 11.6626 18.1081 11.7356 17.9903 11.8155Z" fill="#4C4B4B"/>
<path d="M14.5887 11.4065C13.6532 10.2894 12.248 9.5789 10.6768 9.5789C9.10566 9.5789 7.70052 10.2894 6.76499 11.4065C6.70302 11.2785 6.63572 11.1553 6.56277 11.0379C6.10203 10.2969 5.83594 9.42223 5.83594 8.48542C5.83594 5.81187 8.00328 3.64453 10.6768 3.64453C13.3504 3.64453 15.5177 5.81187 15.5177 8.48542C15.5177 9.42223 15.2516 10.2969 14.7909 11.0379C14.7179 11.1553 14.6506 11.2785 14.5887 11.4065Z" fill="#4C4B4B"/>
<path d="M11.44 12.7514C10.0712 12.2517 8.49906 12.3391 7.13842 13.1245C5.77779 13.9101 4.91608 15.228 4.66448 16.6632C4.54679 16.5833 4.4269 16.5103 4.30505 16.4452C3.53553 16.0338 2.86776 15.4093 2.39937 14.5981C1.06259 12.2827 1.85589 9.3221 4.17125 7.98531C6.48662 6.64852 9.44725 7.44183 10.7841 9.75721C11.2525 10.5685 11.4593 11.459 11.4308 12.3311C11.4263 12.4692 11.4296 12.6095 11.44 12.7514Z" fill="#4C4B4B"/>
<path d="M9.38205 15.4887C7.94677 15.7403 6.62892 16.602 5.84336 17.9626C5.0578 19.3233 4.97047 20.8954 5.4702 22.2642C5.32833 22.2538 5.18795 22.2505 5.04986 22.255C4.17774 22.2835 3.28723 22.0766 2.47594 21.6083C0.160579 20.2714 -0.632723 17.3108 0.704052 14.9954C2.04082 12.6801 5.00146 11.8868 7.31683 13.2236C8.12811 13.692 8.75252 14.3597 9.16391 15.1292C9.22905 15.2511 9.30215 15.371 9.38205 15.4887Z" fill="#4C4B4B"/>
<path d="M8.96897 18.89C7.8518 19.8256 7.14136 21.2308 7.14136 22.8018C7.14136 24.373 7.8518 25.7782 8.96897 26.7137C8.84094 26.7756 8.71772 26.843 8.60038 26.9159C7.85935 27.3766 6.98471 27.6427 6.04792 27.6427C3.37437 27.6427 1.20703 25.4754 1.20703 22.8018C1.20703 20.1283 3.37437 17.9609 6.04792 17.9609C6.98471 17.9609 7.85935 18.227 8.60038 18.6878C8.71772 18.7607 8.84094 18.828 8.96897 18.89Z" fill="#4C4B4B"/>
<path d="M10.314 22.0391C9.81415 23.4078 9.90148 24.98 10.6871 26.3406C11.4726 27.7013 12.7905 28.5629 14.2257 28.8145C14.1458 28.9323 14.0728 29.0522 14.0077 29.174C13.5963 29.9435 12.9719 30.6113 12.1606 31.0797C9.8452 32.4165 6.88458 31.6231 5.54781 29.3078C4.21102 26.9924 5.00433 24.0318 7.31969 22.695C8.13098 22.2266 9.0215 22.0197 9.8936 22.0483C10.0317 22.0527 10.172 22.0494 10.314 22.0391Z" fill="#4C4B4B"/>
<path d="M13.0551 24.0977C13.3067 25.533 14.1684 26.8509 15.529 27.6363C16.8896 28.4219 18.4619 28.5092 19.8306 28.0095C19.8203 28.1514 19.8169 28.2917 19.8214 28.4299C19.85 29.302 19.6431 30.1925 19.1747 31.0038C17.8379 33.3192 14.8773 34.1124 12.5619 32.7756C10.2465 31.4389 9.45321 28.4783 10.79 26.1629C11.2584 25.3516 11.9262 24.7272 12.6956 24.3158C12.8175 24.2507 12.9374 24.1776 13.0551 24.0977Z" fill="#4C4B4B"/>
<path d="M16.4563 24.5078C17.3919 25.625 18.7971 26.3354 20.3682 26.3354C21.9394 26.3354 23.3446 25.625 24.2801 24.5078C24.342 24.6359 24.4093 24.7591 24.4823 24.8764C24.943 25.6174 25.2091 26.4921 25.2091 27.4289C25.2091 30.1025 23.0418 32.2698 20.3682 32.2698C17.6947 32.2698 15.5273 30.1025 15.5273 27.4289C15.5273 26.4921 15.7934 25.6174 16.2541 24.8764C16.3271 24.7591 16.3944 24.6359 16.4563 24.5078Z" fill="#4C4B4B"/>
<path d="M19.6055 23.1657C20.9742 23.6654 22.5464 23.5781 23.907 22.7926C25.2676 22.007 26.1294 20.6892 26.381 19.2539C26.4986 19.3337 26.6185 19.4068 26.7404 19.472C27.5099 19.8834 28.1777 20.5078 28.6461 21.3191C29.9829 23.6345 29.1895 26.5951 26.8742 27.9319C24.5588 29.2686 21.5982 28.4753 20.2614 26.1599C19.793 25.3487 19.5861 24.4582 19.6146 23.5861C19.6192 23.448 19.6158 23.3076 19.6055 23.1657Z" fill="#4C4B4B"/>
<path d="M25.2017 17.9446L25.1988 17.9496C24.4133 19.3102 23.0954 20.172 21.6602 20.4236C21.74 20.5413 21.8131 20.6612 21.8782 20.783C22.2896 21.5526 22.914 22.2202 23.7253 22.6886C26.0407 24.0254 29.0013 23.2322 30.3381 20.9169C31.4841 18.9318 31.0646 16.4725 29.4625 14.9688C28.7587 16.6578 27.1256 17.8626 25.2017 17.9446Z" fill="#4C4B4B"/>
<path d="M42.341 8.80478V23.2629H39.1367V8.80478H42.341ZM39.6447 23.2629L39.7033 20.4299H48.0069V23.2629H39.6447ZM48.5084 18.3588C48.5084 17.3299 48.7233 16.4311 49.1531 15.6626C49.583 14.8811 50.1886 14.2754 50.9702 13.8456C51.7516 13.4157 52.6634 13.2008 53.7055 13.2008C54.7475 13.2008 55.6527 13.4157 56.4212 13.8456C57.2027 14.2754 57.8084 14.8811 58.2382 15.6626C58.668 16.4311 58.8829 17.3299 58.8829 18.3588C58.8829 19.3878 58.668 20.2866 58.2382 21.0551C57.8084 21.8236 57.2027 22.4227 56.4212 22.8525C55.6527 23.2824 54.7475 23.4973 53.7055 23.4973C52.6634 23.4973 51.7516 23.2824 50.9702 22.8525C50.1886 22.4227 49.583 21.8236 49.1531 21.0551C48.7233 20.2866 48.5084 19.3878 48.5084 18.3588ZM51.5367 18.3393C51.5367 18.8343 51.6279 19.2706 51.8102 19.6484C51.9926 20.0131 52.2466 20.2996 52.5722 20.5081C52.8979 20.7034 53.2756 20.8011 53.7055 20.8011C54.1353 20.8011 54.513 20.7034 54.8386 20.5081C55.1642 20.2996 55.4117 20.0131 55.5811 19.6484C55.7634 19.2706 55.8546 18.8343 55.8546 18.3393C55.8546 17.8443 55.7634 17.4145 55.5811 17.0498C55.4117 16.6851 55.1642 16.4051 54.8386 16.2096C54.513 16.0013 54.1353 15.897 53.7055 15.897C53.2756 15.897 52.8979 16.0013 52.5722 16.2096C52.2466 16.4051 51.9926 16.6851 51.8102 17.0498C51.6279 17.4145 51.5367 17.8443 51.5367 18.3393ZM59.5624 18.2026C59.5624 17.1996 59.7642 16.3204 60.168 15.5649C60.5718 14.8095 61.1254 14.2233 61.8288 13.8065C62.5321 13.3766 63.3397 13.1617 64.2514 13.1617C65.0199 13.1617 65.6973 13.318 66.2834 13.6307C66.8826 13.9433 67.2863 14.3536 67.4948 14.8615L67.2017 15.057L67.4362 13.4939H70.1519V22.6376C70.1519 23.7839 69.9304 24.7738 69.4876 25.6074C69.0447 26.454 68.413 27.1053 67.5924 27.5612C66.7849 28.017 65.821 28.245 64.7008 28.245C63.763 28.245 62.9164 28.0561 62.1609 27.6784C61.4184 27.3137 60.8128 26.7927 60.3439 26.1154C59.888 25.4381 59.6145 24.6566 59.5233 23.7708H62.5712C62.5973 24.3309 62.8187 24.7607 63.2355 25.0604C63.6653 25.3599 64.2123 25.5097 64.8767 25.5097C65.6191 25.5097 66.1922 25.3013 66.596 24.8845C66.9998 24.4807 67.2017 23.9402 67.2017 23.2629V21.1918L67.4752 21.4458C67.2668 21.9539 66.863 22.3641 66.2639 22.6767C65.6647 22.9893 64.9744 23.1456 64.1928 23.1456C63.2941 23.1456 62.493 22.9373 61.7897 22.5204C61.0994 22.1036 60.5522 21.524 60.1485 20.7816C59.7577 20.0391 59.5624 19.1795 59.5624 18.2026ZM62.6102 18.1244C62.6102 18.5933 62.7079 19.0101 62.9033 19.3748C63.0988 19.7396 63.3592 20.0261 63.6849 20.2344C64.0105 20.4299 64.3687 20.5276 64.7595 20.5276C65.2283 20.5276 65.6386 20.4299 65.9904 20.2344C66.3551 20.0261 66.6351 19.7396 66.8304 19.3748C67.0388 19.0101 67.1431 18.5933 67.1431 18.1244C67.1431 17.6425 67.0388 17.2322 66.8304 16.8935C66.6221 16.5419 66.3355 16.2683 65.9708 16.0729C65.6191 15.8775 65.2088 15.7798 64.7399 15.7798C64.3492 15.7798 63.991 15.8775 63.6653 16.0729C63.3397 16.2683 63.0792 16.5419 62.8838 16.8935C62.7014 17.2452 62.6102 17.6555 62.6102 18.1244ZM71.2242 18.3588C71.2242 17.3299 71.4391 16.4311 71.869 15.6626C72.2988 14.8811 72.9044 14.2754 73.686 13.8456C74.4675 13.4157 75.3793 13.2008 76.4213 13.2008C77.4633 13.2008 78.3685 13.4157 79.1371 13.8456C79.9186 14.2754 80.5242 14.8811 80.954 15.6626C81.3839 16.4311 81.5988 17.3299 81.5988 18.3588C81.5988 19.3878 81.3839 20.2866 80.954 21.0551C80.5242 21.8236 79.9186 22.4227 79.1371 22.8525C78.3685 23.2824 77.4633 23.4973 76.4213 23.4973C75.3793 23.4973 74.4675 23.2824 73.686 22.8525C72.9044 22.4227 72.2988 21.8236 71.869 21.0551C71.4391 20.2866 71.2242 19.3878 71.2242 18.3588ZM74.2525 18.3393C74.2525 18.8343 74.3437 19.2706 74.5261 19.6484C74.7084 20.0131 74.9624 20.2996 75.2881 20.5081C75.6137 20.7034 75.9915 20.8011 76.4213 20.8011C76.8511 20.8011 77.2289 20.7034 77.5545 20.5081C77.8801 20.2996 78.1276 20.0131 78.2969 19.6484C78.4793 19.2706 78.5705 18.8343 78.5705 18.3393C78.5705 17.8443 78.4793 17.4145 78.2969 17.0498C78.1276 16.6851 77.8801 16.4051 77.5545 16.2096C77.2289 16.0013 76.8511 15.897 76.4213 15.897C75.9915 15.897 75.6137 16.0013 75.2881 16.2096C74.9624 16.4051 74.7084 16.6851 74.5261 17.0498C74.3437 17.4145 74.2525 17.8443 74.2525 18.3393ZM82.8644 23.2629V13.4939H85.8927V23.2629H82.8644ZM84.3883 11.9699C83.9064 11.9699 83.4961 11.8071 83.1574 11.4815C82.8318 11.1428 82.669 10.7325 82.669 10.2506C82.669 9.76867 82.8318 9.36487 83.1574 9.03919C83.4961 8.71359 83.9064 8.55078 84.3883 8.55078C84.8572 8.55078 85.2545 8.71359 85.5801 9.03919C85.9188 9.36487 86.0881 9.76867 86.0881 10.2506C86.0881 10.7325 85.9188 11.1428 85.5801 11.4815C85.2545 11.8071 84.8572 11.9699 84.3883 11.9699ZM87.8509 27.952V13.4939H90.6062L90.7619 14.6857C91.0357 14.2299 91.4723 13.8652 92.0709 13.5916C92.6703 13.318 93.3154 13.1813 94.0053 13.1813C94.917 13.1813 95.7116 13.3832 96.3889 13.787C97.0662 14.1908 97.6003 14.7704 97.9913 15.5259C98.3815 16.2683 98.5899 17.167 98.6168 18.2221C98.6427 19.251 98.4727 20.1694 98.1086 20.9769C97.7435 21.7714 97.2165 22.3967 96.5258 22.8525C95.835 23.3085 95.002 23.5364 94.025 23.5364C93.3477 23.5364 92.716 23.4192 92.1299 23.1847C91.5439 22.9502 91.1072 22.6507 90.8209 22.286V27.952H87.8509ZM90.8791 18.3784C90.8791 18.8603 90.9766 19.2901 91.1726 19.6679C91.381 20.0326 91.6611 20.3192 92.0127 20.5276C92.3769 20.723 92.7938 20.8206 93.2627 20.8206C93.7449 20.8206 94.1556 20.7164 94.4938 20.5081C94.8455 20.2996 95.113 20.0131 95.2946 19.6484C95.4906 19.2836 95.5881 18.8603 95.5881 18.3784C95.5881 17.8964 95.4906 17.4731 95.2946 17.1084C95.113 16.7437 94.8455 16.4571 94.4938 16.2487C94.1556 16.0404 93.7449 15.9361 93.2627 15.9361C92.7938 15.9361 92.3769 16.0404 92.0127 16.2487C91.6611 16.4442 91.381 16.7242 91.1726 17.0889C90.9766 17.4536 90.8791 17.8834 90.8791 18.3784ZM99.1321 20.1758H101.849C101.849 20.5145 101.959 20.7816 102.181 20.9769C102.415 21.1723 102.753 21.27 103.196 21.27C103.456 21.27 103.672 21.2374 103.841 21.1723C104.024 21.1072 104.161 21.016 104.251 20.8988C104.356 20.7685 104.408 20.6253 104.408 20.469C104.408 20.2996 104.349 20.1563 104.232 20.0391C104.127 19.9219 103.945 19.8307 103.685 19.7656L101.966 19.3162C101.001 19.0557 100.318 18.6714 99.9141 18.1635C99.5097 17.6555 99.3084 17.0758 99.3084 16.4246C99.3084 15.7733 99.4712 15.2067 99.7969 14.7248C100.135 14.2299 100.591 13.8521 101.164 13.5916C101.738 13.318 102.382 13.1813 103.099 13.1813C104.179 13.1813 105.065 13.4809 105.756 14.0801C106.459 14.6661 106.83 15.4672 106.87 16.4832H104.153C104.167 16.1445 104.069 15.8775 103.861 15.6821C103.652 15.4737 103.379 15.3696 103.04 15.3696C102.741 15.3696 102.493 15.4477 102.298 15.604C102.115 15.7472 102.024 15.9492 102.024 16.2096C102.024 16.4571 102.115 16.6395 102.298 16.7568C102.48 16.8609 102.727 16.9521 103.04 17.0303L104.779 17.4601C105.587 17.6555 106.199 17.9877 106.616 18.4565C107.033 18.9254 107.24 19.5246 107.24 20.254C107.24 21.2569 106.87 22.0515 106.127 22.6376C105.385 23.2238 104.421 23.5169 103.235 23.5169C102.011 23.5169 101.027 23.2108 100.285 22.5986C99.5553 21.9734 99.1715 21.1658 99.1321 20.1758ZM112.041 23.5169C110.895 23.5169 110.009 23.1586 109.384 22.4423C108.76 21.7259 108.446 20.788 108.446 19.6288V13.4939H111.455V18.5347C111.455 19.4464 111.618 20.0586 111.944 20.3712C112.27 20.6839 112.699 20.8402 113.233 20.8402C113.924 20.8402 114.399 20.6448 114.659 20.254C114.92 19.8633 115.05 19.3032 115.05 18.5737V13.4939H118.059V23.2629H115.227L115.031 22.1688C114.731 22.5725 114.308 22.8982 113.761 23.1456C113.214 23.3931 112.641 23.5169 112.041 23.5169ZM123.026 23.2629H119.997V13.4939H122.811L123.026 15.1742L122.694 14.8224C122.955 14.3275 123.346 13.9302 123.866 13.6307C124.4 13.318 124.973 13.1617 125.586 13.1617C126.55 13.1617 127.305 13.3766 127.852 13.8065C128.412 14.2363 128.816 14.8029 129.063 15.5063H128.594C128.751 14.8029 129.128 14.2363 129.728 13.8065C130.327 13.3766 131.043 13.1617 131.877 13.1617C133.14 13.1617 134.072 13.5004 134.671 14.1777C135.27 14.855 135.569 15.7538 135.569 16.874V23.2629H132.639V17.6164C132.639 17.0042 132.489 16.5483 132.189 16.2487C131.903 15.9492 131.519 15.7994 131.037 15.7994C130.75 15.7994 130.477 15.8645 130.216 15.9947C129.956 16.1119 129.74 16.3269 129.571 16.6395C129.402 16.9391 129.317 17.369 129.317 17.929V23.2629H126.347V17.6164C126.347 17.0042 126.204 16.5548 125.918 16.2683C125.631 15.9687 125.247 15.8189 124.765 15.8189C124.478 15.8189 124.198 15.8841 123.924 16.0143C123.664 16.1315 123.449 16.3465 123.28 16.6591C123.111 16.9586 123.026 17.3819 123.026 17.929V23.2629Z" fill="#4C4B4B"/>
</svg>
