<svg width="196" height="45" viewBox="0 0 196 45" fill="none" xmlns="http://www.w3.org/2000/svg">
<path d="M78.9483 35.7901C78.4182 35.3483 78.109 34.8624 78.109 34.3764L78.9483 35.7901ZM78.9483 35.7901C79.5226 36.276 80.3178 36.4969 81.3338 36.4969H83.5426H83.6752V36.3644V36.0552V35.9226H83.5426H82.4824L82.0848 35.8343C81.864 35.8343 81.5989 35.6576 81.3338 35.3042C81.113 34.9507 80.9804 34.4206 80.9804 33.758V22.3162C80.9804 21.0793 80.6712 20.1074 80.0527 19.3122C79.6552 18.8262 78.9925 18.4728 78.109 18.2078C77.2697 17.9427 76.1653 17.8102 74.7958 17.8102C73.4263 17.8102 72.1452 18.2961 70.9967 19.2238C70.069 19.9748 69.4063 20.77 68.9204 21.6094V18.1194V17.9869H68.7879H66.2257H66.0931V18.1194V36.3644V36.4969H66.2257H68.7879H68.9204V36.3644V23.3764C68.9204 22.4487 69.4947 21.3885 70.7316 20.1957C71.9685 18.9588 73.2938 18.3845 74.84 18.3845C75.591 18.3845 76.1653 18.517 76.6512 18.7379C77.5789 19.2238 78.0648 20.3724 78.0648 22.272V33.758L78.109 34.3764L78.9483 35.7901ZM63.7518 12.4648L63.8843 12.509L63.9285 12.3764L64.061 12.023L64.1052 11.8905L63.9727 11.8463C61.4546 11.007 59.025 10.6094 56.5953 10.6094C54.2098 10.6094 52.3544 11.1837 51.1175 12.3323C49.8805 13.4809 49.2621 14.9387 49.2621 16.7499C49.2621 19.0471 50.1898 20.8142 52.0893 22.0511C52.9287 22.6254 53.8564 23.1114 54.8282 23.5973C55.8443 24.0391 56.8162 24.4809 57.788 24.8785C58.7599 25.276 59.6876 25.7178 60.527 26.2038C62.3382 27.264 63.2217 28.766 63.2217 30.6214C63.2217 32.3443 62.559 33.6696 61.1896 34.5532C59.8201 35.4367 58.1856 35.8785 56.2419 35.8785C54.9166 35.8785 53.6355 35.7017 52.3544 35.3042C51.1175 34.9066 50.1014 34.3764 49.3062 33.758L49.1737 33.6696L49.0854 33.8021L48.9087 34.1114L48.8203 34.2439L48.9528 34.3323C51.1175 35.8343 53.6797 36.5853 56.7278 36.5853C58.3623 36.5853 59.776 36.4086 60.9687 36.011C62.2056 35.6134 63.2659 34.8624 64.1494 33.758C65.0329 32.6536 65.4747 31.3283 65.4747 29.7821C65.4747 28.2359 65.2096 26.9548 64.6795 25.9387C64.1494 24.9226 63.4867 24.1274 62.6032 23.5532C61.7639 22.9789 60.8362 22.4929 59.8201 22.0511C58.8041 21.6094 57.8322 21.2118 56.8162 20.8584C55.8443 20.505 54.9608 20.1074 54.1214 19.7098C52.3102 18.7379 51.4267 17.4126 51.4267 15.7339C51.4267 14.3202 51.9568 13.2158 53.017 12.4206C54.0773 11.6254 55.5792 11.2278 57.4788 11.2278C59.4667 11.1837 61.543 11.5813 63.7518 12.4648ZM84.5145 20.3283C82.8358 22.0511 81.9965 24.4367 81.9965 27.5291C81.9965 30.5772 82.7917 32.8744 84.4703 34.3764C86.1049 35.8785 88.2253 36.5853 90.8317 36.5853C93.4381 36.5853 95.6027 35.7459 97.2814 34.023C99.0042 32.3001 99.8436 29.9146 99.8436 26.8222C99.8436 23.774 99.0484 21.4768 97.3697 19.9748C95.7352 18.4728 93.6148 17.766 91.0084 17.766C88.402 17.766 86.2374 18.6495 84.5145 20.3283ZM86.5466 20.8142C87.7394 19.1797 89.2414 18.3845 91.0084 18.3845C92.8196 18.3845 94.2774 19.0913 95.3376 20.4608C96.442 21.8303 96.9721 23.9949 96.9721 26.9106C96.9721 29.8262 96.3537 32.0793 95.1609 33.6696C93.9682 35.26 92.4662 36.0552 90.6992 36.0552C88.8879 36.0552 87.4301 35.3483 86.3699 33.9789C85.2655 32.6094 84.7354 30.4889 84.7354 27.5732C84.7796 24.6576 85.398 22.4046 86.5466 20.8142ZM124.715 18.2078L124.626 18.2961L124.759 18.3845C125.112 18.6937 125.289 19.2238 125.289 19.8865C125.289 20.5933 125.156 21.1676 124.891 21.6536L119.767 32.7861L114.201 18.0311L114.157 17.9427H114.068H111.506H111.285L111.374 18.1636L112.699 21.7861L107.619 32.8303L102.141 18.0311L102.097 17.9427H102.008H99.446H99.2251L99.3135 18.1636L106.117 36.4086L106.161 36.4969H106.249H106.603H106.691L106.735 36.4086L113.008 22.6254L118.132 36.4086L118.177 36.4969H118.265H118.618H118.707L118.751 36.4086L125.377 21.7861C125.687 21.0793 125.819 20.4166 125.819 19.7098C125.819 19.5331 125.775 19.3564 125.731 19.1355C125.687 18.9146 125.598 18.6937 125.421 18.4287C125.333 18.2961 125.289 18.2078 125.201 18.1194C125.156 18.0311 125.068 17.9869 124.98 17.9427L124.891 17.8985L124.803 17.9869L124.715 18.2078Z" fill="#4C4B4B"/>
<path d="M78.9483 35.7901C78.4182 35.3483 78.109 34.8624 78.109 34.3764M78.9483 35.7901L78.109 34.3764M78.9483 35.7901C79.5226 36.276 80.3178 36.4969 81.3338 36.4969H83.5426H83.6752V36.3644V36.0552V35.9226H83.5426H82.4824L82.0848 35.8343C81.864 35.8343 81.5989 35.6576 81.3338 35.3042C81.113 34.9507 80.9804 34.4206 80.9804 33.758V22.3162C80.9804 21.0793 80.6712 20.1074 80.0527 19.3122C79.6552 18.8262 78.9925 18.4728 78.109 18.2078C77.2697 17.9427 76.1653 17.8102 74.7958 17.8102C73.4263 17.8102 72.1452 18.2961 70.9967 19.2238C70.069 19.9748 69.4063 20.77 68.9204 21.6094V18.1194V17.9869H68.7879H66.2257H66.0931V18.1194V36.3644V36.4969H66.2257H68.7879H68.9204V36.3644V23.3764C68.9204 22.4487 69.4947 21.3885 70.7316 20.1957C71.9685 18.9588 73.2938 18.3845 74.84 18.3845C75.591 18.3845 76.1653 18.517 76.6512 18.7379C77.5789 19.2238 78.0648 20.3724 78.0648 22.272V33.758L78.109 34.3764M63.7518 12.4648L63.8843 12.509L63.9285 12.3764L64.061 12.023L64.1052 11.8905L63.9727 11.8463C61.4546 11.007 59.025 10.6094 56.5953 10.6094C54.2098 10.6094 52.3544 11.1837 51.1175 12.3323C49.8805 13.4809 49.2621 14.9387 49.2621 16.7499C49.2621 19.0471 50.1898 20.8142 52.0893 22.0511C52.9287 22.6254 53.8564 23.1114 54.8282 23.5973C55.8443 24.0391 56.8162 24.4809 57.788 24.8785C58.7599 25.276 59.6876 25.7178 60.527 26.2038C62.3382 27.264 63.2217 28.766 63.2217 30.6214C63.2217 32.3443 62.559 33.6696 61.1896 34.5532C59.8201 35.4367 58.1856 35.8785 56.2419 35.8785C54.9166 35.8785 53.6355 35.7017 52.3544 35.3042C51.1175 34.9066 50.1014 34.3764 49.3062 33.758L49.1737 33.6696L49.0854 33.8021L48.9087 34.1114L48.8203 34.2439L48.9528 34.3323C51.1175 35.8343 53.6797 36.5853 56.7278 36.5853C58.3623 36.5853 59.776 36.4086 60.9687 36.011C62.2056 35.6134 63.2659 34.8624 64.1494 33.758C65.0329 32.6536 65.4747 31.3283 65.4747 29.7821C65.4747 28.2359 65.2096 26.9548 64.6795 25.9387C64.1494 24.9226 63.4867 24.1274 62.6032 23.5532C61.7639 22.9789 60.8362 22.4929 59.8201 22.0511C58.8041 21.6094 57.8322 21.2118 56.8162 20.8584C55.8443 20.505 54.9608 20.1074 54.1214 19.7098C52.3102 18.7379 51.4267 17.4126 51.4267 15.7339C51.4267 14.3202 51.9568 13.2158 53.017 12.4206C54.0773 11.6254 55.5792 11.2278 57.4788 11.2278C59.4667 11.1837 61.543 11.5813 63.7518 12.4648ZM84.5145 20.3283C82.8358 22.0511 81.9965 24.4367 81.9965 27.5291C81.9965 30.5772 82.7917 32.8744 84.4703 34.3764C86.1049 35.8785 88.2253 36.5853 90.8317 36.5853C93.4381 36.5853 95.6027 35.7459 97.2814 34.023C99.0042 32.3001 99.8436 29.9146 99.8436 26.8222C99.8436 23.774 99.0484 21.4768 97.3697 19.9748C95.7352 18.4728 93.6148 17.766 91.0084 17.766C88.402 17.766 86.2374 18.6495 84.5145 20.3283ZM86.5466 20.8142C87.7394 19.1797 89.2414 18.3845 91.0084 18.3845C92.8196 18.3845 94.2774 19.0913 95.3376 20.4608C96.442 21.8303 96.9721 23.9949 96.9721 26.9106C96.9721 29.8262 96.3537 32.0793 95.1609 33.6696C93.9682 35.26 92.4662 36.0552 90.6992 36.0552C88.8879 36.0552 87.4301 35.3483 86.3699 33.9789C85.2655 32.6094 84.7354 30.4889 84.7354 27.5732C84.7796 24.6576 85.398 22.4046 86.5466 20.8142ZM124.715 18.2078L124.626 18.2961L124.759 18.3845C125.112 18.6937 125.289 19.2238 125.289 19.8865C125.289 20.5933 125.156 21.1676 124.891 21.6536L119.767 32.7861L114.201 18.0311L114.157 17.9427H114.068H111.506H111.285L111.374 18.1636L112.699 21.7861L107.619 32.8303L102.141 18.0311L102.097 17.9427H102.008H99.446H99.2251L99.3135 18.1636L106.117 36.4086L106.161 36.4969H106.249H106.603H106.691L106.735 36.4086L113.008 22.6254L118.132 36.4086L118.177 36.4969H118.265H118.618H118.707L118.751 36.4086L125.377 21.7861C125.687 21.0793 125.819 20.4166 125.819 19.7098C125.819 19.5331 125.775 19.3564 125.731 19.1355C125.687 18.9146 125.598 18.6937 125.421 18.4287C125.333 18.2961 125.289 18.2078 125.201 18.1194C125.156 18.0311 125.068 17.9869 124.98 17.9427L124.891 17.8985L124.803 17.9869L124.715 18.2078Z" stroke="#4C4B4B" stroke-width="0.297881"/>
<path d="M131.562 11.0499C132.269 9.98965 133.373 9.19445 134.919 9.1061L134.61 34.0218C134.61 34.2427 134.699 34.5077 134.787 34.7286C135.405 35.9214 136.819 36.4957 138.984 36.4957H140.132H140.265V36.3631V36.0539V35.9214H140.132H139.028L138.63 35.833C138.409 35.833 138.144 35.6563 137.879 35.3029C137.658 34.9495 137.526 34.4194 137.526 33.7567V9.01776V8.88523H137.393L135.14 8.84105H135.008C132.49 8.88523 130.679 9.45953 129.486 10.6523C128.293 11.8009 127.719 13.7447 127.719 16.4394V17.9856H127.1H126.968V18.1182V18.6925V18.825H127.1H127.719V36.3631V36.4957H127.851H130.413H130.546V36.3631V18.825H133.285H133.417V18.6925V18.1182V17.9856H133.285H130.546V16.4394C130.502 13.8772 130.855 12.1101 131.562 11.0499ZM151 27.3953C150.514 27.3511 149.939 27.3511 149.365 27.3511C148.702 27.3511 147.996 27.3953 147.2 27.4394C145.61 27.5278 144.329 27.7045 143.313 28.0137C142.297 28.2788 141.502 28.6322 141.016 29.1182C140.53 29.5599 140.221 30.0017 140.132 30.3993C140.044 30.7969 140 31.1503 140 31.4595C140 31.7688 140.044 32.078 140.088 32.3431C140.309 33.7567 140.839 34.817 141.767 35.568C142.65 36.2748 143.931 36.6282 145.478 36.6282C146.803 36.6282 147.996 36.3631 148.967 35.7888C149.807 35.3029 150.514 34.6402 151.088 33.7567V33.9776C151.088 34.4194 151.397 34.9495 151.971 35.4796C152.634 36.1423 153.827 36.4515 155.461 36.4515H156.61H156.742V36.319V36.0097V35.8772H156.61H155.505L155.108 35.7888C154.887 35.7888 154.622 35.6121 154.357 35.2587C154.136 34.9053 154.003 34.3752 154.003 33.7125V21.5198C154.003 20.6804 153.65 19.9294 153.032 19.1784C152.59 18.6925 151.971 18.339 151.132 18.1182C150.293 17.8973 149.232 17.7647 147.951 17.7647C145.698 17.7647 143.445 18.2507 141.281 19.2668L141.148 19.3551L141.237 19.4876L141.369 19.7527L141.457 19.8852L141.59 19.7969C142.12 19.4876 143.004 19.1784 144.196 18.8692C145.389 18.5158 146.449 18.3832 147.333 18.3832C148.216 18.3832 148.923 18.5157 149.453 18.7366C149.983 18.9575 150.337 19.2226 150.558 19.4876C150.779 19.7969 150.955 20.1061 151.044 20.4595C151.176 20.7688 151.22 20.9896 151.176 21.1664C151.132 21.2547 151.132 21.3431 151.132 21.4314C151.132 21.4756 151.132 21.5198 151.132 21.5639V21.6081V27.3953H151ZM142.915 32.2989C142.871 32.078 142.871 31.8571 142.871 31.6362C142.871 30.576 143.136 29.7808 143.666 29.2065C143.931 28.9415 144.329 28.6764 144.947 28.4997C145.522 28.2788 146.273 28.1463 147.2 28.0137C147.863 27.9254 148.526 27.9254 149.144 27.9254C149.763 27.9254 150.381 27.9254 151 27.9696V32.2547C150.911 33.0057 150.425 33.8451 149.365 34.7286C148.349 35.568 147.245 36.0097 146.008 36.0097C145.08 36.0097 144.373 35.7005 143.843 35.082C143.313 34.5077 143.004 33.58 142.915 32.2989ZM159.791 8.9294V8.79688H159.658H157.096H156.963V8.9294V36.319V36.4515H157.096H159.658H159.791V36.319V27.572L160.63 26.6443L167.256 36.4073L167.3 36.4515H167.389H169.951H170.216L170.039 36.2306L162.264 24.7888L168.14 18.1623L168.361 17.8973H168.051H167.698H167.61L167.566 17.9415L159.791 26.7326V8.9294ZM184.264 35.0378L184.22 34.9053L184.087 34.9495C182.188 35.6563 180.067 36.0539 177.638 36.0539C175.959 36.0539 174.589 35.3913 173.573 33.9776C172.557 32.6081 172.027 30.4435 172.027 27.4394C172.027 26.7768 172.071 26.1583 172.116 25.5398H184.971H185.103V25.4073C185.103 23.0218 184.397 21.2105 183.027 20.0178C181.613 18.7808 179.935 18.2065 177.903 18.2065C175.385 18.2065 173.308 19.0459 171.674 20.7688C170.039 22.4917 169.2 24.8772 169.2 27.9696C169.2 31.0178 169.951 33.3149 171.541 34.817C173.088 36.319 175.12 37.07 177.593 37.07C180.067 37.07 182.276 36.6724 184.264 35.9214L184.397 35.8772L184.352 35.7447L184.264 35.0378ZM181.039 20.0178C181.879 21.078 182.32 22.7125 182.364 24.9655H172.16C172.469 22.9334 173.132 21.3431 174.148 20.1945C175.208 19.0017 176.445 18.4274 177.77 18.4274C179.095 18.3832 180.2 18.9133 181.039 20.0178Z" fill="#4C4B4B" stroke="#4C4B4B" stroke-width="0.297881"/>
<path d="M188.372 8.57812V9.55001H187.268V12.4657H186.207V9.55001H185.103V8.57812H188.372Z" fill="#4C4B4B"/>
<path d="M192.613 8.48828V12.4642H191.597V10.5204L190.846 11.4481H190.537L189.786 10.5204V12.4642H188.726V8.48828H189.079L190.669 10.167L192.26 8.48828H192.613Z" fill="#4C4B4B"/>
<path fill-rule="evenodd" clip-rule="evenodd" d="M20.5475 30.002V42.5482H23.1981V29.9579L28.0133 41.5763L30.443 40.5603L25.6719 28.986L34.5071 37.8213L36.3625 35.9659L27.5273 27.0864L39.1456 31.9016L40.1617 29.4719L28.5434 24.6125H41.0894V21.9619H28.5876L40.1617 17.1908L39.1456 14.7611L27.6157 19.5322L36.4951 10.741L34.6397 8.8414L25.6278 17.7209L30.4871 6.05826L28.0574 5.0422L23.2423 16.6165V4.07031H20.5917V16.6607L15.7323 5.0422L13.3027 6.05826L18.1178 17.5884L9.28265 8.75304L7.38308 10.6526L16.2625 19.5322L4.64417 14.7169L3.62812 17.1466L15.2464 21.9619H2.65625V24.6125H15.2022L3.62812 29.4277L4.64417 31.8575L16.1741 27.0864L7.29473 35.8775L9.15012 37.7771L18.1178 28.8976L13.3027 40.5603L15.7323 41.5763L20.5475 30.002Z" fill="#4C4B4B"/>
</svg>
