<svg width="132" height="34" viewBox="0 0 132 34" fill="none" xmlns="http://www.w3.org/2000/svg">
<path d="M6.02812 8.15245C6.84664 6.57837 11.1911 2.70615 14.654 1.98208C16.2281 1.63578 16.7948 2.51726 16.8577 3.77652C23.9096 4.59504 30.5207 10.545 32.0318 17.7543C32.4411 19.7061 32.4411 21.5635 32.0948 23.2635L33.8263 23.232C33.0077 25.4987 30.2689 30.2209 23.7837 31.5746C23.5318 31.6376 23.28 31.6691 23.0596 31.7006C22.43 31.795 21.8003 31.8265 21.1392 31.8265C13.4892 31.8265 5.96515 25.5302 4.32812 17.7543C3.57256 14.0394 4.26515 10.6709 6.02812 8.15245Z" fill="#4C4B4B"/>
<path d="M31.6213 26.3911C36.4727 21.5793 35.5718 12.805 29.6091 6.79319C23.6464 0.781376 14.8798 -0.191433 10.0284 4.62036C5.17704 9.43215 6.07791 18.2064 12.0406 24.2182C18.0033 30.23 26.7699 31.2029 31.6213 26.3911Z" fill="#4C4B4B"/>
<path d="M29.5806 23.385C33.3913 19.5979 32.6852 12.7089 28.0035 7.99787C23.3217 3.28688 16.4372 2.53791 12.6265 6.32499C8.81574 10.1121 9.52186 17.0011 14.2036 21.7121C18.8854 26.4231 25.7699 27.1721 29.5806 23.385Z" fill="#4C4B4B"/>
<path d="M27.8973 20.3966C30.5253 17.4751 29.732 12.4767 26.1253 9.23245C22.5187 5.98816 17.4645 5.72651 14.8365 8.64802C12.2085 11.5695 13.0019 16.5679 16.6085 19.8121C20.2152 23.0564 25.2693 23.3181 27.8973 20.3966Z" fill="#4C4B4B"/>
<path d="M26.1977 17.696C27.776 15.7524 27.1188 12.6041 24.7298 10.6641C22.3408 8.72403 19.1246 8.72693 17.5463 10.6706C15.968 12.6142 16.6252 15.7625 19.0142 17.7025C21.4032 19.6426 24.6194 19.6397 26.1977 17.696Z" fill="#4C4B4B"/>
<path d="M23.9984 15.9127C24.7766 14.9544 24.4555 13.4045 23.2812 12.451C22.107 11.4974 20.5242 11.5012 19.746 12.4595C18.9678 13.4178 19.2888 14.9677 20.4631 15.9213C21.6374 16.8749 23.2202 16.871 23.9984 15.9127Z" fill="#4C4B4B"/>
<path d="M57.2793 23.6118C57.2793 23.8007 57.4052 23.9266 57.5941 23.9266H59.9867C60.1756 23.9266 60.3015 23.8007 60.3015 23.6118V12.1211H57.5941C57.4052 12.1211 57.2793 12.247 57.2793 12.4359V23.6118Z" fill="#4C4B4B"/>
<path d="M57.3741 10.2318C57.6574 10.5466 58.0982 10.704 58.6963 10.704C59.2945 10.704 59.7352 10.5466 59.9871 10.2318C60.2704 9.91696 60.3963 9.5077 60.3963 9.06696C60.3963 8.56325 60.2704 8.18547 59.9871 7.87066C59.7037 7.55584 59.263 7.39844 58.6963 7.39844C58.1297 7.39844 57.6574 7.55584 57.3741 7.87066C57.0908 8.18547 56.9648 8.56325 56.9648 9.06696C56.9648 9.53918 57.0908 9.91696 57.3741 10.2318Z" fill="#4C4B4B"/>
<path fill-rule="evenodd" clip-rule="evenodd" d="M52.5262 18.4169C51.6133 18.8577 50.4799 19.078 49.1262 19.078H46.7336V23.6114C46.7336 23.8003 46.6077 23.9262 46.4188 23.9262H43.9633C43.7744 23.9262 43.6484 23.8003 43.6484 23.6114V8.24841C43.6484 8.05952 43.7744 7.93359 43.9633 7.93359H46.4188C46.4503 7.93359 46.4818 7.93359 46.5133 7.93359C46.5447 7.93359 46.5762 7.93359 46.6077 7.93359H49.1262C50.4484 7.93359 51.5818 8.15396 52.5262 8.5947C53.4707 9.03545 54.1947 9.66508 54.667 10.4521C55.1707 11.2391 55.391 12.1836 55.391 13.2854V13.6317C55.391 14.7336 55.1392 15.678 54.667 16.4966C54.1633 17.3151 53.4392 17.9447 52.5262 18.4169ZM50.9521 10.9873C50.5429 10.7354 50.0077 10.6095 49.3781 10.6095H46.7336V16.3706H49.3781C50.0077 16.3706 50.5114 16.2447 50.9521 15.9929C51.3929 15.741 51.7077 15.3947 51.9281 14.9854C52.1484 14.5447 52.2744 14.041 52.2744 13.4743C52.2744 12.9077 52.1484 12.404 51.9281 11.9632C51.7077 11.554 51.3929 11.2077 50.9521 10.9873Z" fill="#4C4B4B"/>
<path d="M63.0092 23.9255C62.8203 23.9255 62.6943 23.7996 62.6943 23.6107V12.4348C62.6943 12.2459 62.8203 12.12 63.0092 12.12H64.7721C64.961 12.12 65.0869 12.2459 65.0869 12.4348V15.0163C65.1499 14.7014 65.2443 14.4181 65.3388 14.1663C65.6536 13.3477 66.1258 12.7496 66.7554 12.3403C67.3851 11.9311 68.1721 11.7422 69.1166 11.7422H69.2425C70.6592 11.7422 71.7295 12.2144 72.4536 13.1274C73.1777 14.0403 73.5554 15.3626 73.5554 17.157V23.6107C73.5554 23.7996 73.4295 23.9255 73.2406 23.9255H70.848C70.6591 23.9255 70.5332 23.7996 70.5332 23.6107V16.9052C70.5332 16.1811 70.3129 15.5829 69.9036 15.1422C69.4943 14.7014 68.9277 14.4811 68.2036 14.4811C67.4795 14.4811 66.8499 14.7014 66.4092 15.1737C65.9684 15.6144 65.748 16.244 65.748 16.9996V23.6107C65.748 23.7996 65.6221 23.9255 65.4332 23.9255H63.0092Z" fill="#4C4B4B"/>
<path fill-rule="evenodd" clip-rule="evenodd" d="M84.826 18.4169C83.9131 18.8577 82.7797 19.078 81.426 19.078H79.0334V23.6114C79.0334 23.8003 78.9075 23.9262 78.7186 23.9262H76.2631C76.0742 23.9262 75.9482 23.8003 75.9482 23.6114V8.24841C75.9482 8.05952 76.0742 7.93359 76.2631 7.93359H78.7186C78.7501 7.93359 78.7816 7.93359 78.8131 7.93359C78.8445 7.93359 78.876 7.93359 78.9075 7.93359H81.426C82.7482 7.93359 83.8816 8.15396 84.826 8.5947C85.7705 9.03545 86.4945 9.66508 86.9668 10.4521C87.4705 11.2391 87.6908 12.1836 87.6908 13.2854V13.6317C87.6908 14.7336 87.439 15.678 86.9668 16.4966C86.4945 17.3151 85.7705 17.9447 84.826 18.4169ZM83.2519 10.9873C82.8427 10.7354 82.3075 10.6095 81.6779 10.6095H79.0334V16.3706H81.6779C82.3075 16.3706 82.8112 16.2447 83.2519 15.9929C83.6927 15.741 84.0075 15.3947 84.2279 14.9854C84.4482 14.5447 84.5742 14.041 84.5742 13.4743C84.5742 12.9077 84.4482 12.404 84.2279 11.9632C84.0075 11.554 83.6927 11.2077 83.2519 10.9873Z" fill="#4C4B4B"/>
<path fill-rule="evenodd" clip-rule="evenodd" d="M94.4273 24.3352C93.3884 24.3352 92.4755 24.1778 91.657 23.8315C90.8699 23.4852 90.1773 23.0445 89.6422 22.4778C89.0755 21.9112 88.6662 21.2501 88.3829 20.526C88.0996 19.8019 87.9736 19.0464 87.9736 18.2593V17.7871C87.9736 16.9686 88.131 16.213 88.4144 15.4889C88.7292 14.7649 89.1384 14.1038 89.7051 13.5371C90.2718 12.9704 90.9644 12.4982 91.7514 12.1834C92.5384 11.8371 93.4514 11.6797 94.4588 11.6797C95.4662 11.6797 96.3477 11.8371 97.1662 12.1834C97.9533 12.4982 98.6459 12.9389 99.181 13.5371C99.7477 14.1038 100.188 14.7649 100.472 15.4889C100.755 16.213 100.913 16.9686 100.913 17.7871V18.2593C100.913 19.0464 100.755 19.8019 100.472 20.526C100.188 21.2501 99.7792 21.9112 99.244 22.4778C98.6773 23.0445 98.0162 23.4852 97.2292 23.8315C96.3792 24.1778 95.4662 24.3352 94.4273 24.3352ZM94.4273 21.7538C95.1514 21.7538 95.781 21.5964 96.2848 21.2815C96.7885 20.9352 97.1662 20.4945 97.4496 19.9593C97.7014 19.3927 97.8273 18.763 97.8273 18.0389C97.8273 17.3149 97.7014 16.6852 97.4181 16.1186C97.1662 15.5519 96.757 15.1112 96.2533 14.7964C95.7496 14.4501 95.1514 14.2927 94.4273 14.2927C93.7033 14.2927 93.1051 14.4501 92.5699 14.7964C92.0662 15.1112 91.657 15.5519 91.4051 16.1186C91.1218 16.6852 90.9959 17.3149 90.9959 18.0389C90.9959 18.763 91.1218 19.3927 91.3736 19.9593C91.657 20.526 92.0347 20.9667 92.5384 21.2815C93.0736 21.5964 93.7033 21.7538 94.4273 21.7538Z" fill="#4C4B4B"/>
<path d="M102.991 23.6118C102.991 23.8007 103.117 23.9266 103.306 23.9266H105.699C105.888 23.9266 106.013 23.8007 106.013 23.6118V12.1211H103.306C103.117 12.1211 102.991 12.247 102.991 12.4359V23.6118Z" fill="#4C4B4B"/>
<path d="M103.085 10.2318C103.368 10.5466 103.809 10.704 104.407 10.704C105.005 10.704 105.446 10.5466 105.698 10.2318C105.981 9.91696 106.107 9.5077 106.107 9.06696C106.107 8.56325 105.981 8.18547 105.698 7.87066C105.415 7.55584 104.974 7.39844 104.407 7.39844C103.809 7.39844 103.368 7.55584 103.085 7.87066C102.802 8.18547 102.676 8.56325 102.676 9.06696C102.676 9.53918 102.833 9.91696 103.085 10.2318Z" fill="#4C4B4B"/>
<path d="M108.751 23.9255C108.562 23.9255 108.437 23.7996 108.437 23.6107V12.4348C108.437 12.2459 108.562 12.12 108.751 12.12H110.514C110.703 12.12 110.829 12.2459 110.829 12.4348V15.0163C110.892 14.7014 110.987 14.4181 111.081 14.1663C111.396 13.3477 111.868 12.7496 112.498 12.3403C113.127 11.9311 113.914 11.7422 114.859 11.7422H114.985C116.401 11.7422 117.472 12.2144 118.196 13.1274C118.92 14.0403 119.298 15.3626 119.298 17.157V23.6107C119.298 23.7996 119.172 23.9255 118.983 23.9255H116.59C116.401 23.9255 116.275 23.7996 116.275 23.6107V16.9052C116.275 16.1811 116.055 15.5829 115.646 15.1422C115.237 14.7014 114.67 14.4811 113.946 14.4811C113.222 14.4811 112.592 14.7014 112.151 15.1737C111.711 15.6144 111.49 16.244 111.49 16.9996V23.6107C111.49 23.7996 111.364 23.9255 111.175 23.9255H108.751Z" fill="#4C4B4B"/>
<path d="M123.862 23.672C124.586 23.9554 125.468 24.0813 126.57 24.0813H127.955C128.144 24.0813 128.27 23.9553 128.27 23.7664V21.8145C128.27 21.6256 128.144 21.4997 127.955 21.4997H126.412C125.846 21.4997 125.374 21.3423 125.059 21.0275C124.744 20.7127 124.586 20.272 124.586 19.6739V14.3219H127.924C128.112 14.3219 128.238 14.196 128.238 14.0071V12.4331C128.238 12.2442 128.112 12.1182 127.924 12.1182H124.586V9.09607C124.586 8.90718 124.461 8.78125 124.272 8.78125H122.068C121.879 8.78125 121.753 8.90718 121.753 9.09607V12.1182H120.179C119.99 12.1182 119.864 12.2442 119.864 12.4331V14.0071C119.864 14.196 119.99 14.3219 120.179 14.3219H121.753V19.485C121.753 20.6183 121.942 21.5312 122.288 22.2238C122.666 22.8849 123.17 23.3887 123.862 23.672Z" fill="#4C4B4B"/>
</svg>
