<svg width="184" height="46" viewBox="0 0 184 46" fill="none" xmlns="http://www.w3.org/2000/svg">
<path d="M56.0436 13.7422C57.6759 13.7422 59.0877 14.0069 60.323 14.5804C61.5583 15.1098 62.4847 15.904 63.1465 16.9187C63.8083 17.9334 64.1171 19.1245 64.1171 20.4922C64.1171 21.8598 63.8083 23.051 63.1465 24.0657C62.4847 25.0804 61.5583 25.8304 60.323 26.404C59.1318 26.9334 57.72 27.1981 56.0436 27.1981H52.2936V32.2716H48.0142V13.7422H56.0436ZM55.823 23.6687C57.1024 23.6687 58.073 23.404 58.7789 22.8304C59.4406 22.2569 59.7936 21.4628 59.7936 20.4481C59.7936 19.3892 59.4406 18.5951 58.7789 18.0657C58.1171 17.4922 57.1465 17.2275 55.823 17.2275H52.2936V23.6687H55.823Z" fill="#4C4B4B"/>
<path d="M69.5006 19.8977C69.9859 19.1919 70.6477 18.7066 71.4859 18.3536C72.3241 18.0007 73.2947 17.8242 74.3977 17.8242V21.6183C73.9565 21.5742 73.6477 21.5742 73.4712 21.5742C72.28 21.5742 71.3536 21.9272 70.6918 22.5889C70.03 23.2507 69.6771 24.2213 69.6771 25.5448V32.2507H65.53V18.0007H69.4565V19.8977H69.5006Z" fill="#4C4B4B"/>
<path d="M82.1623 32.4959C80.6623 32.4959 79.2946 32.187 78.1034 31.5694C76.9123 30.9517 75.9858 30.0694 75.324 28.9665C74.6623 27.8635 74.3093 26.5841 74.3093 25.1723C74.3093 23.7606 74.6623 22.4812 75.324 21.3782C75.9858 20.2753 76.9123 19.3929 78.1034 18.7753C79.2946 18.1576 80.6623 17.8047 82.1623 17.8047C83.6623 17.8047 84.9858 18.1135 86.177 18.7753C87.3682 19.3929 88.2946 20.2753 88.9564 21.3782C89.6182 22.4812 89.9711 23.7606 89.9711 25.1723C89.9711 26.5841 89.6182 27.8635 88.9564 28.9665C88.2946 30.0694 87.3682 30.9517 86.177 31.5694C84.9858 32.187 83.6623 32.4959 82.1623 32.4959ZM82.1623 29.0988C83.2211 29.0988 84.1034 28.7459 84.7652 28.04C85.4711 27.3341 85.7799 26.3635 85.7799 25.1723C85.7799 23.9812 85.427 23.0106 84.7652 22.3047C84.1034 21.5988 83.2211 21.2017 82.1623 21.2017C81.1034 21.2017 80.2211 21.5547 79.5593 22.3047C78.8534 23.0106 78.5446 23.9812 78.5446 25.1723C78.5446 26.3635 78.8976 27.3341 79.5593 28.04C80.2211 28.7459 81.1034 29.0988 82.1623 29.0988Z" fill="#4C4B4B"/>
<path d="M108.677 13.7422V32.2716H105.148L95.9274 21.0216V32.2716H91.6921V13.7422H95.2216L104.442 24.9922V13.7422H108.677Z" fill="#4C4B4B"/>
<path d="M117.192 17.8047C119.398 17.8047 121.074 18.3341 122.265 19.3929C123.457 20.4517 124.03 21.9959 124.03 24.1135V32.2753H120.148V30.5106C119.354 31.8341 117.942 32.4959 115.824 32.4959C114.721 32.4959 113.795 32.3194 112.956 31.9223C112.162 31.5694 111.545 31.04 111.148 30.3782C110.706 29.7164 110.53 28.9665 110.53 28.1723C110.53 26.8488 111.015 25.79 112.03 25.04C113.045 24.29 114.589 23.8929 116.662 23.8929H119.927C119.927 23.0106 119.662 22.3047 119.089 21.8194C118.559 21.3341 117.721 21.0694 116.618 21.0694C115.868 21.0694 115.118 21.2017 114.368 21.4223C113.662 21.6429 113.045 21.9517 112.515 22.3929L111.015 19.5253C111.809 18.9959 112.736 18.5547 113.795 18.2459C114.898 17.9812 116.045 17.8047 117.192 17.8047ZM116.883 29.7164C117.589 29.7164 118.207 29.54 118.78 29.2312C119.309 28.8782 119.706 28.3929 119.927 27.7753V26.3194H117.104C115.427 26.3194 114.545 26.8929 114.545 27.9959C114.545 28.5253 114.765 28.9664 115.162 29.2753C115.559 29.54 116.133 29.7164 116.883 29.7164Z" fill="#4C4B4B"/>
<path d="M135.632 31.5565C135.235 31.8654 134.706 32.0859 134.132 32.2624C133.559 32.3948 132.941 32.483 132.279 32.483C130.603 32.483 129.279 32.0418 128.353 31.2036C127.426 30.3212 126.985 29.0859 126.985 27.4095V21.4977H124.779V18.3212H126.985V14.8359H131.132V18.3212H134.662V21.4977H131.132V27.2771C131.132 27.8948 131.265 28.3359 131.573 28.6889C131.882 28.9977 132.323 29.1742 132.897 29.1742C133.559 29.1742 134.088 28.9977 134.573 28.6448L135.632 31.5565Z" fill="#4C4B4B"/>
<path d="M150.986 18V32.25H147.059V30.5735C146.53 31.1912 145.868 31.6765 145.118 31.9853C144.368 32.2941 143.53 32.4706 142.647 32.4706C140.794 32.4706 139.294 31.9412 138.191 30.8382C137.088 29.7794 136.559 28.1471 136.559 26.0294V18H140.706V25.4559C140.706 27.75 141.677 28.8971 143.574 28.8971C144.544 28.8971 145.338 28.5882 145.956 27.9265C146.574 27.2647 146.838 26.2941 146.838 25.0588V18H150.986Z" fill="#4C4B4B"/>
<path d="M157.427 19.8977C157.912 19.1919 158.574 18.7066 159.412 18.3536C160.25 18.0007 161.221 17.8242 162.324 17.8242V21.6183C161.883 21.5742 161.574 21.5742 161.397 21.5742C160.206 21.5742 159.28 21.9272 158.618 22.5889C157.956 23.2507 157.603 24.2213 157.603 25.5448V32.2507H153.456V18.0007H157.383V19.8977H157.427Z" fill="#4C4B4B"/>
<path d="M177.237 25.2165C177.237 25.2606 177.193 25.6576 177.149 26.3194H166.384C166.56 27.2017 167.046 27.9076 167.751 28.3929C168.457 28.9223 169.384 29.1429 170.443 29.1429C171.193 29.1429 171.854 29.0547 172.384 28.8341C172.957 28.6135 173.487 28.2606 174.016 27.7753L176.222 30.1576C174.899 31.7017 172.913 32.4517 170.354 32.4517C168.766 32.4517 167.31 32.1429 166.075 31.5253C164.84 30.9076 163.869 30.0253 163.207 28.9223C162.546 27.8194 162.193 26.54 162.193 25.1282C162.193 23.7165 162.501 22.4812 163.163 21.3782C163.825 20.2312 164.751 19.3929 165.899 18.7753C167.046 18.1576 168.369 17.8047 169.781 17.8047C171.193 17.8047 172.428 18.1135 173.575 18.687C174.722 19.3047 175.604 20.1429 176.222 21.29C176.928 22.437 177.237 23.7165 177.237 25.2165ZM169.869 20.937C168.943 20.937 168.149 21.2017 167.531 21.7312C166.913 22.2606 166.516 22.9665 166.384 23.8929H173.399C173.266 23.0106 172.869 22.2606 172.251 21.7312C171.546 21.2017 170.796 20.937 169.869 20.937Z" fill="#4C4B4B"/>
<path fill-rule="evenodd" clip-rule="evenodd" d="M24.5002 3.42096C23.8826 3.06801 23.0885 3.06801 22.4708 3.42096C18.015 6.0239 14.9708 10.8327 14.9708 16.3915C14.9708 17.1857 15.015 17.9357 15.1473 18.7298C12.0591 17.671 8.75024 18.068 6.01495 19.6121C5.3973 19.9651 5.00024 20.6268 5.00024 21.3768C5.00024 25.2151 6.98554 28.9651 10.5591 30.9945C12.3238 32.0092 14.2208 32.4945 16.1179 32.4945C15.8532 33.2886 15.6767 34.171 15.6767 35.0974C15.6767 39.421 19.162 42.9062 23.4855 42.9062C27.8091 42.9062 31.2944 39.421 31.2944 35.0974C31.2944 34.171 31.1179 33.2886 30.8532 32.4945C32.6179 32.4504 34.4267 31.9651 36.0591 30.9945C39.6326 28.921 41.6179 25.2151 41.6179 21.3768C41.6179 20.671 41.2208 19.9651 40.6032 19.6121C38.0002 18.1121 34.8238 17.7151 31.8238 18.5974C31.912 17.8915 32.0002 17.1415 32.0002 16.3915C32.0002 10.8327 29.0002 6.0239 24.5002 3.42096ZM19.0738 16.3915C19.0738 12.7739 20.7944 9.59743 23.5297 7.61213C26.2208 9.59743 27.9855 12.7739 27.9855 16.3915C27.9855 20.0092 26.265 23.1857 23.5297 25.171C20.7944 23.1857 19.0738 20.0092 19.0738 16.3915ZM31.515 23.1415C33.412 22.0386 35.5738 21.9504 37.4708 22.6121C37.1179 24.5974 35.9267 26.4063 34.0297 27.5092C32.1326 28.6121 29.9708 28.7004 28.0738 28.0386C28.4267 26.0092 29.6179 24.2004 31.515 23.1415ZM9.23554 22.6121C11.1326 21.9062 13.2944 22.0386 15.1914 23.1415C17.0885 24.2445 18.2797 26.0533 18.6326 28.0386C16.7355 28.7445 14.5738 28.6121 12.6767 27.5092C10.7797 26.4063 9.58848 24.5974 9.23554 22.6121ZM19.7797 35.0974C19.7797 33.0239 21.4561 31.3474 23.5297 31.3474C25.6032 31.3474 27.2797 33.0239 27.2797 35.0974C27.2797 37.171 25.6032 38.8474 23.5297 38.8474C21.4561 38.8474 19.7797 37.171 19.7797 35.0974Z" fill="#4C4B4B"/>
</svg>
