<svg width="130" height="43" viewBox="0 0 130 43" fill="none" xmlns="http://www.w3.org/2000/svg">
<g clip-path="url(#clip0_1456_271)">
<path opacity="0.5" fill-rule="evenodd" clip-rule="evenodd" d="M3.26402 15.7621C3.24241 15.7327 3.25098 15.6507 3.20123 15.6691C3.17785 15.7631 3.15435 15.8583 3.1307 15.9545C3.17759 15.9773 3.21998 15.8607 3.26402 15.7621ZM3.1678 30.763C2.31526 29.357 1.71599 27.8123 1.39726 26.1992C1.31301 26.0917 1.25908 25.9636 1.24109 25.8282C1.17993 25.5065 1.26312 25.4767 1.17994 25.1101C0.954445 25.0934 1.24804 26.1364 0.994001 26.0504C1.06087 26.257 1.12583 26.4627 1.1889 26.6674C1.22152 26.7693 1.25088 26.8712 1.28432 26.9732C1.31776 27.0751 1.35488 27.1742 1.38995 27.2745L1.59667 27.8752C1.66803 28.0742 1.74877 28.2695 1.8238 28.4672C2.13293 29.2701 2.49501 30.0516 2.90765 30.8066C2.94236 30.8638 2.99136 30.9111 3.04983 30.9437C3.10831 30.9763 3.17425 30.9931 3.2412 30.9925C3.18248 30.8796 3.11072 30.7503 3.1678 30.763ZM11.3945 40.036C11.3253 39.9872 11.2604 39.9327 11.2004 39.8729C11.2258 39.9397 11.2652 40.0004 11.3159 40.0509C11.3666 40.1014 11.4274 40.1405 11.4944 40.1657C11.5172 40.1359 11.4642 40.0886 11.3945 40.036ZM27.2354 41.5647C27.3505 41.5058 27.4745 41.4664 27.6024 41.4481C27.5386 41.4289 27.4714 41.4238 27.4054 41.4334C27.3395 41.443 27.2764 41.467 27.2208 41.5036C27.4854 41.4408 26.9145 41.6255 27.2346 41.5631L27.2354 41.5647ZM35.35 37.854C35.5131 37.7293 35.5306 37.6693 35.4797 37.64C35.3178 37.7655 35.3007 37.8255 35.3508 37.8549L35.35 37.854ZM41.9151 15.6426C41.9422 15.7551 41.9694 15.8689 41.9966 15.9839C42.0238 16.0988 42.0529 16.2145 42.0839 16.3309C42.0998 16.3888 42.112 16.4479 42.1246 16.507C42.1373 16.5662 42.1491 16.6257 42.1617 16.6848C42.2111 16.9226 42.2633 17.1611 42.3106 17.3988C42.3432 17.6064 42.3762 17.8168 42.4093 18.0288C42.4256 18.1352 42.4419 18.2417 42.4582 18.3489C42.4745 18.4562 42.481 18.5646 42.4924 18.6731C42.5145 18.89 42.5369 19.1086 42.5593 19.3276C42.5748 19.5469 42.5846 19.7671 42.6001 19.9873L42.6197 20.3176C42.6266 20.4273 42.6241 20.5378 42.6274 20.6475C42.6317 20.8671 42.6364 21.0858 42.6413 21.3036V21.3852V21.4667L42.6388 21.6298C42.6388 21.7379 42.6364 21.8451 42.6347 21.9524C42.6331 22.0596 42.6347 22.166 42.6347 22.272C42.6347 22.325 42.6347 22.3777 42.6347 22.4303C42.6347 22.4829 42.6303 22.5355 42.6282 22.5876C42.6201 22.7981 42.6241 22.9991 42.6282 23.1993C42.6282 23.2996 42.6331 23.4003 42.6282 23.5002C42.6233 23.6001 42.6152 23.7017 42.6038 23.804C42.5805 24.0108 42.5479 24.2322 42.5116 24.4605C42.4671 24.6872 42.4137 24.9205 42.3644 25.1537C42.3399 25.2704 42.3155 25.3866 42.291 25.5024C42.2665 25.6182 42.2394 25.7314 42.2095 25.842C42.1577 26.0655 42.1136 26.2824 42.083 26.4867C42.0499 26.5322 42.0219 26.5811 41.9994 26.6327C41.9861 26.6691 41.9774 26.7071 41.9738 26.7457C41.9568 26.8803 41.9145 27.0105 41.849 27.1294C41.8747 27.1995 41.9069 27.341 41.9664 27.246C42.0061 27.2098 42.0353 27.1636 42.0508 27.1122C42.0712 26.9989 42.0957 26.8933 42.1222 26.7925C42.1487 26.6918 42.1785 26.5964 42.1992 26.5002C42.2495 26.3085 42.2868 26.1137 42.311 25.9171C42.3632 25.7752 42.4182 25.6349 42.4602 25.4922C42.5022 25.3495 42.5418 25.2067 42.5777 25.064C42.6136 24.9213 42.6494 24.7786 42.6825 24.6367L42.7065 24.5294L42.7257 24.4218L42.7611 24.2061C42.784 24.062 42.8055 23.9178 42.8256 23.7734C42.8447 23.6287 42.8664 23.4847 42.8757 23.3383C42.8982 23.046 42.9165 22.7516 42.9328 22.4539C42.9515 21.1541 42.8932 19.8543 42.7583 18.5614C42.7295 18.4862 42.7046 18.4096 42.6837 18.3318C42.6564 18.2462 42.6303 18.1503 42.6058 18.0435C42.5891 17.9053 42.5711 17.7581 42.5524 17.6056C42.5434 17.5289 42.5343 17.4507 42.5251 17.3711C42.5149 17.292 42.5002 17.2125 42.4876 17.1321C42.461 16.969 42.4337 16.8059 42.406 16.6428C42.3908 16.5613 42.3757 16.4797 42.3607 16.3982C42.346 16.3166 42.3236 16.2375 42.3045 16.1584C42.2637 16.0006 42.2229 15.8469 42.1789 15.7001C42.1568 15.6267 42.1344 15.5554 42.1116 15.4864C42.0998 15.4517 42.0879 15.4179 42.0765 15.3841C42.0651 15.3502 42.0492 15.3192 42.0357 15.287C41.9507 15.069 41.8322 14.8655 41.6847 14.6839C41.7291 14.8849 41.7817 15.0949 41.8396 15.3115C41.8637 15.4195 41.889 15.53 41.9151 15.6426ZM38.3769 8.6563C39.1239 9.74916 39.7824 10.9 40.346 12.0978C40.8549 13.1668 41.2274 14.2955 41.4547 15.4574C41.4849 15.5413 41.5083 15.6275 41.5248 15.7151C41.5423 15.7967 41.5566 15.8783 41.5713 15.9598C41.5936 16.1076 41.6354 16.2517 41.6957 16.3884C41.5921 16.3884 41.7095 16.8891 41.7862 17.1224C41.849 17.188 41.9734 17.2394 41.9856 17.159C41.9415 16.9633 41.9004 16.7619 41.8633 16.5621C41.8465 16.4622 41.8225 16.3643 41.8013 16.2673C41.7801 16.1702 41.7605 16.0748 41.743 15.9818C41.7055 15.7955 41.6781 15.6148 41.6508 15.4558C41.6235 15.2968 41.5982 15.152 41.5864 15.0317C41.5456 14.8825 41.5089 14.7284 41.4722 14.5706C41.4355 14.4128 41.3866 14.2537 41.3425 14.0918C41.2985 13.93 41.2553 13.7632 41.2108 13.5964C41.1664 13.4296 41.1064 13.2661 41.0522 13.0997C40.998 12.9334 40.9433 12.7662 40.8813 12.6027C40.8194 12.4391 40.7476 12.2801 40.6775 12.1219C40.6421 12.0428 40.6058 11.9645 40.5686 11.887C40.5319 11.8095 40.4952 11.7325 40.452 11.6595C40.368 11.5119 40.2807 11.3688 40.1902 11.2317C40.1404 11.1135 40.0887 11.0006 40.0356 10.8913C39.9826 10.782 39.9186 10.6821 39.8587 10.5822C39.7363 10.3828 39.614 10.1923 39.4851 10.0052C39.2124 9.63819 38.9493 9.26469 38.6545 8.82471C38.5489 8.73337 38.3956 8.51521 38.3769 8.6563ZM38.5428 9.45388C38.3832 9.29286 38.2083 9.14782 38.0205 9.02083C38.1183 9.13256 38.2097 9.25042 38.2986 9.37153C38.3426 9.43188 38.3862 9.4929 38.4294 9.55461C38.4702 9.617 38.511 9.68223 38.5518 9.74625C38.6333 9.8751 38.7124 10.0044 38.7964 10.1328C38.8804 10.2613 38.9714 10.3864 39.059 10.5161L39.1124 10.4827C39.0533 10.3082 38.972 10.1419 38.8707 9.98806C38.7704 9.82332 38.6607 9.65085 38.5428 9.45227V9.45388ZM38.2912 8.43611C38.1194 8.222 37.9366 8.01688 37.7436 7.8216C37.8272 7.96309 38.2468 8.54131 38.2912 8.43611ZM21.7514 0.508298C21.8076 0.532764 21.7942 0.549061 21.7387 0.560887C21.702 0.567617 21.665 0.57227 21.6278 0.574774L21.4753 0.591076C21.2535 0.611872 20.9754 0.628589 20.8637 0.65591C20.7932 0.611299 20.7151 0.580054 20.6333 0.563749C20.6333 0.597186 20.4294 0.596378 20.4147 0.628184C20.4851 0.615575 20.5565 0.610372 20.628 0.612679C20.6634 0.617572 20.6687 0.627773 20.6716 0.640006C20.6716 0.664472 20.6541 0.695453 20.7939 0.701977C20.7434 0.703116 20.6932 0.709281 20.6439 0.720345C20.5969 0.733245 20.5489 0.741964 20.5003 0.746428C20.7719 0.664874 20.1517 0.719935 20.1309 0.763974C20.204 0.748476 20.2796 0.748476 20.3527 0.763974C20.3527 0.790886 20.2618 0.80474 20.2863 0.834507C20.387 0.808817 20.5004 0.788023 20.6231 0.769673C20.7458 0.751324 20.8788 0.747254 21.0174 0.737468C21.2951 0.720749 21.5968 0.693023 21.9027 0.677936C21.9655 0.579256 21.7114 0.708095 21.6792 0.637144C21.7958 0.605338 22.268 0.590266 22.1979 0.677936C22.3161 0.66978 22.4332 0.663242 22.5482 0.658349C22.6061 0.654679 22.6631 0.655902 22.7202 0.658349L22.8895 0.661609L23.5419 0.677936H23.6206L23.6985 0.682814L23.8522 0.691375C23.9541 0.696268 24.0561 0.699958 24.1523 0.701181C24.2485 0.702404 24.3472 0.701173 24.4422 0.698319C24.5372 0.695465 24.6306 0.686499 24.722 0.683237C25.0111 0.802822 25.3355 0.804725 25.626 0.688538C25.1623 0.622055 24.6945 0.588395 24.2261 0.587816C24.0308 0.585369 23.8436 0.582918 23.6479 0.573132C23.4518 0.570277 23.2467 0.564985 23.0155 0.546228C22.8086 0.587867 22.5955 0.586759 22.3891 0.542967C22.1797 0.501817 21.9656 0.490141 21.753 0.508298H21.7514ZM19.8349 0.774576C19.6872 0.832071 19.8438 0.863452 19.9939 0.863452C19.9996 0.810442 19.9968 0.760304 19.8349 0.774576ZM19.4911 0.988639C19.4357 0.953112 19.3714 0.933773 19.3056 0.932765C19.2397 0.931756 19.1749 0.949128 19.1184 0.982939C19.2427 0.998728 19.3684 1.00119 19.4932 0.990281L19.4911 0.988639ZM17.8062 1.19008C18.0362 1.0914 18.4322 1.09793 18.4493 1.01393C18.2265 1.03421 18.0082 1.09386 17.8062 1.19008ZM17.3764 1.29693C17.2276 1.32884 17.0881 1.39453 16.9687 1.48896C17.1172 1.4555 17.2558 1.38997 17.3764 1.29693ZM9.33976 4.16678C9.50456 4.1596 9.66231 4.09793 9.78829 3.99144C9.62896 4.02074 9.47672 4.08025 9.33976 4.16678ZM23.3776 2.12794L23.1553 2.13446C23.0101 2.13976 22.8699 2.14711 22.7447 2.16301C22.6842 2.1699 22.6243 2.18081 22.5653 2.19564C22.5115 2.21018 22.459 2.22899 22.4083 2.25191C22.2944 2.26036 22.18 2.25392 22.0678 2.23275L21.7273 2.27351C21.614 2.28819 21.5002 2.31431 21.3864 2.33225L21.0443 2.39462L20.8726 2.42603C20.8156 2.43622 20.7581 2.44642 20.7006 2.46109L20.0074 2.61971C19.8903 2.64295 19.7741 2.67801 19.6567 2.70901L19.3023 2.80199C18.3522 3.05725 17.3597 3.35411 16.2596 3.69582C16.0691 3.71009 15.8803 3.72191 15.6911 3.73333C15.5957 3.737 15.5036 3.75005 15.4102 3.75943L15.128 3.79L14.8426 3.82345L14.6974 3.84139C14.6493 3.84832 14.6016 3.85769 14.553 3.86625C14.3602 3.90091 14.162 3.93967 13.9569 3.98452C13.775 3.99594 13.6021 4.01754 13.4227 4.04119C13.2433 4.06484 13.0586 4.09257 12.8612 4.13253C12.6497 4.18238 12.4413 4.24503 12.2374 4.32011C12.1252 4.36089 12.0074 4.40572 11.8859 4.45914C11.7643 4.51256 11.6412 4.57945 11.5103 4.6504C11.3863 4.75289 11.2692 4.85455 11.1588 4.95541C11.0507 5.0598 10.9525 5.16661 10.8579 5.26937C10.6807 5.45924 10.5171 5.66146 10.3686 5.8745C10.2303 6.07308 10.11 6.26107 10.0016 6.436C9.89309 6.61093 9.81113 6.78629 9.72876 6.93879C9.65937 7.01017 9.59559 7.08677 9.53794 7.16794C9.49394 7.22741 9.45737 7.29207 9.42906 7.36042C9.3925 7.45013 9.36623 7.54369 9.35076 7.63932L9.10367 7.93944L8.98132 8.08462L8.8692 8.23345C8.72118 8.42999 8.57519 8.62001 8.4288 8.81003C8.29098 9.00698 8.15153 9.20312 8.00596 9.40252C7.97007 9.45267 7.93174 9.50159 7.89667 9.55379L7.79147 9.71242L7.57168 10.0386L7.45792 10.2017C7.43916 10.2286 7.4204 10.2547 7.40165 10.2812L7.34864 10.3628C7.27809 10.4692 7.20713 10.5716 7.13577 10.6711C7.06441 10.7706 6.99305 10.8664 6.92128 10.9602C6.88417 11.0063 6.85196 11.0548 6.81812 11.1017L6.717 11.2419C6.58284 11.4271 6.44298 11.6016 6.30923 11.7765C6.17549 11.9515 6.05194 12.1297 5.92227 12.3046C5.7926 12.4795 5.67189 12.6602 5.55119 12.8445L5.37137 13.1258L5.28207 13.2698C5.25394 13.3187 5.22743 13.3693 5.20052 13.4198C5.09287 13.6237 4.98726 13.8329 4.88491 14.0551C4.858 14.1102 4.83558 14.1677 4.81356 14.226L4.7479 14.4034C4.70468 14.5232 4.66254 14.6465 4.62149 14.7732C4.55993 14.8458 4.50849 14.9265 4.46858 15.013C4.47501 15.1793 4.43415 15.344 4.35074 15.488C4.3051 15.5585 4.27582 15.6383 4.26502 15.7215C4.25423 15.8048 4.26219 15.8894 4.28834 15.9692C4.44141 15.7496 4.56968 15.5136 4.67082 15.2658C4.73117 15.1174 4.80376 14.9649 4.86819 14.8091C4.93261 14.6533 4.99051 14.4959 5.04148 14.3442C5.14037 14.2395 5.21695 14.1157 5.26657 13.9805C5.33181 13.8284 5.3942 13.6543 5.4778 13.4965C5.52932 13.3992 5.58893 13.3065 5.65599 13.2192C5.71961 13.1324 5.78486 13.05 5.84888 12.9697C5.95653 12.8371 6.0552 12.7095 6.1498 12.5831C5.20092 14.0898 4.4807 15.7289 4.01268 17.4469C3.98368 17.3968 3.93819 17.3584 3.88396 17.3382C3.82973 17.3179 3.77014 17.3172 3.71542 17.336C3.66828 17.4256 3.61643 17.5125 3.56007 17.5966C3.50828 17.6781 3.44955 17.7544 3.40103 17.8413C3.27311 18.0552 3.17128 18.2837 3.09767 18.5218C3.07769 18.3844 3.04711 18.5067 2.99451 18.5084C2.98105 18.583 2.9631 18.6666 2.95576 18.753C2.94842 18.8395 2.93741 18.9243 2.92681 19.0017C2.93002 19.0535 2.92294 19.1053 2.90601 19.1543C2.88907 19.2033 2.8626 19.2485 2.82813 19.2872C2.91825 18.5308 2.78736 18.4125 2.83955 17.8298C2.82409 17.7026 2.78813 17.5786 2.73311 17.4628C2.69325 17.3901 2.64095 17.325 2.57858 17.2704C2.50768 17.2194 2.44844 17.1539 2.40478 17.0782C2.36113 17.0026 2.33404 16.9185 2.32534 16.8316C2.35715 16.7382 2.37918 16.6852 2.3959 16.6277C2.40471 16.5962 2.41191 16.5642 2.4175 16.5319C2.42525 16.4952 2.43219 16.4504 2.43953 16.3961C2.33432 16.24 2.22423 16.5087 2.23034 16.1127C2.17006 16.1778 2.12605 16.2561 2.1019 16.3415C2.06615 16.4555 2.03647 16.5713 2.013 16.6885C1.83932 16.86 1.71217 17.0729 1.64356 17.3071C1.5827 17.4643 1.53017 17.6247 1.48616 17.7874L1.33855 18.2934C1.32917 18.3558 1.3198 18.4158 1.31083 18.4786C1.30186 18.5414 1.29695 18.6009 1.29002 18.6608C1.27561 18.781 1.26203 18.8988 1.24925 19.0144C1.23376 19.1302 1.21826 19.2435 1.20358 19.3553C1.19543 19.4111 1.18769 19.4662 1.17994 19.5213C1.17219 19.5763 1.1681 19.6309 1.16157 19.6843C1.13915 19.9013 1.11511 20.1121 1.09064 20.3192C1.07882 20.4224 1.06535 20.5231 1.05515 20.6263C1.04496 20.7295 1.03967 20.8302 1.03233 20.9297C1.01724 21.1307 1.00295 21.3301 0.991537 21.5295C0.988682 21.5792 0.984622 21.629 0.983398 21.6787V21.8284V22.1289C0.983398 22.3303 0.988292 22.5338 0.999302 22.7406C1.01724 22.9469 1.04034 23.1576 1.06862 23.3726C1.03223 23.4346 1.00848 23.5031 0.998754 23.5743C0.989026 23.6455 0.993518 23.7179 1.01195 23.7873C1.03773 23.9946 1.08165 24.1993 1.14323 24.399C1.11387 24.5506 0.987464 24.4805 1.00622 24.7439C1.09675 24.9515 1.08126 24.6579 1.13835 24.6403C1.17913 24.781 1.24884 25.0139 1.30144 25.2402C1.35053 25.4232 1.37926 25.6111 1.38708 25.8005C1.5206 26.1262 1.63364 26.46 1.72554 26.7999C1.78956 26.9903 1.85805 27.184 1.92656 27.3683C1.96122 27.4605 1.99628 27.5498 2.03216 27.6354C2.06494 27.7177 2.10252 27.798 2.1447 27.876C2.15 28.0392 2.17159 28.2015 2.20914 28.3604C2.25851 28.5902 2.32782 28.8151 2.41628 29.0328C2.46526 29.0408 2.51214 29.0585 2.55416 29.0849C2.59618 29.1113 2.63247 29.1459 2.66093 29.1866C2.74616 29.3537 2.82201 29.5127 2.89092 29.6653C2.95984 29.8178 3.03447 29.9597 3.09767 30.1003C3.16087 30.241 3.21999 30.3776 3.27627 30.5122L3.31703 30.6129C3.33253 30.6455 3.34762 30.6782 3.3627 30.7108C3.39233 30.776 3.42225 30.841 3.45242 30.9057C3.51196 31.0354 3.5715 31.165 3.63388 31.2955C3.69627 31.426 3.75948 31.5593 3.83777 31.6898C3.91606 31.8203 3.99393 31.9557 4.08242 32.0939C4.12686 32.1628 4.17294 32.233 4.22147 32.3043L4.29608 32.412L4.37764 32.518C4.48273 32.7389 4.60135 32.9531 4.73282 33.1594C4.80459 33.2818 4.89184 33.4012 4.98073 33.5264L5.25801 33.9069C5.3049 33.9966 5.35221 34.09 5.40644 34.1817C5.46067 34.2734 5.51981 34.3656 5.58016 34.4598C5.70249 34.6478 5.8301 34.8435 5.97078 35.0404C6.27417 35.4473 6.60209 35.8352 6.95269 36.2022C7.31939 36.5842 7.70797 36.9446 8.11646 37.2815C8.51845 37.6069 8.93962 37.9078 9.37769 38.1827C9.46445 38.3184 9.5691 38.4419 9.68882 38.5497C9.82614 38.6689 9.97136 38.7787 10.1235 38.8784C10.2797 38.9848 10.442 39.0888 10.5998 39.1931C10.7629 39.2902 10.919 39.3881 11.0597 39.4892C11.1719 39.5707 11.2828 39.6523 11.3937 39.7338L11.4752 39.7958L11.5605 39.8541L11.7313 39.9712C11.9601 40.1265 12.1876 40.2868 12.4245 40.4332C12.6614 40.5796 12.9081 40.7084 13.1585 40.8316C13.2217 40.8621 13.2845 40.8935 13.3489 40.9209C13.4133 40.9482 13.4794 40.973 13.5451 40.9975C13.6772 41.0469 13.8109 41.0925 13.9467 41.1333C14.003 41.1396 14.0598 41.1407 14.1163 41.1366C14.2109 41.1773 14.3084 41.2238 14.412 41.2634C14.5156 41.3029 14.6224 41.34 14.7321 41.3788C14.9514 41.4554 15.1806 41.5333 15.4139 41.61L16.1254 41.8098L16.4761 41.9097L16.8215 41.9953C16.9825 42.0361 17.1408 42.0814 17.2982 42.1283L17.5338 42.1992L17.7716 42.2596C17.9302 42.3003 18.0892 42.3379 18.2503 42.3721C18.3318 42.3892 18.4126 42.4051 18.4925 42.4198C18.5333 42.4267 18.574 42.4341 18.6148 42.4402L18.7372 42.4528C19.0788 42.4882 19.4222 42.5019 19.7655 42.4936C20.0367 42.479 20.3053 42.434 20.5664 42.3595C20.6402 42.3672 20.7152 42.3721 20.7919 42.3725C20.8686 42.3729 20.946 42.3652 21.0243 42.3586C21.1813 42.3456 21.3403 42.3256 21.4994 42.3093C21.8086 42.2638 22.1225 42.26 22.4328 42.2979C22.5258 42.2425 22.6319 42.2128 22.7402 42.2119C22.8195 42.2098 22.8985 42.2219 22.9734 42.2477C22.9637 42.1694 22.8854 42.1923 22.969 42.1217C22.8621 42.1393 22.7687 42.1433 22.6835 42.1507L22.4458 42.1694C22.2858 42.1822 22.1268 42.2048 21.9695 42.2371C21.9169 42.2339 21.8802 42.2265 21.8366 42.2208C21.7785 42.2113 21.7197 42.2072 21.6608 42.2086C21.2404 42.2539 20.7797 42.3142 20.2834 42.3215L19.9038 42.3313L19.7085 42.3338L19.5111 42.326C19.2456 42.3146 18.9708 42.2983 18.6878 42.275C18.4166 42.2449 18.1455 42.1935 17.8784 42.1458L17.679 42.105C17.6129 42.0924 17.5473 42.0793 17.4833 42.0622L17.1024 41.966L16.7354 41.8758C16.6164 41.8465 16.4993 41.8237 16.3888 41.7943C16.1842 41.7395 15.9764 41.6971 15.7666 41.6675C15.692 41.6235 15.6264 41.5658 15.5733 41.4974C15.5227 41.4917 15.4726 41.4827 15.4232 41.4705C15.3751 41.4579 15.3278 41.4432 15.2809 41.4269C15.188 41.3947 15.0966 41.3563 15.0036 41.316C14.8042 41.2237 14.6 41.1421 14.392 41.0713C14.0703 40.9559 13.7644 40.9364 13.4011 40.7887C13.0403 40.6256 12.7581 40.4625 12.4632 40.2949C12.3181 40.2069 12.1725 40.1114 12.0118 40.0136C11.8512 39.9157 11.6755 39.8138 11.4769 39.6996C11.2913 39.509 11.0822 39.3428 10.8546 39.205L10.6915 39.0916C10.646 39.0582 10.6022 39.0226 10.5602 38.9848C10.5319 38.9674 10.5076 38.9444 10.4886 38.9172C10.4697 38.89 10.4566 38.8591 10.4501 38.8266C10.5654 38.8749 10.669 38.9472 10.7543 39.0386C10.8535 39.1355 10.974 39.2077 11.1062 39.2494C10.995 39.1756 10.8983 39.082 10.8208 38.9734C11.1334 39.091 11.4555 39.182 11.7835 39.2453C11.9372 39.2747 12.095 39.3073 12.2704 39.3579C12.3581 39.3832 12.4502 39.4125 12.5485 39.4484C12.5974 39.4659 12.6484 39.4851 12.7006 39.5063C12.7528 39.5275 12.807 39.5508 12.8637 39.5715C13.046 39.6649 13.2172 39.7485 13.3791 39.8236C13.4607 39.8611 13.5385 39.8961 13.6148 39.9296L13.7273 39.9777C13.7649 39.9928 13.8024 40.0054 13.8391 40.0185C14.0978 40.1114 14.361 40.1913 14.6277 40.2578C15.9863 40.8696 17.4228 41.291 18.8966 41.5101C19.6634 41.6253 20.437 41.6888 21.2123 41.7001L21.7689 41.703C21.8603 41.703 21.9508 41.6973 22.0409 41.6936L22.3088 41.6797L22.8283 41.65C22.9979 41.6345 23.1631 41.6136 23.3241 41.5953C23.4844 41.6014 23.6381 41.6043 23.791 41.6043C23.8677 41.6043 23.9431 41.5986 24.0194 41.5937C24.0956 41.5888 24.1723 41.5823 24.2498 41.5749C24.4047 41.5602 24.5637 41.5419 24.7317 41.519L24.8598 41.5011L24.9907 41.4754L25.2655 41.4175C25.3978 41.4347 25.5314 41.4399 25.6647 41.433C25.7385 41.4293 25.8164 41.4265 25.8963 41.4151C25.9763 41.4036 26.0594 41.3902 26.141 41.3743C26.5048 41.3098 26.8639 41.221 27.2159 41.1084L27.7553 40.9417C27.9299 40.8817 28.0978 40.8193 28.2577 40.7688C28.4175 40.7182 28.568 40.6697 28.7063 40.6338C28.8264 40.5958 28.949 40.566 29.0732 40.5445C29.1781 40.4415 29.301 40.3585 29.4357 40.2998C29.5149 40.259 29.6037 40.2256 29.693 40.1832C29.7823 40.1408 29.8773 40.1041 29.9728 40.0674C30.1632 39.9944 30.3581 39.9304 30.5318 39.8811C30.6696 39.8336 30.8103 39.7951 30.9531 39.7656C31.0505 39.6295 31.1883 39.5273 31.3469 39.4737C31.446 39.4301 31.5484 39.3779 31.6515 39.3351C31.7547 39.2922 31.8554 39.2506 31.9423 39.2168C31.9582 39.2429 31.6931 39.4264 31.972 39.2722C32.0419 39.2383 32.1031 39.1889 32.1511 39.1279C32.222 39.1153 32.3015 39.0965 32.3733 39.0818C32.4311 39.0641 32.4922 39.06 32.5519 39.0696C32.801 38.9375 32.8129 38.871 33.0612 38.7385C33.017 38.8379 32.9465 38.9234 32.8573 38.9856C32.6699 39.1211 32.4582 39.2195 32.2338 39.2755C32.2677 39.3163 32.3941 39.2637 32.2077 39.3852C32.056 39.3183 31.7914 39.6462 31.5651 39.6352C31.6588 39.5914 31.7431 39.5299 31.8134 39.4541C31.6862 39.5312 31.55 39.6229 31.4105 39.6988L31.026 39.919C31.0986 39.8835 31.2046 39.8448 31.1035 39.9055C32.316 39.449 33.4588 38.8255 34.499 38.053C35.5334 37.2832 36.4877 36.4114 37.3476 35.4507C37.5389 35.3181 37.7159 35.166 37.8757 34.9968C37.9055 34.9585 37.9361 34.9218 37.9642 34.8847L38.0457 34.7729L38.1982 34.5642C38.2945 34.4308 38.3797 34.3089 38.4498 34.1972C38.4845 34.1413 38.5163 34.0891 38.542 34.0373C38.5653 33.9892 38.5856 33.9396 38.6027 33.8889C38.6331 33.808 38.6436 33.7211 38.6333 33.6353L38.4335 33.9077C38.3679 33.997 38.2969 34.0806 38.2296 34.1678C38.0926 34.3407 37.9544 34.5161 37.8052 34.7048C37.4271 35.1575 37.025 35.5896 36.6006 35.9991C36.5191 36.0763 36.423 36.1364 36.318 36.176C36.213 36.2157 36.1011 36.234 35.989 36.2299C36.0399 36.1773 36.0913 36.1255 36.1439 36.0737L36.2226 35.9958L36.2989 35.9143C36.4016 35.8075 36.5063 35.7017 36.6128 35.597L36.9354 35.2843C37.0395 35.1756 37.1436 35.0678 37.2477 34.9609L37.5593 34.6396C37.6119 34.587 37.6588 34.5295 37.7073 34.4741L37.8508 34.3065C37.9454 34.1947 38.038 34.083 38.1273 33.9709C38.1718 33.9142 38.217 33.8592 38.2582 33.8017C38.2994 33.7442 38.3397 33.685 38.3769 33.6267C38.4653 33.4926 38.4808 33.4228 38.5693 33.3005L38.7638 33.0359C38.8266 32.9543 38.878 32.8728 38.9322 32.7969C39.0383 32.6456 39.1361 32.5115 39.2287 32.3863L39.3661 32.2032C39.4118 32.1437 39.4509 32.0809 39.4933 32.0209C39.5769 31.8986 39.6605 31.7763 39.7482 31.6446C39.7889 31.5805 39.8322 31.5157 39.875 31.4509C39.9178 31.386 39.9602 31.3208 39.9973 31.2523C40.0748 31.1164 40.1517 30.9795 40.2281 30.8417L40.4565 30.4241C40.525 30.2806 40.5937 30.1369 40.6628 29.9931C40.7318 29.8493 40.7998 29.7055 40.8667 29.5617C40.9021 29.4903 40.9303 29.4161 40.9617 29.3431C40.9931 29.2701 41.0233 29.1971 41.0538 29.1246C41.1762 28.8326 41.3071 28.5484 41.4131 28.2597C41.4628 28.1337 41.533 28.015 41.5933 27.8927C41.6252 27.8302 41.6524 27.7655 41.6749 27.699C41.6982 27.6296 41.7108 27.557 41.712 27.4837C41.6826 27.562 41.6459 27.6387 41.6121 27.717C41.5782 27.7953 41.5444 27.874 41.5109 27.9527C41.4445 28.11 41.3805 28.267 41.3209 28.42C41.3062 28.4583 41.292 28.4962 41.2773 28.5337L41.2304 28.6434C41.1998 28.7156 41.1709 28.7865 41.1435 28.855C41.0889 28.992 41.0412 29.1205 41.0029 29.2363C40.9621 29.3125 40.9172 29.3961 40.872 29.4858C40.8267 29.5755 40.77 29.6665 40.7166 29.7639C40.6098 29.9588 40.4976 30.1717 40.3855 30.3866C40.2632 30.5978 40.1409 30.8135 40.023 31.0211C39.9631 31.1247 39.9088 31.2286 39.8493 31.3249L39.6772 31.6026C39.552 31.7657 39.4326 31.9288 39.3225 32.0882C39.2124 32.2476 39.0888 32.3957 38.9787 32.5486C38.9237 32.6253 38.8686 32.7011 38.8156 32.7773C38.7626 32.8536 38.7088 32.9307 38.6525 33.0041L38.3124 33.4526L38.1403 33.6834C38.0816 33.7605 38.018 33.8343 37.9556 33.9113L37.5658 34.3815C37.4997 34.4631 37.4263 34.5413 37.3517 34.6209L37.1225 34.8655C36.9656 35.0286 36.8045 35.2028 36.6177 35.3667C36.3991 35.4399 36.208 35.5782 36.0701 35.763C36.0028 35.6578 35.7883 35.7863 35.507 36.0203C35.3761 36.1806 35.6587 35.9987 35.5212 36.1484C35.4625 36.2033 35.3934 36.2459 35.318 36.2739C35.2426 36.3019 35.1624 36.3147 35.0821 36.3115C35.1588 36.2515 35.2326 36.1769 35.3027 36.1178C35.3562 36.0674 35.4155 36.0234 35.4793 35.9869C35.3626 35.9567 35.0401 36.2646 34.9606 36.1667C35.0295 36.1084 35.0915 36.0444 35.1551 35.9808L35.3422 35.7928C35.4646 35.6672 35.5869 35.5436 35.7043 35.418L36.0399 35.0303L36.2059 34.8382C36.2609 34.7742 36.3172 34.7122 36.369 34.6449C36.4734 34.5128 36.5786 34.3815 36.6846 34.251L36.8453 34.0565C36.8718 34.0239 36.8999 33.9925 36.9268 33.9594L37.0043 33.8588C37.1079 33.725 37.2144 33.5922 37.324 33.4603C37.3784 33.3943 37.4342 33.3284 37.4916 33.2626C37.5479 33.1969 37.6004 33.1272 37.6567 33.0587C37.8142 32.9723 37.9656 32.8751 38.1098 32.768C38.1301 32.5947 37.7774 32.9824 37.6669 32.9751C37.7167 32.8809 37.7787 32.7782 37.8451 32.6717L37.9483 32.5086C37.9838 32.454 38.0196 32.3993 38.0514 32.3422C38.173 32.1431 38.2808 31.9359 38.374 31.722C38.4054 31.7047 38.4382 31.6902 38.4723 31.6788C38.5295 31.6434 38.574 31.5907 38.5995 31.5284C38.6916 31.3886 38.7785 31.2527 38.8601 31.1206C38.9008 31.0541 38.9416 30.9893 38.9791 30.9253C39.0166 30.8612 39.057 30.7989 39.0888 30.7336C39.223 30.4763 39.3424 30.2321 39.4558 29.9951C39.4848 29.9364 39.5092 29.8757 39.5333 29.8157L39.6059 29.6371L39.7482 29.2836L39.8191 29.1079L39.855 29.0198L39.8868 28.9297C39.9292 28.8098 39.9731 28.6887 40.0185 28.5663L40.1229 28.2903C40.1572 28.1985 40.1963 28.1092 40.2252 28.0167C40.288 27.8328 40.3517 27.6497 40.4165 27.4707L40.5144 27.1999C40.5458 27.1094 40.5718 27.0172 40.6012 26.9259C40.6587 26.7424 40.7166 26.5589 40.7745 26.3742C40.7892 26.3277 40.8035 26.2812 40.8182 26.2351C40.8328 26.189 40.8434 26.1409 40.8561 26.0936L40.9291 25.8082C40.9772 25.6165 41.0269 25.4229 41.073 25.2247C41.1105 25.0249 41.147 24.821 41.1823 24.613C41.1994 24.5092 41.2167 24.4041 41.2341 24.2978C41.2487 24.191 41.2577 24.0825 41.2687 23.9716C41.3005 23.8615 41.3674 24.0038 41.3821 23.773C41.4049 23.6426 41.4269 23.5047 41.4485 23.3628C41.4702 23.2209 41.4791 23.0725 41.495 22.9237C41.5232 22.6252 41.5607 22.321 41.5766 22.0298C41.588 21.8847 41.6019 21.7444 41.6174 21.6078C41.6329 21.4712 41.6545 21.344 41.6688 21.2237C41.6907 21.0191 41.7448 20.8193 41.829 20.6316C41.8225 20.5178 41.8262 20.4253 41.8262 20.3462C41.8267 20.2766 41.8307 20.207 41.8384 20.1378C41.8518 20.0155 41.8722 19.9086 41.8767 19.7586C41.8649 19.6917 41.8535 19.6256 41.8412 19.5547L41.8066 19.3263C41.834 19.1837 41.834 19.0371 41.8066 18.8945L41.7707 18.6009C41.765 18.5512 41.7593 18.5014 41.754 18.4525C41.7487 18.4036 41.7405 18.3563 41.7352 18.3102C41.7168 18.1165 41.7104 17.9219 41.716 17.7275C41.716 17.6329 41.7201 17.5366 41.716 17.4384C41.712 17.3401 41.7014 17.2398 41.6875 17.1338C41.6573 16.8526 41.5986 16.5753 41.5122 16.306C41.4445 16.1021 41.3772 15.9541 41.3136 15.7951C41.294 15.7457 41.2728 15.6935 41.254 15.6393C41.2353 15.5851 41.2088 15.53 41.186 15.4734C41.1395 15.36 41.0914 15.2434 41.0424 15.132C40.9724 14.9396 40.8679 14.7615 40.7342 14.6064C40.7382 14.67 40.746 14.7349 40.7484 14.7993C40.7509 14.8637 40.7509 14.9257 40.7484 14.982C40.854 15.194 40.9853 15.4183 41.1109 15.6695C41.238 15.9433 41.3391 16.2285 41.4127 16.5213C41.4445 16.7004 41.4607 16.8818 41.4612 17.0636C41.4649 17.1489 41.4702 17.2337 41.4828 17.3226C41.498 17.4188 41.5187 17.5141 41.5448 17.608L41.4832 17.619C41.5354 17.891 41.5754 18.1491 41.6055 18.3905C41.6092 18.4207 41.6125 18.4513 41.6161 18.481C41.6198 18.5108 41.6202 18.5414 41.6219 18.5712C41.6251 18.6307 41.6284 18.6894 41.6312 18.7477C41.6365 18.8639 41.6398 18.9773 41.6418 19.0882C41.6439 19.1991 41.6418 19.308 41.6418 19.4144C41.6418 19.5208 41.6296 19.6269 41.6223 19.7304C41.6068 19.9384 41.5888 20.1382 41.5701 20.3421C41.5513 20.546 41.5154 20.7425 41.4906 20.9452C41.4657 21.1478 41.4457 21.3529 41.409 21.5662C41.3723 21.7794 41.354 21.9996 41.3352 22.2329C41.3328 22.2618 41.3307 22.2912 41.3283 22.321C41.3258 22.3507 41.3213 22.3801 41.3177 22.4099C41.3111 22.4698 41.305 22.5302 41.2985 22.5917C41.2863 22.7141 41.2761 22.8421 41.2675 22.9738C41.2492 23.0403 41.2304 23.1063 41.2125 23.1716L41.1843 23.2686L41.1513 23.364C41.1072 23.49 41.0628 23.6128 41.0175 23.731C40.9379 23.955 40.8425 24.173 40.7321 24.3834C40.7513 24.295 40.7729 24.2142 40.7806 24.1388C40.7884 24.0634 40.7982 23.9904 40.8039 23.9227C40.8153 23.7873 40.8198 23.667 40.8243 23.5471C40.8287 23.4272 40.8345 23.3094 40.8398 23.1769C40.8451 23.0443 40.8524 22.8988 40.8724 22.7255C40.8549 22.5028 40.8516 22.2724 40.8345 22.0323C40.8173 21.7921 40.8194 21.5495 40.8145 21.2983C40.8022 21.0479 40.7949 20.7927 40.7908 20.5333V20.4359C40.7908 20.4032 40.7872 20.3706 40.7855 20.338L40.7745 20.1419C40.768 20.0106 40.7615 19.8787 40.7549 19.7463C40.7108 18.699 40.5513 17.6596 40.2791 16.6473C40.2206 16.2943 40.1389 15.9456 40.0344 15.6034C39.9835 15.4366 39.9309 15.2723 39.8774 15.1092C39.824 14.9461 39.7551 14.7903 39.6911 14.6317L39.5953 14.3952C39.5622 14.3169 39.5329 14.237 39.495 14.1603L39.2776 13.6951L39.1691 13.4598C39.1333 13.3811 39.0904 13.3048 39.0513 13.2261C38.9697 13.07 38.8927 12.9118 38.8144 12.7499C38.7945 12.5521 38.7324 12.3609 38.6321 12.1892C38.5775 12.0726 38.5163 11.9498 38.4568 11.8283C38.3972 11.7068 38.3296 11.5926 38.277 11.4842C38.1849 11.4485 38.1094 11.3797 38.0653 11.2913C38.0009 11.18 37.9515 11.0768 37.9047 10.9854C37.862 10.9033 37.8237 10.8191 37.7897 10.7331C37.7375 10.5973 37.6966 10.4575 37.6673 10.3151C37.653 10.2511 37.6416 10.1879 37.6266 10.1255C37.6115 10.0631 37.5931 10.0032 37.5715 9.93791C37.5216 9.78721 37.4549 9.64262 37.3725 9.5069C37.3248 9.43372 37.2714 9.36446 37.2127 9.29975C37.1442 9.22595 37.0716 9.14889 37.0153 9.07753C36.9337 8.97477 36.8241 8.81778 36.7168 8.6665C36.6642 8.58943 36.6063 8.51927 36.5537 8.45607C36.5011 8.39287 36.4563 8.33905 36.42 8.30072C36.2883 8.16289 36.1549 8.03118 36.0171 7.90477C35.8793 7.77837 35.7317 7.66461 35.5853 7.54432L35.3683 7.36164C35.2962 7.29966 35.2179 7.24298 35.1428 7.181C34.9916 7.05867 34.8407 6.93022 34.6902 6.78954C33.7485 5.93843 32.7269 5.18 31.6397 4.52479C31.3991 4.35353 31.1496 4.1951 30.8923 4.05015C30.7504 3.97471 30.6003 3.90296 30.4478 3.82875C30.2953 3.75453 30.1387 3.67788 29.9777 3.60652L29.4847 3.40264C29.3191 3.33495 29.1585 3.25788 28.9876 3.19875C28.8168 3.13963 28.6545 3.06988 28.4922 3.00219C28.4106 2.96848 28.3302 2.93409 28.2508 2.89903L28.0118 2.80403C27.8801 2.78119 27.7407 2.75101 27.5955 2.71513C27.4503 2.67924 27.2999 2.63358 27.1416 2.60014C26.9834 2.56671 26.8228 2.52267 26.6597 2.48108L26.415 2.41786C26.3334 2.39503 26.2486 2.3824 26.1654 2.36445C25.9987 2.33102 25.8323 2.2988 25.6684 2.26903L25.4237 2.22827C25.3422 2.21807 25.263 2.21114 25.1848 2.2038C25.0278 2.19034 24.8765 2.18137 24.7334 2.17851C24.5985 2.17324 24.4634 2.18006 24.3297 2.1989C24.244 2.15955 24.1543 2.12973 24.0622 2.11C23.9117 2.12182 23.7576 2.12387 23.6051 2.12224C23.5272 2.12265 23.451 2.12633 23.3755 2.12837L23.3776 2.12794ZM7.42325 10.6703C7.45873 10.6115 7.4938 10.5532 7.52927 10.4933C7.54722 10.4635 7.56476 10.4333 7.58311 10.4023L7.64304 10.311C7.72459 10.1858 7.81512 10.0488 7.92318 9.8849C7.97863 9.80334 8.03206 9.71771 8.08955 9.63656L8.26611 9.39761L8.6123 8.92419C8.73219 8.77454 8.84881 8.62612 8.95972 8.48096L9.12283 8.26483C9.17666 8.19469 9.23251 8.12904 9.28593 8.06095C9.63897 7.67302 9.91245 7.2196 10.0909 6.72635C10.2782 6.57362 10.4274 6.37942 10.5268 6.15912C10.5729 6.06533 10.6136 5.96953 10.6658 5.8737C10.7242 5.77199 10.7935 5.67695 10.8725 5.5903C11.0112 5.48021 11.1058 5.40027 11.1788 5.33503C11.2518 5.26978 11.3011 5.21964 11.3562 5.17519C11.5174 5.04101 11.6894 4.9203 11.8704 4.81432C11.9593 4.79107 12.0449 4.76703 12.1322 4.74908C12.2194 4.73114 12.3067 4.71564 12.3919 4.70055C12.5627 4.67038 12.7291 4.64468 12.893 4.61899C13.057 4.59331 13.2225 4.58068 13.3868 4.56437L13.8798 4.51583L14.0022 4.50237L14.129 4.49299L14.3859 4.47138C14.5588 4.45548 14.7345 4.43549 14.916 4.41021C15.0999 4.39145 15.2899 4.36945 15.4869 4.3405C15.5855 4.32541 15.6854 4.30909 15.7878 4.29075C15.8901 4.2724 15.9982 4.26098 16.1062 4.24303C16.2959 4.16556 16.4826 4.09012 16.6535 4.03915C16.8012 3.99442 16.9546 3.97148 17.1089 3.97106C16.9018 4.0783 16.6641 4.17493 16.4129 4.29522C16.2859 4.35231 16.1541 4.40914 16.0173 4.46568L15.9142 4.50645C15.8795 4.52113 15.8457 4.53784 15.811 4.55334L15.6006 4.64876C15.4584 4.71237 15.3126 4.77571 15.1631 4.83878C15.0159 4.90647 14.8683 4.98028 14.717 5.05083L14.489 5.15765L14.3741 5.21108L14.2615 5.27062L13.8073 5.50874C12.9193 5.96689 12.0958 6.54042 11.3582 7.21443C9.66095 8.35442 8.16984 9.77465 6.94861 11.4144C7.14434 11.1 7.29276 10.8852 7.42325 10.6703ZM6.31779 12.2585C6.40139 12.1362 6.49111 12.0293 6.58367 11.9135L6.633 11.8552C6.50415 12.0395 6.3787 12.2264 6.25664 12.4159C6.28437 12.3482 6.30067 12.2822 6.31657 12.2585H6.31779ZM3.40758 18.7893C3.42033 18.7288 3.44839 18.6727 3.48911 18.6262C3.55354 18.5581 3.62451 18.5785 3.63797 18.7298C3.62899 18.7726 3.61756 18.7885 3.60778 18.7852C3.60052 18.7772 3.59563 18.7673 3.59369 18.7566C3.59174 18.746 3.59282 18.735 3.59678 18.7249C3.56698 18.7886 3.55298 18.8585 3.55598 18.9288C3.53518 18.8845 3.5289 18.8349 3.53804 18.7869C3.54831 18.7392 3.54392 18.6896 3.52542 18.6445C3.46818 18.7754 3.42536 18.9122 3.39777 19.0523C3.38545 18.9648 3.38835 18.8758 3.40633 18.7893H3.40758ZM2.74779 22.7801C2.73311 22.7137 2.72048 22.6448 2.70703 22.5762C2.69357 22.5077 2.69233 22.4413 2.68744 22.3793C2.67879 22.2844 2.67513 22.1891 2.67644 22.0938C2.68541 21.8659 2.76166 21.4822 2.84443 21.7269C2.8878 21.9552 2.90288 22.188 2.88931 22.4201C2.88875 22.5652 2.89649 22.7101 2.91253 22.8543C2.92298 22.9798 2.94553 23.1039 2.97982 23.225C2.88522 23.2711 2.80407 23.0464 2.74657 22.7801H2.74779ZM3.78598 26.3236C3.77904 26.293 3.77291 26.2633 3.76639 26.2343C3.75986 26.2054 3.75702 26.1756 3.75213 26.147C3.74316 26.09 3.73459 26.0341 3.72562 25.9778C3.70809 25.8653 3.68974 25.7503 3.66487 25.617C3.64 25.4836 3.6041 25.3315 3.57393 25.1452C3.58304 25.1377 3.59405 25.1329 3.60574 25.1313C3.68457 25.6225 3.78257 26.1068 3.89974 26.5842C3.90375 26.6388 3.90031 26.6936 3.88953 26.7473C3.84427 26.5813 3.81208 26.446 3.78476 26.3236H3.78598ZM3.86997 27.4299C3.90626 27.3618 3.95765 27.5498 3.9972 27.5371C4.01802 27.6603 4.02553 27.7854 4.01962 27.9102C3.91891 27.6815 3.95479 27.6395 3.86875 27.4299H3.86997ZM4.09302 28.1133L4.15173 28.0905C4.28303 28.3592 4.51872 28.8424 4.42249 28.9109C4.27761 28.6608 4.16642 28.3926 4.0918 28.1133H4.09302ZM4.39272 29.0026C4.4033 29.0204 4.42021 29.0334 4.44004 29.0392C4.45986 29.0449 4.48114 29.043 4.49957 29.0336C4.64432 29.3154 4.5016 29.3056 4.3915 29.0039L4.39272 29.0026ZM8.12502 36.5292C7.94631 36.4584 7.77273 36.3753 7.60553 36.2805C7.42263 36.1654 7.24808 36.0376 7.08318 35.898C6.99225 35.8213 6.89845 35.7377 6.801 35.646C6.70354 35.5542 6.6114 35.4462 6.51068 35.3324C6.40996 35.2186 6.3068 35.0951 6.19629 34.9613C6.16897 34.9275 6.14083 34.8937 6.11473 34.8582C6.08863 34.8227 6.06131 34.7852 6.03317 34.7477C5.9788 34.6724 5.92334 34.5943 5.8668 34.5136C5.77149 34.3718 5.68438 34.2246 5.60584 34.0728C5.56507 33.9982 5.52795 33.9191 5.4884 33.8436C5.44884 33.7682 5.40685 33.6944 5.36607 33.6239C5.0461 33.2167 4.77637 32.7724 4.56276 32.3007C4.69774 32.3401 4.81607 32.4228 4.89959 32.5359C4.96565 32.6057 5.03578 32.6876 5.10796 32.7769C5.18013 32.8662 5.25272 32.9645 5.33509 33.0591C5.49534 33.2507 5.6613 33.4522 5.81299 33.6255C5.85377 33.6683 5.88842 33.7107 5.92675 33.7478C5.96508 33.7849 6.003 33.8208 6.03969 33.8535C6.10218 33.911 6.16959 33.963 6.24114 34.0088C6.31792 34.1147 6.37649 34.2327 6.41443 34.3579C6.45494 34.4054 6.49205 34.4507 6.52576 34.4936L6.62444 34.6135C6.6852 34.6894 6.73658 34.7591 6.78348 34.8256C6.87767 34.9593 6.9535 35.0812 7.05177 35.2174C7.08317 35.2582 7.11579 35.299 7.15371 35.3397L7.27606 35.4674C7.36088 35.555 7.45342 35.648 7.55088 35.7439L7.85426 36.0391L8.17843 36.327C8.53976 36.6224 8.8736 36.9499 9.17585 37.3056C8.83414 36.9602 8.46143 36.9288 8.1238 36.5292H8.12502ZM10.6352 37.5176C10.5405 37.4707 10.4409 37.4341 10.3384 37.4083C10.3216 37.4023 10.3039 37.3999 10.2861 37.4012C10.2684 37.4024 10.2511 37.4074 10.2354 37.4157C10.2197 37.4241 10.206 37.4356 10.195 37.4495C10.184 37.4635 10.176 37.4796 10.1716 37.4968C9.99 37.371 9.81548 37.2459 9.64802 37.1217L9.58565 37.0752L9.5257 37.0263C9.48492 36.9932 9.44659 36.961 9.40785 36.9284L9.17746 36.7347L8.9536 36.5439C8.9169 36.5121 8.88061 36.4807 8.84391 36.4497C8.80721 36.4187 8.77419 36.384 8.73953 36.3518L8.33177 35.9657L8.13114 35.7777C8.06549 35.7145 8.0031 35.6488 7.93908 35.5852C7.81145 35.4576 7.68301 35.3324 7.55212 35.2093C7.48729 35.1469 7.41835 35.0869 7.35555 35.0241C7.29276 34.9613 7.2267 34.8985 7.16105 34.8362C7.02894 34.7138 6.89276 34.5894 6.75045 34.4692C6.66319 34.375 6.58733 34.2726 6.5119 34.1756C6.43646 34.0785 6.36225 33.9799 6.28967 33.8824C6.21709 33.7849 6.1449 33.6879 6.07476 33.5888C6.00463 33.4897 5.94142 33.3849 5.87414 33.2826L5.67025 32.9698L5.56505 32.8091C5.52876 32.7557 5.49697 32.6978 5.46231 32.6415C5.32531 32.414 5.17686 32.1775 5.0162 31.9231C4.85961 31.6544 4.70468 31.386 4.56196 31.1271C4.4274 30.8633 4.31077 30.6056 4.21413 30.3691C4.1902 30.3101 4.16779 30.2522 4.14685 30.1954C4.12769 30.1379 4.11097 30.0812 4.09588 30.0266C4.06684 29.9248 4.04368 29.8215 4.02654 29.717C3.99219 29.5597 3.99781 29.3962 4.04287 29.2416C4.08048 29.4109 4.14829 29.5722 4.24307 29.7175C4.28755 29.8411 4.32272 29.9678 4.34827 30.0967C4.37461 30.2129 4.41231 30.3263 4.46082 30.4351C4.54467 30.6096 4.64677 30.7747 4.76542 30.9277C4.90901 31.1036 5.03713 31.2916 5.14833 31.4896C5.19564 31.5588 5.26778 31.6072 5.34977 31.6246C6.13142 32.738 6.9998 33.7878 7.94682 34.7644C8.96151 35.8184 10.0518 36.7969 11.209 37.6921C11.0044 37.6909 10.8047 37.6303 10.634 37.5176H10.6352ZM22.8389 40.2754C22.414 40.2819 21.9911 40.2766 21.5703 40.2595C22.1551 40.2489 22.7326 40.2105 23.3029 40.1445C23.1394 40.1901 22.9787 40.2342 22.8368 40.2754H22.8389ZM33.6961 36.0611C33.5602 36.2187 33.4124 36.3657 33.2541 36.5007C33.2059 36.5414 33.1554 36.5867 33.104 36.6316C33.0526 36.6764 32.9947 36.7164 32.9376 36.7596C32.823 36.8452 32.7028 36.9325 32.5804 37.0185C32.3399 37.1878 32.0898 37.343 31.8314 37.4834L31.6544 37.5808C31.5973 37.6118 31.5418 37.6416 31.486 37.6652C31.3759 37.7154 31.2748 37.7582 31.1863 37.7921C30.7801 38.0621 30.3381 38.274 29.8733 38.4216C29.8672 38.4486 29.8945 38.449 29.9349 38.4355C29.9752 38.4221 30.029 38.3947 30.0788 38.3719C29.9421 38.4631 29.7918 38.532 29.6335 38.5758C29.4749 38.6247 29.3093 38.6606 29.1442 38.6953C29.0626 38.7144 28.9762 38.7263 28.8918 38.7405C28.8074 38.7548 28.7225 38.7703 28.639 38.7882C28.4714 38.8223 28.3076 38.8724 28.1497 38.9379C28.0897 38.9497 28.0844 38.9244 28.075 38.9016C28.3681 38.7787 28.6576 38.6488 28.9436 38.5118L28.9648 38.5032L29.0647 38.4547C29.158 38.4078 29.2482 38.3617 29.3366 38.3164L29.4113 38.2781C29.5438 38.2104 29.6726 38.1456 29.8007 38.0865C30.0213 37.9743 30.2721 37.9234 30.5661 37.7904C30.7589 37.6962 30.9636 37.5523 31.1488 37.443C31.2316 37.3926 31.3177 37.3476 31.4065 37.3084C31.4676 37.2758 31.5369 37.2617 31.6059 37.2677C31.6934 37.1877 31.7881 37.1161 31.8889 37.0536C31.9439 37.0177 32.0022 36.9818 32.0626 36.9459L32.1539 36.8913L32.244 36.8326C32.4743 36.6943 32.6893 36.5321 32.8854 36.3486C32.9299 36.4456 32.4084 36.8942 32.8231 36.7445C32.871 36.6957 32.9046 36.6348 32.9205 36.5683C32.9351 36.5052 32.9629 36.4459 33.0021 36.3942C33.3405 36.1341 33.5917 35.9971 33.6949 36.0611H33.6961ZM33.8971 35.9824C33.7201 36.0705 33.754 35.9608 33.794 35.8499C33.9126 35.7683 33.9938 35.7434 34.1002 35.6806C34.0904 35.7429 34.0671 35.8022 34.0318 35.8544C33.9965 35.9065 33.9501 35.9502 33.8959 35.9824H33.8971ZM36.7515 10.3669C36.8057 10.4166 36.86 10.4651 36.9146 10.5116C36.9692 10.5581 37.021 10.6022 37.0691 10.6462C37.2109 10.7982 37.3959 10.9031 37.5992 10.9467L37.7391 11.1539C37.7823 11.2244 37.8256 11.2941 37.8684 11.3643C37.954 11.5037 38.0391 11.6422 38.1236 11.7798C38.2113 11.9164 38.2827 12.062 38.3577 12.2059C38.4327 12.3499 38.5041 12.4971 38.5734 12.6467C38.668 12.8657 38.7181 13.0186 38.7948 13.2013C38.8327 13.2926 38.8763 13.3917 38.931 13.512C38.9856 13.6323 39.0415 13.7787 39.1206 13.9573C39.1565 14.0388 39.194 14.1159 39.2323 14.1934L39.2903 14.3079C39.3094 14.3463 39.3257 14.3854 39.3437 14.4233C39.4134 14.5771 39.4819 14.7284 39.5398 14.8821C39.8181 15.7172 40.0283 16.5734 40.1682 17.4424C40.1865 17.5322 40.2061 17.6219 40.2265 17.7108C40.2469 17.7997 40.2599 17.8894 40.2774 17.9778C40.3109 18.1552 40.3439 18.3302 40.3757 18.4998C40.3831 18.5426 40.3904 18.5846 40.3973 18.6266C40.4043 18.6686 40.4071 18.7106 40.4116 18.7518C40.42 18.835 40.4267 18.9165 40.4316 18.9964C40.442 19.1477 40.442 19.2995 40.4316 19.4507C40.4438 19.5233 40.4499 19.5975 40.4556 19.6725C40.4613 19.7476 40.4667 19.8242 40.472 19.9013C40.4822 20.055 40.4903 20.212 40.4976 20.3706C40.5034 20.4522 40.4976 20.5301 40.4976 20.61L40.4952 20.8502C40.4952 21.0108 40.4952 21.1711 40.4923 21.3305C40.4773 21.6486 40.4638 21.9617 40.4662 22.2598C40.451 22.5396 40.4552 22.8202 40.4789 23.0994C40.4613 23.2026 40.4344 23.3057 40.4157 23.4097C40.3969 23.5137 40.3782 23.6185 40.3627 23.7233C40.3472 23.8281 40.3337 23.9333 40.3219 24.0385L40.3129 24.1168L40.3003 24.1947L40.277 24.35C40.2481 24.5568 40.22 24.7578 40.1926 24.9556C40.1812 25.0538 40.1592 25.1484 40.1404 25.241C40.1217 25.3336 40.0997 25.4241 40.0805 25.5114C40.0362 25.5864 39.9908 25.6648 39.9443 25.7466L39.875 25.8718C39.8521 25.9126 39.8281 25.9583 39.8012 26.0015C39.6976 26.1768 39.5932 26.3664 39.4929 26.5724C39.3926 26.7783 39.2829 26.9989 39.1826 27.2395C39.1316 27.3597 39.0827 27.4841 39.0362 27.6162C38.9897 27.7484 38.9322 27.8788 38.8837 28.0195C38.8429 28.1329 38.8111 28.2426 38.783 28.3494C38.7691 28.4024 38.7561 28.455 38.7447 28.5068C38.7332 28.5586 38.7186 28.6083 38.7039 28.6577C38.655 28.8559 38.6223 29.045 38.5917 29.2285C38.5754 29.3207 38.5648 29.4137 38.5457 29.5026C38.5265 29.5915 38.5082 29.6799 38.4874 29.7688C38.4461 29.9506 38.3932 30.1296 38.3291 30.3047C38.2965 30.3454 38.2639 30.3862 38.2341 30.4241C38.2044 30.462 38.1778 30.5032 38.1526 30.5428C38.1044 30.6219 38.0606 30.7036 38.0213 30.7874C37.9805 30.869 37.9422 30.955 37.899 31.0427C37.8769 31.0863 37.8549 31.1316 37.8284 31.1756C37.8019 31.2197 37.7717 31.2637 37.7395 31.309C37.6424 31.4452 37.5356 31.5814 37.4231 31.7216C37.3656 31.7914 37.3114 31.8652 37.2473 31.9349L37.0565 32.1514C36.926 32.299 36.7976 32.4593 36.661 32.6273C36.5244 32.7953 36.38 32.971 36.2414 33.1696C36.1353 32.9808 36.0673 32.773 36.0412 32.558C35.9468 32.6067 35.8578 32.6652 35.7757 32.7325C36.0106 32.4022 36.2343 32.0638 36.4469 31.7172L36.5158 31.6189C36.6553 31.4284 36.7731 31.2246 36.8975 31.028L37.081 30.7344C37.1421 30.637 37.1939 30.535 37.2506 30.4372C37.3302 30.2958 37.4144 30.1505 37.503 30.0013C37.5487 29.9279 37.5874 29.8488 37.6294 29.7709L37.7566 29.5335C37.7999 29.452 37.8431 29.3737 37.8871 29.293L37.9532 29.1707C37.9756 29.1299 37.994 29.0891 38.0148 29.0459C38.0947 28.8779 38.1754 28.709 38.257 28.5394L38.3177 28.4126C38.3381 28.3718 38.3585 28.3278 38.3748 28.2837C38.4099 28.1969 38.4453 28.1105 38.4804 28.024C38.5501 27.8511 38.6182 27.679 38.6843 27.5094C38.7406 27.3361 38.794 27.1648 38.8437 26.9976C38.8678 26.9136 38.8919 26.8313 38.9151 26.7497C38.9261 26.709 38.9383 26.6682 38.9477 26.6274C38.9571 26.5866 38.9644 26.5458 38.973 26.5051C39.0195 26.3921 39.0778 26.2429 39.139 26.0757C39.1695 25.9941 39.201 25.9048 39.2315 25.8151C39.2621 25.7254 39.2837 25.6312 39.3082 25.5387C39.3555 25.3535 39.3959 25.1717 39.4211 25.0086C39.4277 24.9678 39.433 24.9295 39.4374 24.8919C39.4419 24.8544 39.4415 24.8181 39.4419 24.7843C39.4432 24.7249 39.4388 24.6655 39.4289 24.6069C39.4578 24.4846 39.4839 24.3655 39.508 24.2444C39.5194 24.1841 39.5308 24.1221 39.5426 24.0634L39.5585 23.9728L39.5691 23.8815C39.5965 23.6368 39.6173 23.3967 39.6348 23.1585C39.6405 23.099 39.6409 23.039 39.6413 22.9795L39.6438 22.8017C39.6438 22.684 39.6449 22.567 39.647 22.4506C39.6548 22.2194 39.6409 21.9911 39.6368 21.7689C39.6507 21.6188 39.663 21.4667 39.6703 21.313C39.6703 21.1592 39.6703 21.0035 39.667 20.8465C39.667 20.7682 39.6638 20.6895 39.6621 20.61C39.6605 20.5305 39.6597 20.4514 39.6515 20.3719C39.6385 20.2128 39.6249 20.0526 39.6108 19.8911L39.5924 19.6464C39.5867 19.5649 39.5732 19.4833 39.5647 19.4018C39.5451 19.2387 39.5273 19.0755 39.5113 18.9124C39.4998 18.7493 39.4705 18.5834 39.4546 18.4178C39.4387 18.2523 39.4203 18.0855 39.4089 17.9175C39.3743 17.617 39.4207 17.3756 39.3852 17.0636C39.3445 16.7953 39.2352 16.4805 39.1814 16.1755C39.1328 15.959 39.0998 15.74 39.0709 15.5231C39.0631 15.4685 39.055 15.4138 39.0472 15.36C39.0395 15.3062 39.026 15.2528 39.0146 15.1993C38.9913 15.0929 38.9661 14.9869 38.9363 14.8825C38.909 14.7862 38.8666 14.6786 38.8246 14.5718C38.7826 14.4649 38.7316 14.3622 38.7022 14.2688C38.6615 14.1465 38.6851 14.0478 38.6537 13.9324C38.6286 13.8396 38.5988 13.7482 38.5644 13.6584L38.4462 13.3856C38.3691 13.2215 38.308 13.0504 38.2635 12.8746C38.1236 12.6402 37.9907 12.4106 37.8614 12.179C37.8304 12.1203 37.7942 12.0648 37.7591 12.0081L37.6539 11.8385C37.5846 11.7243 37.5144 11.6095 37.4435 11.4939C37.3754 11.3761 37.2946 11.2644 37.2167 11.1482C37.1389 11.032 37.0573 10.9149 36.9754 10.7942C36.8934 10.6735 36.8025 10.5553 36.7091 10.4338L36.4183 10.0606L36.7515 10.3669ZM35.991 10.163C36.0518 10.2201 36.1068 10.2853 36.1631 10.3469C36.2194 10.4085 36.276 10.4757 36.3323 10.5426C36.3886 10.6095 36.4481 10.6825 36.5072 10.7534L36.5945 10.8615C36.623 10.8982 36.6495 10.9369 36.6761 10.9748C36.7849 11.1278 36.8942 11.2852 37.0023 11.4454L37.0838 11.5678C37.1091 11.6085 37.134 11.6513 37.1593 11.6933L37.3089 11.9478C37.4072 12.1191 37.5128 12.2879 37.598 12.4685L37.8647 13.0047C37.8875 13.0488 37.9055 13.0944 37.9267 13.1405L37.9854 13.2775C38.0262 13.3689 38.0629 13.4602 38.1016 13.5507L38.217 13.8215C38.2525 13.9128 38.2847 14.0046 38.3181 14.0951C38.3846 14.2766 38.4507 14.4552 38.5151 14.6313C38.4869 14.6493 38.445 14.6496 38.5 14.7752C38.5962 15.1276 38.6953 15.4725 38.7569 15.8265C38.7907 16.0022 38.8287 16.1763 38.858 16.3521C38.8874 16.5278 38.9098 16.7048 38.9359 16.8822C38.9498 16.9698 38.9632 17.0583 38.9767 17.1468L39.006 17.4143C39.0264 17.5929 39.049 17.7718 39.0737 17.9509C39.0913 18.1316 39.1076 18.3138 39.1296 18.4969C39.1402 18.5883 39.1516 18.6804 39.1642 18.7726C39.1769 18.8648 39.181 18.9585 39.1911 19.0523C39.2095 19.235 39.245 19.4107 39.2727 19.5865C39.2975 19.7634 39.2993 19.9429 39.278 20.1203C39.3 20.2149 39.3208 20.3164 39.3404 20.422C39.36 20.5276 39.3685 20.6385 39.3812 20.7515C39.3938 20.8644 39.404 20.9806 39.4154 21.0968C39.4269 21.2131 39.4407 21.3305 39.4432 21.4467C39.4191 21.6637 39.4024 21.9128 39.3905 22.1766C39.3669 22.4396 39.3465 22.7173 39.3359 22.9922C39.3359 23.0607 39.3261 23.1288 39.3212 23.196C39.3163 23.2633 39.3114 23.3306 39.3066 23.3971C39.2976 23.53 39.2911 23.6597 39.2874 23.7844C39.2845 23.8464 39.2874 23.9068 39.2821 23.9667C39.2768 24.0267 39.2752 24.0829 39.2727 24.1384C39.2686 24.2497 39.2674 24.3533 39.2699 24.4471C39.2329 24.5659 39.203 24.6868 39.1801 24.8092C39.1524 24.9278 39.1284 25.0457 39.1076 25.1652L39.046 25.526C39.035 25.5872 39.0236 25.6483 39.0125 25.7107C39.0015 25.7731 38.9807 25.8331 38.9628 25.8959C38.9131 26.0688 38.8624 26.2455 38.8107 26.426C38.7981 26.4708 38.785 26.5157 38.7699 26.5609C38.7549 26.6062 38.7398 26.6502 38.7247 26.6951C38.6937 26.7848 38.6623 26.8749 38.6305 26.9654L38.5355 27.2399C38.5024 27.3316 38.4739 27.4258 38.4343 27.5159C38.3599 27.6986 38.2846 27.8832 38.2084 28.0697C38.1416 28.2462 38.0563 28.4159 37.9752 28.5892C38.9904 25.872 39.3362 22.9503 38.9833 20.0712C38.6304 17.1921 37.5893 14.4404 35.948 12.0488C34.3067 9.65718 32.1135 7.69611 29.5539 6.33145C26.9944 4.96679 24.1438 4.2387 21.2433 4.20879C18.3133 4.20517 15.4284 4.93019 12.8482 6.31858C13.0056 6.21541 13.1658 6.11468 13.3334 6.01967L13.5948 5.8635C13.6384 5.8374 13.6817 5.81009 13.7265 5.7848L13.8627 5.71223L14.4128 5.41497C14.6008 5.31996 14.7937 5.22982 14.9865 5.1344C15.1794 5.03899 15.3788 4.95255 15.5794 4.86407C15.6989 4.81147 15.8163 4.75641 15.9329 4.70095L16.2861 4.54234C16.4035 4.48851 16.5205 4.43305 16.6384 4.37922L16.7269 4.33846L16.817 4.30092L16.998 4.22509C17.2433 4.11703 17.494 4.02175 17.7491 3.93965C17.8796 3.89806 18.0127 3.85824 18.1483 3.82019C18.2164 3.80224 18.2845 3.77941 18.3547 3.76717C18.4248 3.75494 18.4962 3.73943 18.5679 3.72638C18.7359 3.69661 18.8941 3.67216 19.0511 3.64933C19.0919 3.64403 19.1286 3.6375 19.1678 3.63342L19.2844 3.62322L19.5184 3.60284C19.6754 3.58897 19.8345 3.57267 20.0025 3.55269C20.1717 3.54127 20.3491 3.52537 20.5415 3.50172C20.5717 3.53189 20.7422 3.49845 20.6761 3.57185C20.7316 3.5637 20.787 3.55677 20.8421 3.55147C20.8971 3.54617 20.9517 3.54778 21.0051 3.54778C21.114 3.54778 21.2209 3.5531 21.3265 3.56085C21.4321 3.5686 21.5357 3.57879 21.6384 3.5898C21.6894 3.59428 21.7408 3.60285 21.7913 3.61182L21.943 3.63669C22.1403 3.67115 22.3395 3.69293 22.5396 3.70192C22.7411 3.72082 22.9444 3.7119 23.1435 3.67541C23.106 3.71619 22.9526 3.70845 23.0766 3.75697L23.2805 3.78594C23.3486 3.7945 23.4171 3.80386 23.4844 3.81772C23.6214 3.8426 23.7588 3.86543 23.8954 3.88338C23.9635 3.89235 24.0316 3.90051 24.0993 3.90662C24.167 3.91274 24.2347 3.91518 24.3032 3.92374C24.4341 3.93751 24.5659 3.94282 24.6975 3.93965C24.8402 3.96982 24.987 3.99796 25.1358 4.03303L25.5864 4.15535L25.816 4.21613L25.9318 4.24629C25.9701 4.2569 26.0085 4.27036 26.0468 4.28218C26.2001 4.33057 26.3543 4.37801 26.5092 4.42449L26.7412 4.49219C26.8191 4.5138 26.8941 4.54316 26.9708 4.56763C27.1229 4.61819 27.275 4.6667 27.4263 4.71155C27.5017 4.7348 27.578 4.75234 27.6518 4.77803C27.7256 4.80372 27.799 4.82695 27.872 4.84978C28.0183 4.89545 28.1631 4.93706 28.3066 4.97213C28.3515 4.99864 28.3984 5.02308 28.4465 5.04632C28.4946 5.06957 28.5415 5.09649 28.5908 5.12014C28.6891 5.16703 28.7915 5.20944 28.8946 5.25103C28.9978 5.29262 29.1022 5.33258 29.2041 5.37622C29.3033 5.42149 29.3999 5.47241 29.4932 5.52873C30.3675 6.04496 31.2524 6.55262 32.1233 7.09984C32.9945 7.64357 33.8324 8.23875 34.6327 8.8822L34.7885 9.04121C34.8411 9.09382 34.8876 9.15172 34.9377 9.20677C35.0507 9.31197 35.1665 9.41391 35.2843 9.51586C35.3426 9.56723 35.4042 9.6166 35.4617 9.67001L35.6342 9.83311C35.7545 9.93382 35.8723 10.0464 35.991 10.163ZM22.5832 3.59998C22.5347 3.51842 22.8886 3.53312 22.836 3.61182C22.7518 3.62503 22.6658 3.62099 22.5832 3.59998ZM24.5238 2.81341C24.6371 2.81341 24.7595 2.82033 24.9014 2.83093C24.9723 2.83623 25.0478 2.84318 25.1297 2.85174C25.2117 2.8603 25.3002 2.86926 25.3944 2.88924L25.8405 2.97854L26.07 3.02503C26.1487 3.04053 26.229 3.0556 26.3114 3.07762C26.9761 3.26901 27.6296 3.49747 28.2687 3.76187C28.4147 3.81244 28.5786 3.82629 28.7213 3.8842C28.7621 3.90051 28.8057 3.91846 28.849 3.93803C28.8922 3.9576 28.9346 3.98166 28.9778 4.0049C29.0647 4.05261 29.1527 4.10398 29.242 4.15535C29.3313 4.20673 29.4215 4.25812 29.5124 4.30665C29.6033 4.35517 29.6955 4.39962 29.784 4.4457C29.8382 4.47302 30.0429 4.52154 30.1004 4.55294C30.1885 4.60327 30.2734 4.6591 30.3544 4.72011L30.4768 4.80862C30.5175 4.8392 30.5559 4.86856 30.5954 4.89466C30.7295 4.98219 30.87 5.07108 31.0171 5.16133L31.2409 5.2967L31.466 5.44595C31.6185 5.54572 31.7752 5.64658 31.9362 5.74852C32.0948 5.85372 32.251 5.96829 32.4124 6.07921L32.6571 6.2472C32.6979 6.27452 32.7386 6.3047 32.777 6.33528L32.8952 6.42622L33.3719 6.79118C33.5277 6.91759 33.6782 7.05051 33.8298 7.17936L34.0557 7.37386C34.1287 7.44073 34.1989 7.51046 34.2694 7.57774C34.4982 7.80079 34.6861 8.02344 34.9059 8.24853C34.9814 8.32233 35.067 8.39329 35.1526 8.46588C35.24 8.53454 35.3205 8.61141 35.3932 8.69544C35.5226 8.85921 35.6432 9.02976 35.7545 9.20637C35.7826 9.24715 35.8132 9.28792 35.8414 9.33278C35.8695 9.37763 35.8984 9.41842 35.9298 9.46083C35.9935 9.54834 36.0646 9.63019 36.1423 9.70548C36.0909 9.72016 36.0163 9.67407 35.9877 9.74625C35.9478 9.66591 35.8983 9.59063 35.8405 9.52198C35.7825 9.45064 35.717 9.38572 35.6452 9.3283C35.5029 9.21127 35.3528 9.11096 35.2342 9.02247C35.0781 8.85386 34.9134 8.69339 34.7408 8.54171L34.4998 8.32396L34.4403 8.27095L34.3783 8.2208L34.256 8.1213L33.7585 7.71926C33.5835 7.59 33.4062 7.45502 33.221 7.30741C33.1872 7.2703 33.1574 7.23483 33.1297 7.20017C33.102 7.16551 33.0743 7.13411 33.0482 7.10231C32.9956 7.03829 32.9446 6.97466 32.881 6.90656C32.7505 6.80543 32.6211 6.70337 32.4928 6.60034L32.096 6.3149L31.8999 6.17176L31.8024 6.10081C31.7702 6.07757 31.7359 6.0572 31.7025 6.03518L31.3053 5.78032C31.2344 5.73547 31.1626 5.69101 31.0901 5.64697C31.0179 5.60293 30.9408 5.56542 30.8658 5.52465L30.4123 5.29344C30.2635 5.21188 30.1069 5.15235 29.9577 5.08303C29.8084 5.01371 29.6612 4.94725 29.5197 4.87915C29.3615 4.80534 29.2025 4.73114 29.0475 4.64958L28.8159 4.52726C28.7393 4.48648 28.663 4.44568 28.5843 4.41347C28.4286 4.34496 28.274 4.28135 28.1211 4.23079C27.974 4.17722 27.8201 4.14469 27.664 4.13415C27.5009 4.07543 27.3202 4.00612 27.1339 3.93313L26.9932 3.87768C26.9463 3.85892 26.8978 3.84504 26.8497 3.82832L26.5594 3.73293C26.4627 3.70153 26.3665 3.67135 26.2739 3.64281C26.1824 3.61292 26.0893 3.58814 25.995 3.56859C25.8292 3.53217 25.6613 3.50601 25.4922 3.49029C25.4233 3.46216 25.3479 3.43483 25.2667 3.40873C25.1856 3.38264 25.0979 3.36469 25.0066 3.34308C24.8239 3.3023 24.6249 3.26439 24.4198 3.22606L24.3427 3.21137L24.2644 3.20077L24.1075 3.17999L23.7931 3.13514C23.6891 3.11924 23.5859 3.10251 23.4848 3.08457C23.3837 3.06663 23.2842 3.05726 23.1883 3.04054C23.0004 3.04054 22.8214 3.04746 22.6485 3.0548C22.562 3.0548 22.4772 3.06907 22.3936 3.07722L22.149 3.10495C21.9858 3.12452 21.8288 3.14165 21.6727 3.16326C21.5165 3.18487 21.3624 3.21627 21.2066 3.23992L20.9725 3.27377L20.8543 3.28885L20.7352 3.30883C20.5758 3.33575 20.4127 3.35941 20.2426 3.37857C20.1578 3.38836 20.071 3.3961 19.9825 3.40425C19.894 3.41241 19.8043 3.4275 19.7117 3.43728C19.5266 3.45685 19.3313 3.47033 19.1237 3.48011C19.2742 3.42417 19.4286 3.37958 19.5857 3.34676C19.6673 3.32801 19.7545 3.31047 19.8402 3.29375L19.969 3.26847L20.0983 3.25052C20.2695 3.22646 20.4359 3.20202 20.5852 3.16899C20.6598 3.15349 20.7303 3.13595 20.7947 3.11637C20.8544 3.09981 20.9131 3.07981 20.9705 3.05644C21.1232 3.05602 21.2758 3.04592 21.4272 3.02625C21.5748 3.0079 21.7183 2.98017 21.8562 2.96264C22.1322 2.92186 22.3863 2.86763 22.606 2.84358C22.7944 2.83093 23.0093 2.83053 23.2267 2.82971H23.3898H23.4713L23.5529 2.83257C23.6597 2.83665 23.7649 2.83868 23.8652 2.83745C23.9876 2.83745 24.0973 2.83094 24.2049 2.82523L24.366 2.81667C24.4124 2.81055 24.4679 2.813 24.5238 2.81341ZM26.0203 41.767L25.9277 41.7853L25.836 41.7996L25.6545 41.8273L25.2998 41.8816L24.9524 41.9354C24.8365 41.9513 24.7207 41.9619 24.6045 41.9762L23.8934 42.0577L23.1247 42.1156C23.3444 42.1586 23.5701 42.1597 23.7902 42.1189C23.9231 42.1079 24.0573 42.0805 24.1812 42.0667C24.2892 42.0509 24.3985 42.0457 24.5075 42.0512C24.6408 42.0181 24.7252 41.977 24.8822 41.9476C25.0562 41.9634 25.2316 41.953 25.4025 41.9166C25.5342 41.8983 25.67 41.8758 25.7821 41.8502C25.8319 41.8391 25.881 41.8255 25.9294 41.8094C25.9615 41.7995 25.9921 41.7852 26.0203 41.767ZM26.2698 41.8449C26.5222 41.7927 26.5145 41.7225 26.7853 41.6736C26.6719 41.6483 26.9618 41.5557 26.7669 41.592C26.6968 41.6813 26.3567 41.7551 26.2698 41.8449ZM19.6322 0.763152C19.673 0.75622 19.7138 0.751325 19.7545 0.745208C19.8361 0.732975 19.9123 0.72075 19.9845 0.707702C20.1062 0.688473 20.2257 0.657477 20.3413 0.615143C20.2018 0.645725 20.0514 0.670575 19.8969 0.692595L19.6628 0.724402C19.5845 0.736635 19.5066 0.751737 19.4291 0.765193C19.2742 0.793737 19.1221 0.82349 18.9806 0.85815C18.9096 0.875277 18.8415 0.893636 18.7767 0.914024C18.7445 0.923811 18.7131 0.934423 18.6825 0.945433C18.6519 0.956443 18.623 0.970304 18.5949 0.983761C18.6234 0.973159 18.6536 0.962546 18.6854 0.952352L18.7865 0.926667C18.857 0.909541 18.9325 0.89364 19.0116 0.877737C19.1694 0.845932 19.3402 0.816159 19.5078 0.785577L19.6322 0.763152Z" fill="#4C4B4B"/>
<path fill-rule="evenodd" clip-rule="evenodd" d="M30.1433 20.1204L24.0827 30.0047L24.9871 29.0505L23.8156 18.3605C23.7504 17.5126 23.8156 16.9662 24.0113 16.7213C24.1481 16.5829 24.3121 16.4745 24.493 16.4029C24.6739 16.3313 24.8677 16.2981 25.0621 16.3054L25.1845 15.816C24.7936 15.8323 24.3129 15.8487 23.7426 15.865C23.1723 15.8813 22.537 15.8894 21.8367 15.8894C21.1525 15.8894 20.464 15.8813 19.7713 15.865C19.0787 15.8487 18.5126 15.8323 18.073 15.816L17.9507 16.3054C18.2308 16.3444 18.4937 16.4633 18.7079 16.6479C19.038 16.9712 19.2307 17.4094 19.2458 17.8712L21.1761 33.2603H22.7146L30.2905 20.7582L30.1433 20.1204ZM33.5894 29.8334L34.5178 28.9527L33.2717 18.3605C33.1738 17.5126 33.2716 16.9662 33.5649 16.7213C33.8582 16.4764 34.4039 16.3377 35.2021 16.3054L35.3244 15.816C34.868 15.8323 34.2896 15.8487 33.5894 15.865C32.8891 15.8813 32.1233 15.8894 31.292 15.8894C30.6567 15.8894 30.0133 15.8813 29.3616 15.865C28.71 15.8487 28.1799 15.8323 27.7713 15.816L27.649 16.3054C27.8891 16.3458 28.1063 16.4719 28.2607 16.6601C28.5237 17.0115 28.6767 17.4329 28.7002 17.8712L30.7289 33.2603H32.2682L40.1128 19.07C40.4032 18.5073 40.7602 17.9816 41.1763 17.5042C41.4574 17.188 41.7879 16.9195 42.1549 16.709C42.4764 16.5362 42.8167 16.4008 43.169 16.3054L43.2914 15.816C43.0304 15.8323 42.7493 15.8487 42.4481 15.865C42.1469 15.8813 41.817 15.8894 41.4585 15.8894C41.1651 15.8894 40.7863 15.8854 40.322 15.8772C39.8577 15.8691 39.4219 15.8609 39.0147 15.8527C38.6069 15.8446 38.306 15.8323 38.1103 15.816L37.9879 16.3054C38.5112 16.3264 39.0273 16.4339 39.5154 16.6234C39.6858 16.6903 39.8324 16.8062 39.9369 16.9564C40.0414 17.1067 40.0989 17.2845 40.1022 17.4675C40.062 18.0746 39.864 18.6608 39.5277 19.1679L33.5894 29.8334ZM47.4457 20.9033C47.5939 21.3101 47.6522 21.7441 47.6166 22.1756C47.6132 23.1701 47.5109 24.1617 47.3111 25.136C47.1128 26.1274 46.8474 27.1042 46.5168 28.0596C46.2224 28.9237 45.8671 29.7658 45.4538 30.5796C45.1433 31.2137 44.7533 31.8057 44.2932 32.3412C44.1706 32.5143 44.0144 32.661 43.8339 32.7724C43.6533 32.8838 43.4522 32.9577 43.2424 32.9896C43.1337 32.9915 43.027 32.9596 42.9372 32.8982C42.8474 32.8369 42.7789 32.7491 42.7413 32.647C42.6121 32.2697 42.5581 31.8707 42.5823 31.4727C42.5871 30.5112 42.6854 29.5525 42.8758 28.6101C43.0692 27.6228 43.3303 26.65 43.6575 25.6987C43.956 24.8185 44.3153 23.9601 44.7328 23.1297C45.052 22.4731 45.4495 21.8576 45.9166 21.2964C46.0409 21.1135 46.2016 20.9582 46.3887 20.8403C46.5759 20.7224 46.7854 20.6445 47.0041 20.6114C47.0975 20.6143 47.1883 20.6431 47.2663 20.6947C47.3443 20.7463 47.4064 20.8185 47.4457 20.9033ZM39.9921 32.4285C40.7084 33.1298 41.7348 33.4805 43.0712 33.4805C44.3429 33.5129 45.6001 33.2046 46.7125 32.5875C47.7221 32.0074 48.5968 31.2193 49.2786 30.2755C49.9479 29.3594 50.4598 28.3382 50.7934 27.2539C51.1065 26.2684 51.2714 25.2418 51.2828 24.2079C51.2828 22.8867 50.9244 21.8755 50.2075 21.1741C49.4907 20.4727 48.4643 20.1221 47.1284 20.1221C45.8567 20.0896 44.5995 20.3979 43.4871 21.0151C42.4777 21.5954 41.6031 22.3835 40.921 23.3271C40.2518 24.2432 39.7397 25.2644 39.4057 26.3487C39.0928 27.3342 38.9279 28.3607 38.9164 29.3947C38.9167 30.7147 39.2753 31.726 39.9921 32.4285ZM58.5651 23.5473C58.7105 23.0347 58.7683 22.5011 58.7359 21.9692C58.7184 21.4745 58.5182 21.0039 58.174 20.6481C57.8321 20.2974 57.2456 20.1221 56.4145 20.1221C55.7086 20.099 55.0141 20.305 54.4348 20.7092C53.8238 21.2086 53.3803 21.8831 53.1642 22.642L52.48 24.5259H52.944L53.4574 23.1558C53.622 22.6632 53.8655 22.2005 54.1783 21.7857C54.2683 21.6739 54.3816 21.583 54.5104 21.5196C54.6391 21.4562 54.7802 21.4218 54.9237 21.4187C54.9856 21.411 55.0485 21.4192 55.1063 21.4428C55.1641 21.4664 55.2148 21.5044 55.2536 21.5533C55.3151 21.6696 55.3366 21.8028 55.3148 21.9325C55.2878 22.1411 55.2386 22.3461 55.168 22.5442L52.1868 33.138H56.0724L58.5651 23.5473ZM56.1943 32.7465C56.5505 31.3671 56.9788 30.0074 57.4776 28.6729C57.9742 27.3436 58.4874 26.1366 59.0169 25.052C59.4431 24.1412 59.9545 23.2729 60.5444 22.4585C61.0337 21.8143 61.4574 21.4921 61.8154 21.4921C61.8826 21.4846 61.9504 21.4999 62.0079 21.5353C62.0655 21.5708 62.1095 21.6245 62.133 21.6879C62.1843 21.8586 62.1927 22.0392 62.1575 22.2139C62.1159 22.4682 62.0503 22.7181 61.9618 22.9601L59.8112 29.4191C59.582 30.0474 59.4541 30.708 59.4324 31.3764C59.4219 31.8186 59.5454 32.2536 59.7868 32.6242C60.1945 33.1951 60.8869 33.4805 61.8639 33.4805C62.5214 33.4708 63.1668 33.3029 63.7458 32.9912C64.3811 32.665 64.878 31.9881 65.2366 30.9605L65.8482 29.1745H65.3834L64.9189 30.4467C64.7693 30.9766 64.502 31.4659 64.1368 31.878C63.9658 32.0489 63.7418 32.1567 63.5015 32.1838C63.4227 32.1847 63.3451 32.1648 63.2765 32.1261C63.2078 32.0875 63.1506 32.0314 63.1105 31.9636C63.0166 31.6637 63.0429 31.3392 63.1839 31.0584L65.6032 23.8164C65.8181 23.2245 65.9257 22.599 65.9208 21.9692C65.9243 21.7184 65.8763 21.4695 65.7796 21.2381C65.683 21.0066 65.5398 20.7974 65.3589 20.6236C64.8634 20.2457 64.2445 20.0668 63.6238 20.1221C63.0056 20.1188 62.3938 20.2481 61.8297 20.5013C61.1795 20.8275 60.6177 21.3059 60.1921 21.8958C59.5485 22.7667 59.0036 23.7062 58.5671 24.6972C57.887 26.2072 57.2834 27.7505 56.7587 29.3213L56.1943 32.7465ZM82.4896 13.6875C81.5696 14.0035 80.6257 14.2448 79.667 14.4092C78.5643 14.5908 77.449 14.6849 76.3315 14.6906L76.1602 15.2044C76.9581 15.2044 77.455 15.3349 77.651 15.5958C77.7523 15.7824 77.8094 15.9897 77.8178 16.2018C77.8263 16.4139 77.786 16.6251 77.7 16.8191L74.3518 29.4191C74.1739 29.9989 74.0712 30.5992 74.0464 31.2052C74.0218 31.6363 74.1102 32.0664 74.3029 32.4529C74.6612 33.138 75.3535 33.4805 76.38 33.4805C77.0375 33.4708 77.6829 33.3029 78.2619 32.9912C78.8972 32.665 79.3941 31.9881 79.7527 30.9605L80.339 29.1745H79.875L79.4106 30.4467C79.2551 30.968 78.9929 31.4512 78.6407 31.8657C78.4775 32.0426 78.2566 32.1554 78.0176 32.1838C77.9303 32.1889 77.8436 32.167 77.7692 32.121C77.6949 32.0751 77.6365 32.0073 77.6021 31.9269C77.529 31.6351 77.5638 31.3266 77.7 31.0584L82.4896 13.6875ZM71.1749 31.7189C71.0613 31.3467 71.0117 30.9579 71.0281 30.569C71.0267 29.3559 71.1786 28.1475 71.4803 26.9725C71.7537 25.8743 72.1429 24.8081 72.6412 23.792C73.0307 22.9692 73.5369 22.207 74.1442 21.5289C74.6735 20.9661 75.1582 20.6848 75.5983 20.6848C75.728 20.6711 75.859 20.6909 75.9788 20.7423C76.0986 20.7937 76.2032 20.875 76.2826 20.9784C76.4367 21.2413 76.5364 21.5325 76.5758 21.8347L76.7711 21.3454C76.7402 21.0085 76.5933 20.6929 76.3556 20.4523C76.0032 20.1936 75.5669 20.0758 75.1323 20.1221C74.1439 20.1093 73.167 20.3359 72.2852 20.7826C71.4244 21.2278 70.6508 21.8245 70.0017 22.5442C69.3402 23.2686 68.7736 24.0743 68.3156 24.9419C67.873 25.7716 67.5285 26.6502 67.2893 27.5597C67.0736 28.3495 66.9587 29.1633 66.9472 29.9819C66.9472 31.2215 67.2444 32.1145 67.8389 32.6609C68.4182 33.2014 69.1851 33.4954 69.9773 33.4805C70.8038 33.503 71.612 33.2346 72.2608 32.7221C72.9843 32.088 73.5598 31.3029 73.9469 30.4222C74.53 29.1756 75.0321 27.8925 75.4499 26.5811L75.8169 23.9387C75.5415 25.1823 75.1906 26.4078 74.7661 27.6086C74.4583 28.4868 74.0782 29.3379 73.6296 30.1531C73.3423 30.6913 72.9848 31.1891 72.5666 31.6333C72.351 31.894 72.0454 32.0642 71.7103 32.1104C71.5899 32.1143 71.4717 32.0776 71.3747 32.0064C71.2776 31.9351 71.2072 31.8333 71.1749 31.7173V31.7189ZM84.8844 28.1958C85.6464 28.0412 86.3975 27.8368 87.1328 27.5842C87.8977 27.3237 88.6446 27.0131 89.3686 26.6545C90.0617 26.3157 90.7177 25.9058 91.3259 25.4312C91.8678 25.0119 92.3339 24.503 92.7042 23.9265C93.0395 23.4047 93.2179 22.7975 93.2179 22.1772C93.237 21.8693 93.1719 21.5621 93.0296 21.2885C92.8874 21.0148 92.6734 20.785 92.4106 20.6236C91.8116 20.273 91.1257 20.0991 90.4321 20.1221C89.4167 20.1133 88.4103 20.3132 87.4754 20.7092C86.5608 21.1021 85.7151 21.639 84.9704 22.2995C84.2161 22.9647 83.5617 23.7351 83.0274 24.5871C82.4993 25.4232 82.0805 26.3236 81.7813 27.2661C81.4936 28.1596 81.3452 29.0921 81.3413 30.0308C81.3097 30.5255 81.4015 31.0203 81.6083 31.4708C81.8151 31.9213 82.1306 32.3134 82.5263 32.612C83.3557 33.2031 84.3552 33.508 85.3733 33.4805C86.2438 33.4916 87.1077 33.3294 87.9149 33.0034C88.6471 32.7061 89.3245 32.2885 89.9191 31.7679C90.446 31.3118 90.9071 30.7849 91.2892 30.2021L90.8965 30.0063C90.3683 30.6281 89.7089 31.1253 88.9658 31.462C88.4817 31.6897 87.9599 31.8265 87.4264 31.8657C86.9052 31.8888 86.3946 31.714 85.9968 31.3764C85.6301 31.0502 85.4467 30.4222 85.4467 29.4925C85.4549 28.474 85.6029 27.4614 85.8867 26.4832C86.164 25.48 86.5449 24.5084 87.0231 23.584C87.4139 22.8034 87.9026 22.0758 88.4773 21.4187C88.9821 20.8645 89.4545 20.5872 89.8947 20.5869C89.9521 20.5836 90.0094 20.5954 90.0608 20.6212C90.1123 20.6469 90.1561 20.6857 90.1878 20.7337C90.2688 20.9096 90.3025 21.1035 90.2857 21.2964C90.2913 22.1855 90.0814 23.0628 89.674 23.8531C89.2748 24.6338 88.7461 25.3411 88.1103 25.945C87.659 26.3566 87.1672 26.7214 86.6423 27.0337C86.0847 27.37 85.505 27.6683 84.9072 27.9267L84.8844 28.1958ZM99.7418 23.5473C99.8716 23.0319 99.9252 22.5002 99.9008 21.9692C99.8934 21.4837 99.7159 21.0162 99.3993 20.6481C99.1913 20.4544 98.9445 20.3073 98.6752 20.2166C98.4058 20.1258 98.1203 20.0936 97.8375 20.1221C97.1013 20.1094 96.3763 20.3044 95.7457 20.6848C95.0651 21.1546 94.5692 21.8466 94.343 22.642L93.6579 24.5259H94.1228L94.6366 23.1558C94.7924 22.6662 95.031 22.207 95.342 21.798C95.4334 21.6835 95.5485 21.5904 95.6795 21.5249C95.8104 21.4594 95.9541 21.4232 96.1005 21.4187C96.1811 21.4088 96.2626 21.4297 96.3284 21.4774C96.3942 21.5251 96.4395 21.5959 96.4552 21.6756C96.4835 21.9697 96.4459 22.2664 96.3451 22.5442L93.3643 33.138H97.2504L99.7418 23.5473ZM103.677 20.6603C103.726 20.6766 103.775 20.6933 103.824 20.7092C103.18 20.8441 102.599 21.1883 102.172 21.6879C101.728 22.1669 101.48 22.7959 101.479 23.4494C101.463 23.6718 101.493 23.895 101.566 24.1054C101.64 24.3158 101.756 24.5089 101.907 24.6727C102.075 24.8202 102.27 24.9329 102.481 25.0043C102.692 25.0757 102.916 25.1044 103.139 25.0886C103.485 25.0958 103.829 25.0247 104.145 24.8807C104.46 24.7367 104.739 24.5234 104.961 24.2568C105.434 23.7156 105.69 23.0183 105.679 22.2995C105.698 21.7293 105.498 21.1733 105.12 20.7459C104.912 20.5312 104.66 20.3641 104.381 20.2564C104.103 20.1486 103.804 20.1028 103.506 20.1221C102.916 20.1101 102.334 20.2581 101.821 20.5502C101.249 20.9242 100.782 21.4379 100.464 22.0426C99.9579 22.9551 99.5401 23.9136 99.2158 24.9051C98.7999 26.104 98.3405 27.625 97.8375 29.4681L97.2993 32.8444C97.8049 30.6424 98.2929 28.8034 98.7632 27.3273C99.1341 26.1151 99.5878 24.9298 100.121 23.7797C100.449 23.0589 100.864 22.381 101.357 21.7613C101.655 21.3768 102.039 21.0669 102.478 20.856C102.803 20.7164 103.152 20.6416 103.506 20.6358C103.563 20.6345 103.621 20.6421 103.677 20.6587V20.6603ZM108.223 28.1958C108.985 28.0412 109.735 27.8369 110.47 27.5842C111.236 27.3237 111.984 27.0132 112.709 26.6545C113.4 26.3152 114.055 25.9053 114.662 25.4312C115.206 25.0131 115.674 24.504 116.044 23.9265C116.377 23.4036 116.554 22.7968 116.554 22.1772C116.574 21.8697 116.51 21.5626 116.368 21.2889C116.226 21.0152 116.013 20.7852 115.751 20.6236C115.151 20.2731 114.464 20.0993 113.769 20.1221C112.754 20.1133 111.748 20.3132 110.813 20.7092C109.898 21.1021 109.053 21.639 108.309 22.2995C107.554 22.9645 106.899 23.735 106.364 24.5871C105.836 25.4232 105.418 26.3236 105.12 27.2661C104.832 28.1596 104.684 29.0921 104.68 30.0308C104.649 30.5252 104.74 31.0197 104.946 31.4701C105.153 31.9205 105.467 32.3128 105.862 32.612C106.693 33.2032 107.693 33.5081 108.713 33.4805C109.583 33.4912 110.446 33.329 111.253 33.0034C111.985 32.7062 112.661 32.2885 113.255 31.7679C113.783 31.3124 114.244 30.7853 114.625 30.2021L114.234 30.0063C113.705 30.6272 113.047 31.1242 112.305 31.462C111.82 31.6898 111.298 31.8266 110.764 31.8657C110.242 31.8888 109.731 31.7141 109.332 31.3764C108.97 31.0502 108.786 30.4222 108.786 29.4925C108.795 28.4743 108.941 27.462 109.222 26.4832C109.5 25.48 109.881 24.5084 110.36 23.584C110.751 22.8034 111.241 22.0758 111.816 21.4187C112.321 20.8646 112.79 20.5869 113.231 20.5869C113.288 20.5836 113.346 20.5954 113.397 20.6211C113.449 20.6469 113.492 20.6857 113.524 20.7337C113.605 20.9095 113.639 21.1035 113.622 21.2964C113.628 22.1856 113.418 23.0629 113.011 23.8531C112.614 24.6347 112.085 25.3423 111.449 25.945C110.998 26.3568 110.506 26.7215 109.981 27.0337C109.424 27.3702 108.845 27.6685 108.248 27.9267L108.223 28.1958ZM123.082 23.5473C123.209 23.0313 123.261 22.5 123.237 21.9692C123.229 21.4846 123.054 21.0176 122.74 20.6481C122.531 20.4541 122.284 20.3068 122.014 20.2161C121.744 20.1254 121.457 20.0933 121.174 20.1221C120.439 20.1088 119.715 20.3039 119.086 20.6848C118.404 21.1542 117.907 21.8461 117.679 22.642L116.994 24.5259H117.459L117.973 23.1558C118.13 22.6659 118.37 22.2065 118.683 21.798C118.774 21.6835 118.889 21.5904 119.02 21.5249C119.151 21.4594 119.295 21.4232 119.441 21.4187C119.521 21.4088 119.602 21.4298 119.667 21.4776C119.733 21.5253 119.777 21.5962 119.792 21.6756C119.82 21.9697 119.782 22.2664 119.682 22.5442L116.701 33.138H120.587L123.082 23.5473ZM127.013 20.6603C127.062 20.6766 127.111 20.6933 127.16 20.7092C126.518 20.8453 125.939 21.1893 125.513 21.6879C125.065 22.1655 124.816 22.7951 124.815 23.4494C124.799 23.6718 124.829 23.895 124.903 24.1054C124.976 24.3158 125.092 24.5089 125.244 24.6727C125.412 24.8199 125.608 24.9324 125.82 25.0038C126.032 25.0752 126.256 25.104 126.479 25.0886C126.825 25.0953 127.168 25.024 127.483 24.88C127.798 24.736 128.076 24.523 128.298 24.2568C128.774 23.717 129.031 23.0191 129.019 22.2995C129.037 21.7288 128.836 21.1728 128.457 20.7459C128.249 20.5312 127.997 20.3641 127.718 20.2564C127.439 20.1486 127.14 20.1028 126.842 20.1221C126.252 20.1112 125.671 20.259 125.158 20.5502C124.586 20.9242 124.118 21.4379 123.8 22.0426C123.296 22.9554 122.88 23.9138 122.556 24.9051C122.14 26.104 121.68 27.625 121.174 29.4681L120.636 32.8444C121.141 30.6424 121.631 28.8034 122.104 27.3273C122.475 26.1159 122.928 24.9307 123.458 23.7797C123.785 23.0589 124.2 22.381 124.693 21.7613C124.993 21.3765 125.378 21.0666 125.819 20.856C126.142 20.7168 126.49 20.642 126.842 20.6358C126.9 20.6345 126.958 20.6421 127.013 20.6587V20.6603Z" fill="#4C4B4B"/>
</g>
<defs>
<clipPath id="clip0_1456_271">
<rect width="130" height="43" fill="white"/>
</clipPath>
</defs>
</svg>
