<svg width="70" height="71" viewBox="0 0 70 71" fill="none" xmlns="http://www.w3.org/2000/svg">
<g clip-path="url(#clip0_124_10977)">
<path d="M38.5182 7.49996H40.8516C41.4959 7.49996 42.0182 6.97763 42.0182 6.33329C42.0182 5.68896 41.4959 5.16663 40.8516 5.16663H38.5182C37.8739 5.16663 37.3516 5.68896 37.3516 6.33329C37.3516 6.97763 37.8739 7.49996 38.5182 7.49996Z" fill="#E8B681"/>
<path d="M8.1862 7.49996H33.8529C34.4972 7.49996 35.0195 6.97763 35.0195 6.33329C35.0195 5.68896 34.4972 5.16663 33.8529 5.16663H8.1862C7.54187 5.16663 7.01953 5.68896 7.01953 6.33329C7.01953 6.97763 7.54187 7.49996 8.1862 7.49996Z" fill="#E8B681"/>
<path d="M68.5087 34.4628C70.6608 32.0652 70.4618 28.377 68.0642 26.2249C65.6666 24.0729 61.9784 24.2719 59.8264 26.6694C53.9534 33.2086 56.6367 30.2208 46.6862 41.3029V26.1666H57.1862C59.1192 26.1666 60.6862 24.5996 60.6862 22.6666V8.6666C60.6804 4.15868 57.0275 0.505724 52.5195 0.499939H8.1862C3.678 0.505082 0.0246747 4.15841 0.0195312 8.6666V66.9999C0.0195312 68.9329 1.58653 70.4999 3.51953 70.4999H43.1862C45.1192 70.4999 46.6862 68.9329 46.6862 66.9999V58.7644L68.5087 34.4628ZM61.5635 28.2281C62.3929 27.2751 63.6715 26.843 64.9089 27.0975C66.1464 27.3521 67.1506 28.2537 67.5365 29.4567C67.9224 30.6597 67.63 31.9772 66.7715 32.9041L62.8749 37.2499C59.6584 34.3624 60.8635 35.4439 57.6657 32.5716L61.5635 28.2281ZM58.3529 8.6666V22.6666C58.3529 23.3109 57.8305 23.8333 57.1862 23.8333H46.6862V8.6666C46.6862 5.44494 49.2979 2.83327 52.5195 2.83327C55.7412 2.83327 58.3529 5.44494 58.3529 8.6666ZM43.1862 68.1666H3.51953C2.8752 68.1666 2.35286 67.6443 2.35286 66.9999V8.6666C2.35672 5.44654 4.96614 2.83713 8.1862 2.83327H46.8145C45.2404 4.36583 44.3526 6.46963 44.3529 8.6666V43.8999L39.6489 49.1371C39.4674 47.3594 37.9731 46.0056 36.1862 45.9999V28.4999H39.6162C40.3786 28.5145 41.1004 28.1575 41.5515 27.5428C42.0027 26.928 42.1268 26.1323 41.8842 25.4094L39.0037 17.2428C38.6565 16.2906 37.748 15.6595 36.7345 15.6666H28.6367C27.6233 15.6599 26.715 16.2908 26.3675 17.2428L23.4859 25.4094C23.2432 26.1325 23.3674 26.9285 23.8189 27.5432C24.2703 28.158 24.9925 28.5149 25.755 28.4999H29.1862V45.9999C27.2532 45.9999 25.6862 47.5669 25.6862 49.4999V51.8333H22.1862V48.0089C22.9045 47.5942 23.3487 46.8294 23.3529 45.9999V43.9233C24.2725 43.1043 24.69 41.8597 24.4501 40.6519C24.2103 39.444 23.349 38.4534 22.1862 38.0479V30.8333C22.1862 28.2559 20.0969 26.1666 17.5195 26.1666H11.6862C9.10887 26.1666 7.01953 28.2559 7.01953 30.8333V38.0479C5.85623 38.4528 4.99438 39.4435 4.75448 40.6517C4.51458 41.8598 4.93251 43.1047 5.85287 43.9233V45.9999C5.85537 46.8298 6.29999 47.5955 7.01953 48.0089V51.8333C6.3752 51.8333 5.85287 52.3556 5.85287 52.9999C5.85287 53.6443 6.3752 54.1666 7.01953 54.1666H36.2842L32.8635 63.4999H14.0195C13.3752 63.4999 12.8529 64.0223 12.8529 64.6666C12.8529 65.3109 13.3752 65.8333 14.0195 65.8333H33.8529C34.3038 65.8327 34.7135 65.5705 34.9029 65.1613L44.3529 60.4946V66.9999C44.3529 67.6443 43.8305 68.1666 43.1862 68.1666ZM42.9727 58.5731L35.8654 62.0824L38.593 54.6403L42.9727 58.5731ZM25.755 26.1666C25.6384 26.1981 25.3537 27.0999 28.6367 17.9999L36.8034 18.0198L39.6162 26.1666H25.755ZM31.5195 28.4999H33.8529V45.9999H31.5195V28.4999ZM36.1862 48.3333C36.8305 48.3333 37.3529 48.8556 37.3529 49.4999V51.6979C37.179 51.8916 38.229 51.8333 28.0195 51.8333V49.4999C28.0195 48.8556 28.5419 48.3333 29.1862 48.3333H36.1862ZM21.0195 40.1666C21.6639 40.1666 22.1862 40.6889 22.1862 41.3333C22.1862 41.9776 21.6639 42.4999 21.0195 42.4999C20.3752 42.4999 19.8529 41.9776 19.8529 41.3333C19.8529 40.6889 20.3752 40.1666 21.0195 40.1666ZM19.8529 38.0479C18.8648 38.4009 18.0872 39.1785 17.7342 40.1666H11.4704C11.1177 39.1788 10.3405 38.4012 9.35287 38.0479V30.8333C9.35287 29.5446 10.3975 28.4999 11.6862 28.4999H17.5195C18.8082 28.4999 19.8529 29.5446 19.8529 30.8333V38.0479ZM8.1862 40.1666C8.83053 40.1666 9.35287 40.6889 9.35287 41.3333C9.35287 41.9776 8.83053 42.4999 8.1862 42.4999C7.54187 42.4999 7.01953 41.9776 7.01953 41.3333C7.01953 40.6889 7.54187 40.1666 8.1862 40.1666ZM11.4704 42.4999H17.7342C18.2268 43.8933 19.5416 44.8271 21.0195 44.8333V45.9999H8.1862V44.8333C9.66369 44.8267 10.9779 43.8929 11.4704 42.4999ZM9.35287 48.3333H11.4342L10.7342 51.8333H9.35287V48.3333ZM13.8084 48.3333H15.4009L16.1009 51.8333H13.1084L13.8084 48.3333ZM17.775 48.3333H19.8529V51.8333H18.475L17.775 48.3333ZM44.9467 57.2093L39.7387 52.5333L56.107 34.3041L61.3162 38.9813L44.9467 57.2093Z" fill="#E8B681"/>
<path d="M10.5182 63.4999H7.01823C6.3739 63.4999 5.85156 64.0222 5.85156 64.6665C5.85156 65.3109 6.3739 65.8332 7.01823 65.8332H10.5182C11.1626 65.8332 11.6849 65.3109 11.6849 64.6665C11.6849 64.0222 11.1626 63.4999 10.5182 63.4999Z" fill="#E8B681"/>
</g>
<defs>
<clipPath id="clip0_124_10977">
<rect width="70" height="70" fill="white" transform="translate(0 0.5)"/>
</clipPath>
</defs>
</svg>
