<svg width="70" height="71" viewBox="0 0 70 71" fill="none" xmlns="http://www.w3.org/2000/svg">
<g clip-path="url(#clip0_124_11007)">
<path d="M61.7575 32.9378C59.3756 31.747 54.9096 31.7332 54.7207 31.7332C54.1544 31.7332 53.6953 32.1923 53.6953 32.7585C53.6953 33.3248 54.1544 33.7839 54.7207 33.7839C55.8731 33.7841 59.219 33.9615 60.8404 34.7721C60.9876 34.8458 61.144 34.8806 61.2981 34.8806C61.6742 34.8806 62.0364 34.6727 62.216 34.3136C62.4694 33.807 62.264 33.1911 61.7575 32.9378Z" fill="#E8B681"/>
<path d="M66.8708 47.5369L62.6359 46.3269C62.4531 46.2747 62.3254 46.1054 62.3254 45.9152V44.5017C62.67 44.263 62.9986 43.9958 63.3058 43.6977C64.7947 42.2528 65.6146 40.3148 65.6146 38.2405V36.29L66.0241 35.4712C66.4735 34.5722 66.711 33.5659 66.711 32.561V27.2768C66.711 26.7105 66.2519 26.2514 65.6856 26.2514H55.8182C52.2301 26.2514 49.3109 29.1706 49.3109 32.7587V32.8198C49.3109 33.6554 49.5085 34.4923 49.8821 35.2396L50.4072 36.2898V37.9646C50.4072 40.6189 51.7152 43.0004 53.6964 44.4335L53.6967 45.915C53.6967 46.1434 53.6967 46.238 52.85 46.48L50.7836 47.0704L44.8062 44.8968C44.8276 44.6148 44.7325 44.3279 44.5267 44.1118L42.6166 42.105V38.7363C42.8185 38.5699 43.0176 38.399 43.2105 38.2182C45.6202 35.9597 47.0021 32.7708 47.0021 29.4695V26.7791C47.7297 25.1958 48.0985 23.5203 48.0985 21.7948V10.8313C48.0985 10.265 47.6394 9.80591 47.0731 9.80591H31.7238C26.3221 9.80591 21.9275 14.2006 21.9275 19.6022V21.795C21.9275 23.5206 22.2962 25.1961 23.0238 26.7794V29.0942C23.0238 32.9272 24.7282 36.3805 27.4094 38.6571V42.1052L25.4993 44.1119C25.2935 44.3281 25.1984 44.6149 25.2198 44.897L18.9109 47.191C18.4538 47.3572 18.029 47.5824 17.6433 47.8551L16.6526 47.3598C19.6016 46.0762 20.5358 44.2708 20.5807 44.1811C20.7251 43.8925 20.7251 43.5526 20.5807 43.264C19.8414 41.7855 19.7519 39.0756 19.68 36.8982C19.6561 36.1733 19.6334 35.4885 19.59 34.8788C19.2404 29.9604 15.5014 26.2514 10.8927 26.2514C6.28387 26.2514 2.54475 29.9603 2.19529 34.8788C2.15195 35.4887 2.12926 36.1735 2.10533 36.8985C2.03342 39.0758 1.94373 41.7854 1.20463 43.2639C1.06025 43.5525 1.06025 43.8924 1.20463 44.181C1.24947 44.2707 2.18176 46.0723 5.13666 47.3575L2.38492 48.7333C0.913828 49.4694 0 50.948 0 52.5926V60.168C0 60.7343 0.459102 61.1934 1.02539 61.1934C1.59168 61.1934 2.05078 60.7343 2.05078 60.168V52.5926C2.05078 51.7296 2.53025 50.9537 3.30203 50.5678L6.72861 48.8546L7.92053 49.9873C8.75396 50.7793 9.8231 51.1751 10.8927 51.1751C11.9619 51.1751 13.0316 50.779 13.8648 49.9873L15.0566 48.8547L16.1738 49.4133C15.6477 50.2551 15.3491 51.2422 15.3491 52.2762V60.1683C15.3491 60.7346 15.8082 61.1937 16.3745 61.1937C16.9408 61.1937 17.3999 60.7346 17.3999 60.1683V52.2762C17.3999 50.8686 18.2887 49.5995 19.6118 49.1184L26.2634 46.6997L29.0324 50.8534C29.3863 51.3844 29.9536 51.725 30.5886 51.7879C30.6595 51.7948 30.7299 51.7982 30.8001 51.7982C31.3604 51.7982 31.897 51.5777 32.2982 51.1767L33.9875 49.4874V60.1684C33.9875 60.7347 34.4466 61.1938 35.0129 61.1938C35.5791 61.1938 36.0382 60.7347 36.0382 60.1684V49.4874L37.7275 51.1767C38.1285 51.5779 38.6652 51.7984 39.2256 51.7984C39.2957 51.7984 39.3662 51.795 39.4369 51.788C40.0721 51.7251 40.6394 51.3845 40.9933 50.8535L43.7624 46.7L50.4139 49.1187C51.7368 49.5998 52.6258 50.8688 52.6258 52.2765V60.1686C52.6258 60.7349 53.0849 61.194 53.6512 61.194C54.2175 61.194 54.6766 60.7349 54.6766 60.1686V52.2765C54.6766 50.8508 54.1101 49.5137 53.1599 48.5248L53.4133 48.4525C53.6688 48.3795 54.0174 48.2795 54.3674 48.1079L56.9855 50.726V60.1686C56.9855 60.7349 57.4446 61.194 58.0109 61.194C58.5772 61.194 59.0363 60.7349 59.0363 60.1686V50.726L61.6361 48.1261C61.7743 48.1964 61.9195 48.2557 62.0724 48.2993L66.3074 49.5093C67.274 49.7855 67.9492 50.6806 67.9492 51.686V60.1686C67.9492 60.7349 68.4083 61.194 68.9746 61.194C69.5409 61.194 70 60.7349 70 60.1686V51.686C70 49.7695 68.7132 48.0634 66.8708 47.5369ZM6.57822 45.7257C4.6602 45.0356 3.69811 44.1155 3.2874 43.613C3.5674 42.881 3.74896 42.0427 3.87188 41.1577C4.43734 42.5135 5.38439 43.671 6.57822 44.4968V45.7257ZM12.4523 48.5009C11.5778 49.3318 10.2077 49.3317 9.33338 48.5007L8.37977 47.5946C8.54068 47.2931 8.62914 46.9513 8.62914 46.5932V45.5003C9.34445 45.7238 10.1049 45.8444 10.8929 45.8444C11.68 45.8444 12.44 45.7233 13.1566 45.501L13.1564 46.5931C13.1564 46.9513 13.2448 47.2932 13.4058 47.5948L12.4523 48.5009ZM10.8932 43.7936C7.83125 43.7936 5.34037 41.3026 5.34037 38.2408C5.34037 37.6745 4.88127 37.2154 4.31498 37.2154C4.25756 37.2154 4.2015 37.2213 4.14668 37.2305C4.14969 37.1423 4.15256 37.054 4.15557 36.9666C4.1784 36.2615 4.20041 35.5956 4.24102 35.0244C4.37199 33.1819 5.10822 31.4842 6.31408 30.2436C7.53074 28.9918 9.15688 28.3025 10.8929 28.3025C12.629 28.3025 14.255 28.9918 15.4718 30.2436C16.6776 31.4842 17.4139 33.1819 17.5448 35.0244C17.5853 35.5954 17.6075 36.2613 17.6307 36.9662C17.6328 37.0267 17.6348 37.0881 17.6369 37.1491C16.5212 35.4303 14.7983 34.1636 12.5721 33.4483C10.5154 32.7875 8.74658 32.8284 8.67193 32.8303C8.40342 32.8378 8.14857 32.9502 7.96223 33.1435L6.11215 35.0622C5.71908 35.4699 5.73084 36.1191 6.13854 36.5121C6.54623 36.9052 7.19537 36.8933 7.58844 36.4858L9.12789 34.8893C10.4537 34.9541 14.7189 35.4501 16.3777 39.1028C15.9603 41.7945 13.6467 43.7936 10.8932 43.7936ZM15.2071 45.7292L15.2072 44.5062C16.4001 43.6849 17.3485 42.5297 17.9144 41.1636C18.0373 42.0465 18.2187 42.883 18.4982 43.6133C18.0898 44.111 17.1232 45.0393 15.2071 45.7292ZM25.0746 29.0941V26.55C25.0746 26.3956 25.0398 26.2432 24.9726 26.1042C24.3128 24.7378 23.9783 23.288 23.9783 21.795V19.6024C23.9783 15.3314 27.453 11.8568 31.7238 11.8568H46.0477V21.7952C46.0477 23.2882 45.7131 24.7379 45.0533 26.1043C44.9862 26.2433 44.9513 26.3958 44.9513 26.5501V29.4698C44.9513 32.2467 43.835 34.8223 41.808 36.7223C41.555 36.9593 41.2923 37.1817 41.0208 37.3888C41.0148 37.3929 41.0091 37.3974 41.0032 37.4016C39.1043 38.8433 36.7784 39.544 34.3495 39.3867C29.1486 39.0499 25.0746 34.5289 25.0746 29.0941ZM30.8481 49.7264C30.841 49.7335 30.8245 49.7503 30.791 49.7468C30.7576 49.7435 30.7445 49.724 30.7389 49.7155L27.5499 44.932L28.5761 43.8537L33.4139 47.1605L30.8481 49.7264ZM35.013 45.7694L29.4602 41.9738V40.0597C30.8969 40.8364 32.5057 41.3222 34.2167 41.4329C34.487 41.4504 34.7557 41.459 35.0235 41.459C36.9842 41.459 38.8712 40.9904 40.5658 40.1007V41.9738L35.013 45.7694ZM39.2871 49.7158C39.2815 49.7242 39.2684 49.7438 39.235 49.7471C39.2015 49.7513 39.1851 49.7337 39.1779 49.7267L36.612 47.1609L41.4498 43.8539L42.4762 44.9322L39.2871 49.7158ZM58.0109 48.8506L55.6839 46.5238C55.7245 46.3393 55.7475 46.1374 55.7473 45.9147L55.7472 45.482C56.3929 45.6939 57.0735 45.8197 57.7778 45.8407C57.8568 45.8432 57.9351 45.8443 58.0139 45.8443C58.7921 45.8443 59.5517 45.7267 60.2746 45.5024V45.9152C60.2746 46.1198 60.3004 46.3202 60.3487 46.5128L58.0109 48.8506ZM61.8777 42.226C60.7909 43.2807 59.3552 43.8377 57.8394 43.7909C54.8721 43.7019 52.458 41.0882 52.458 37.9649V36.048C52.458 35.8887 52.421 35.7317 52.3497 35.5894L51.7163 34.3226C51.4843 33.8584 51.3617 33.3389 51.3617 32.8199V32.7588C51.3617 30.3014 53.3609 28.3023 55.8182 28.3023H64.6602V32.5611C64.6602 33.2493 64.4975 33.9385 64.1897 34.5542L63.6721 35.5894C63.6009 35.7319 63.5638 35.8887 63.5638 36.048V38.2407C63.5638 39.7555 62.965 41.1708 61.8777 42.226Z" fill="#E8B681"/>
<path d="M64.5879 52.5645C64.0216 52.5645 63.5625 53.0236 63.5625 53.5899V60.1681C63.5625 60.7344 64.0216 61.1935 64.5879 61.1935C65.1542 61.1935 65.6133 60.7344 65.6133 60.1681V53.5899C65.6133 53.0238 65.1542 52.5645 64.5879 52.5645Z" fill="#E8B681"/>
<path d="M5.41211 53.9199C4.84582 53.9199 4.38672 54.379 4.38672 54.9453V60.168C4.38672 60.7343 4.84582 61.1934 5.41211 61.1934C5.9784 61.1934 6.4375 60.7343 6.4375 60.168V54.9453C6.4375 54.3791 5.9784 53.9199 5.41211 53.9199Z" fill="#E8B681"/>
<path d="M43.4122 22.1665C39.534 18.2884 31.4199 19.0298 28.111 19.5285C27.0688 19.6856 26.3125 20.5676 26.3125 21.6257V23.9879C26.3125 24.5542 26.7716 25.0133 27.3379 25.0133C27.9042 25.0133 28.3633 24.5542 28.3633 23.9879V21.6255C28.3633 21.5907 28.3862 21.5609 28.4169 21.5562C29.7385 21.357 32.3612 21.0497 35.0785 21.2308C38.2761 21.4437 40.5921 22.2464 41.9621 23.6166C42.3626 24.017 43.0119 24.017 43.4122 23.6166C43.8126 23.2161 43.8126 22.5668 43.4122 22.1665Z" fill="#E8B681"/>
<path d="M22.9551 54.7571C22.3888 54.7571 21.9297 55.2162 21.9297 55.7825V60.1681C21.9297 60.7343 22.3888 61.1934 22.9551 61.1934C23.5214 61.1934 23.9805 60.7343 23.9805 60.1681V55.7825C23.9805 55.2164 23.5214 54.7571 22.9551 54.7571Z" fill="#E8B681"/>
<path d="M47.0723 54.7571C46.506 54.7571 46.0469 55.2162 46.0469 55.7825V60.1681C46.0469 60.7343 46.506 61.1934 47.0723 61.1934C47.6386 61.1934 48.0977 60.7343 48.0977 60.1681V55.7825C48.0977 55.2164 47.6386 54.7571 47.0723 54.7571Z" fill="#E8B681"/>
</g>
<defs>
<clipPath id="clip0_124_11007">
<rect width="70" height="70" fill="white" transform="translate(0 0.5)"/>
</clipPath>
</defs>
</svg>
