<svg width="70" height="70" viewBox="0 0 70 70" fill="none" xmlns="http://www.w3.org/2000/svg">
<g clip-path="url(#clip0_124_10987)">
<path d="M66.8909 53.8374L55.8867 30.3415C55.6467 29.8286 55.0361 29.6078 54.5231 29.8478C54.0103 30.088 53.7892 30.6986 54.0294 31.2114L65.0334 54.7068C65.5256 55.7594 65.0701 57.0168 64.0179 57.5098L42.9198 67.3903C41.8678 67.8832 40.6107 67.428 40.1175 66.3758L36.173 57.951L46.4397 33.1802C46.8833 32.1095 46.8585 30.8926 46.3717 29.8411L40.756 17.7104L48.0353 20.0133C48.5955 20.1902 49.0592 20.5965 49.3081 21.1292L52.0045 26.8842C52.1788 27.2564 52.5482 27.4749 52.9337 27.4749C53.0793 27.4749 53.2274 27.4436 53.3681 27.3778C53.8809 27.1376 54.1019 26.5269 53.8615 26.014L51.1655 20.2599C50.675 19.2096 49.7591 18.407 48.6533 18.0578L39.8746 15.2804C41.6845 12.6366 43.591 9.10114 44.247 7.51833C45.9672 3.36807 44.5788 1.05998 42.706 0.283682C40.8331 -0.492338 38.2192 0.156943 36.499 4.3072C35.7592 6.09221 35.0803 9.9797 34.5976 13.3147C34.0231 13.3504 33.4456 13.4707 32.8831 13.6858L19.6012 18.7605C18.5387 19.1666 17.6794 20.0022 17.2438 21.0529L3.03794 55.3292C2.6126 56.3554 2.61233 57.4856 3.03726 58.512C3.46204 59.5383 4.26117 60.3377 5.28725 60.7629L9.44216 62.4849C9.96538 62.7018 10.5654 62.4535 10.7821 61.9303C10.999 61.407 10.7507 60.8071 10.2275 60.5903L6.07257 58.8681C5.55262 58.6527 5.14752 58.2476 4.93219 57.7274C4.71685 57.2071 4.71699 56.6344 4.9326 56.1143L19.1389 21.8377C19.3597 21.3051 19.7951 20.8816 20.3336 20.6758L33.6155 15.6011C33.8437 15.5138 34.0757 15.4507 34.3088 15.4095C34.1821 16.3727 34.0793 17.215 34.0049 17.8464C33.57 17.8713 33.1392 17.9786 32.7327 18.1689C31.8946 18.5613 31.2596 19.2567 30.9446 20.1267C30.6294 20.997 30.6721 21.9376 31.0645 22.7757C31.6528 24.0321 32.9038 24.7707 34.2074 24.7707C34.6986 24.7707 35.1977 24.6657 35.6712 24.4439C36.5093 24.0516 37.1444 23.3561 37.4595 22.4861C37.7745 21.6159 37.732 20.6753 37.3396 19.8372C37.0473 19.2132 36.5869 18.7021 36.0115 18.3514C36.0878 17.6985 36.2042 16.7356 36.3518 15.6146C37.2394 15.9605 37.9982 16.6347 38.4248 17.5563L44.5104 30.7023C44.7572 31.2351 44.7697 31.8521 44.5448 32.3946L30.3481 66.6482C30.1326 67.1681 29.7275 67.5732 29.2073 67.7886C28.6872 68.004 28.1144 68.0037 27.5943 67.7883L14.9068 62.5299C14.3839 62.3128 13.7837 62.5614 13.5668 63.0846C13.3501 63.6078 13.5983 64.2077 14.1215 64.4246L26.809 69.6829C27.3278 69.898 27.8661 69.9997 28.3957 69.9997C30.028 69.9997 31.5799 69.0327 32.2426 67.4334L35.1095 60.5166L38.26 67.2456C38.9665 68.7534 40.4681 69.6399 42.0323 69.6399C42.6221 69.6399 43.2212 69.5138 43.7897 69.2474L64.8877 59.367C66.9635 58.3944 67.8621 55.9142 66.8909 53.8374ZM35.5311 21.7878C35.4026 22.1427 35.1435 22.4264 34.8014 22.5866C34.0957 22.9172 33.2524 22.6118 32.9218 21.906C32.7617 21.5642 32.7444 21.1803 32.8729 20.8252C33.0014 20.4703 33.2605 20.1866 33.6024 20.0264C33.793 19.9371 33.9966 19.8923 34.201 19.8923C34.3633 19.8923 34.526 19.9206 34.683 19.9774C35.038 20.106 35.3217 20.365 35.4819 20.707C35.6423 21.0491 35.6598 21.4327 35.5311 21.7878ZM38.115 14.2207C37.6553 13.9294 37.1574 13.7031 36.6369 13.5479C37.0993 10.3477 37.7335 6.68653 38.3942 5.09225C38.8594 3.96937 40.1346 1.43814 41.9211 2.1782C43.7075 2.91868 42.8181 5.61014 42.3526 6.73288C41.722 8.2543 39.8628 11.6925 38.115 14.2207Z" fill="#E8B681"/>
<path d="M21.1105 34.5756C23.3321 33.3931 25.8814 33.1463 28.2888 33.8815C32.2845 35.1013 34.9666 38.7249 34.9627 42.8984C34.9622 43.4647 35.4209 43.9244 35.9873 43.9249C35.9876 43.9249 35.9879 43.9249 35.9883 43.9249C36.5542 43.9249 37.0133 43.4663 37.0138 42.9003C37.016 40.4923 36.2327 38.0889 34.8084 36.1327C33.335 34.1094 31.2876 32.6525 28.8875 31.9197C22.8364 30.0726 16.411 33.4925 14.564 39.5433C13.6692 42.4746 13.9695 45.5787 15.4095 48.2841C16.8495 50.9895 19.2565 52.9722 22.1877 53.867C23.2832 54.2014 24.4124 54.3674 25.5395 54.3674C27.1422 54.3674 28.7397 54.0313 30.2247 53.3661C32.729 52.2441 34.749 50.2658 35.9128 47.7954C36.1542 47.2831 35.9345 46.672 35.4223 46.4307C34.91 46.1891 34.2988 46.409 34.0575 46.9212C32.0795 51.1203 27.2344 53.2633 22.7868 51.9052C20.3795 51.1705 18.4027 49.5422 17.2201 47.3205C16.0376 45.0988 15.791 42.5494 16.526 40.1421C17.2604 37.7351 18.8889 35.7581 21.1105 34.5756Z" fill="#E8B681"/>
<path d="M29.4815 40.1018C29.2361 39.6405 28.8256 39.3022 28.3257 39.1498L27.8599 39.0076L28.1764 37.9707C28.3417 37.429 28.0366 36.8558 27.4951 36.6905C26.9531 36.5254 26.3803 36.8302 26.2149 37.3717L25.8912 38.4321C24.525 38.1963 23.1605 39.0079 22.7456 40.3677C22.5277 41.0815 22.6008 41.8375 22.9515 42.4963C23.302 43.155 23.8884 43.638 24.6021 43.8558L25.893 44.2498C26.0829 44.3078 26.2388 44.4362 26.332 44.6114C26.4253 44.7866 26.4447 44.9877 26.3867 45.1776C26.3287 45.3674 26.2004 45.5232 26.0251 45.6165C25.8499 45.7098 25.649 45.7293 25.4591 45.6712L24.8138 45.4741L23.4534 45.0589C23.5602 44.5458 23.2597 44.0264 22.7485 43.8704C22.2065 43.7054 21.6335 44.0101 21.4682 44.5518C21.1534 45.5835 21.7363 46.6791 22.7682 46.9942L23.2341 47.1364L22.9176 48.1733C22.7523 48.7149 23.0573 49.2882 23.5989 49.4535C23.6987 49.484 23.7994 49.4985 23.8986 49.4985C24.3377 49.4985 24.7442 49.2141 24.8791 48.7721L25.2024 47.7128C25.361 47.7404 25.5205 47.7559 25.6796 47.7559C26.1312 47.7559 26.5789 47.6451 26.9888 47.4269C27.6475 47.0764 28.1306 46.49 28.3484 45.7763C28.7982 44.3027 27.9654 42.738 26.4918 42.2882L25.2009 41.8941C25.0112 41.8362 24.8553 41.7078 24.7621 41.5325C24.6688 41.3574 24.6493 41.1563 24.7074 40.9664C24.8269 40.5745 25.2428 40.3528 25.6352 40.4727L26.2801 40.6695L26.2805 40.6697H26.2808L27.6407 41.0849C27.5339 41.5979 27.8344 42.1173 28.3456 42.2733C28.8873 42.4386 29.4606 42.1335 29.6259 41.5919C29.7783 41.0923 29.727 40.563 29.4815 40.1018Z" fill="#E8B681"/>
<path d="M60.0986 53.784L53.5355 39.8373C53.2942 39.3248 52.6831 39.1048 52.1711 39.3461C51.6586 39.5873 51.4388 40.1983 51.6798 40.7106L58.2429 54.6572C58.4178 55.0285 58.7865 55.2463 59.1715 55.2463C59.3178 55.2463 59.4664 55.2149 59.6074 55.1484C60.1198 54.9072 60.3396 54.2964 60.0986 53.784Z" fill="#E8B681"/>
<path d="M55.5127 56.2356L48.9496 42.2889C48.7085 41.7764 48.0972 41.5565 47.5852 41.7977C47.0728 42.0389 46.8528 42.6499 47.0939 43.1622L53.657 57.1088C53.8318 57.4801 54.2006 57.6979 54.5856 57.6979C54.7319 57.6979 54.8805 57.6665 55.0215 57.6C55.5339 57.3589 55.7538 56.7478 55.5127 56.2356Z" fill="#E8B681"/>
</g>
<defs>
<clipPath id="clip0_124_10987">
<rect width="70" height="70" fill="white"/>
</clipPath>
</defs>
</svg>
