<svg width="154" height="154" viewBox="0 0 154 154" fill="none" xmlns="http://www.w3.org/2000/svg">
<path d="M135.519 82.9772C135.61 81.9466 135.901 81.03 136.39 80.2275C136.888 79.4366 137.574 78.8336 138.446 78.4186C139.318 78.0035 140.355 77.8494 141.555 77.9562C142.469 78.0374 143.258 78.2575 143.922 78.6164C144.586 78.9753 145.129 79.4306 145.551 79.9821C145.973 80.5443 146.27 81.1705 146.445 81.8606C146.618 82.5614 146.671 83.289 146.604 84.0433C146.55 84.6489 146.431 85.2006 146.248 85.6983C146.064 86.196 145.831 86.6571 145.547 87.0816L143.581 86.971L143.595 86.8117L144.941 86.1282C145.152 86.0399 145.343 85.9391 145.514 85.8258C145.695 85.7134 145.837 85.5653 145.939 85.3817C146.027 85.2289 146.095 85.0743 146.141 84.9177C146.196 84.7728 146.235 84.5834 146.255 84.3497C146.31 83.7334 146.196 83.1557 145.912 82.6164C145.627 82.0877 145.115 81.6353 144.378 81.2592C143.65 80.8946 142.627 80.6537 141.31 80.5366C140.003 80.4203 138.954 80.4716 138.164 80.6905C137.384 80.9103 136.807 81.2499 136.435 81.7093C136.071 82.1803 135.863 82.724 135.808 83.3402C135.777 83.6802 135.775 83.953 135.799 84.1587C135.834 84.3653 135.891 84.5737 135.968 84.7841C136.035 84.9935 136.144 85.1585 136.294 85.2789C136.454 85.4002 136.627 85.5119 136.81 85.6139L138.31 86.4541L138.296 86.6134L136.021 86.363C135.827 85.8959 135.68 85.3796 135.58 84.8138C135.481 84.2481 135.46 83.6359 135.519 82.9772Z" fill="#303040"/>
<path d="M134.922 88.7011L135.078 88.7371L135.097 88.9386C135.135 89.3415 135.352 89.5885 135.747 89.6796L144.088 91.603C144.296 91.6509 144.462 91.6453 144.585 91.5861C144.718 91.5293 144.835 91.403 144.935 91.2071L145.028 91.0152L145.184 91.0511L145.197 94.0588L145.013 94.2136L142.845 93.6479L137.513 92.4184C137.128 92.3297 136.744 92.241 136.359 92.1523C135.983 92.0764 135.607 91.9954 135.233 91.9091C135.025 91.8611 134.844 91.8632 134.69 91.9152C134.546 91.9696 134.42 92.0883 134.312 92.2714L134.218 92.4633L134.063 92.4274L134.922 88.7011Z" fill="#303040"/>
<path d="M141.252 98.6906C141.367 98.3465 141.571 98.0884 141.864 97.9162C142.164 97.7576 142.481 97.7338 142.815 97.845C143.159 97.9596 143.399 98.1686 143.534 98.4721C143.666 98.7858 143.674 99.1147 143.56 99.4588C143.445 99.8029 143.243 100.056 142.953 100.218C142.663 100.38 142.346 100.404 142.001 100.289C141.668 100.178 141.428 99.9689 141.283 99.662C141.148 99.3585 141.137 99.0347 141.252 98.6906ZM133.529 94.1298L133.681 94.1804L133.671 94.4131C133.664 94.6357 133.71 94.8027 133.808 94.914C133.902 95.0354 134.051 95.1298 134.253 95.1971L139.005 96.7789C139.217 96.8497 139.388 96.8614 139.516 96.8142C139.651 96.7804 139.772 96.669 139.88 96.4801L139.996 96.2827L140.148 96.3332L140.119 99.4095L139.917 99.5108L137.776 98.7476L133.525 97.3326C133.323 97.2652 133.149 97.2467 133.004 97.2771C132.856 97.3177 132.719 97.424 132.595 97.5961L132.498 97.7327L132.347 97.6822L133.529 94.1298Z" fill="#303040"/>
<path d="M130.398 101.572C130.706 100.915 131.126 100.382 131.659 99.9717C132.198 99.5758 132.812 99.345 133.502 99.2791C134.197 99.2275 134.941 99.3869 135.734 99.7574C136.516 100.123 137.104 100.604 137.496 101.2C137.894 101.81 138.105 102.468 138.128 103.173C138.156 103.893 138.01 104.596 137.689 105.282C137.427 105.842 137.114 106.273 136.75 106.574C136.386 106.874 136.006 107.056 135.612 107.119C135.227 107.186 134.875 107.145 134.556 106.996C134.286 106.87 134.112 106.688 134.034 106.452C133.966 106.22 133.993 105.973 134.115 105.712C134.246 105.432 134.453 105.252 134.738 105.173C135.022 105.094 135.335 105.117 135.677 105.242C135.894 105.332 136.071 105.42 136.207 105.507C136.352 105.599 136.507 105.671 136.67 105.724C136.853 105.762 136.988 105.749 137.077 105.685C137.171 105.634 137.252 105.537 137.32 105.392C137.596 104.803 137.554 104.224 137.196 103.656C136.833 103.098 136.091 102.556 134.97 102.032C133.994 101.576 133.162 101.404 132.473 101.518C131.789 101.646 131.271 102.086 130.918 102.84C130.706 103.294 130.617 103.7 130.65 104.057C130.683 104.414 130.803 104.799 131.009 105.214L130.826 105.305C130.369 104.797 130.103 104.219 130.029 103.572C129.954 102.925 130.078 102.258 130.398 101.572Z" fill="#303040"/>
<path d="M128.703 105.822L128.836 105.912L128.768 106.155C128.663 106.522 128.778 106.818 129.115 107.044L136.217 111.823C136.394 111.942 136.55 111.996 136.686 111.985C136.822 111.974 136.977 111.898 137.149 111.756L137.305 111.611L137.437 111.7L136.374 114.513L136.147 114.592L134.315 113.302L127.837 108.943C127.483 108.704 127.164 108.702 126.879 108.934L126.701 109.084L126.568 108.995L128.703 105.822ZM125.389 110.747L130.297 110.617L130.915 114.601C130.944 114.787 131.01 114.928 131.113 115.023C131.219 115.133 131.358 115.117 131.53 114.976L131.748 114.795L131.881 114.884L130.55 116.862L130.417 116.773L130.579 116.303C130.648 116.067 130.68 115.857 130.675 115.673C130.673 115.505 130.653 115.286 130.616 115.016L130.222 112.592L125.318 112.744C125.028 112.754 124.788 112.786 124.599 112.838C124.409 112.891 124.214 112.99 124.012 113.137L123.949 113.173L123.817 113.083L125.389 110.747Z" fill="#303040"/>
<path d="M117.605 119.8L117.711 119.92L117.327 120.475C117.064 120.838 117.078 121.182 117.369 121.509L123.432 128.322L124.448 127.418C124.743 127.155 124.883 126.888 124.869 126.615C124.862 126.35 124.809 126.018 124.711 125.62L124.397 124.4L124.517 124.294L126.191 126.295L119.294 132.433L117.513 130.527L117.632 130.421L118.807 130.874C119.184 131.025 119.503 131.119 119.765 131.157C120.035 131.203 120.317 131.095 120.612 130.832L121.627 129.928L115.564 123.115C115.274 122.789 114.933 122.735 114.542 122.954L113.946 123.27L113.84 123.151L117.605 119.8Z" fill="#303040"/>
<path d="M107.504 127.207C108.194 126.782 108.88 126.554 109.562 126.522C110.25 126.499 110.896 126.665 111.502 127.018C112.099 127.377 112.616 127.911 113.052 128.619C113.488 129.328 113.721 130.03 113.749 130.727C113.768 131.429 113.61 132.078 113.275 132.673C112.93 133.273 112.436 133.772 111.791 134.169C111.146 134.566 110.483 134.78 109.801 134.812C109.124 134.853 108.481 134.704 107.872 134.365C107.253 134.032 106.723 133.507 106.281 132.789C105.839 132.072 105.597 131.363 105.554 130.663C105.508 129.977 105.649 129.332 105.979 128.729C106.305 128.139 106.813 127.632 107.504 127.207ZM107.671 127.48C107.354 127.675 107.155 127.923 107.076 128.222C106.997 128.521 107.06 128.927 107.263 129.441C107.458 129.96 107.815 130.642 108.335 131.487C108.861 132.34 109.312 132.971 109.688 133.378C110.055 133.791 110.39 134.03 110.692 134.094C110.995 134.158 111.305 134.092 111.623 133.896C111.941 133.701 112.144 133.45 112.232 133.146C112.311 132.847 112.253 132.438 112.059 131.918C111.855 131.405 111.49 130.721 110.965 129.867C110.444 129.023 110.001 128.394 109.634 127.981C109.258 127.574 108.918 127.338 108.616 127.274C108.304 127.215 107.989 127.284 107.671 127.48Z" fill="#303040"/>
<path d="M94.2183 133.498L99.3129 142.025C99.4458 142.244 99.5668 142.395 99.6758 142.477C99.7875 142.57 99.9585 142.636 100.189 142.676L100.395 142.707L100.434 142.862L96.3255 143.908L96.286 143.753L96.58 143.546C96.794 143.393 96.9253 143.238 96.9737 143.083C97.0222 142.927 96.98 142.74 96.8471 142.521L93.5138 136.501L93.0628 142.378L93.6999 143.388C93.8275 143.587 93.9369 143.735 94.0278 143.833C94.1188 143.931 94.2459 143.998 94.409 144.033L94.7975 144.133L94.837 144.288L90.9453 145.279L90.9058 145.124L91.3391 144.815C91.5274 144.69 91.6186 144.552 91.6128 144.399C91.5992 144.259 91.5286 144.09 91.4009 143.892L87.7531 137.804L87.5397 144.743C87.5305 145.01 87.56 145.233 87.628 145.414C87.6961 145.595 87.8595 145.696 88.1183 145.719L88.4716 145.744L88.5111 145.899L86.3559 146.448L86.3164 146.293L86.6801 146.035C86.8684 145.91 86.9841 145.76 87.0273 145.584C87.0705 145.408 87.0941 145.198 87.0982 144.955L87.3652 135.244L88.435 134.972L92.6172 141.666L93.1485 133.771L94.2183 133.498Z" fill="#303040"/>
<path d="M79.5323 135.807C80.1506 135.785 80.679 135.943 81.1177 136.28C81.5456 136.617 81.7711 137.116 81.7941 137.777C81.8115 138.278 81.5716 138.745 81.0743 139.179C80.5774 139.623 79.7837 139.971 78.6931 140.222C78.5237 140.26 78.3329 140.299 78.1208 140.338C77.9091 140.388 77.6867 140.439 77.4536 140.49L77.4975 141.753C77.5227 142.478 77.6309 142.981 77.8222 143.262C78.0031 143.555 78.2801 143.695 78.6532 143.682C78.9091 143.673 79.1087 143.581 79.252 143.405C79.3957 143.24 79.4818 142.954 79.5103 142.547L79.5362 142.37C79.5416 141.911 79.6419 141.572 79.837 141.351C80.0321 141.131 80.279 141.016 80.5774 141.005C80.8546 140.996 81.0868 141.073 81.2739 141.237C81.4611 141.402 81.5596 141.628 81.5696 141.915C81.5848 142.353 81.4484 142.725 81.1603 143.034C80.8615 143.344 80.4642 143.582 79.9683 143.748C79.4725 143.915 78.9314 144.008 78.3451 144.029C77.3963 144.062 76.658 143.853 76.13 143.401C75.5917 142.961 75.3044 142.219 75.2681 141.174L75.1453 137.64C75.1286 137.16 74.8964 136.928 74.4487 136.944L74.0969 136.956L73.9485 136.833C74.1422 136.57 74.3592 136.365 74.5996 136.218C74.8293 136.071 75.1627 135.99 75.5997 135.975C76.0688 135.959 76.4456 136.053 76.7302 136.256C77.0045 136.471 77.1905 136.758 77.2884 137.117C77.5964 136.765 77.9167 136.46 78.2493 136.203C78.5716 135.957 78.9992 135.825 79.5323 135.807ZM78.5907 136.816C78.3775 136.823 78.182 136.878 78.0041 136.98C77.8159 137.094 77.5976 137.261 77.3492 137.483L77.4425 140.17C77.5484 140.145 77.6542 140.12 77.7601 140.095C77.866 140.07 77.9878 140.044 78.1257 140.018C78.6116 139.873 78.9984 139.641 79.2862 139.321C79.5636 139.013 79.6935 138.603 79.6757 138.091C79.6605 137.654 79.5477 137.327 79.3374 137.11C79.1275 136.904 78.8786 136.806 78.5907 136.816Z" fill="#303040"/>
<path d="M70.6093 135.569C71.2886 135.638 71.8022 135.861 72.1501 136.239C72.4874 136.616 72.6187 137.176 72.5439 137.919L71.9963 143.363L73.0948 143.474L73.0787 143.633L72.6903 143.658C72.3538 143.699 72.0619 143.777 71.8145 143.892C71.5565 144.005 71.299 144.167 71.0421 144.377L69.5909 145.694L69.4317 145.678L69.7037 143.454L67.9207 143.275L67.9527 142.957L69.7516 143.138L70.3281 137.406C70.3654 137.035 70.3141 136.746 70.1741 136.539C70.0236 136.331 69.8209 136.214 69.5662 136.188C69.3433 136.166 69.1416 136.199 68.9611 136.288C68.7796 136.388 68.5943 136.525 68.4053 136.698L68.2621 136.523C68.5106 136.184 68.8313 135.927 69.2241 135.752C69.617 135.577 70.0787 135.516 70.6093 135.569Z" fill="#303040"/>
<path d="M63.5468 134.423C64.2542 134.583 64.865 134.88 65.3792 135.314C65.8807 135.755 66.2371 136.306 66.4484 136.967C66.6469 137.635 66.6495 138.396 66.4563 139.249C66.2653 140.092 65.9206 140.768 65.4222 141.279C64.911 141.797 64.3131 142.143 63.6286 142.316C62.9314 142.497 62.2134 142.504 61.4748 142.336C60.8714 142.2 60.3841 141.985 60.0128 141.693C59.6414 141.402 59.3831 141.07 59.2377 140.698C59.0899 140.336 59.0549 139.984 59.1327 139.64C59.1987 139.349 59.339 139.14 59.5536 139.014C59.7658 138.898 60.0123 138.872 60.2932 138.935C60.5949 139.004 60.8146 139.168 60.9524 139.429C61.0901 139.69 61.1345 140.001 61.0856 140.362C61.0441 140.593 60.9953 140.784 60.9392 140.935C60.8807 141.097 60.8429 141.264 60.826 141.435C60.8276 141.621 60.8693 141.751 60.9511 141.824C61.0202 141.905 61.1327 141.964 61.2888 141.999C61.9234 142.143 62.48 141.979 62.9586 141.508C63.4268 141.034 63.7977 140.194 64.0711 138.987C64.3092 137.937 64.2994 137.087 64.0417 136.438C63.7714 135.797 63.2305 135.385 62.419 135.201C61.9301 135.09 61.5147 135.089 61.173 135.197C60.8312 135.306 60.4798 135.505 60.1188 135.795L59.991 135.635C60.3902 135.08 60.898 134.697 61.5143 134.487C62.1307 134.277 62.8082 134.255 63.5468 134.423Z" fill="#303040"/>
<path d="M58.1471 133.338L58.087 133.487L57.885 133.474C57.481 133.448 57.2029 133.623 57.0506 133.999L53.8403 141.917C53.7561 142.124 53.7286 142.292 53.7577 142.419C53.7868 142.545 53.8902 142.674 54.0679 142.803L54.2662 142.953L54.2061 143.101L51.338 142.681L51.1548 142.451L52.0618 140.384L52.8133 138.531C52.3511 138.677 51.8822 138.769 51.4066 138.806C50.9172 138.85 50.4303 138.773 49.9459 138.577C49.3034 138.316 48.8684 137.927 48.6411 137.409C48.4039 136.887 48.4396 136.245 48.7482 135.484L50.4435 131.303C50.5237 131.105 50.5482 130.931 50.5173 130.78C50.4863 130.629 50.3839 130.484 50.2103 130.345L50.1097 130.252L50.1698 130.104L53.6395 131.511L53.5794 131.659L53.3834 131.631C52.9794 131.606 52.6993 131.786 52.543 132.171L50.6553 136.827C50.495 137.223 50.454 137.522 50.5322 137.727C50.6006 137.927 50.8029 138.096 51.1389 138.232C51.3564 138.32 51.6117 138.372 51.9048 138.387C52.1939 138.412 52.5139 138.375 52.865 138.276L54.9571 133.116C55.1134 132.73 55.0357 132.411 54.7239 132.158L54.6173 132.08L54.6774 131.932L58.1471 133.338Z" fill="#303040"/>
<path d="M40.7588 124.025L37.7412 133.697C37.6721 133.912 37.6533 134.105 37.6847 134.276C37.7011 134.449 37.7751 134.625 37.9067 134.805L38.1359 135.138L38.0395 135.266L34.3632 132.488L34.4596 132.36L34.9422 132.544C35.1765 132.641 35.3546 132.635 35.4766 132.527C35.5901 132.412 35.6878 132.239 35.7697 132.006L38.1154 124.975L31.9689 129.154C31.7529 129.298 31.6009 129.438 31.513 129.572C31.4165 129.699 31.4468 129.863 31.604 130.062L31.8683 130.402L31.7719 130.529L29.9848 129.179L30.0813 129.051L30.5031 129.21C30.6969 129.289 30.8697 129.3 31.0214 129.24C31.1666 129.19 31.3333 129.102 31.5215 128.977L39.8142 123.311L40.7588 124.025Z" fill="#303040"/>
<path d="M27.9687 124.491C28.2252 124.747 28.3647 125.045 28.3874 125.385C28.3949 125.724 28.2742 126.018 28.0253 126.267C27.7689 126.524 27.4747 126.644 27.1428 126.629C26.8034 126.607 26.5055 126.467 26.2491 126.211C25.9926 125.954 25.8569 125.66 25.8418 125.328C25.8267 124.996 25.9474 124.702 26.2038 124.446C26.4527 124.197 26.7469 124.076 27.0863 124.084C27.4181 124.099 27.7123 124.234 27.9687 124.491ZM35.5037 119.626L35.3905 119.739L35.1869 119.626C34.9908 119.52 34.8211 119.486 34.6778 119.524C34.5269 119.554 34.3761 119.645 34.2252 119.796L30.684 123.337C30.5256 123.495 30.4389 123.642 30.4238 123.778C30.3937 123.914 30.4389 124.072 30.5596 124.253L30.684 124.446L30.5709 124.559L27.833 123.156L27.833 122.93L29.4735 121.357L32.6413 118.189C32.7922 118.038 32.8864 117.891 32.9242 117.748C32.9543 117.597 32.9204 117.427 32.8223 117.239L32.7431 117.092L32.8563 116.979L35.5037 119.626Z" fill="#303040"/>
<path d="M30.4173 113.734C30.8004 114.233 31.0345 114.766 31.1196 115.333C31.1963 115.906 31.0928 116.489 30.8092 117.083C30.5105 117.675 29.9931 118.254 29.2568 118.819C28.5121 119.39 27.7979 119.73 27.1143 119.837C26.4221 119.952 25.792 119.884 25.2239 119.634C24.6474 119.391 24.1643 119.015 23.7747 118.507C23.5475 118.211 23.3596 117.905 23.211 117.589C23.0625 117.272 22.9663 116.963 22.9225 116.661L21.2722 117.927C21.0945 118.063 20.986 118.193 20.9469 118.318C20.9012 118.433 20.9296 118.593 21.0321 118.797L21.1664 119.077L21.0394 119.174L18.7083 117.292L18.7154 117.065L20.5316 115.752L26.7391 110.99C26.9083 110.86 27.0252 110.723 27.0898 110.579C27.1459 110.442 27.1334 110.277 27.0524 110.084L27.0028 109.94L27.1297 109.843L28.9348 111.907L28.5655 112.371C28.8931 112.483 29.2171 112.651 29.5375 112.876C29.8513 113.092 30.1446 113.378 30.4173 113.734ZM29.3827 113.358C29.11 113.002 28.7543 112.758 28.3154 112.624L23.2758 116.49C23.3129 116.959 23.4581 117.359 23.7114 117.689C24.023 118.095 24.5262 118.26 25.2209 118.184C25.9071 118.115 26.7537 117.694 27.7608 116.921C28.7679 116.149 29.3749 115.468 29.5818 114.879C29.7802 114.296 29.7139 113.789 29.3827 113.358Z" fill="#303040"/>
<path d="M16.8154 107.787C16.4873 107.177 16.3339 106.587 16.3554 106.018C16.3675 105.455 16.5291 104.944 16.8401 104.487C17.1368 104.024 17.5576 103.647 18.1026 103.354C18.2059 103.299 18.3165 103.245 18.4343 103.194C18.5427 103.148 18.6468 103.116 18.7465 103.099L21.0031 107.299C22.0129 106.745 22.6499 106.172 22.9141 105.582C23.1639 104.988 23.102 104.343 22.7284 103.648C22.476 103.178 22.1964 102.838 21.8895 102.627C21.5827 102.417 21.2155 102.263 20.7879 102.166L20.839 101.957C21.5123 101.97 22.1259 102.143 22.6797 102.475C23.2284 102.798 23.6845 103.298 24.048 103.974C24.4065 104.641 24.5836 105.309 24.5793 105.977C24.5657 106.651 24.3693 107.277 23.9902 107.856C23.6111 108.435 23.0504 108.924 22.3081 109.323C21.5376 109.736 20.7937 109.918 20.0764 109.868C19.3496 109.822 18.704 109.612 18.1394 109.237C17.5697 108.853 17.1284 108.37 16.8154 107.787ZM17.12 107.678C17.2664 107.951 17.4772 108.14 17.7523 108.247C18.0131 108.349 18.3851 108.343 18.8685 108.228C19.3375 108.109 19.9551 107.85 20.7212 107.451L19.4263 105.04C18.3516 105.497 17.6342 105.931 17.2741 106.342C16.9139 106.754 16.8626 107.199 17.12 107.678Z" fill="#303040"/>
<path d="M20.5882 95.9162C20.8529 96.6824 20.9265 97.4018 20.809 98.0744C20.6815 98.7505 20.3793 99.3458 19.9026 99.8603C19.4223 100.365 18.789 100.753 18.0026 101.025C17.2162 101.296 16.48 101.37 15.7938 101.246C15.1042 101.112 14.5056 100.816 13.998 100.36C13.4869 99.8932 13.1077 99.302 12.8604 98.5861C12.6131 97.8703 12.5482 97.1761 12.6656 96.5036C12.773 95.8345 13.0583 95.2394 13.5215 94.7182C13.9813 94.1869 14.6094 93.7837 15.4058 93.5085C16.2023 93.2334 16.9469 93.151 17.6396 93.2615C18.3188 93.3655 18.9172 93.644 19.4349 94.0971C19.939 94.5436 20.3234 95.15 20.5882 95.9162ZM20.2857 96.0207C20.1638 95.6678 19.9654 95.4204 19.6907 95.2783C19.4159 95.1363 19.0057 95.1087 18.4602 95.1956C17.9112 95.2724 17.1679 95.4728 16.2303 95.7968C15.2826 96.1242 14.569 96.4271 14.0897 96.7056C13.6069 96.974 13.3012 97.2489 13.1727 97.5303C13.0442 97.8116 13.0409 98.1288 13.1629 98.4816C13.2848 98.8345 13.4849 99.087 13.7631 99.2391C14.0379 99.3812 14.4498 99.4138 14.9988 99.337C15.5443 99.2501 16.291 99.0429 17.2387 98.7155C18.1763 98.3915 18.8865 98.0954 19.3693 97.827C19.8487 97.5485 20.1526 97.2686 20.2811 96.9872C20.4061 96.6957 20.4076 96.3736 20.2857 96.0207Z" fill="#303040"/>
<path d="M17.7623 83.4699C17.8096 83.851 17.7172 84.1902 17.4854 84.4877C17.2536 84.7851 16.9524 84.9568 16.5819 85.0027C16.2114 85.0487 15.8721 84.9564 15.5641 84.7258C15.2561 84.4953 15.0784 84.1895 15.0312 83.8084C14.984 83.4273 15.0816 83.0874 15.324 82.7886C15.5664 82.4899 15.8729 82.3176 16.2434 82.2716C16.6139 82.2257 16.9479 82.3187 17.2453 82.5505C17.5427 82.7824 17.7151 83.0888 17.7623 83.4699Z" fill="#303040"/>
<path d="M17.7718 70.049C17.6762 71.0793 17.3823 71.9947 16.8902 72.7953C16.3885 73.5843 15.7007 74.1847 14.827 74.5963C13.9532 75.008 12.9162 75.1582 11.716 75.0468C10.8026 74.962 10.0145 74.7389 9.35176 74.3774C8.689 74.0159 8.14762 73.5586 7.72761 73.0054C7.30859 72.4416 7.0133 71.8143 6.84174 71.1235C6.67117 70.4221 6.62088 69.6943 6.69087 68.9402C6.74706 68.3348 6.86785 67.7836 7.05324 67.2866C7.23863 66.7896 7.47417 66.3294 7.75986 65.906L9.72535 66.0242L9.71056 66.1835L8.36211 66.8618C8.15045 66.9493 7.95905 67.0493 7.7879 67.162C7.60614 67.2737 7.4639 67.4212 7.36119 67.6045C7.27205 67.7569 7.20416 67.9113 7.15751 68.0676C7.10122 68.2124 7.06224 68.4016 7.04055 68.6352C6.98338 69.2512 7.09575 69.8294 7.37769 70.3698C7.66061 70.8996 8.17013 71.3539 8.90626 71.7329C9.63275 72.1003 10.6545 72.3451 11.9715 72.4673C13.2779 72.5886 14.3267 72.5413 15.1181 72.3255C15.8988 72.1088 16.4764 71.7714 16.851 71.3134C17.216 70.8437 17.4271 70.3009 17.4842 69.6849C17.5158 69.345 17.5197 69.0722 17.4959 68.8665C17.4616 68.6598 17.4059 68.4511 17.3291 68.2404C17.2628 68.0307 17.155 67.8654 17.0055 67.7444C16.8455 67.6224 16.6738 67.51 16.4905 67.4073L14.9942 66.5614L15.009 66.4021L17.2828 66.6613C17.4751 67.1291 17.6199 67.646 17.7173 68.2121C17.8148 68.7782 17.8329 69.3905 17.7718 70.049Z" fill="#303040"/>
<path d="M18.3665 64.4013L18.2107 64.3647L18.1922 64.1632C18.1553 63.7601 17.9396 63.5123 17.5449 63.4197L9.21121 61.4646C9.00351 61.4159 8.838 61.4209 8.71466 61.4796C8.58094 61.5358 8.46375 61.6617 8.3631 61.8573L8.26887 62.0488L8.11309 62.0123L8.11204 59.0045L8.29609 58.8505L10.4623 59.4244L15.7896 60.6742C16.1739 60.7644 16.5581 60.8545 16.9423 60.9446C17.3186 61.022 17.6937 61.1045 18.0675 61.1922C18.2752 61.2409 18.4563 61.2396 18.6108 61.1882C18.7549 61.1343 18.8813 61.0161 18.9899 60.8334L19.0841 60.6418L19.2399 60.6784L18.3665 64.4013Z" fill="#303040"/>
<path d="M12.0713 54.3616C11.9554 54.7053 11.7505 54.9627 11.4564 55.1337C11.1557 55.2912 10.8385 55.3138 10.505 55.2013C10.1613 55.0855 9.92253 54.8755 9.78864 54.5715C9.65815 54.2574 9.65082 53.9285 9.76667 53.5848C9.88251 53.2411 10.0858 52.9888 10.3764 52.8279C10.667 52.667 10.9842 52.6444 11.3278 52.7603C11.6614 52.8727 11.9002 53.0827 12.0442 53.3901C12.1781 53.6941 12.1871 54.018 12.0713 54.3616ZM19.7768 58.9515L19.6252 58.9004L19.6361 58.6677C19.6436 58.4451 19.5986 58.2779 19.5012 58.1663C19.4072 58.0445 19.2591 57.9496 19.0569 57.8815L14.3113 56.2818C14.099 56.2102 13.9287 56.1978 13.8004 56.2446C13.6653 56.2779 13.5435 56.3888 13.435 56.5773L13.3179 56.7743L13.1663 56.7231L13.207 53.647L13.4098 53.5465L15.5474 54.3177L19.7927 55.7488C19.9949 55.8169 20.1685 55.836 20.3136 55.8062C20.4622 55.7662 20.5992 55.6604 20.7246 55.4888L20.8211 55.3525L20.9728 55.4036L19.7768 58.9515Z" fill="#303040"/>
<path d="M22.917 51.5484C22.6073 52.2043 22.1851 52.7363 21.6503 53.1444C21.1105 53.5383 20.4953 53.7668 19.8049 53.8301C19.1094 53.8792 18.3661 53.717 17.5752 53.3435C16.7939 52.9746 16.2081 52.4916 15.8177 51.8944C15.4222 51.283 15.2141 50.6245 15.1934 49.9188C15.1677 49.1988 15.3165 48.4965 15.6398 47.8116C15.904 47.2522 16.2188 46.8228 16.5842 46.5235C16.9496 46.2242 17.3297 46.0439 17.7243 45.9825C18.1093 45.9166 18.461 45.9588 18.7793 46.1091C19.0494 46.2366 19.2229 46.4188 19.2998 46.6556C19.367 46.8879 19.3392 47.1343 19.2162 47.3947C19.0841 47.6744 18.8758 47.8533 18.5913 47.9312C18.3068 48.0092 17.9937 47.9853 17.6521 47.8594C17.4353 47.7688 17.2592 47.6797 17.1236 47.5921C16.9784 47.5 16.824 47.4271 16.6606 47.3735C16.4784 47.3347 16.3427 47.3473 16.2535 47.4113C16.1592 47.4612 16.0779 47.5584 16.0096 47.7031C15.7317 48.2915 15.771 48.8703 16.1274 49.4397C16.4883 49.9993 17.2282 50.5433 18.3471 51.0716C19.3213 51.5316 20.1531 51.7061 20.8425 51.5951C21.5267 51.47 22.0465 51.0312 22.4017 50.2789C22.6158 49.8255 22.7068 49.4203 22.6749 49.0631C22.643 48.706 22.5246 48.3198 22.3196 47.9045L22.5037 47.8145C22.9589 48.3243 23.2224 48.9029 23.2943 49.5502C23.3661 50.1975 23.2404 50.8636 22.917 51.5484Z" fill="#303040"/>
<path d="M24.6277 47.2773L24.4952 47.1875L24.5638 46.944C24.6702 46.5779 24.5557 46.2812 24.2203 46.0537L17.136 41.2487C16.9595 41.129 16.8031 41.0745 16.6669 41.0852C16.5308 41.096 16.3763 41.1717 16.2036 41.3123L16.0471 41.4575L15.9147 41.3677L16.9889 38.5583L17.2158 38.4802L19.0427 39.7773L25.5046 44.1601C25.8577 44.3996 26.1772 44.4036 26.463 44.1722L26.6417 44.0228L26.7742 44.1126L24.6277 47.2773ZM27.9597 42.3647L23.0506 42.4764L22.4478 38.4909C22.4197 38.3043 22.3543 38.1633 22.2515 38.0678C22.1459 37.9575 22.0067 37.9726 21.834 38.1132L21.6151 38.2934L21.4827 38.2036L22.8209 36.2306L22.9533 36.3205L22.7898 36.7896C22.7199 37.0257 22.6871 37.2355 22.6916 37.4189C22.6932 37.5876 22.7122 37.8067 22.7485 38.0762L23.133 40.5022L28.0377 40.3683C28.3277 40.3588 28.5676 40.3282 28.7574 40.2764C28.9471 40.2247 29.1432 40.1257 29.3455 39.9794L29.4079 39.9444L29.5404 40.0342L27.9597 42.3647Z" fill="#303040"/>
<path d="M35.6416 33.4313L35.5356 33.3114L35.9213 32.7571C36.1855 32.3956 36.1728 32.051 35.8833 31.7232L29.8449 24.8886L28.8257 25.789C28.5299 26.0503 28.3887 26.3174 28.4021 26.5903C28.4084 26.8552 28.4596 27.1871 28.5558 27.586L28.8657 28.8067L28.7458 28.9126L27.079 26.9052L33.9976 20.7927L35.7724 22.7048L35.6524 22.8107L34.4792 22.3528C34.1032 22.201 33.7842 22.1057 33.5221 22.0668C33.2529 22.02 32.9705 22.1272 32.6747 22.3885L31.6555 23.2889L37.6938 30.1236C37.9834 30.4514 38.3238 30.5064 38.7151 30.2888L39.3127 29.9744L39.4186 30.0943L35.6416 33.4313Z" fill="#303040"/>
<path d="M45.9797 25.8845C45.2863 26.3045 44.5985 26.5278 43.9163 26.5545C43.2285 26.572 42.583 26.4018 41.9796 26.044C41.3854 25.6806 40.8727 25.1431 40.4417 24.4315C40.0106 23.7199 39.7836 23.0156 39.7605 22.3187C39.7466 21.6163 39.9094 20.969 40.249 20.3767C40.5977 19.7788 41.096 19.2837 41.7437 18.8914C42.3915 18.499 43.0565 18.2895 43.7387 18.2628C44.4154 18.2271 45.0573 18.3808 45.6642 18.724C46.2803 19.0616 46.8066 19.5909 47.2432 20.3116C47.6798 21.0324 47.9169 21.743 47.9546 22.4435C47.9959 23.1293 47.8495 23.7729 47.5155 24.3743C47.185 24.9611 46.6731 25.4645 45.9797 25.8845ZM45.8139 25.6108C46.1332 25.4174 46.3334 25.1714 46.4145 24.8729C46.4955 24.5744 46.4362 24.1676 46.2365 23.6525C46.0459 23.132 45.6936 22.4475 45.1796 21.599C44.6602 20.7414 44.2139 20.1076 43.8408 19.6975C43.4769 19.282 43.1438 19.041 42.8417 18.9746C42.5396 18.9082 42.2289 18.9717 41.9095 19.1651C41.5902 19.3585 41.3855 19.6072 41.2953 19.9113C41.2142 20.2098 41.269 20.6193 41.4596 21.1399C41.6593 21.6549 42.0189 22.3413 42.5384 23.1989C43.0523 24.0473 43.4913 24.6794 43.8552 25.0949C44.2283 25.505 44.5659 25.7432 44.868 25.8096C45.1793 25.8705 45.4946 25.8042 45.8139 25.6108Z" fill="#303040"/>
<path d="M58.953 19.7352L53.8908 11.1897C53.7587 10.9699 53.6383 10.8187 53.5296 10.7359C53.4183 10.6429 53.2475 10.5757 53.0173 10.5345L52.8116 10.5036L52.7727 10.3484L56.8854 9.31728L56.9243 9.47247L56.6295 9.67834C56.4149 9.83112 56.283 9.98514 56.234 10.1404C56.1849 10.2957 56.2265 10.4832 56.3586 10.703L59.6689 16.7351L60.1422 10.8596L59.509 9.84715C59.3821 9.64803 59.2733 9.49935 59.1827 9.4011C59.0921 9.30286 58.9653 9.23568 58.8023 9.19957L58.4142 9.09894L58.3753 8.94374L62.2707 7.96709L62.3096 8.12229L61.8752 8.42915C61.6864 8.55345 61.5947 8.69192 61.6 8.84455C61.613 8.98425 61.6829 9.15365 61.8098 9.35277L65.4345 15.4545L65.6743 8.51584C65.6845 8.24937 65.6559 8.02561 65.5885 7.84456C65.5211 7.66351 65.3581 7.56144 65.0993 7.53833L64.7462 7.5114L64.7073 7.3562L66.8645 6.81535L66.9034 6.97055L66.5388 7.22691C66.3501 7.35122 66.2337 7.50134 66.1899 7.67729C66.146 7.85324 66.1216 8.06281 66.1166 8.30599L65.8127 18.0154L64.7418 18.2839L60.5851 11.5733L60.0238 19.4667L58.953 19.7352Z" fill="#303040"/>
<path d="M73.5735 17.4165C72.9551 17.4356 72.4273 17.2758 71.99 16.9372C71.5633 16.5982 71.3397 16.0982 71.3193 15.4372C71.3039 14.9361 71.5456 14.4697 72.0445 14.0381C72.5431 13.5958 73.3381 13.2511 74.4297 13.004C74.5993 12.9667 74.7902 12.9288 75.0025 12.8903C75.2144 12.841 75.437 12.7915 75.6702 12.7416L75.6312 11.4782C75.6088 10.7532 75.5025 10.2496 75.3124 9.96729C75.1326 9.67404 74.8561 9.53317 74.4829 9.5447C74.2271 9.5526 74.0271 9.64415 73.8831 9.81934C73.7388 9.98388 73.6516 10.2694 73.6214 10.6758L73.5949 10.8527C73.5877 11.3118 73.4861 11.6511 73.2902 11.8706C73.0942 12.0901 72.8469 12.2045 72.5484 12.2137C72.2712 12.2223 72.0393 12.144 71.8528 11.9791C71.6663 11.8141 71.5686 11.5876 71.5597 11.2998C71.5462 10.8627 71.6841 10.4902 71.9734 10.1825C72.2734 9.8744 72.6716 9.63799 73.1681 9.47325C73.6646 9.30851 74.206 9.21709 74.7924 9.19898C75.7413 9.16967 76.4788 9.38167 77.0051 9.83497C77.5417 10.2773 77.8261 11.0209 77.8584 12.0657L77.9675 15.6C77.9823 16.0798 78.2136 16.3127 78.6614 16.2989L79.0133 16.2881L79.1612 16.4115C78.9665 16.6737 78.7487 16.8778 78.5077 17.024C78.2775 17.1699 77.9438 17.2495 77.5066 17.263C77.0375 17.2775 76.6611 17.1824 76.3773 16.9778C76.1038 16.7621 75.9189 16.4743 75.8224 16.1145C75.5131 16.4655 75.1916 16.7689 74.858 17.0247C74.5348 17.2694 74.1066 17.4001 73.5735 17.4165ZM74.5189 16.4109C74.7321 16.4043 74.9279 16.3502 75.1062 16.2487C75.2948 16.1361 75.5138 15.9693 75.7631 15.7481L75.6801 13.0614C75.5741 13.086 75.4682 13.1106 75.3622 13.1353C75.2562 13.1599 75.1343 13.185 74.9963 13.2106C74.5099 13.3537 74.1221 13.5844 73.8332 13.9028C73.5545 14.2102 73.4231 14.6198 73.4389 15.1316C73.4524 15.5687 73.5639 15.8961 73.7734 16.1137C73.9825 16.3207 74.2311 16.4197 74.5189 16.4109Z" fill="#303040"/>
<path d="M82.7647 17.664C82.0858 17.593 81.573 17.3679 81.2266 16.9885C80.8907 16.6102 80.7616 16.0498 80.8392 15.3071L81.4078 9.86476L80.3097 9.75005L80.3264 9.59091L80.7149 9.56716C81.0516 9.52725 81.3438 9.45053 81.5916 9.337C81.85 9.22458 82.1081 9.06386 82.3659 8.85485L83.8221 7.54305L83.9812 7.55968L83.7007 9.78256L85.483 9.96876L85.4498 10.287L83.6516 10.0992L83.0531 15.828C83.0143 16.1993 83.0645 16.4888 83.2036 16.6963C83.3534 16.905 83.5556 17.0227 83.8103 17.0493C84.033 17.0726 84.2348 17.04 84.4157 16.9517C84.5976 16.8527 84.7834 16.7166 84.9731 16.5434L85.1156 16.7191C84.8658 17.0577 84.5441 17.3136 84.1506 17.487C83.7571 17.6604 83.2952 17.7194 82.7647 17.664Z" fill="#303040"/>
<path d="M89.7214 18.7992C89.0146 18.6363 88.405 18.337 87.8924 17.9013C87.3926 17.4577 87.0384 16.9053 86.8296 16.2441C86.6336 15.575 86.6339 14.8143 86.8304 13.962C87.0245 13.1201 87.3718 12.4448 87.8722 11.9362C88.3854 11.4197 88.9846 11.0762 89.6697 10.9058C90.3676 10.7274 91.0856 10.7233 91.8235 10.8934C92.4264 11.0324 92.9129 11.2486 93.2831 11.542C93.6534 11.8353 93.9105 12.1683 94.0544 12.5408C94.2008 12.903 94.2344 13.2555 94.1554 13.5985C94.0882 13.8896 93.9472 14.0979 93.7321 14.2234C93.5195 14.3386 93.2728 14.3638 92.9922 14.2991C92.6908 14.2296 92.4717 14.0641 92.3349 13.8027C92.1982 13.5413 92.1549 13.2303 92.2052 12.8697C92.2476 12.6387 92.2971 12.4476 92.3539 12.2965C92.413 12.1349 92.4513 11.9686 92.4689 11.7976C92.4681 11.6113 92.4269 11.4814 92.3453 11.4078C92.2765 11.3263 92.1642 11.2675 92.0083 11.2316C91.3743 11.0854 90.817 11.247 90.3366 11.7164C89.8666 12.1882 89.4926 13.0269 89.2145 14.2326C88.9725 15.2824 88.979 16.1322 89.2342 16.7822C89.5021 17.4241 90.0414 17.8386 90.8522 18.0255C91.3407 18.1382 91.756 18.1409 92.0982 18.0337C92.4404 17.9265 92.7925 17.7286 93.1546 17.4399L93.2818 17.6006C92.8805 18.1539 92.3713 18.5346 91.7541 18.7425C91.137 18.9505 90.4594 18.9694 89.7214 18.7992Z" fill="#303040"/>
<path d="M95.0899 19.8538L95.1506 19.7058L95.3525 19.7193C95.7563 19.7465 96.0351 19.5726 96.1888 19.1975L99.4287 11.2916C99.5137 11.0844 99.5418 10.9172 99.5132 10.7902C99.4845 10.6632 99.3816 10.5346 99.2045 10.4043L99.0067 10.2541L99.0673 10.106L101.934 10.5373L102.116 10.7676L101.201 12.8308L100.443 14.6814C100.906 14.5368 101.375 14.4467 101.851 14.411C102.34 14.3696 102.827 14.448 103.311 14.6462C103.952 14.9091 104.386 15.3 104.611 15.8189C104.846 16.3418 104.808 16.9833 104.497 17.7433L102.786 21.9183C102.705 22.1157 102.68 22.2898 102.71 22.4406C102.741 22.5914 102.842 22.7369 103.015 22.877L103.116 22.9699L103.055 23.118L99.5906 21.6983L99.6513 21.5502L99.8471 21.5786C100.251 21.6058 100.532 21.4269 100.69 21.042L102.595 16.3932C102.756 15.9984 102.799 15.6986 102.721 15.494C102.653 15.2933 102.452 15.1243 102.116 14.9867C101.899 14.8977 101.644 14.8451 101.351 14.8287C101.062 14.8025 100.742 14.8385 100.39 14.9365L98.279 20.0887C98.1213 20.4736 98.1978 20.7932 98.5086 21.0473L98.6149 21.1255L98.5543 21.2735L95.0899 19.8538Z" fill="#303040"/>
<path d="M112.505 29.1951L115.558 19.5339C115.628 19.319 115.647 19.126 115.616 18.9552C115.601 18.7822 115.527 18.6057 115.396 18.4255L115.168 18.0911L115.265 17.9638L118.931 20.7554L118.834 20.8827L118.353 20.6967C118.119 20.599 117.94 20.6041 117.818 20.7121C117.704 20.8264 117.606 20.9996 117.523 21.2315L115.152 28.2544L121.313 24.0976C121.53 23.9541 121.682 23.8155 121.771 23.6817C121.868 23.5545 121.838 23.391 121.682 23.1915L121.419 22.8504L121.515 22.7231L123.298 24.0801L123.201 24.2074L122.779 24.0475C122.586 23.9672 122.413 23.9563 122.261 24.0149C122.116 24.0651 121.949 24.1524 121.76 24.2769L113.447 29.9124L112.505 29.1951Z" fill="#303040"/>
<path d="M125.371 28.8055C125.115 28.5481 124.977 28.2497 124.956 27.9102C124.949 27.5708 125.071 27.277 125.321 27.029C125.578 26.7735 125.873 26.6539 126.205 26.6702C126.544 26.6941 126.841 26.8347 127.097 27.0921C127.352 27.3494 127.487 27.6441 127.501 27.976C127.515 28.3079 127.393 28.6017 127.136 28.8572C126.886 29.1052 126.591 29.2248 126.252 29.216C125.92 29.1997 125.626 29.0629 125.371 28.8055ZM117.818 33.643L117.932 33.5303L118.135 33.6441C118.331 33.7504 118.5 33.785 118.644 33.7478C118.795 33.7182 118.946 33.6282 119.097 33.4779L122.651 29.9496C122.81 29.7918 122.898 29.645 122.913 29.5093C122.944 29.3737 122.899 29.2151 122.779 29.0337L122.655 28.8409L122.769 28.7282L125.502 30.141L125.501 30.3673L123.855 31.9339L120.675 35.0902C120.524 35.2405 120.429 35.3872 120.391 35.5304C120.36 35.6812 120.394 35.851 120.491 36.0399L120.57 36.1873L120.456 36.3L117.818 33.643Z" fill="#303040"/>
<path d="M122.951 39.6159C122.569 39.1152 122.337 38.5814 122.254 38.0146C122.179 37.4412 122.285 36.858 122.571 36.265C122.872 35.674 123.391 35.0974 124.13 34.5352C124.876 33.9665 125.592 33.6296 126.276 33.5243C126.968 33.4126 127.598 33.4827 128.165 33.7345C128.741 33.98 129.223 34.3572 129.611 34.8664C129.837 35.1635 130.023 35.4704 130.171 35.7872C130.318 36.104 130.413 36.4137 130.456 36.7163L132.111 35.4562C132.289 35.3205 132.398 35.1907 132.438 35.0666C132.484 34.9511 132.456 34.7913 132.354 34.5872L132.221 34.3066L132.348 34.2097L134.672 36.1L134.664 36.3272L132.844 37.6333L126.619 42.3732C126.449 42.5025 126.332 42.6388 126.267 42.7822C126.21 42.9192 126.222 43.0844 126.302 43.278L126.351 43.4216L126.224 43.5186L124.426 41.4484L124.797 40.9849C124.47 40.8721 124.147 40.7027 123.827 40.4767C123.514 40.2593 123.222 39.9723 122.951 39.6159ZM123.984 39.9956C124.255 40.352 124.61 40.598 125.048 40.7335L130.102 36.8853C130.067 36.4162 129.923 36.0162 129.671 35.6852C129.361 35.2779 128.858 35.1109 128.163 35.1842C127.477 35.2511 126.629 35.669 125.619 36.438C124.609 37.207 123.999 37.8856 123.79 38.4738C123.59 39.0555 123.654 39.5628 123.984 39.9956Z" fill="#303040"/>
<path d="M136.548 45.6233C136.874 46.2353 137.025 46.8255 137.001 47.3939C136.987 47.9574 136.824 48.4674 136.511 48.924C136.212 49.385 135.79 49.7609 135.244 50.0516C135.141 50.1068 135.03 50.1597 134.912 50.2105C134.803 50.2562 134.699 50.2875 134.599 50.3044L132.358 46.0959C131.346 46.6468 130.707 47.2167 130.441 47.8057C130.189 48.3992 130.248 49.0442 130.619 49.7409C130.87 50.2117 131.149 50.5529 131.455 50.7645C131.761 50.9762 132.127 51.1314 132.555 51.2302L132.503 51.4391C131.829 51.4229 131.216 51.2478 130.664 50.9137C130.116 50.5889 129.662 50.0876 129.301 49.4097C128.945 48.7413 128.77 48.0729 128.777 47.4047C128.793 46.7314 128.992 46.106 129.373 45.5284C129.754 44.9507 130.317 44.4639 131.061 44.0678C131.833 43.6567 132.577 43.4777 133.294 43.5309C134.021 43.579 134.666 43.7915 135.229 44.1683C135.797 44.5546 136.237 45.0396 136.548 45.6233ZM136.243 45.7313C136.097 45.4583 135.887 45.2681 135.613 45.1606C135.352 45.0575 134.98 45.0623 134.496 45.1749C134.027 45.292 133.408 45.5488 132.641 45.9455L133.927 48.3604C135.003 47.9081 135.722 47.4769 136.084 47.0668C136.445 46.6566 136.498 46.2115 136.243 45.7313Z" fill="#303040"/>
<path d="M132.715 57.4095C132.453 56.6423 132.382 55.9226 132.502 55.2505C132.632 54.5749 132.936 53.9808 133.415 53.468C133.897 52.9653 134.532 52.5796 135.319 52.3109C136.107 52.0422 136.843 51.9711 137.529 52.0978C138.218 52.2345 138.816 52.5322 139.321 52.9907C139.831 53.4593 140.208 54.052 140.452 54.7687C140.697 55.4854 140.759 56.1799 140.639 56.852C140.529 57.5207 140.242 58.1147 139.777 58.6341C139.315 59.1636 138.685 59.5645 137.888 59.8367C137.09 60.1088 136.345 60.1884 135.653 60.0753C134.974 59.9688 134.377 59.688 133.861 59.233C133.359 58.7845 132.976 58.1767 132.715 57.4095ZM133.017 57.3061C133.138 57.6595 133.335 57.9077 133.61 58.0508C133.884 58.1938 134.294 58.223 134.84 58.1381C135.389 58.0633 136.133 57.8658 137.072 57.5454C138.021 57.2215 138.736 56.9212 139.216 56.6446C139.7 56.378 140.006 56.1043 140.136 55.8234C140.266 55.5425 140.27 55.2254 140.149 54.872C140.029 54.5187 139.83 54.2655 139.552 54.1123C139.278 53.9692 138.866 53.935 138.317 54.0098C137.771 54.0947 137.023 54.299 136.075 54.6229C135.136 54.9433 134.424 55.2368 133.941 55.5033C133.46 55.78 133.155 56.0588 133.026 56.3397C132.9 56.6307 132.897 56.9528 133.017 57.3061Z" fill="#303040"/>
<path d="M135.525 69.9462C135.479 69.565 135.573 69.226 135.806 68.9295C136.039 68.6329 136.34 68.4624 136.711 68.4179C137.082 68.3734 137.421 68.467 137.728 68.6987C138.035 68.9305 138.211 69.2369 138.257 69.6182C138.303 69.9995 138.204 70.339 137.96 70.6368C137.717 70.9347 137.41 71.1058 137.039 71.1503C136.668 71.1948 136.335 71.1006 136.038 70.8676C135.742 70.6346 135.571 70.3275 135.525 69.9462Z" fill="#303040"/>
</svg>
