<svg width="136" height="136" viewBox="0 0 136 136" fill="none" xmlns="http://www.w3.org/2000/svg">
<path d="M120.142 73.7714C120.153 73.6914 120.186 73.6267 120.242 73.5774C120.305 73.5371 120.376 73.5226 120.456 73.5338L121.321 73.6545C121.401 73.6656 121.462 73.6986 121.503 73.7533C121.551 73.8172 121.57 73.8892 121.559 73.9692L121.438 74.8338C121.427 74.9139 121.39 74.974 121.327 75.0143C121.271 75.0636 121.203 75.0827 121.123 75.0715L120.259 74.9508C120.179 74.9396 120.114 74.9021 120.066 74.8383C120.025 74.7835 120.01 74.7161 120.021 74.6361L120.142 73.7714Z" fill="black"/>
<path d="M118.114 83.5335C118.142 83.4492 118.187 83.3919 118.248 83.3614C118.318 83.3335 118.39 83.3325 118.467 83.3583L125.981 85.8913C126.058 85.9171 126.112 85.9608 126.142 86.0222C126.18 86.0863 126.185 86.1604 126.157 86.2447L125.951 86.8536C125.926 86.9302 125.878 86.9825 125.809 87.0103C125.745 87.0485 125.675 87.0546 125.598 87.0288L118.084 84.4958C118.007 84.47 117.951 84.4212 117.915 84.3495C117.885 84.2881 117.883 84.2191 117.908 84.1425L118.114 83.5335Z" fill="black"/>
<path d="M116.635 88.0381C116.675 87.9587 116.728 87.9083 116.793 87.8868C116.865 87.869 116.938 87.8783 117.01 87.9147L124.079 91.4801C124.159 91.5201 124.209 91.5727 124.231 91.6378C124.259 91.7066 124.254 91.7807 124.214 91.8601L123.962 92.3581C123.919 92.4447 123.864 92.4987 123.799 92.5202C123.741 92.5453 123.7 92.556 123.674 92.5523L116.34 93.362L121.753 96.092C121.833 96.132 121.883 96.1846 121.905 96.2498C121.933 96.3186 121.928 96.3927 121.888 96.472L121.625 96.9917C121.585 97.0711 121.529 97.1197 121.457 97.1375C121.388 97.1662 121.314 97.1605 121.235 97.1205L114.176 93.5606C114.104 93.5242 114.055 93.468 114.03 93.392C114.001 93.3232 114.005 93.2527 114.042 93.1805L114.304 92.6609C114.344 92.5815 114.396 92.5311 114.462 92.5096C114.523 92.4954 114.565 92.4846 114.586 92.4775L121.861 91.6513L116.491 88.9432C116.419 88.9068 116.37 88.8506 116.345 88.7746C116.324 88.7094 116.333 88.6372 116.373 88.5578L116.635 88.0381Z" fill="black"/>
<path d="M110.88 98.209C110.928 98.1441 110.988 98.1035 111.061 98.087C111.135 98.0819 111.205 98.1035 111.27 98.1518L116.989 102.409L118.379 100.541C118.427 100.476 118.488 100.436 118.56 100.419C118.635 100.414 118.704 100.436 118.769 100.484L119.178 100.788C119.249 100.841 119.29 100.902 119.3 100.969C119.311 101.049 119.293 101.121 119.245 101.185L115.755 105.874C115.702 105.945 115.638 105.983 115.564 105.988C115.491 106.005 115.419 105.986 115.348 105.933L114.94 105.629C114.875 105.581 114.836 105.517 114.825 105.438C114.815 105.37 114.836 105.301 114.89 105.229L116.272 103.372L110.553 99.1147C110.488 99.0664 110.45 99.0027 110.438 98.9235C110.428 98.8557 110.45 98.7861 110.503 98.7147L110.88 98.209Z" fill="black"/>
<path d="M106.889 103.34C106.953 103.279 107.02 103.249 107.088 103.25C107.163 103.257 107.228 103.289 107.284 103.348L112.78 109.047C112.842 109.111 112.872 109.177 112.871 109.246C112.875 109.32 112.845 109.388 112.781 109.45L109.176 112.926C109.112 112.988 109.043 113.015 108.969 113.008C108.9 113.007 108.835 112.974 108.774 112.91L108.454 112.579C108.392 112.515 108.362 112.448 108.363 112.38C108.364 112.311 108.397 112.246 108.461 112.184L111.428 109.323L109.585 107.411L106.81 110.088C106.746 110.149 106.677 110.177 106.602 110.17C106.534 110.168 106.469 110.136 106.407 110.072L106.096 109.749C106.039 109.691 106.009 109.624 106.005 109.55C106.006 109.481 106.039 109.416 106.103 109.354L108.878 106.678L106.968 104.697L103.93 107.626C103.866 107.687 103.8 107.718 103.731 107.716C103.663 107.715 103.598 107.683 103.536 107.619L103.208 107.278C103.152 107.22 103.121 107.154 103.117 107.079C103.118 107.011 103.151 106.946 103.215 106.884L106.889 103.34Z" fill="black"/>
<path d="M100.191 109.548C100.265 109.499 100.335 109.48 100.403 109.493C100.474 109.513 100.533 109.557 100.578 109.624L104.998 116.193C105.048 116.267 105.066 116.337 105.053 116.404C105.044 116.478 105.003 116.54 104.929 116.59L102.475 118.242C101.717 118.752 100.997 118.978 100.316 118.92C99.6337 118.863 99.0582 118.485 98.5888 117.788C98.2413 117.271 98.0878 116.761 98.1282 116.256C98.1664 115.763 98.364 115.303 98.7209 114.878L95.3711 113.245C95.3239 113.218 95.289 113.188 95.2664 113.154C95.2303 113.101 95.2222 113.038 95.2421 112.966C95.2552 112.899 95.2886 112.847 95.3423 112.811L95.8252 112.486C95.9392 112.409 96.0433 112.383 96.1376 112.407C96.2318 112.432 96.3194 112.46 96.4002 112.494L99.5783 114.067L101.339 112.883L99.5922 110.287C99.5471 110.22 99.5322 110.147 99.5476 110.069C99.5607 110.002 99.6042 109.943 99.678 109.893L100.191 109.548ZM101.914 113.738L100.254 114.855C99.7513 115.193 99.4457 115.55 99.3374 115.925C99.2337 116.306 99.3218 116.705 99.6016 117.121C99.8768 117.53 100.211 117.758 100.603 117.806C100.989 117.858 101.437 117.712 101.947 117.37L103.606 116.253L101.914 113.738Z" fill="black"/>
<path d="M92.3449 114.472C92.4246 114.433 92.4969 114.424 92.5619 114.446C92.6305 114.475 92.6827 114.526 92.7186 114.598L96.2368 121.705C96.2727 121.777 96.2796 121.846 96.2577 121.911C96.2393 121.983 96.1903 122.039 96.1106 122.079L95.5347 122.364C95.4623 122.4 95.3918 122.403 95.3232 122.374C95.251 122.355 95.1969 122.31 95.161 122.238L91.6428 115.131C91.6069 115.058 91.6018 114.984 91.6274 114.909C91.6494 114.844 91.6966 114.793 91.769 114.757L92.3449 114.472Z" fill="black"/>
<path d="M85.4784 117.34C86.1311 117.126 86.7283 117.053 87.27 117.122C87.8141 117.198 88.2899 117.429 88.6973 117.814C89.1072 118.207 89.4449 118.755 89.7104 119.459C89.8291 119.794 89.939 120.116 90.0399 120.423C90.1434 120.738 90.2469 121.065 90.3503 121.406C90.5518 122.122 90.599 122.758 90.4919 123.312C90.3796 123.876 90.1271 124.351 89.7344 124.735C89.3365 125.13 88.8266 125.429 88.2046 125.634C87.5749 125.841 86.9867 125.902 86.4401 125.818C85.8882 125.744 85.3997 125.513 84.9744 125.126C84.5516 124.746 84.2126 124.206 83.9574 123.507C83.8309 123.174 83.716 122.851 83.6125 122.536C83.5115 122.229 83.4132 121.903 83.3175 121.561C83.1057 120.839 83.0522 120.197 83.1568 119.635C83.2562 119.083 83.5023 118.615 83.895 118.231C84.2902 117.854 84.818 117.557 85.4784 117.34ZM85.8003 118.319C85.209 118.514 84.7871 118.848 84.5346 119.323C84.2744 119.799 84.259 120.438 84.4883 121.239C84.5865 121.59 84.6798 121.9 84.7681 122.169C84.859 122.445 84.9677 122.75 85.0941 123.082C85.2836 123.607 85.5248 124.005 85.8176 124.274C86.1028 124.546 86.4204 124.71 86.7704 124.765C87.1203 124.82 87.4911 124.783 87.8828 124.655C88.259 124.531 88.5717 124.343 88.8207 124.091C89.0697 123.839 89.2321 123.518 89.3078 123.127C89.3759 122.739 89.3344 122.276 89.1832 121.738C89.0798 121.398 88.9827 121.089 88.8918 120.813C88.8035 120.544 88.6987 120.238 88.5774 119.895C88.2867 119.114 87.8951 118.609 87.4028 118.38C86.9104 118.15 86.3762 118.13 85.8003 118.319Z" fill="black"/>
<path d="M78.7423 119.456C78.8303 119.443 78.9017 119.458 78.9565 119.499C79.0123 119.548 79.0458 119.613 79.057 119.693L80.1515 127.535C80.1638 127.623 80.1493 127.694 80.1079 127.749C80.0677 127.812 80.0036 127.849 79.9155 127.862L76.9854 128.271C76.0808 128.397 75.3346 128.285 74.747 127.934C74.1594 127.584 73.8075 126.992 73.6913 126.159C73.6053 125.543 73.691 125.017 73.9485 124.581C74.199 124.154 74.5779 123.828 75.0851 123.602L72.7899 120.666C72.7592 120.621 72.741 120.579 72.7354 120.539C72.7265 120.475 72.7467 120.415 72.796 120.359C72.8374 120.304 72.89 120.272 72.9541 120.263L73.5305 120.183C73.6666 120.164 73.7717 120.186 73.8458 120.249C73.9199 120.312 73.986 120.377 74.0441 120.442L76.2111 123.249L78.3126 122.956L77.8802 119.857C77.869 119.777 77.8875 119.705 77.9357 119.642C77.9771 119.587 78.0418 119.553 78.1298 119.541L78.7423 119.456ZM78.4551 123.976L76.4736 124.253C75.8732 124.337 75.4422 124.523 75.1806 124.813C74.9202 125.111 74.8246 125.507 74.8939 126.004C74.962 126.492 75.1621 126.844 75.4941 127.059C75.818 127.275 76.2842 127.34 76.8927 127.255L78.8741 126.979L78.4551 123.976Z" fill="black"/>
<path d="M64.605 120.469C64.6931 120.481 64.7579 120.515 64.7994 120.569C64.8399 120.632 64.8547 120.703 64.8438 120.783L63.7794 128.629C63.7675 128.717 63.7342 128.782 63.6796 128.823C63.624 128.873 63.5521 128.892 63.464 128.88L60.7366 128.51C59.9115 128.398 59.2635 128.184 58.7926 127.867C58.3217 127.55 58.0032 127.132 57.8372 126.611C57.6701 126.099 57.6304 125.49 57.718 124.784C57.7589 124.423 57.7978 124.106 57.8347 123.833C57.8717 123.561 57.9181 123.249 57.9739 122.898C58.0899 122.163 58.2971 121.567 58.5957 121.11C58.8852 120.66 59.2946 120.348 59.8238 120.176C60.3439 120.01 61.0085 119.981 61.8175 120.091L64.605 120.469ZM63.5653 121.368L61.739 121.121C61.1863 121.046 60.7354 121.062 60.3864 121.17C60.0373 121.277 59.7679 121.489 59.5781 121.806C59.3802 122.122 59.2398 122.556 59.1568 123.107C59.1082 123.346 59.072 123.553 59.0481 123.729C59.0231 123.913 58.9986 124.093 58.9747 124.27C58.9497 124.454 58.9295 124.663 58.914 124.898C58.8246 125.677 58.9311 126.274 59.2336 126.691C59.5349 127.115 60.1021 127.384 60.9352 127.497L62.7014 127.736L63.5653 121.368Z" fill="black"/>
<path d="M54.9171 118.922C55.0016 118.949 55.0593 118.994 55.0902 119.055C55.1186 119.124 55.1202 119.197 55.0949 119.274L52.6224 126.795C52.5947 126.88 52.5502 126.937 52.4889 126.968C52.4252 127.007 52.3511 127.012 52.2666 126.985L47.5094 125.421C47.4249 125.393 47.3685 125.345 47.3401 125.276C47.3091 125.215 47.3076 125.142 47.3353 125.057L47.4792 124.62C47.507 124.535 47.5515 124.477 47.6127 124.447C47.6739 124.416 47.7468 124.414 47.8312 124.442L51.7476 125.729L52.5768 123.207L48.9139 122.002C48.8294 121.975 48.773 121.926 48.7445 121.857C48.7136 121.796 48.712 121.723 48.7398 121.639L48.8799 121.213C48.9051 121.136 48.9496 121.078 49.0134 121.04C49.0746 121.009 49.1474 121.007 49.2319 121.035L52.8949 122.239L53.7544 119.624L49.7459 118.307C49.6614 118.279 49.6037 118.234 49.5728 118.173C49.5418 118.112 49.5403 118.039 49.568 117.955L49.7157 117.505C49.7409 117.429 49.7854 117.371 49.8492 117.332C49.9104 117.301 49.9832 117.3 50.0677 117.327L54.9171 118.922Z" fill="black"/>
<path d="M44.2382 114.646C44.8577 114.979 45.3278 115.351 45.6484 115.762C45.9653 116.18 46.1573 116.599 46.2245 117.021C46.2807 117.446 46.2241 117.833 46.0547 118.182C46.0241 118.239 45.976 118.278 45.9103 118.297C45.8337 118.32 45.7633 118.315 45.6992 118.28L45.1545 117.988C45.069 117.942 45.0164 117.886 44.9967 117.82C44.9769 117.755 44.9752 117.689 44.9915 117.625C45.0478 117.435 45.0541 117.218 45.0107 116.974C44.9562 116.734 44.835 116.49 44.647 116.242C44.448 115.998 44.1492 115.768 43.7504 115.554C43.138 115.225 42.632 115.091 42.2324 115.151C41.8219 115.215 41.5191 115.429 41.3239 115.792C41.19 116.041 41.1613 116.283 41.2376 116.516C41.3029 116.753 41.4598 117.017 41.708 117.306C41.9563 117.595 42.2914 117.945 42.7134 118.355C43.1528 118.784 43.4956 119.179 43.7418 119.541C43.9879 119.903 44.1257 120.261 44.155 120.616C44.1773 120.968 44.0793 121.347 43.8613 121.752C43.6547 122.137 43.3678 122.423 43.0006 122.611C42.6296 122.807 42.204 122.89 41.7239 122.861C41.2366 122.829 40.7152 122.664 40.1598 122.365C39.7183 122.128 39.3663 121.861 39.1038 121.564C38.8303 121.27 38.6368 120.964 38.5232 120.646C38.4057 120.335 38.3513 120.036 38.3597 119.746C38.3644 119.464 38.4206 119.215 38.5282 118.997C38.555 118.947 38.5996 118.907 38.662 118.876C38.7205 118.853 38.789 118.862 38.8673 118.904L39.4334 119.208C39.4832 119.235 39.529 119.278 39.5707 119.337C39.6052 119.392 39.6157 119.467 39.6021 119.561C39.4879 119.875 39.5197 120.209 39.6974 120.561C39.8751 120.914 40.1919 121.213 40.6476 121.457C41.1104 121.706 41.5357 121.82 41.9233 121.799C42.3037 121.774 42.5953 121.572 42.7981 121.195C42.9282 120.953 42.9696 120.714 42.9223 120.477C42.8711 120.248 42.7321 119.994 42.5052 119.716C42.2783 119.438 41.9662 119.106 41.5689 118.718C41.0834 118.255 40.7069 117.837 40.4394 117.464C40.1681 117.098 40.0177 116.737 39.9884 116.382C39.9481 116.03 40.037 115.651 40.255 115.245C40.4961 114.797 40.8201 114.475 41.2273 114.281C41.6306 114.094 42.0918 114.03 42.6109 114.088C43.119 114.15 43.6614 114.336 44.2382 114.646Z" fill="black"/>
<path d="M38.3347 111.275C38.4068 111.327 38.4483 111.387 38.4592 111.455C38.4654 111.529 38.4449 111.599 38.3976 111.665L33.7563 118.094C33.709 118.16 33.6515 118.198 33.5838 118.209C33.5113 118.227 33.4391 118.209 33.367 118.157L32.8459 117.781C32.7804 117.734 32.7445 117.673 32.7383 117.599C32.7208 117.526 32.7357 117.457 32.783 117.392L37.4243 110.962C37.4716 110.897 37.5347 110.857 37.6137 110.845C37.6814 110.834 37.7481 110.852 37.8136 110.899L38.3347 111.275Z" fill="black"/>
<path d="M32.5755 106.53C33.0894 107.022 33.4351 107.538 33.6126 108.077C33.7843 108.611 33.7988 109.145 33.6561 109.68C33.5076 110.209 33.2186 110.721 32.7892 111.217C32.5491 111.479 32.2921 111.754 32.0182 112.04C31.7387 112.332 31.4702 112.606 31.2128 112.863C30.7367 113.314 30.2403 113.622 29.7237 113.788C29.2012 113.948 28.6667 113.951 28.1202 113.797C27.5737 113.643 27.0465 113.323 26.5385 112.837C26.1239 112.44 25.8207 112.038 25.6289 111.63C25.437 111.223 25.3314 110.836 25.312 110.471C25.2812 110.105 25.3113 109.782 25.4023 109.5C25.4875 109.212 25.5971 108.992 25.731 108.841C25.7754 108.783 25.832 108.753 25.9005 108.751C25.9635 108.756 26.0242 108.786 26.0826 108.842L26.5994 109.336C26.6578 109.392 26.6904 109.446 26.6972 109.497C26.6982 109.543 26.6824 109.606 26.6499 109.687C26.5571 109.889 26.5021 110.122 26.485 110.385C26.4621 110.643 26.508 110.916 26.623 111.205C26.7265 111.495 26.9359 111.79 27.2512 112.092C27.7125 112.534 28.2063 112.766 28.7328 112.789C29.2535 112.806 29.8022 112.537 30.3789 111.981C30.8939 111.478 31.3914 110.958 31.8714 110.422C32.407 109.816 32.6548 109.247 32.6146 108.716C32.5689 108.191 32.3153 107.708 31.8541 107.267C31.5446 106.97 31.217 106.763 30.8714 106.645C30.5144 106.527 30.1512 106.52 29.7819 106.626C29.4126 106.731 29.0518 106.967 28.6997 107.335L28.3475 107.703L29.6613 108.961C29.7197 109.017 29.7526 109.082 29.7599 109.156C29.7558 109.23 29.723 109.3 29.6615 109.364L29.3932 109.644C29.3317 109.708 29.2667 109.741 29.1981 109.743C29.1181 109.745 29.0489 109.717 28.9905 109.662L27.0111 107.767C26.9468 107.705 26.9168 107.637 26.9209 107.563C26.9194 107.494 26.9494 107.428 27.0109 107.364L27.8158 106.523C28.2742 106.044 28.7731 105.721 29.3126 105.555C29.8463 105.384 30.395 105.377 30.9588 105.537C31.5169 105.702 32.0558 106.033 32.5755 106.53Z" fill="black"/>
<path d="M27.5817 101.653C27.6335 101.726 27.6538 101.796 27.6426 101.863C27.6249 101.936 27.5831 101.996 27.5174 102.043L21.0807 106.653C21.0084 106.705 20.9384 106.725 20.8707 106.714C20.7965 106.708 20.7335 106.668 20.6817 106.596L20.3569 106.143C20.3004 106.064 20.2778 105.99 20.289 105.923C20.2936 105.86 20.3034 105.818 20.3184 105.797L23.0014 98.9238L18.0728 102.454C18.0005 102.506 17.9305 102.526 17.8629 102.515C17.7886 102.509 17.7256 102.469 17.6738 102.397L17.3349 101.924C17.2831 101.851 17.2661 101.779 17.2839 101.707C17.2904 101.632 17.3298 101.569 17.402 101.518L23.8289 96.9141C23.8946 96.867 23.967 96.85 24.0459 96.8631C24.1201 96.8695 24.1808 96.9056 24.2279 96.9714L24.5668 97.4445C24.6186 97.5168 24.6389 97.5868 24.6277 97.6544C24.6118 97.7155 24.602 97.7574 24.5982 97.7799L21.9575 104.608L26.8466 101.106C26.9124 101.059 26.9847 101.042 27.0636 101.055C27.1313 101.066 27.191 101.108 27.2428 101.18L27.5817 101.653Z" fill="black"/>
<path d="M19.15 86.8471C19.3896 87.5083 19.4919 88.0989 19.4568 88.6189C19.4141 89.1416 19.2773 89.5824 19.0462 89.9413C18.8048 90.2953 18.5045 90.546 18.1452 90.6935C18.0844 90.7155 18.0229 90.712 17.9608 90.6829C17.8883 90.649 17.8397 90.5978 17.8149 90.5294L17.6042 89.9481C17.5712 89.8569 17.5692 89.7802 17.5982 89.7181C17.6273 89.6559 17.6695 89.6063 17.7248 89.569C17.8934 89.4649 18.0427 89.3076 18.1728 89.0971C18.2925 88.8818 18.365 88.6191 18.3902 88.309C18.405 87.9941 18.3353 87.6239 18.1811 87.1983C17.9442 86.5447 17.6567 86.1073 17.3185 85.8859C16.97 85.6597 16.6019 85.6169 16.2144 85.7573C15.9484 85.8537 15.7659 86.0144 15.6669 86.2395C15.5575 86.4597 15.4988 86.7604 15.4908 87.1416C15.4828 87.5228 15.4992 88.0069 15.54 88.594C15.5815 89.2066 15.5734 89.7297 15.5156 90.1634C15.4578 90.597 15.3214 90.956 15.1063 91.2403C14.8884 91.517 14.5629 91.7338 14.1297 91.8908C13.7194 92.0396 13.3146 92.0616 12.9156 91.9569C12.5089 91.8549 12.1362 91.6332 11.7975 91.2916C11.456 90.9425 11.1779 90.4716 10.963 89.8788C10.7923 89.4076 10.7081 88.9738 10.7106 88.5774C10.7028 88.1762 10.7625 87.8192 10.8899 87.5065C11.0098 87.1965 11.1692 86.9367 11.3683 86.7269C11.5599 86.52 11.7682 86.3714 11.9935 86.2811C12.0467 86.2618 12.1068 86.2616 12.1737 86.2803C12.2331 86.3018 12.2779 86.3543 12.3082 86.4379L12.5272 87.0421C12.5465 87.0953 12.5519 87.1578 12.5436 87.2296C12.5324 87.2938 12.4906 87.3562 12.418 87.4169C12.123 87.5755 11.9241 87.8453 11.8215 88.2264C11.7189 88.6075 11.7557 89.0412 11.932 89.5276C12.111 90.0216 12.352 90.3899 12.6549 90.6327C12.9551 90.8678 13.3066 90.9124 13.7093 90.7664C13.9677 90.6728 14.1581 90.5221 14.2806 90.3143C14.3955 90.1093 14.461 89.8276 14.4773 89.4692C14.4936 89.1108 14.483 88.6547 14.4456 88.1007C14.3925 87.4322 14.3906 86.8697 14.4402 86.4132C14.4821 85.9595 14.6106 85.5906 14.8257 85.3062C15.0304 85.0171 15.3494 84.794 15.7825 84.637C16.2613 84.4635 16.7171 84.4402 17.15 84.567C17.5753 84.6966 17.9618 84.9564 18.3094 85.3462C18.6467 85.7313 18.9269 86.2316 19.15 86.8471Z" fill="black"/>
<path d="M16.6065 78.6329C16.6207 78.7124 16.609 78.7843 16.5712 78.8486C16.524 78.9063 16.4607 78.9422 16.3811 78.9565L9.36293 80.2118L9.77284 82.5035C9.78707 82.583 9.7753 82.6549 9.73752 82.7192C9.69036 82.7769 9.62699 82.8129 9.54742 82.8271L9.04613 82.9168C8.9586 82.9324 8.88669 82.9206 8.83041 82.8814C8.76475 82.8357 8.7248 82.7731 8.71057 82.6935L7.68152 76.9405C7.66586 76.853 7.68162 76.7804 7.72878 76.7227C7.76655 76.6584 7.82921 76.6185 7.91674 76.6028L8.41803 76.5131C8.4976 76.4989 8.57022 76.5147 8.63588 76.5604C8.69217 76.5996 8.72814 76.663 8.74379 76.7505L9.15157 79.0302L16.1697 77.7749C16.2493 77.7606 16.3219 77.7764 16.3876 77.8221C16.4439 77.8613 16.4798 77.9247 16.4955 78.0122L16.6065 78.6329Z" fill="black"/>
<path d="M15.6739 69.4561C15.6791 70.1351 15.5624 70.722 15.3237 71.217C15.085 71.7039 14.7201 72.0826 14.2291 72.3531C13.7299 72.6156 13.0883 72.7499 12.3042 72.756L7.3816 72.794C7.29269 72.7947 7.22379 72.771 7.17492 72.7228C7.11796 72.6748 7.08914 72.6063 7.08846 72.5174L7.08368 71.899C7.083 71.8101 7.11076 71.7412 7.16696 71.6922C7.21503 71.6353 7.28351 71.6065 7.37243 71.6058L12.3193 71.5676C13.1115 71.5615 13.6961 71.371 14.0731 70.9963C14.4501 70.6215 14.6361 70.1108 14.6312 69.4641C14.6262 68.8256 14.4324 68.3219 14.0496 67.953C13.6668 67.576 13.0793 67.3906 12.2871 67.3967L7.34023 67.4349C7.25131 67.4356 7.18242 67.4118 7.13355 67.3637C7.07653 67.3076 7.0477 67.2391 7.04708 67.1582L7.04221 66.5278C7.04159 66.4469 7.06938 66.382 7.12559 66.3331C7.17365 66.2761 7.24214 66.2473 7.33105 66.2466L12.2537 66.2086C13.0378 66.2026 13.6814 66.331 14.1846 66.5939C14.6797 66.8487 15.0503 67.2177 15.2966 67.7008C15.5428 68.1839 15.6686 68.769 15.6739 69.4561Z" fill="black"/>
<path d="M15.7047 62.2056C15.6884 62.2931 15.652 62.3561 15.5954 62.3949C15.5308 62.4322 15.4589 62.4434 15.3794 62.4286L7.59632 60.9749C7.50891 60.9585 7.44582 60.9221 7.40705 60.8655C7.36034 60.8075 7.34514 60.7347 7.36147 60.6473L7.86681 57.9417C8.01968 57.1233 8.26602 56.4868 8.60585 56.0322C8.94567 55.5776 9.37946 55.2803 9.9072 55.1404C10.427 54.9991 11.0373 54.9897 11.738 55.1123C12.097 55.1712 12.4117 55.2258 12.6818 55.2763C12.952 55.3268 13.2611 55.3886 13.6093 55.4619C14.3373 55.6143 14.9222 55.851 15.3639 56.172C15.7991 56.4835 16.0898 56.9078 16.2362 57.445C16.3761 57.9728 16.3711 58.6379 16.2212 59.4404L15.7047 62.2056ZM14.8586 61.1225L15.197 59.3108C15.2994 58.7625 15.3055 58.3114 15.2154 57.9574C15.1253 57.6035 14.9267 57.3238 14.6197 57.1184C14.3141 56.9051 13.888 56.7433 13.3412 56.6329C13.1058 56.5725 12.9007 56.526 12.7259 56.4933C12.5431 56.4592 12.3643 56.4258 12.1895 56.3932C12.0068 56.359 11.7987 56.3284 11.5653 56.3012C10.7915 56.1732 10.1893 56.2498 9.75846 56.5312C9.3197 56.811 9.02314 57.3641 8.86879 58.1905L8.54154 59.9426L14.8586 61.1225Z" fill="black"/>
<path d="M17.855 52.4912C17.8266 52.5754 17.7817 52.6328 17.7203 52.6632C17.6512 52.6911 17.5783 52.6922 17.5017 52.6663L9.98733 50.1333C9.91074 50.1075 9.8572 50.0639 9.82674 50.0024C9.78861 49.9384 9.78375 49.8643 9.81215 49.78L10.0174 49.171C10.0432 49.0944 10.0907 49.0422 10.1598 49.0143C10.2239 48.9762 10.2942 48.97 10.3708 48.9959L17.8851 51.5289C17.9617 51.5547 18.0178 51.6034 18.0533 51.6751C18.0838 51.7366 18.0861 51.8056 18.0603 51.8822L17.855 52.4912Z" fill="black"/>
<path d="M20.5772 45.7915C20.2701 46.4061 19.9014 46.8816 19.4713 47.2179C19.034 47.5506 18.5352 47.726 17.9749 47.7442C17.4073 47.7588 16.7801 47.6126 16.0931 47.3055C15.7714 47.1537 15.4659 47.0056 15.1766 46.8611C14.8802 46.7129 14.5747 46.5558 14.2601 46.3895C13.6093 46.0282 13.1248 45.6144 12.8066 45.1482C12.4847 44.6711 12.3255 44.1578 12.329 43.6083C12.3289 43.048 12.4751 42.4749 12.7678 41.8892C13.0641 41.2963 13.4345 40.8353 13.8791 40.5062C14.32 40.1663 14.8279 39.9818 15.4027 39.9528C15.9702 39.9201 16.592 40.0591 17.2681 40.3698C17.5935 40.5143 17.9044 40.6607 18.2009 40.8088C18.4901 40.9533 18.7902 41.1123 19.1011 41.2858C19.7628 41.6435 20.2563 42.0573 20.5818 42.5272C20.9036 42.9862 21.0628 43.4904 21.0594 44.0399C21.0486 44.5858 20.8879 45.1696 20.5772 45.7915ZM19.6552 45.3308C19.9335 44.774 19.993 44.239 19.8338 43.7257C19.6782 43.2052 19.2353 42.7444 18.5049 42.3433C18.1868 42.1663 17.9011 42.0145 17.6481 41.888C17.3878 41.758 17.0949 41.6207 16.7695 41.4761C16.2634 41.2413 15.8115 41.133 15.4138 41.1511C15.0198 41.1621 14.68 41.2724 14.3945 41.4822C14.1089 41.6919 13.874 41.9811 13.6898 42.3499C13.5127 42.7042 13.426 43.0585 13.4297 43.4128C13.4334 43.7671 13.5474 44.1087 13.7716 44.4376C13.9994 44.7592 14.3574 45.0556 14.8455 45.3266C15.16 45.4928 15.4475 45.6409 15.7078 45.771C15.9609 45.8975 16.2519 46.0384 16.5809 46.1938C17.3401 46.537 17.9746 46.6146 18.4843 46.4265C18.9939 46.2383 19.3843 45.8731 19.6552 45.3308Z" fill="black"/>
<path d="M26.7544 35.5412C26.7025 35.6031 26.6397 35.6402 26.5662 35.6524C26.4917 35.6531 26.4235 35.6275 26.3615 35.5756L25.6928 35.0144C25.6309 34.9625 25.5969 34.9023 25.5909 34.834C25.584 34.7543 25.6065 34.6834 25.6584 34.6215L26.2196 33.9528C26.2716 33.8909 26.3348 33.8595 26.4093 33.8587C26.4828 33.8466 26.5506 33.8664 26.6125 33.9184L27.2812 34.4796C27.3432 34.5315 27.3776 34.5974 27.3846 34.6771C27.3906 34.7454 27.3676 34.8105 27.3156 34.8725L26.7544 35.5412Z" fill="black"/>
<path d="M33.4987 28.2843C33.4273 28.3374 33.3577 28.359 33.2899 28.349C33.2172 28.3326 33.1567 28.292 33.1084 28.2271L28.381 21.8757C28.3279 21.8043 28.3064 21.7347 28.3163 21.6669C28.3214 21.5925 28.3597 21.5288 28.431 21.4757L31.0961 19.4921C31.5824 19.1301 32.0383 18.9167 32.4637 18.852C32.8908 18.776 33.277 18.821 33.6224 18.9872C33.9742 19.1485 34.2756 19.3978 34.5266 19.735C34.7245 20.0009 34.8504 20.2648 34.9044 20.5269C34.9601 20.7777 34.9689 21.013 34.931 21.2327C34.8881 21.446 34.8293 21.6309 34.7543 21.7874C35.0989 21.7224 35.4722 21.7569 35.8743 21.8909C36.2829 22.0201 36.6343 22.2825 36.9287 22.6781C37.1942 23.0347 37.3569 23.4225 37.4168 23.8414C37.4767 24.2604 37.4121 24.6813 37.223 25.1042C37.0356 25.5157 36.7052 25.8977 36.2318 26.25L33.4987 28.2843ZM33.6418 26.9535L35.519 25.5563C35.9405 25.2426 36.1802 24.8878 36.2383 24.4919C36.2963 24.096 36.2022 23.7327 35.9561 23.402C35.7003 23.0583 35.3769 22.8607 34.9858 22.8092C34.5899 22.7512 34.1813 22.879 33.7598 23.1927L31.8825 24.5899L33.6418 26.9535ZM31.3034 23.8118L33.0931 22.4797C33.5081 22.1709 33.7526 21.8427 33.8266 21.4954C33.8958 21.1416 33.8073 20.7994 33.5612 20.4687C33.315 20.138 33.0198 19.9647 32.6755 19.9489C32.3312 19.9331 31.9516 20.0796 31.5366 20.3885L29.7469 21.7206L31.3034 23.8118Z" fill="black"/>
<path d="M41.5105 22.5693C41.4309 22.6088 41.3585 22.6175 41.2935 22.5956C41.225 22.5664 41.1728 22.5156 41.1369 22.4431L37.624 15.3474C37.5846 15.2677 37.5758 15.1954 37.5978 15.1304C37.6161 15.0582 37.6652 15.0023 37.7449 14.9629L42.2327 12.7411C42.3123 12.7017 42.3865 12.6966 42.455 12.7258C42.52 12.7477 42.5722 12.7985 42.6117 12.8782L42.8161 13.2911C42.8556 13.3708 42.8643 13.4431 42.8424 13.5081C42.8204 13.5731 42.7696 13.6253 42.6899 13.6648L38.9954 15.4938L40.1735 17.8736L43.629 16.1629C43.7087 16.1234 43.7828 16.1183 43.8514 16.1475C43.9164 16.1694 43.9686 16.2202 44.008 16.2999L44.2071 16.702C44.2429 16.7744 44.2517 16.8468 44.2333 16.919C44.2114 16.984 44.1606 17.0362 44.0809 17.0756L40.6254 18.7863L41.8465 21.253L45.628 19.3809C45.7077 19.3415 45.78 19.3327 45.845 19.3547C45.91 19.3766 45.9622 19.4274 46.0017 19.5071L46.2115 19.9309C46.2473 20.0033 46.2561 20.0757 46.2377 20.1479C46.2158 20.2129 46.165 20.2651 46.0853 20.3046L41.5105 22.5693Z" fill="black"/>
<path d="M51.8942 18.1741C51.2198 18.3734 50.6241 18.4399 50.1072 18.3735C49.5879 18.2994 49.1562 18.1362 48.8119 17.8839C48.4731 17.6216 48.2409 17.3067 48.1155 16.9392C48.0971 16.8772 48.1043 16.816 48.1371 16.7558C48.1753 16.6855 48.2293 16.64 48.2991 16.6194L48.8921 16.4441C48.9851 16.4166 49.0618 16.4193 49.122 16.452C49.1823 16.4848 49.2293 16.5299 49.2632 16.5873C49.3569 16.7619 49.5049 16.9205 49.7072 17.063C49.9149 17.1954 50.1728 17.2836 50.4808 17.3274C50.7942 17.3612 51.168 17.314 51.6021 17.1857C52.2687 16.9887 52.7227 16.728 52.9641 16.4038C53.2109 16.0696 53.2759 15.7048 53.159 15.3095C53.0788 15.0381 52.9294 14.8463 52.7108 14.7339C52.4976 14.6115 52.201 14.5348 51.8209 14.5038C51.4409 14.4728 50.9566 14.46 50.3682 14.4653C49.7542 14.4698 49.2325 14.4301 48.8031 14.3463C48.3738 14.2625 48.0237 14.1046 47.7529 13.8728C47.4898 13.6387 47.293 13.3007 47.1624 12.8588C47.0387 12.4402 47.0411 12.0349 47.1697 11.6429C47.296 11.2431 47.5398 10.8845 47.9011 10.567C48.2702 10.2471 48.757 9.99789 49.3617 9.81919C49.8423 9.67714 50.2804 9.61932 50.6759 9.64571C51.0769 9.66206 51.4296 9.74325 51.7341 9.88928C52.0363 10.0276 52.286 10.2024 52.4834 10.4138C52.6784 10.6175 52.8142 10.8344 52.8907 11.0647C52.9067 11.1189 52.9034 11.1789 52.8806 11.2447C52.8556 11.3026 52.8005 11.3442 52.7152 11.3694L52.0989 11.5515C52.0447 11.5676 51.982 11.5693 51.9108 11.5566C51.8474 11.5416 51.7875 11.4961 51.7313 11.42C51.5909 11.1159 51.3335 10.9011 50.9593 10.7757C50.5851 10.6503 50.1499 10.6609 49.6538 10.8076C49.1499 10.9565 48.7677 11.1748 48.5072 11.4625C48.2544 11.748 48.1887 12.0961 48.3101 12.507C48.388 12.7705 48.5269 12.9697 48.7269 13.1045C48.9246 13.2315 49.2018 13.3139 49.5586 13.3518C49.9154 13.3896 50.3714 13.4066 50.9265 13.4026C51.5971 13.3899 52.1587 13.422 52.6113 13.499C53.0616 13.5682 53.4222 13.7187 53.693 13.9505C53.9693 14.1723 54.1727 14.5041 54.3033 14.946C54.4476 15.4344 54.4435 15.8908 54.2907 16.3152C54.1357 16.7319 53.8532 17.102 53.443 17.4255C53.0384 17.739 52.5221 17.9885 51.8942 18.1741Z" fill="black"/>
<path d="M60.1923 16.1033C60.112 16.113 60.0409 16.0971 59.979 16.0557C59.9241 16.0053 59.8918 15.9399 59.8822 15.8597L59.0324 8.78095L56.721 9.05843C56.6407 9.06806 56.5696 9.05217 56.5076 9.01076C56.4527 8.96036 56.4205 8.89503 56.4108 8.81478L56.3502 8.30915C56.3396 8.22087 56.3554 8.14976 56.3978 8.09583C56.4473 8.0329 56.5121 7.99662 56.5924 7.98699L62.395 7.29041C62.4833 7.27981 62.5549 7.29971 62.6098 7.35011C62.6717 7.39152 62.708 7.45637 62.7186 7.54465L62.7793 8.05027C62.7889 8.13053 62.769 8.20212 62.7196 8.26505C62.6772 8.31898 62.6119 8.35125 62.5236 8.36185L60.2242 8.63788L61.074 15.7166C61.0836 15.7969 61.0637 15.8684 61.0143 15.9314C60.9719 15.9853 60.9066 16.0176 60.8183 16.0282L60.1923 16.1033Z" fill="black"/>
<path d="M71.9416 15.5432C71.8537 15.5299 71.7894 15.4956 71.7487 15.4404C71.7092 15.3772 71.6955 15.3056 71.7076 15.2257L72.8922 7.39715C72.9056 7.30923 72.9398 7.24493 72.995 7.20423C73.0514 7.15554 73.1236 7.13785 73.2115 7.15115L75.9329 7.56297C76.7561 7.68754 77.4008 7.91181 77.8668 8.23577C78.3328 8.55973 78.6448 8.98301 78.8028 9.50562C78.9621 10.0202 78.9924 10.6298 78.894 11.3344C78.8476 11.6952 78.8038 12.0115 78.7627 12.2833C78.7215 12.555 78.6704 12.8661 78.6092 13.2166C78.4819 13.9494 78.2655 14.5421 77.96 14.9946C77.6636 15.4403 77.2495 15.7455 76.7177 15.9103C76.1951 16.0683 75.5302 16.0862 74.7229 15.964L71.9416 15.5432ZM72.9949 14.6602L74.8172 14.9359C75.3687 15.0194 75.8198 15.01 76.1704 14.9077C76.5211 14.8055 76.7938 14.5974 76.9884 14.2835C77.1911 13.9708 77.3381 13.5393 77.4296 12.989C77.4818 12.7517 77.5213 12.5451 77.5479 12.3692C77.5757 12.1854 77.6029 12.0056 77.6295 11.8297C77.6573 11.6459 77.6808 11.4369 77.6999 11.2027C77.8012 10.425 77.7039 9.82576 77.4078 9.40489C77.113 8.97603 76.55 8.69871 75.7188 8.57293L73.9565 8.30624L72.9949 14.6602Z" fill="black"/>
<path d="M81.3783 17.1336C81.2941 17.1049 81.2369 17.0598 81.2067 16.9982C81.1791 16.929 81.1783 16.8561 81.2044 16.7796L83.7618 9.28635C83.7905 9.20219 83.8357 9.145 83.8972 9.11477C83.9614 9.07688 84.0356 9.0723 84.1197 9.10102L88.859 10.7185C88.9431 10.7472 88.999 10.7962 89.0266 10.8654C89.0569 10.9269 89.0576 10.9998 89.0289 11.0839L88.8801 11.52C88.8514 11.6042 88.8062 11.6613 88.7447 11.6916C88.6831 11.7218 88.6102 11.7226 88.5261 11.6939L84.6245 10.3623L83.7668 12.8754L87.4159 14.1208C87.5001 14.1495 87.556 14.1984 87.5836 14.2677C87.6138 14.3292 87.6146 14.4021 87.5859 14.4862L87.441 14.9108C87.4149 14.9873 87.3697 15.0445 87.3055 15.0824C87.244 15.1126 87.1711 15.1134 87.087 15.0847L83.4379 13.8393L82.5489 16.4441L86.5422 17.807C86.6264 17.8357 86.6836 17.8809 86.7138 17.9425C86.744 18.004 86.7448 18.0769 86.7161 18.161L86.5633 18.6086C86.5372 18.6851 86.4921 18.7423 86.4279 18.7801C86.3663 18.8104 86.2935 18.8111 86.2093 18.7824L81.3783 17.1336Z" fill="black"/>
<path d="M92.1258 21.5415C91.5101 21.2018 91.0441 20.8248 90.7281 20.4104C90.4159 19.9889 90.2285 19.5671 90.166 19.1449C90.1145 18.7195 90.1754 18.333 90.3486 17.9855C90.3799 17.9288 90.4284 17.891 90.4943 17.872C90.5712 17.8498 90.6415 17.8562 90.7052 17.8914L91.2466 18.19C91.3316 18.2369 91.3836 18.2933 91.4026 18.3592C91.4216 18.4251 91.4226 18.4902 91.4055 18.5546C91.3472 18.744 91.3385 18.9608 91.3792 19.2048C91.431 19.4457 91.5495 19.6911 91.7348 19.941C91.931 20.1877 92.2273 20.4204 92.6237 20.639C93.2324 20.9748 93.7368 21.1146 94.1371 21.0585C94.5483 20.9991 94.8535 20.789 95.0526 20.428C95.1893 20.1803 95.2207 19.9392 95.147 19.7046C95.0843 19.4669 94.9304 19.202 94.6853 18.9099C94.4403 18.6178 94.1091 18.2643 93.6917 17.8494C93.257 17.4158 92.9186 17.0167 92.6765 16.6524C92.4343 16.288 92.3006 15.9281 92.2752 15.5725C92.2568 15.2208 92.3589 14.8432 92.5815 14.4398C92.7923 14.0576 93.0824 13.7744 93.4516 13.5904C93.8248 13.3993 94.2512 13.3207 94.7311 13.3546C95.218 13.3923 95.7374 13.5635 96.2895 13.8681C96.7283 14.1101 97.0774 14.3811 97.3366 14.6811C97.6068 14.9778 97.7969 15.2858 97.907 15.605C98.021 15.9172 98.0721 16.2177 98.0605 16.5067C98.0527 16.7886 97.9937 17.0376 97.8837 17.2539C97.8564 17.3034 97.8113 17.3432 97.7486 17.3732C97.6898 17.3962 97.6215 17.3862 97.5436 17.3432L96.9809 17.0328C96.9314 17.0055 96.8861 16.962 96.8451 16.9025C96.8112 16.8468 96.8015 16.7723 96.8161 16.6788C96.9338 16.3652 96.9057 16.0312 96.7319 15.6768C96.5581 15.3225 96.2447 15.0204 95.7917 14.7705C95.3316 14.5167 94.9077 14.3982 94.5199 14.4151C94.1392 14.4359 93.8453 14.6338 93.6384 15.009C93.5057 15.2496 93.4616 15.4884 93.5063 15.7254C93.5549 15.9553 93.6911 16.2104 93.9149 16.4909C94.1387 16.7713 94.4471 17.1075 94.8401 17.4997C95.3204 17.9678 95.6923 18.3899 95.9556 18.7659C96.2229 19.1349 96.3692 19.4972 96.3946 19.8528C96.431 20.2052 96.3379 20.5831 96.1154 20.9866C95.8694 21.4325 95.5418 21.7503 95.1325 21.9399C94.7272 22.1225 94.2653 22.1816 93.7469 22.1172C93.2395 22.0496 92.6992 21.8577 92.1258 21.5415Z" fill="black"/>
<path d="M97.9303 24.9079C97.8587 24.8551 97.8179 24.7948 97.8077 24.7269C97.8023 24.6526 97.8236 24.5829 97.8716 24.5179L102.583 18.1395C102.631 18.0745 102.689 18.0368 102.757 18.0267C102.829 18.01 102.902 18.028 102.973 18.0809L103.49 18.4627C103.555 18.5107 103.59 18.5719 103.596 18.6462C103.612 18.7188 103.597 18.7877 103.549 18.8527L98.8372 25.2311C98.7891 25.2961 98.7256 25.3346 98.6464 25.3465C98.5786 25.3567 98.5122 25.3378 98.4472 25.2897L97.9303 24.9079Z" fill="black"/>
<path d="M103.866 29.8889C103.359 29.3895 103.021 28.869 102.851 28.3272C102.687 27.7911 102.68 27.2567 102.831 26.724C102.987 26.197 103.283 25.689 103.72 25.2C103.964 24.941 104.225 24.6704 104.503 24.3883C104.787 24.1005 105.059 23.8298 105.32 23.5764C105.803 23.1328 106.304 22.8319 106.823 22.6738C107.347 22.5214 107.882 22.5261 108.426 22.6879C108.97 22.8497 109.493 23.1774 109.994 23.6711C110.402 24.074 110.7 24.4805 110.886 24.8907C111.072 25.3009 111.172 25.6888 111.186 26.0546C111.211 26.4202 111.176 26.7434 111.081 27.0242C110.992 27.3106 110.879 27.5286 110.743 27.6783C110.698 27.7357 110.641 27.7647 110.572 27.7652C110.509 27.76 110.449 27.729 110.391 27.6722L109.882 27.1701C109.824 27.1133 109.792 27.0593 109.786 27.0079C109.786 26.9621 109.803 26.8991 109.836 26.8189C109.932 26.6181 109.991 26.3862 110.011 26.1231C110.038 25.8657 109.996 25.5916 109.885 25.3009C109.786 25.0101 109.581 24.7115 109.27 24.4051C108.815 23.9569 108.325 23.7175 107.799 23.687C107.279 23.6622 106.726 23.9235 106.141 24.4707C105.619 24.9661 105.114 25.4785 104.626 26.0079C104.082 26.6063 103.826 27.1712 103.858 27.7026C103.896 28.2281 104.143 28.7151 104.598 29.1633C104.903 29.4641 105.227 29.676 105.571 29.7993C105.926 29.9225 106.289 29.9341 106.66 29.8343C107.031 29.7344 107.395 29.5031 107.753 29.1404L108.11 28.7777L106.815 27.501C106.757 27.4443 106.725 27.3788 106.719 27.3045C106.724 27.2302 106.758 27.1613 106.82 27.098L107.093 26.8217C107.155 26.7583 107.221 26.7264 107.289 26.7259C107.369 26.7253 107.438 26.7534 107.496 26.8102L109.447 28.7337C109.511 28.7961 109.54 28.8645 109.535 28.9388C109.535 29.0074 109.504 29.0734 109.442 29.1367L108.625 29.9657C108.159 30.4378 107.656 30.753 107.114 30.9113C106.578 31.0752 106.029 31.0735 105.468 30.9061C104.912 30.7329 104.378 30.3939 103.866 29.8889Z" fill="black"/>
<path d="M108.823 34.8421C108.772 34.769 108.753 34.6988 108.765 34.6313C108.784 34.5591 108.826 34.5 108.893 34.4539L115.396 29.9379C115.469 29.8872 115.54 29.8679 115.607 29.8801C115.681 29.8876 115.744 29.9279 115.794 30.001L116.112 30.4591C116.168 30.5388 116.189 30.6124 116.177 30.6799C116.172 30.7428 116.161 30.7844 116.146 30.8049L113.363 37.6385L118.342 34.1806C118.415 34.1299 118.486 34.1106 118.553 34.1228C118.627 34.1303 118.69 34.1706 118.74 34.2437L119.072 34.7217C119.123 34.7947 119.139 34.8673 119.12 34.9394C119.113 35.0136 119.072 35.076 118.999 35.1267L112.506 39.6358C112.439 39.6819 112.367 39.6979 112.288 39.6837C112.214 39.6761 112.154 39.6391 112.108 39.5727L111.776 39.0947C111.725 39.0217 111.706 38.9514 111.718 38.8839C111.735 38.823 111.745 38.7814 111.749 38.7589L114.49 31.9698L109.55 35.4001C109.483 35.4462 109.411 35.4621 109.332 35.4479C109.265 35.4357 109.205 35.3931 109.155 35.3201L108.823 34.8421Z" fill="black"/>
<path d="M114.284 43.0627C114.247 42.9818 114.241 42.9092 114.265 42.845C114.297 42.7774 114.349 42.7269 114.423 42.6935L121.632 39.4199C121.713 39.3831 121.786 39.3768 121.85 39.4009C121.921 39.4217 121.976 39.4726 122.012 39.5535L124.083 44.1131C124.12 44.1941 124.122 44.2683 124.091 44.3359C124.067 44.4001 124.014 44.4506 123.933 44.4873L123.514 44.6778C123.433 44.7146 123.36 44.7209 123.296 44.6968C123.232 44.6727 123.181 44.6202 123.144 44.5392L121.44 40.7856L119.022 41.8835L120.616 45.3942C120.653 45.4752 120.656 45.5494 120.624 45.617C120.6 45.6812 120.548 45.7317 120.467 45.7685L120.058 45.954C119.985 45.9874 119.912 45.9937 119.84 45.9729C119.776 45.9488 119.726 45.8963 119.689 45.8153L118.095 42.3046L115.589 43.4426L117.333 47.2845C117.37 47.3655 117.376 47.4381 117.352 47.5023C117.328 47.5665 117.276 47.617 117.195 47.6538L116.764 47.8493C116.69 47.8827 116.618 47.889 116.546 47.8683C116.482 47.8442 116.432 47.7916 116.395 47.7107L114.284 43.0627Z" fill="black"/>
<path d="M117.856 51.3122C117.833 51.2261 117.84 51.1535 117.874 51.0944C117.917 51.0333 117.977 50.9926 118.056 50.9723L125.721 48.9885C125.807 48.9663 125.88 48.9725 125.939 49.0073C126.006 49.0401 126.05 49.0995 126.072 49.1856L126.814 52.0498C127.043 52.9341 127.016 53.6881 126.735 54.3119C126.454 54.9358 125.907 55.353 125.093 55.5636C124.49 55.7196 123.958 55.6946 123.495 55.4886C123.043 55.2885 122.675 54.9494 122.393 54.4714L119.738 57.0872C119.698 57.1228 119.658 57.1457 119.618 57.1558C119.556 57.172 119.494 57.1588 119.433 57.1162C119.374 57.0814 119.336 57.0327 119.32 56.9701L119.174 56.4066C119.14 56.2736 119.15 56.1667 119.204 56.0858C119.258 56.005 119.314 55.932 119.373 55.8668L121.914 53.3931L121.382 51.3389L118.353 52.1227C118.275 52.143 118.202 52.1328 118.133 52.0922C118.074 52.0574 118.033 51.9969 118.011 51.9109L117.856 51.3122ZM122.38 51.0807L122.881 53.0175C123.033 53.6044 123.268 54.0113 123.585 54.238C123.91 54.4627 124.316 54.5123 124.801 54.3868C125.278 54.2632 125.605 54.0243 125.78 53.6699C125.958 53.3234 125.969 52.8527 125.816 52.258L125.314 50.3212L122.38 51.0807Z" fill="black"/>
<path d="M120.047 62.5453C119.99 61.8444 120.047 61.2477 120.218 60.7554C120.397 60.2624 120.645 59.8732 120.963 59.5879C121.289 59.31 121.644 59.1473 122.03 59.0998C122.094 59.0946 122.153 59.1142 122.205 59.1586C122.266 59.2104 122.299 59.2726 122.305 59.3451L122.355 59.9615C122.363 60.0581 122.345 60.1326 122.3 60.1849C122.256 60.2371 122.202 60.274 122.139 60.2953C121.949 60.3513 121.763 60.4637 121.583 60.6324C121.41 60.8086 121.271 61.0429 121.165 61.3354C121.068 61.6352 121.038 62.0108 121.074 62.462C121.13 63.1548 121.292 63.6526 121.56 63.9553C121.837 64.2653 122.181 64.4037 122.592 64.3703C122.874 64.3474 123.092 64.2405 123.247 64.0495C123.41 63.8659 123.546 63.5913 123.654 63.2257C123.762 62.8601 123.874 62.3887 123.99 61.8117C124.111 61.2098 124.257 60.7073 124.427 60.3042C124.597 59.9011 124.823 59.5908 125.105 59.3733C125.389 59.1638 125.76 59.0404 126.219 59.0031C126.654 58.9678 127.05 59.0532 127.408 59.2594C127.773 59.4649 128.074 59.777 128.311 60.1958C128.548 60.6225 128.692 61.1501 128.743 61.7786C128.784 62.2781 128.751 62.7187 128.644 63.1005C128.546 63.4896 128.394 63.8182 128.189 64.0863C127.991 64.3537 127.769 64.5623 127.522 64.7122C127.282 64.8614 127.042 64.9498 126.801 64.9775C126.745 64.982 126.687 64.9665 126.627 64.9308C126.576 64.8944 126.546 64.8319 126.539 64.7433L126.487 64.1028C126.482 64.0464 126.494 63.9846 126.521 63.9176C126.548 63.8586 126.605 63.8093 126.691 63.7699C127.017 63.6948 127.28 63.4869 127.48 63.1463C127.679 62.8057 127.758 62.3776 127.716 61.862C127.674 61.3383 127.538 60.9194 127.31 60.6054C127.082 60.2995 126.755 60.1639 126.328 60.1985C126.054 60.2208 125.831 60.316 125.658 60.4841C125.493 60.6516 125.356 60.906 125.245 61.2475C125.135 61.5889 125.025 62.0317 124.915 62.5759C124.79 63.2349 124.644 63.7779 124.476 64.2052C124.316 64.6318 124.095 64.9539 123.812 65.1714C123.539 65.3964 123.172 65.5275 122.713 65.5648C122.205 65.606 121.759 65.5084 121.375 65.2719C120.999 65.0348 120.695 64.6824 120.462 64.2147C120.238 63.7544 120.1 63.198 120.047 62.5453Z" fill="black"/>
</svg>
