<svg width="50" height="50" viewBox="0 0 50 50" fill="none" xmlns="http://www.w3.org/2000/svg">
<path d="M15.21 15.6396L16.214 15.7248C16.228 15.726 16.2709 15.7297 16.2923 15.7809C16.3138 15.8321 16.2863 15.8651 16.2773 15.8761L15.6343 16.651C15.2207 17.1494 15.2169 17.8485 15.6251 18.3511C15.967 18.7722 16.3551 19.1571 16.7785 19.495C17.2844 19.8991 17.9834 19.8897 18.4783 19.4722L19.2479 18.823C19.2587 18.814 19.2916 18.7862 19.3429 18.8073C19.3943 18.8284 19.3982 18.8711 19.3996 18.8853L19.4929 19.8883C19.5528 20.533 20.0444 21.0299 20.6885 21.0969C20.9481 21.1238 21.2096 21.1373 21.4712 21.1373C21.7521 21.1373 22.0331 21.1218 22.312 21.0906C22.956 21.0189 23.4439 20.518 23.4986 19.8725L23.5839 18.8685C23.5851 18.8543 23.5887 18.8115 23.6399 18.79C23.6911 18.7688 23.7243 18.796 23.7351 18.805L24.5101 19.4481C25.0084 19.8615 25.7074 19.8653 26.2101 19.4573C26.6311 19.1156 27.0159 18.7274 27.354 18.3039C27.758 17.7979 27.7486 17.0988 27.3312 16.6042L26.682 15.8346C26.6729 15.8238 26.6452 15.7909 26.6663 15.7394C26.6873 15.688 26.7301 15.684 26.7442 15.6827L27.7471 15.5895C28.3919 15.5296 28.8889 15.038 28.9558 14.3939C29.0117 13.8555 29.0097 13.3093 28.9497 12.7705C28.878 12.1265 28.3771 11.6385 27.7315 11.5838L26.7274 11.4985C26.7134 11.4974 26.6706 11.4937 26.6491 11.4425C26.6276 11.3912 26.6552 11.3581 26.6641 11.3473L27.3071 10.5724C27.7208 10.074 27.7245 9.3748 27.3164 8.87236C26.975 8.45166 26.5869 8.0667 26.1629 7.72832C25.6569 7.32422 24.958 7.33379 24.4632 7.75117L23.6937 8.40029C23.6829 8.40957 23.6499 8.4374 23.5985 8.41602C23.5472 8.39502 23.5432 8.35225 23.5418 8.33809L23.4485 7.33516C23.3887 6.69033 22.8971 6.19346 22.2529 6.12656C21.7141 6.0707 21.1678 6.07266 20.6294 6.13262C19.9854 6.2043 19.4975 6.70527 19.4428 7.35078L19.3575 8.35479C19.3563 8.36895 19.3527 8.41172 19.3015 8.4332C19.25 8.45469 19.2172 8.42715 19.2063 8.41826L18.4313 7.7751C17.933 7.36162 17.2339 7.35801 16.7313 7.76592C16.3104 8.10762 15.9256 8.4958 15.5872 8.91943C15.1834 9.42539 15.1929 10.1243 15.6103 10.619L16.2595 11.3888C16.2686 11.3995 16.2962 11.4323 16.2752 11.4838C16.2542 11.5352 16.2114 11.5392 16.1974 11.5404L15.1943 11.6337C14.5497 11.6937 14.0528 12.1854 13.9858 12.8293C13.9299 13.3678 13.9319 13.9139 13.992 14.4527C14.0634 15.097 14.5644 15.585 15.21 15.6396ZM15.1513 12.9506C15.16 12.8673 15.2194 12.8085 15.3027 12.8008L16.3058 12.7075C16.7769 12.6638 17.1807 12.365 17.3597 11.9281C17.5387 11.491 17.4603 10.9949 17.1553 10.6334L16.5062 9.86377C16.4521 9.7998 16.4511 9.71611 16.5032 9.65068C16.7892 9.29258 17.1145 8.96465 17.47 8.67588C17.5351 8.62314 17.6187 8.62373 17.6831 8.67705L18.4581 9.32022C18.8222 9.62236 19.3188 9.69678 19.7544 9.51426C20.1899 9.33184 20.4854 8.92559 20.5254 8.4542L20.6106 7.4501C20.6177 7.3667 20.6761 7.30674 20.7594 7.29756C21.2146 7.24687 21.6765 7.24522 22.132 7.29238C22.2153 7.30107 22.2741 7.36045 22.2819 7.44385L22.3752 8.44678C22.4189 8.91787 22.7176 9.32178 23.1545 9.50068C23.5915 9.67969 24.0876 9.60127 24.4493 9.29629L25.2189 8.64707C25.2828 8.59307 25.3664 8.59199 25.4319 8.64434C25.7902 8.93037 26.1182 9.25557 26.4067 9.61123C26.4595 9.67607 26.459 9.75967 26.4056 9.82412L25.7624 10.5991C25.4603 10.9633 25.386 11.4601 25.5685 11.8955C25.751 12.3311 26.1571 12.6264 26.6284 12.6664L27.6325 12.7517C27.7159 12.7587 27.7758 12.8171 27.7851 12.9003C27.8358 13.356 27.8376 13.8179 27.7902 14.273C27.7816 14.3563 27.7222 14.415 27.6388 14.4228L26.6358 14.516C26.1647 14.5598 25.7609 14.8585 25.5819 15.2954C25.4029 15.7324 25.4813 16.2286 25.7863 16.5902L26.4355 17.36C26.4895 17.4239 26.4906 17.5075 26.4383 17.573C26.1525 17.931 25.8272 18.2589 25.4715 18.5477C25.4064 18.6005 25.3229 18.6 25.2585 18.5465L24.4835 17.9033C24.1194 17.6013 23.6228 17.527 23.1872 17.7094C22.7518 17.8918 22.4563 18.2979 22.4163 18.7693L22.3311 19.7734C22.324 19.8568 22.2656 19.9168 22.1823 19.926C21.7268 19.9769 21.2649 19.9785 20.8098 19.9312C20.7265 19.9226 20.6676 19.8631 20.6599 19.7797L20.5666 18.7768C20.5229 18.3056 20.2241 17.9018 19.7871 17.7228C19.6319 17.6593 19.4692 17.6281 19.3077 17.6281C19.0146 17.6281 18.7256 17.7306 18.4924 17.9272L17.7229 18.5763C17.6589 18.6304 17.5752 18.6314 17.5097 18.5791C17.1518 18.2935 16.8238 17.9683 16.535 17.6124C16.4821 17.5475 16.4826 17.4639 16.5361 17.3993L17.1793 16.6244C17.4814 16.2603 17.5558 15.7636 17.3733 15.328C17.1909 14.8925 16.7847 14.5971 16.3133 14.557L15.3092 14.4719C15.2258 14.4648 15.1659 14.4064 15.1566 14.3232C15.1057 13.8677 15.1039 13.4058 15.1513 12.9506ZM21.4707 17.3127C23.5114 17.3127 25.1718 15.6524 25.1718 13.6117C25.1718 11.571 23.5115 9.91064 21.4707 9.91064C19.4299 9.91064 17.7696 11.571 17.7696 13.6117C17.7696 15.6524 19.4299 17.3127 21.4707 17.3127ZM21.4707 11.0824C22.8653 11.0824 23.9999 12.217 23.9999 13.6116C23.9999 15.0062 22.8653 16.1407 21.4707 16.1407C20.0761 16.1407 18.9415 15.0062 18.9415 13.6116C18.9415 12.2171 20.0761 11.0824 21.4707 11.0824ZM10.7583 28.0177C10.7583 27.6941 11.0207 27.4317 11.3442 27.4317H31.5971C31.9206 27.4317 32.183 27.6941 32.183 28.0177C32.183 28.3412 31.9206 28.6036 31.5971 28.6036H11.3442C11.0207 28.6036 10.7583 28.3413 10.7583 28.0177ZM10.7583 32.5121C10.7583 32.1886 11.0207 31.9262 11.3442 31.9262H31.5971C31.9206 31.9262 32.183 32.1886 32.183 32.5121C32.183 32.8356 31.9206 33.098 31.5971 33.098H11.3442C11.0207 33.098 10.7583 32.8356 10.7583 32.5121ZM22.0566 37.0063C22.0566 37.3299 21.7942 37.5923 21.4707 37.5923H11.3442C11.0207 37.5923 10.7583 37.3299 10.7583 37.0063C10.7583 36.6828 11.0207 36.4204 11.3442 36.4204H21.4706C21.7942 36.4204 22.0566 36.6828 22.0566 37.0063ZM10.7583 23.5235C10.7583 23.2 11.0207 22.9376 11.3442 22.9376H31.5971C31.9206 22.9376 32.183 23.2 32.183 23.5235C32.183 23.8471 31.9206 24.1095 31.5971 24.1095H11.3442C11.0207 24.1095 10.7583 23.8471 10.7583 23.5235ZM37.3476 33.608V3.61582C37.3476 2.16055 36.1637 0.976562 34.7083 0.976562H13.1831C13.0277 0.976562 12.8787 1.03828 12.7688 1.14824L5.76533 8.15166C5.65547 8.26152 5.59375 8.41055 5.59375 8.56592V40.0627C5.59375 41.5179 6.77773 42.7019 8.23301 42.7019H29.0893C29.7507 46.2933 32.9027 49.0233 36.6825 49.0233C40.941 49.0233 44.4055 45.5588 44.4055 41.3004C44.4056 37.2661 41.2956 33.9466 37.3476 33.608ZM12.5972 2.97705V6.5126C12.5972 7.32168 11.9389 7.97988 11.1298 7.97988H7.59424L12.5972 2.97705ZM8.23301 41.5301C7.42383 41.5301 6.76562 40.8719 6.76562 40.0628V9.15186H11.1298C12.5851 9.15186 13.769 7.96787 13.769 6.5127V2.14844H34.7083C35.5174 2.14844 36.1757 2.80674 36.1757 3.61582V33.5959C32.1527 33.858 28.9595 37.2124 28.9595 41.3005C28.9595 41.3774 28.9631 41.4536 28.9653 41.5301H8.23301ZM36.6825 47.8516C33.0702 47.8516 30.1313 44.9127 30.1313 41.3005C30.1313 37.6882 33.0702 34.7493 36.6825 34.7493C40.2948 34.7493 43.2336 37.6882 43.2336 41.3005C43.2337 44.9127 40.2948 47.8516 36.6825 47.8516ZM39.4211 39.1673H38.574V38.3201C38.574 37.3209 37.761 36.5078 36.7617 36.5078C35.7625 36.5078 34.9495 37.3208 34.9495 38.3201V39.1673H34.1023C33.103 39.1673 32.29 39.9803 32.29 40.9796C32.29 41.9789 33.103 42.7919 34.1023 42.7919H34.9495V43.6391C34.9495 44.6383 35.7625 45.4514 36.7617 45.4514C37.761 45.4514 38.574 44.6384 38.574 43.6391V42.7919H39.4211C40.4203 42.7919 41.2334 41.9789 41.2334 40.9796C41.2334 39.9803 40.4203 39.1673 39.4211 39.1673ZM39.4211 41.6199H37.9881C37.6646 41.6199 37.4021 41.8823 37.4021 42.2059V43.639C37.4021 43.9921 37.1148 44.2794 36.7617 44.2794C36.4086 44.2794 36.1214 43.9922 36.1214 43.639V42.2059C36.1214 41.8823 35.859 41.6199 35.5354 41.6199H34.1023C33.7492 41.6199 33.4619 41.3327 33.4619 40.9795C33.4619 40.6263 33.7492 40.3391 34.1023 40.3391H35.5354C35.859 40.3391 36.1214 40.0767 36.1214 39.7531V38.32C36.1214 37.9669 36.4086 37.6796 36.7617 37.6796C37.1148 37.6796 37.4021 37.9668 37.4021 38.32V39.7531C37.4021 40.0767 37.6646 40.3391 37.9881 40.3391H39.4211C39.7742 40.3391 40.0615 40.6263 40.0615 40.9795C40.0615 41.3327 39.7741 41.6199 39.4211 41.6199Z" fill="#303040"/>
</svg>
