<svg width="50" height="50" viewBox="0 0 50 50" fill="none" xmlns="http://www.w3.org/2000/svg">
<g clip-path="url(#clip0_124_10881)">
<path d="M6.66838 50H43.3326C44.7132 50 45.8324 48.8808 45.8324 47.5002V19.3804L46.1282 19.5762C46.6718 19.9515 47.3457 20.0871 47.9922 19.9511C48.6573 19.8135 49.2374 19.4105 49.5987 18.8354L49.6037 18.827C50.3359 17.6475 50.0153 16.1011 48.8746 15.3098L26.372 0.42002C25.5455 -0.140007 24.4612 -0.140007 23.6347 0.42002L1.11954 15.3174C-0.0188453 16.1113 -0.335346 17.6581 0.399607 18.8354C0.756888 19.4102 1.33376 19.8136 1.99615 19.952C2.16265 19.9856 2.33213 20.0023 2.50194 20.0021C2.98759 20.0027 3.46217 19.8576 3.86436 19.5854L4.16848 19.3813V47.5002C4.16848 48.8808 5.28771 50 6.66838 50ZM44.1658 47.5002C44.1658 47.9604 43.7927 48.3335 43.3325 48.3335H6.66838C6.20815 48.3335 5.8351 47.9604 5.8351 47.5002V18.2796L25.0004 5.61381L44.1658 18.2796V47.5002ZM2.93607 18.198C2.76164 18.3186 2.54519 18.362 2.33774 18.318C2.11882 18.2723 1.92837 18.1385 1.81115 17.948C1.54732 17.5365 1.65001 16.9907 2.04526 16.7031L24.5613 1.80498C24.6908 1.71698 24.8438 1.67001 25.0004 1.67001C25.1602 1.67067 25.3159 1.71913 25.4479 1.80919L47.9489 16.699C48.3474 16.9838 48.4541 17.5301 48.1922 17.944C48.0722 18.1367 47.8787 18.2722 47.6564 18.3189C47.4476 18.3604 47.2307 18.3147 47.0564 18.1923L25.4604 3.91978C25.182 3.73792 24.8223 3.73792 24.5438 3.91978L2.93607 18.198Z" fill="#303040"/>
<path d="M18.0407 15.7248C17.0729 14.7617 15.5086 14.7617 14.5409 15.7248L9.89459 20.3712C8.93097 21.3387 8.93097 22.9033 9.89459 23.8709L17.4349 31.4179L12.7968 36.0568C12.6963 36.1565 12.6231 36.2805 12.5844 36.4168L10.642 43.2172C10.5039 43.6997 10.6004 44.2191 10.9025 44.6198C11.2047 45.0205 11.6775 45.2562 12.1794 45.2562C12.3279 45.2559 12.4756 45.2352 12.6185 45.1945L19.4189 43.2505C19.5551 43.2118 19.6791 43.1386 19.7789 43.0381L24.4186 38.4017L31.9606 45.9445C32.9286 46.9072 34.4924 46.9072 35.4604 45.9445L40.1067 41.2982C41.0703 40.3306 41.0703 38.766 40.1067 37.7984L32.5688 30.2515L38.9492 23.8711C39.5686 23.2526 39.9166 22.4132 39.9166 21.5379C39.9166 20.6626 39.5686 19.8233 38.9492 19.2048L36.6261 16.8816C36.0087 16.2608 35.1684 15.913 34.2929 15.9159C33.4175 15.9129 32.5773 16.2604 31.9598 16.8808L25.5852 23.2679L18.0407 15.7248ZM15.1309 40.7048C14.6407 40.2193 14.0543 39.8418 13.4094 39.5966L13.9277 37.7809L16.8175 39.0191L18.0558 41.9089L16.24 42.4273C15.9945 41.782 15.6167 41.1952 15.1309 40.7048ZM18.4398 38.5749L30.8097 26.205L32.5355 27.9307L19.4747 40.9906L18.4398 38.5749ZM29.0849 22.1227L30.8107 20.397L35.4404 25.0267L33.7138 26.7516L29.0849 22.1227ZM29.6324 25.0267L17.2615 37.3967L14.845 36.3617L27.9058 23.301L29.6324 25.0267ZM11.0728 22.6935C10.7569 22.3772 10.7569 21.8648 11.0728 21.5486L15.7192 16.9023C16.0354 16.5863 16.5478 16.5863 16.8641 16.9023L18.5981 18.6363L16.8641 20.3704C16.6474 20.5796 16.5606 20.8894 16.6368 21.1808C16.7131 21.4721 16.9406 21.6997 17.2319 21.7759C17.5232 21.8522 17.833 21.7653 18.0423 21.5487L19.7764 19.8146L21.5021 21.542L20.3489 22.6952C20.1323 22.9044 20.0454 23.2142 20.1216 23.5056C20.1979 23.7969 20.4254 24.0245 20.7167 24.1007C21.008 24.177 21.3179 24.0901 21.5271 23.8735L22.6804 22.7202L24.4061 24.446L18.6148 30.2373L11.0728 22.6935ZM12.2778 43.5588L12.9444 41.209C13.7015 41.5284 14.304 42.1309 14.6234 42.8881L12.2778 43.5588ZM33.1163 33.1578L31.9631 34.3111C31.7465 34.5203 31.6596 34.8301 31.7358 35.1215C31.8121 35.4128 32.0396 35.6403 32.3309 35.7166C32.6222 35.7929 32.9321 35.7059 33.1413 35.4893L34.2946 34.3344L36.0203 36.0602L34.2862 37.7942C34.0696 38.0034 33.9828 38.3132 34.059 38.6046C34.1352 38.896 34.3628 39.1235 34.6541 39.1998C34.9454 39.276 35.2552 39.1891 35.4645 38.9725L37.1985 37.2384L38.9317 38.9724C39.2476 39.2887 39.2476 39.8011 38.9317 40.1173L34.2854 44.7637C33.9691 45.0796 33.4568 45.0796 33.1405 44.7637L25.5985 37.2217L31.3898 31.4305L33.1163 33.1578ZM34.2937 17.5855C34.7266 17.5841 35.1419 17.7561 35.447 18.063L37.7701 20.3862C38.4062 21.0231 38.4062 22.0549 37.7701 22.6918L36.6177 23.8485L31.988 19.2187L33.1412 18.0655C33.4459 17.758 33.8609 17.5851 34.2937 17.5855Z" fill="#303040"/>
</g>
<defs>
<clipPath id="clip0_124_10881">
<rect width="50" height="50" fill="white"/>
</clipPath>
</defs>
</svg>
