<svg width="51" height="51" viewBox="0 0 51 51" fill="none" xmlns="http://www.w3.org/2000/svg">
<g clip-path="url(#clip0_124_10893)">
<path d="M42.7773 10.875V14.1994L44.5482 15.9703" stroke="#303040" stroke-width="1.46484" stroke-miterlimit="10" stroke-linecap="round" stroke-linejoin="round"/>
<path d="M48.8091 48.7155H1.8668C1.42695 48.7155 1.07031 48.3589 1.07031 47.9191V44.948C1.07031 44.5081 1.42695 44.1516 1.8668 44.1516H48.8091C49.2489 44.1516 49.6055 44.5081 49.6055 44.948V47.9191C49.6055 48.3589 49.2489 48.7155 48.8091 48.7155Z" stroke="#303040" stroke-width="1.46484" stroke-miterlimit="10" stroke-linecap="round" stroke-linejoin="round"/>
<path d="M16.7187 34.0927C16.7187 35.1573 15.8556 36.0204 14.7909 36.0204C13.7263 36.0204 12.8633 35.1573 12.8633 34.0927C12.8633 33.028 13.7263 32.165 14.7909 32.165C15.8556 32.165 16.7187 33.028 16.7187 34.0927Z" stroke="#303040" stroke-width="1.46484" stroke-miterlimit="10" stroke-linecap="round" stroke-linejoin="round"/>
<path d="M25.331 32.6947V28.6443C25.331 27.8829 24.7137 27.2656 23.9521 27.2656H4.69902C3.9376 27.2656 3.32031 27.8829 3.32031 28.6443V41.519" stroke="#303040" stroke-width="1.46484" stroke-miterlimit="10" stroke-linecap="round" stroke-linejoin="round"/>
<path d="M25.3281 41.5188V36.1247" stroke="#303040" stroke-width="1.46484" stroke-miterlimit="10" stroke-linecap="round" stroke-linejoin="round"/>
<path d="M26.8604 44.1515C27.2983 43.7906 27.5776 43.2441 27.5776 42.6323C27.5776 42.0173 27.0792 41.5189 26.4643 41.5189H2.18369C1.56885 41.5189 1.07031 42.0173 1.07031 42.6323C1.07031 43.2463 1.35186 43.7944 1.79258 44.1552" stroke="#303040" stroke-width="1.46484" stroke-miterlimit="10" stroke-linecap="round" stroke-linejoin="round"/>
<path d="M30.3221 44.1517V39.2012C30.3221 38.2198 31.1177 37.4242 32.0991 37.4242H36.4875V30.5318C36.4875 27.8711 34.6083 25.8152 32.2615 25.3276L28.7982 24.5141C28.0342 25.9477 26.6681 27.0968 24.9766 27.7245" stroke="#303040" stroke-width="1.46484" stroke-miterlimit="10" stroke-linecap="round" stroke-linejoin="round"/>
<path d="M18.0474 27.2656C16.8254 26.6048 15.843 25.6487 15.2382 24.5139L11.7749 25.3275C10.5385 25.5844 9.43105 26.2774 8.66016 27.2656" stroke="#303040" stroke-width="1.46484" stroke-miterlimit="10" stroke-linecap="round" stroke-linejoin="round"/>
<path d="M28.7983 24.5139L25.5312 23.7464V20.851" stroke="#303040" stroke-width="1.46484" stroke-miterlimit="10" stroke-linecap="round" stroke-linejoin="round"/>
<path d="M18.5055 20.7926V23.7465L15.2383 24.514" stroke="#303040" stroke-width="1.46484" stroke-miterlimit="10" stroke-linecap="round" stroke-linejoin="round"/>
<path d="M15.5273 14.2511L15.5378 15.4876C15.5745 17.199 16.2937 18.8462 17.5929 19.9649C18.6389 20.8655 20.1092 22.5492 22.0515 22.5709C23.9937 22.5492 25.464 20.8655 26.51 19.9649C27.8092 18.8462 28.5283 17.199 28.565 15.4876L28.57 10.8815" stroke="#303040" stroke-width="1.46484" stroke-miterlimit="10" stroke-linecap="round" stroke-linejoin="round"/>
<path d="M15.628 4.1471C17.1146 2.78402 19.0964 1.95208 21.2723 1.95208H22.7662C27.3802 1.95208 31.1205 5.69251 31.1205 10.3064V11.8495C31.1205 11.8495 28.7023 11.6575 27.3738 9.66331C27.0558 9.18587 26.4179 9.04925 25.9421 9.36985C23.7113 10.873 17.9085 15.9843 12.918 13.6528V10.3064C12.918 9.13596 13.1587 8.02171 13.5933 7.01058" stroke="#303040" stroke-width="1.46484" stroke-miterlimit="10" stroke-linecap="round" stroke-linejoin="round"/>
<path d="M12.918 13.6528V22.4101C12.918 23.3197 13.1689 24.1704 13.6047 24.8978" stroke="#303040" stroke-width="1.46484" stroke-miterlimit="10" stroke-linecap="round" stroke-linejoin="round"/>
<path d="M30.4336 24.8978C30.8693 24.1703 31.1203 23.3196 31.1203 22.4101V11.8494" stroke="#303040" stroke-width="1.46484" stroke-miterlimit="10" stroke-linecap="round" stroke-linejoin="round"/>
<path d="M36.4883 44.1517V37.4241" stroke="#303040" stroke-width="1.46484" stroke-miterlimit="10" stroke-linecap="round" stroke-linejoin="round"/>
<path d="M49.5864 14.1996C49.5864 17.96 46.538 21.0085 42.7775 21.0085C39.0172 21.0085 35.9688 17.96 35.9688 14.1996C35.9688 10.4392 39.0172 7.39072 42.7775 7.39072C46.538 7.39072 49.5864 10.4392 49.5864 14.1996Z" stroke="#303040" stroke-width="1.46484" stroke-miterlimit="10" stroke-linecap="round" stroke-linejoin="round"/>
</g>
<defs>
<clipPath id="clip0_124_10893">
<rect width="50" height="50" fill="white" transform="translate(0.335938 0.333496)"/>
</clipPath>
</defs>
</svg>
