<svg width="260" height="478" viewBox="0 0 260 478" fill="none" xmlns="http://www.w3.org/2000/svg">
<g clip-path="url(#clip0_124_10943)">
<path d="M231.289 467.87C235.816 466.903 240.229 465.463 244.453 463.574C248.663 461.608 252.761 459.048 255.835 455.32C257.405 453.477 258.574 451.33 259.269 449.015C259.964 446.699 260.169 444.265 259.873 441.866C259.618 439.489 258.934 437.179 257.854 435.045C256.748 432.941 255.297 431.037 253.559 429.412C250.111 426.188 245.937 424.05 241.732 422.461C237.563 420.939 233.266 419.792 228.892 419.035C227.818 418.837 226.746 418.66 225.676 418.502L224.076 418.271L223.879 418.241L223.925 418.15L224.001 418.004C224.001 417.944 224.041 417.929 224.081 417.838L224.369 417.053L224.662 416.269L224.803 415.877L224.899 415.469L225.278 413.85C225.278 413.85 225.278 413.824 225.278 413.814C225.425 413.154 225.489 412.478 225.469 411.802C225.522 410.293 225.367 408.784 225.01 407.316C224.848 406.813 224.743 406.249 224.536 405.746C224.329 405.243 224.101 404.74 223.889 404.237C223.677 403.734 223.344 403.297 223.067 402.829C222.94 402.592 222.79 402.367 222.618 402.16L222.456 401.954L221.86 401.205L221.573 400.842L221.25 400.531L220.074 399.404C219.271 398.815 218.635 398.317 218.176 398.041C216.766 397.177 215.198 396.6 213.562 396.346C212.857 396.247 212.145 396.198 211.432 396.2H211.261C211.684 395.545 211.928 394.79 211.967 394.012C212.01 393.274 211.987 392.533 211.897 391.799C211.735 390.39 211.432 389.012 211.331 387.725C211.331 387.428 211.301 387.056 211.291 386.719L211.261 385.627C211.24 384.896 211.22 384.157 211.2 383.409C211.166 381.91 211.126 380.376 211.079 378.807C210.509 353.658 210.609 319.606 210.771 283.909C210.933 248.212 211.21 210.891 210.988 179.243C210.954 175.29 210.919 171.433 210.882 167.675C210.827 164.154 210.771 160.703 210.721 157.373C210.721 156.84 210.721 156.337 210.69 155.864C210.69 154.949 210.645 154.21 210.63 153.717C210.56 150.768 210.08 147.842 209.201 145.025C208.472 147.882 208.145 150.826 208.232 153.772C208.232 154.275 208.262 154.999 208.283 155.91C208.283 156.367 208.283 156.87 208.313 157.419C208.363 160.738 208.414 164.174 208.469 167.7C208.506 171.462 208.543 175.318 208.58 179.268C208.792 210.886 208.525 248.207 208.363 283.889C208.202 319.57 208.106 353.673 208.681 378.852C208.722 380.428 208.762 381.965 208.802 383.464C208.802 384.219 208.843 384.973 208.863 385.693L208.893 386.784C208.893 387.146 208.893 387.488 208.939 387.906C209.07 389.465 209.373 390.803 209.514 392.075C209.585 392.658 209.607 393.245 209.58 393.831C209.573 394.236 209.448 394.631 209.221 394.968C209.132 395.077 209.015 395.162 208.883 395.214L208.772 395.274L208.55 395.365L208.101 395.541L206.354 396.235L204.714 397.025C204.446 397.156 204.179 397.271 203.922 397.417L203.169 397.855C201.324 398.888 199.627 400.164 198.122 401.647L197.148 402.653L196.33 403.704L195.941 404.207C195.83 404.383 195.724 404.559 195.613 404.71C195.406 405.057 195.199 405.389 195.008 405.716C194.675 406.39 194.372 407.024 194.134 407.618C193.897 408.211 193.746 408.774 193.63 409.277C193.514 409.78 193.438 410.233 193.357 410.62C193.3 410.953 193.265 411.289 193.251 411.626C193.211 412.16 193.186 412.431 193.186 412.431V412.632C193.186 412.768 193.186 412.969 193.186 413.236C193.186 413.503 193.185 413.834 193.221 414.242C193.256 414.649 193.332 415.082 193.403 415.595C193.485 416.161 193.608 416.721 193.771 417.27C193.832 417.58 193.92 417.885 194.033 418.18C194.033 418.251 194.064 418.261 194.064 418.266L193.599 418.346C192.792 418.492 191.934 418.693 191.03 418.879C189.223 419.307 187.224 419.805 185.089 420.524C182.768 421.272 180.501 422.18 178.305 423.24C172.946 425.762 168.166 429.358 164.263 433.803C161.941 436.363 160.158 439.361 159.019 442.62C158.417 444.372 158.077 446.202 158.009 448.052C157.931 450.048 158.345 452.033 159.216 453.832C160.113 455.633 161.349 457.247 162.855 458.585C164.348 459.93 165.989 461.102 167.746 462.081C169.513 463.078 171.346 463.953 173.233 464.701C175.136 465.446 177.089 466.094 179.083 466.678C184.572 468.195 190.187 469.217 195.861 469.731C195.84 469.967 195.84 470.204 195.861 470.44C195.94 471.197 196.173 471.93 196.547 472.593C197.413 474.056 198.658 475.26 200.151 476.079C201.326 476.761 202.595 477.269 203.917 477.588C204.144 477.643 204.522 477.733 204.855 477.784C205.188 477.834 205.456 477.864 205.456 477.864L205.961 477.93C206.253 477.93 206.617 477.97 206.874 477.975C208.168 477.989 209.454 477.78 210.675 477.356C211.383 477.096 212.06 476.759 212.694 476.35C214.173 475.43 215.314 474.057 215.945 472.437C216.204 471.744 216.352 471.014 216.384 470.274C216.384 470.179 216.384 470.078 216.384 469.983C221.397 469.64 226.379 468.934 231.289 467.87ZM221.835 408.136C222.232 408.702 222.544 409.324 222.759 409.982C222.878 410.334 222.968 410.696 223.026 411.063C223.026 411.204 223.067 411.34 223.087 411.475C223.072 412.139 223.015 412.801 222.915 413.457C222.804 413.92 222.693 414.383 222.587 414.85L222.506 415.197L222.38 415.54L222.128 416.219L221.881 416.898L221.255 418.13L220.614 419.382L220.588 419.428C219.998 419.574 219.422 419.694 218.847 419.82C217.55 420.046 216.222 420.278 214.511 420.429L213.724 420.484H212.623C212.205 420.484 211.73 420.429 211.195 420.398C210.927 420.373 210.65 420.323 210.352 420.283C210.041 420.245 209.733 420.189 209.428 420.117C207.379 419.7 205.431 418.892 203.689 417.738C201.807 416.515 200.202 414.78 199.939 413.045C199.808 412.2 199.889 411.336 200.176 410.53C200.413 409.843 200.753 409.197 201.186 408.614C201.474 408.213 201.8 407.841 202.16 407.502C202.412 407.255 202.569 407.13 202.569 407.13C202.569 407.13 202.745 406.974 203.074 406.717C203.565 406.347 204.081 406.011 204.618 405.711C205.437 405.259 206.279 404.851 207.142 404.489C208.204 404.032 209.289 403.631 210.392 403.287C211.469 402.934 212.616 402.846 213.734 403.03C214.914 403.296 216.051 403.721 217.116 404.293C218.988 405.159 220.611 406.48 221.835 408.136ZM214.42 471.647C213.588 472.726 212.573 473.652 211.422 474.384C210.067 475.241 208.484 475.672 206.879 475.621L206.147 475.591L205.724 475.545C205.724 475.545 205.501 475.52 205.219 475.465C204.936 475.41 204.638 475.344 204.452 475.309C203.349 475.034 202.291 474.608 201.307 474.041C200.082 473.362 198.945 472.536 197.92 471.582C197.48 471.167 197.099 470.693 196.789 470.174C196.724 470.058 196.663 469.932 196.608 469.811C199.185 470.043 201.79 470.197 204.421 470.274C208.04 470.365 211.705 470.304 215.389 470.068C215.116 470.623 214.792 471.152 214.42 471.647ZM204.517 467.9C195.891 467.659 187.467 466.592 179.739 464.404C177.811 463.841 175.933 463.217 174.116 462.503C172.335 461.799 170.605 460.974 168.937 460.033C165.697 458.193 162.805 455.803 161.366 452.816C160.668 451.361 160.341 449.758 160.412 448.148C160.474 446.522 160.773 444.914 161.3 443.375C162.341 440.399 163.972 437.662 166.096 435.327C169.78 431.12 174.298 427.717 179.365 425.333C181.463 424.315 183.631 423.446 185.851 422.732C187.896 422.043 189.829 421.565 191.57 421.148C192.449 420.967 193.271 420.771 194.059 420.645L195.911 420.308L197.012 420.112L197.279 420.061L197.198 419.835C197.143 419.689 197.087 419.538 197.037 419.392C196.674 418.49 196.358 417.57 196.088 416.636C195.947 416.161 195.841 415.677 195.77 415.187C195.714 414.75 195.634 414.363 195.613 414.031C195.593 413.699 195.613 413.412 195.613 413.186C195.613 412.959 195.613 412.788 195.613 412.683V412.512C195.613 412.512 195.613 412.28 195.664 411.833C195.677 411.553 195.707 411.274 195.755 410.998L195.982 409.861C196.093 409.438 196.264 408.976 196.426 408.463C196.587 407.95 196.885 407.421 197.163 406.848L197.668 405.988L197.945 405.54L198.283 405.103C198.511 404.806 198.748 404.504 198.995 404.192L199.853 403.302C201.205 401.963 202.733 400.814 204.396 399.887L205.082 399.484C205.32 399.348 205.587 399.243 205.819 399.117L207.334 398.388L208.969 397.739L209.388 397.568L209.6 397.487L209.913 397.342C210.159 397.233 210.39 397.093 210.599 396.924L211.245 397.171C211.881 397.422 212.457 397.749 213.063 397.995C214.377 398.6 215.659 399.272 216.904 400.007C217.292 400.249 217.822 400.681 218.514 401.174L219.523 402.135C219.609 402.221 219.7 402.311 219.796 402.397L220.033 402.703L220.538 403.337L220.679 403.508C220.756 403.599 220.826 403.695 220.891 403.795C220.06 403.175 219.175 402.631 218.246 402.17C216.977 401.49 215.617 400.991 214.208 400.687C213.443 400.543 212.662 400.508 211.886 400.581C211.163 400.653 210.448 400.793 209.751 400.998C208.551 401.372 207.372 401.808 206.218 402.306C205.263 402.703 204.331 403.153 203.427 403.654C202.799 404.006 202.195 404.399 201.62 404.831C201.206 405.148 200.989 405.334 200.989 405.334C200.989 405.334 200.802 405.485 200.484 405.792C200.02 406.23 199.598 406.71 199.222 407.225C198.653 408.004 198.206 408.863 197.895 409.775C197.487 410.946 197.374 412.198 197.567 413.422C197.827 414.775 198.439 416.036 199.343 417.079C200.211 418.081 201.215 418.958 202.327 419.684C204.33 421.015 206.574 421.946 208.934 422.425C209.282 422.507 209.634 422.569 209.989 422.611C210.322 422.657 210.64 422.712 210.948 422.742C211.553 422.777 212.093 422.838 212.573 422.838H213.825L214.718 422.762C217.625 422.44 219.533 421.616 221.209 420.247L223.768 420.584L225.338 420.816C226.383 420.972 227.428 421.143 228.478 421.319C232.708 422.045 236.864 423.151 240.895 424.623C244.933 426.132 248.819 428.144 251.918 431.072C253.458 432.51 254.744 434.194 255.724 436.056C256.673 437.935 257.27 439.97 257.486 442.062C257.745 444.15 257.565 446.27 256.957 448.285C256.349 450.3 255.325 452.167 253.952 453.766C251.227 457.071 247.426 459.495 243.428 461.361C239.359 463.174 235.112 464.558 230.754 465.491C222.138 467.348 213.329 468.162 204.517 467.915V467.9Z" fill="white"/>
</g>
<g clip-path="url(#clip1_124_10943)">
<path d="M161.289 386.87C165.816 385.903 170.229 384.463 174.453 382.574C178.663 380.608 182.761 378.048 185.835 374.32C187.405 372.477 188.574 370.33 189.269 368.015C189.964 365.699 190.169 363.265 189.873 360.866C189.618 358.489 188.934 356.179 187.854 354.045C186.748 351.941 185.297 350.037 183.559 348.412C180.111 345.188 175.937 343.05 171.732 341.461C167.563 339.939 163.266 338.792 158.892 338.035C157.818 337.837 156.746 337.66 155.676 337.502L154.076 337.271L153.879 337.241L153.925 337.15L154.001 337.004C154.001 336.944 154.041 336.929 154.081 336.838L154.369 336.053L154.662 335.269L154.803 334.877L154.899 334.469L155.278 332.85C155.278 332.85 155.278 332.824 155.278 332.814C155.425 332.154 155.489 331.478 155.469 330.802C155.522 329.293 155.367 327.784 155.01 326.316C154.848 325.813 154.743 325.249 154.536 324.746C154.329 324.243 154.101 323.74 153.889 323.237C153.677 322.734 153.344 322.297 153.067 321.829C152.94 321.592 152.79 321.367 152.618 321.16L152.456 320.954L151.86 320.205L151.573 319.842L151.25 319.531L150.074 318.404C149.271 317.815 148.635 317.317 148.176 317.041C146.766 316.177 145.198 315.6 143.562 315.346C142.857 315.247 142.145 315.198 141.432 315.2H141.261C141.684 314.545 141.928 313.79 141.967 313.012C142.01 312.274 141.987 311.533 141.897 310.799C141.735 309.39 141.432 308.012 141.331 306.725C141.331 306.428 141.301 306.056 141.291 305.719L141.261 304.627C141.24 303.896 141.22 303.157 141.2 302.409C141.166 300.91 141.126 299.376 141.079 297.807C140.509 272.658 140.609 238.606 140.771 202.909C140.933 167.212 141.21 129.891 140.988 98.2431C140.954 94.2897 140.919 90.4335 140.882 86.6745C140.827 83.1536 140.771 79.7032 140.721 76.3734C140.721 75.8403 140.721 75.3373 140.69 74.8645C140.69 73.9491 140.645 73.2097 140.63 72.7167C140.56 69.7676 140.08 66.8423 139.201 64.0252C138.472 66.8817 138.145 69.8256 138.232 72.772C138.232 73.275 138.262 73.9993 138.283 74.9097C138.283 75.3674 138.283 75.8704 138.313 76.4186C138.363 79.7383 138.414 83.1737 138.469 86.6996C138.506 90.4619 138.543 94.3181 138.58 98.2682C138.792 129.886 138.525 167.207 138.363 202.889C138.202 238.57 138.106 272.673 138.681 297.852C138.722 299.428 138.762 300.965 138.802 302.464C138.802 303.219 138.843 303.973 138.863 304.693L138.893 305.784C138.893 306.146 138.893 306.488 138.939 306.906C139.07 308.465 139.373 309.803 139.514 311.075C139.585 311.658 139.607 312.245 139.58 312.831C139.573 313.236 139.448 313.631 139.221 313.968C139.132 314.077 139.015 314.162 138.883 314.214L138.772 314.274L138.55 314.365L138.101 314.541L136.354 315.235L134.714 316.025C134.446 316.156 134.179 316.271 133.922 316.417L133.169 316.855C131.324 317.888 129.627 319.164 128.122 320.647L127.148 321.653L126.33 322.704L125.941 323.207C125.83 323.383 125.724 323.559 125.613 323.71C125.406 324.057 125.199 324.389 125.008 324.716C124.675 325.39 124.372 326.024 124.134 326.618C123.897 327.211 123.746 327.774 123.63 328.277C123.514 328.78 123.438 329.233 123.357 329.62C123.3 329.953 123.265 330.289 123.251 330.626C123.211 331.16 123.186 331.431 123.186 331.431V331.632C123.186 331.768 123.186 331.969 123.186 332.236C123.186 332.503 123.185 332.834 123.221 333.242C123.256 333.649 123.332 334.082 123.403 334.595C123.485 335.161 123.608 335.721 123.771 336.27C123.832 336.58 123.92 336.885 124.033 337.18C124.033 337.251 124.064 337.261 124.064 337.266L123.599 337.346C122.792 337.492 121.934 337.693 121.03 337.879C119.223 338.307 117.224 338.805 115.089 339.524C112.768 340.272 110.501 341.18 108.305 342.24C102.946 344.762 98.1658 348.358 94.2633 352.803C91.9408 355.363 90.1575 358.361 89.0189 361.62C88.4167 363.372 88.0765 365.202 88.0094 367.052C87.9308 369.048 88.3451 371.033 89.2158 372.832C90.1132 374.633 91.3485 376.247 92.855 377.585C94.3482 378.93 95.989 380.102 97.7461 381.081C99.5129 382.078 101.346 382.953 103.233 383.701C105.136 384.446 107.089 385.094 109.083 385.678C114.572 387.195 120.187 388.217 125.861 388.731C125.84 388.967 125.84 389.204 125.861 389.44C125.94 390.197 126.173 390.93 126.547 391.593C127.413 393.056 128.658 394.26 130.151 395.079C131.326 395.761 132.595 396.269 133.917 396.588C134.144 396.643 134.522 396.733 134.855 396.784C135.188 396.834 135.456 396.864 135.456 396.864L135.961 396.93C136.253 396.93 136.617 396.97 136.874 396.975C138.168 396.989 139.454 396.78 140.675 396.356C141.383 396.096 142.06 395.759 142.694 395.35C144.173 394.43 145.314 393.057 145.945 391.437C146.204 390.744 146.352 390.014 146.384 389.274C146.384 389.179 146.384 389.078 146.384 388.983C151.397 388.64 156.379 387.934 161.289 386.87ZM151.835 327.136C152.232 327.702 152.544 328.324 152.759 328.982C152.878 329.334 152.968 329.696 153.026 330.063C153.026 330.204 153.067 330.34 153.087 330.475C153.072 331.139 153.015 331.801 152.915 332.457C152.804 332.92 152.693 333.383 152.587 333.85L152.506 334.197L152.38 334.54L152.128 335.219L151.881 335.898L151.255 337.13L150.614 338.382L150.588 338.428C149.998 338.574 149.422 338.694 148.847 338.82C147.55 339.046 146.222 339.278 144.511 339.429L143.724 339.484H142.623C142.205 339.484 141.73 339.429 141.195 339.398C140.927 339.373 140.65 339.323 140.352 339.283C140.041 339.245 139.733 339.189 139.428 339.117C137.379 338.7 135.431 337.892 133.689 336.738C131.807 335.515 130.202 333.78 129.939 332.045C129.808 331.2 129.889 330.336 130.176 329.53C130.413 328.843 130.753 328.197 131.186 327.614C131.474 327.213 131.8 326.841 132.16 326.502C132.412 326.255 132.569 326.13 132.569 326.13C132.569 326.13 132.745 325.974 133.074 325.717C133.565 325.347 134.081 325.011 134.618 324.711C135.437 324.259 136.279 323.851 137.142 323.489C138.204 323.032 139.289 322.631 140.392 322.287C141.469 321.934 142.616 321.846 143.734 322.03C144.914 322.296 146.051 322.721 147.116 323.293C148.988 324.159 150.611 325.48 151.835 327.136ZM144.42 390.647C143.588 391.726 142.573 392.652 141.422 393.384C140.067 394.241 138.484 394.672 136.879 394.621L136.147 394.591L135.724 394.545C135.724 394.545 135.501 394.52 135.219 394.465C134.936 394.41 134.638 394.344 134.452 394.309C133.349 394.034 132.291 393.608 131.307 393.041C130.082 392.362 128.945 391.536 127.92 390.582C127.48 390.167 127.099 389.693 126.789 389.174C126.724 389.058 126.663 388.932 126.608 388.811C129.185 389.043 131.79 389.197 134.421 389.274C138.04 389.365 141.705 389.304 145.389 389.068C145.116 389.623 144.792 390.152 144.42 390.647ZM134.517 386.9C125.891 386.659 117.467 385.592 109.739 383.404C107.811 382.841 105.933 382.217 104.116 381.503C102.335 380.799 100.605 379.974 98.9373 379.033C95.6968 377.193 92.8046 374.803 91.366 371.816C90.6683 370.361 90.3407 368.758 90.412 367.148C90.4737 365.522 90.7729 363.914 91.3004 362.375C92.3415 359.399 93.9721 356.662 96.0955 354.327C99.7802 350.12 104.298 346.717 109.365 344.333C111.463 343.315 113.631 342.446 115.851 341.732C117.896 341.043 119.829 340.565 121.57 340.148C122.449 339.967 123.271 339.771 124.059 339.645L125.911 339.308L127.012 339.112L127.279 339.061L127.198 338.835C127.143 338.689 127.087 338.538 127.037 338.392C126.674 337.49 126.358 336.57 126.088 335.636C125.947 335.161 125.841 334.677 125.77 334.187C125.714 333.75 125.634 333.363 125.613 333.031C125.593 332.699 125.613 332.412 125.613 332.186C125.613 331.959 125.613 331.788 125.613 331.683V331.512C125.613 331.512 125.613 331.28 125.664 330.833C125.677 330.553 125.707 330.274 125.755 329.998L125.982 328.861C126.093 328.438 126.264 327.976 126.426 327.463C126.587 326.95 126.885 326.421 127.163 325.848L127.668 324.988L127.945 324.54L128.283 324.103C128.511 323.806 128.748 323.504 128.995 323.192L129.853 322.302C131.205 320.963 132.733 319.814 134.396 318.887L135.082 318.484C135.32 318.348 135.587 318.243 135.819 318.117L137.334 317.388L138.969 316.739L139.388 316.568L139.6 316.487L139.913 316.342C140.159 316.233 140.39 316.093 140.599 315.924L141.245 316.171C141.881 316.422 142.457 316.749 143.063 316.995C144.377 317.6 145.659 318.272 146.904 319.007C147.292 319.249 147.822 319.681 148.514 320.174L149.523 321.135C149.609 321.221 149.7 321.311 149.796 321.397L150.033 321.703L150.538 322.337L150.679 322.508C150.756 322.599 150.826 322.695 150.891 322.795C150.06 322.175 149.175 321.631 148.246 321.17C146.977 320.49 145.617 319.991 144.208 319.687C143.443 319.543 142.662 319.508 141.886 319.581C141.163 319.653 140.448 319.793 139.751 319.998C138.551 320.372 137.372 320.808 136.218 321.306C135.263 321.703 134.331 322.153 133.427 322.654C132.799 323.006 132.195 323.399 131.62 323.831C131.206 324.148 130.989 324.334 130.989 324.334C130.989 324.334 130.802 324.485 130.484 324.792C130.02 325.23 129.598 325.71 129.222 326.225C128.653 327.004 128.206 327.863 127.895 328.775C127.487 329.946 127.374 331.198 127.567 332.422C127.827 333.775 128.439 335.036 129.343 336.079C130.211 337.081 131.215 337.958 132.327 338.684C134.33 340.015 136.574 340.946 138.934 341.425C139.282 341.507 139.634 341.569 139.989 341.611C140.322 341.657 140.64 341.712 140.948 341.742C141.553 341.777 142.093 341.838 142.573 341.838H143.825L144.718 341.762C147.625 341.44 149.533 340.616 151.209 339.247L153.768 339.584L155.338 339.816C156.383 339.972 157.428 340.143 158.478 340.319C162.708 341.045 166.864 342.151 170.895 343.623C174.933 345.132 178.819 347.144 181.918 350.072C183.458 351.51 184.744 353.194 185.724 355.056C186.673 356.935 187.27 358.97 187.486 361.062C187.745 363.15 187.565 365.27 186.957 367.285C186.349 369.3 185.325 371.167 183.952 372.766C181.227 376.071 177.426 378.495 173.428 380.361C169.359 382.174 165.112 383.558 160.754 384.491C152.138 386.348 143.329 387.162 134.517 386.915V386.9Z" fill="white"/>
</g>
<g clip-path="url(#clip2_124_10943)">
<path d="M73.2891 322.87C77.8163 321.903 82.2285 320.463 86.453 318.574C90.6626 316.608 94.7612 314.048 97.8352 310.32C99.4045 308.477 100.574 306.33 101.269 304.015C101.964 301.699 102.169 299.265 101.873 296.866C101.618 294.489 100.934 292.179 99.8542 290.045C98.7485 287.941 97.2965 286.037 95.5587 284.412C92.1113 281.188 87.937 279.05 83.7324 277.461C79.5634 275.939 75.266 274.792 70.8916 274.035C69.8181 273.837 68.7464 273.66 67.6763 273.502L66.0762 273.271L65.8794 273.241L65.9248 273.15L66.0005 273.004C66.0005 272.944 66.0409 272.929 66.0813 272.838L66.369 272.053L66.6618 271.269L66.803 270.877L66.899 270.469L67.2775 268.85C67.2775 268.85 67.2775 268.824 67.2775 268.814C67.4249 268.154 67.4893 267.478 67.4694 266.802C67.5218 265.293 67.3672 263.784 67.01 262.316C66.8485 261.813 66.7425 261.249 66.5356 260.746C66.3286 260.243 66.1015 259.74 65.8895 259.237C65.6775 258.734 65.3443 258.297 65.0667 257.829C64.9401 257.592 64.7896 257.367 64.6175 257.16L64.456 256.954L63.8604 256.205L63.5727 255.842L63.2496 255.531L62.0735 254.404C61.271 253.815 60.635 253.317 60.1757 253.041C58.7659 252.177 57.1976 251.6 55.5623 251.346C54.8566 251.247 54.1448 251.198 53.4322 251.2H53.2606C53.6841 250.545 53.9278 249.79 53.9673 249.012C54.0104 248.274 53.9867 247.533 53.8966 246.799C53.7351 245.39 53.4322 244.012 53.3313 242.725C53.3313 242.428 53.301 242.056 53.2909 241.719L53.2606 240.627C53.2404 239.896 53.2202 239.157 53.2 238.409C53.1664 236.91 53.126 235.376 53.0789 233.807C52.5085 208.658 52.6095 174.606 52.771 138.909C52.9325 103.212 53.2101 65.8908 52.988 34.2431C52.9544 30.2897 52.9191 26.4335 52.882 22.6745C52.8265 19.1536 52.771 15.7032 52.7206 12.3734C52.7206 11.8403 52.7205 11.3373 52.6902 10.8645C52.6902 9.94906 52.6448 9.20966 52.6297 8.71674C52.5604 5.76756 52.0797 2.84231 51.2012 0.025177C50.4715 2.8817 50.1453 5.82565 50.2321 8.772C50.2321 9.27498 50.2624 9.99928 50.2826 10.9097C50.2826 11.3674 50.2826 11.8704 50.3129 12.4186C50.3634 15.7383 50.4138 19.1737 50.4693 22.6996C50.5063 26.4619 50.5434 30.3181 50.5804 34.2682C50.7924 65.8857 50.5249 103.207 50.3633 138.889C50.2018 174.57 50.1059 208.673 50.6813 233.852C50.7217 235.428 50.7621 236.965 50.8025 238.464C50.8025 239.219 50.8428 239.973 50.863 240.693L50.8934 241.784C50.8934 242.146 50.8933 242.488 50.9388 242.906C51.07 244.465 51.3729 245.803 51.5142 247.075C51.5847 247.658 51.6067 248.245 51.5798 248.831C51.5726 249.236 51.4481 249.631 51.2214 249.968C51.1319 250.077 51.0154 250.162 50.8832 250.214L50.7722 250.274L50.5501 250.365L50.1009 250.541L48.3544 251.235L46.714 252.025C46.4465 252.156 46.1789 252.271 45.9215 252.417L45.1694 252.855C43.3243 253.888 41.6267 255.164 40.1219 256.647L39.1478 257.653L38.3301 258.704L37.9414 259.207C37.8304 259.383 37.7244 259.559 37.6133 259.71C37.4064 260.057 37.1995 260.389 37.0077 260.716C36.6745 261.39 36.3717 262.024 36.1345 262.618C35.8972 263.211 35.7458 263.774 35.6297 264.277C35.5136 264.78 35.4379 265.233 35.3571 265.62C35.2999 265.953 35.2645 266.289 35.2511 266.626C35.2108 267.16 35.1855 267.431 35.1855 267.431V267.632C35.1855 267.768 35.1855 267.969 35.1855 268.236C35.1855 268.503 35.1855 268.834 35.2208 269.242C35.2562 269.649 35.3319 270.082 35.4025 270.595C35.4845 271.161 35.6077 271.721 35.771 272.27C35.8324 272.58 35.9202 272.885 36.0335 273.18C36.0335 273.251 36.0638 273.261 36.0638 273.266L35.5994 273.346C34.7918 273.492 33.9337 273.693 33.0302 273.879C31.2232 274.307 29.2244 274.805 27.0893 275.524C24.7677 276.272 22.501 277.18 20.3055 278.24C14.946 280.762 10.1658 284.358 6.26328 288.803C3.94084 291.363 2.15751 294.361 1.01892 297.62C0.416688 299.372 0.0765398 301.202 0.00941711 303.052C-0.0691698 305.048 0.345076 307.033 1.21578 308.832C2.11316 310.633 3.34851 312.247 4.85504 313.585C6.34823 314.93 7.98896 316.102 9.74608 317.081C11.5129 318.078 13.3461 318.953 15.2327 319.701C17.1356 320.446 19.089 321.094 21.0828 321.678C26.5721 323.195 32.1874 324.217 37.8607 324.731C37.8405 324.967 37.8405 325.204 37.8607 325.44C37.9396 326.197 38.1732 326.93 38.5471 327.593C39.4131 329.056 40.6578 330.26 42.151 331.079C43.3262 331.761 44.5946 332.269 45.9165 332.588C46.1437 332.643 46.5222 332.733 46.8554 332.784C47.1885 332.834 47.456 332.864 47.456 332.864L47.9607 332.93C48.2535 332.93 48.6169 332.97 48.8744 332.975C50.1676 332.989 51.4536 332.78 52.6751 332.356C53.3833 332.096 54.0604 331.759 54.6941 331.35C56.1732 330.43 57.3136 329.057 57.9447 327.437C58.2042 326.744 58.3524 326.014 58.3838 325.274C58.3838 325.179 58.3838 325.078 58.3838 324.983C63.3972 324.64 68.3788 323.934 73.2891 322.87ZM63.8352 263.136C64.2323 263.702 64.5435 264.324 64.7588 264.982C64.8781 265.334 64.9676 265.696 65.0264 266.063C65.0264 266.204 65.0667 266.34 65.0869 266.475C65.0724 267.139 65.015 267.801 64.9153 268.457C64.8042 268.92 64.6932 269.383 64.5872 269.85L64.5065 270.197L64.3803 270.54L64.1279 271.219L63.8806 271.898L63.2547 273.13L62.6136 274.382L62.5884 274.428C61.9978 274.574 61.4224 274.694 60.847 274.82C59.5498 275.046 58.2223 275.278 56.5112 275.429L55.7238 275.484H54.6235C54.2045 275.484 53.73 275.429 53.195 275.398C52.9275 275.373 52.6499 275.323 52.3521 275.283C52.0413 275.245 51.7329 275.189 51.4284 275.117C49.3793 274.7 47.4305 273.892 45.6893 272.738C43.8066 271.515 42.2016 269.78 41.9391 268.045C41.8077 267.2 41.8892 266.336 42.1763 265.53C42.4128 264.843 42.7532 264.197 43.1858 263.614C43.4742 263.213 43.8004 262.841 44.1599 262.502C44.4123 262.255 44.5688 262.13 44.5688 262.13C44.5688 262.13 44.7455 261.974 45.0736 261.717C45.5649 261.347 46.0809 261.011 46.6181 260.711C47.4366 260.259 48.2791 259.851 49.1418 259.489C50.2036 259.032 51.2886 258.631 52.3924 258.287C53.4692 257.934 54.6156 257.846 55.7339 258.03C56.9136 258.296 58.0513 258.721 59.1157 259.293C60.9875 260.159 62.6106 261.48 63.8352 263.136ZM56.4203 326.647C55.5879 327.726 54.5734 328.652 53.4222 329.384C52.0669 330.241 50.484 330.672 48.8794 330.621L48.1475 330.591L47.7235 330.545C47.7235 330.545 47.5014 330.52 47.2188 330.465C46.9361 330.41 46.6383 330.344 46.4515 330.309C45.3493 330.034 44.2909 329.608 43.3069 329.041C42.082 328.362 40.9447 327.536 39.9201 326.582C39.4797 326.167 39.0992 325.693 38.7894 325.174C38.7238 325.058 38.6632 324.932 38.6077 324.811C41.1853 325.043 43.7898 325.197 46.4213 325.274C50.0403 325.365 53.7048 325.304 57.3895 325.068C57.1161 325.623 56.7917 326.152 56.4203 326.647ZM46.5171 322.9C37.891 322.659 29.4667 321.592 21.7389 319.404C19.8108 318.841 17.9331 318.217 16.116 317.503C14.3351 316.799 12.6047 315.974 10.9373 315.033C7.69678 313.193 4.80456 310.803 3.36602 307.816C2.66834 306.361 2.3407 304.758 2.41203 303.148C2.47367 301.522 2.77295 299.914 3.3004 298.375C4.34147 295.399 5.97214 292.662 8.09553 290.327C11.7802 286.12 16.2981 282.717 21.3654 280.333C23.4634 279.315 25.6308 278.446 27.8515 277.732C29.8957 277.043 31.8289 276.565 33.5703 276.148C34.4485 275.967 35.2713 275.771 36.0587 275.645L37.9111 275.308L39.0115 275.112L39.279 275.061L39.1983 274.835C39.1427 274.689 39.0872 274.538 39.0368 274.392C38.6744 273.49 38.3577 272.57 38.0878 271.636C37.9475 271.161 37.8412 270.677 37.7698 270.187C37.7143 269.75 37.6335 269.363 37.6133 269.031C37.5931 268.699 37.6133 268.412 37.6133 268.186C37.6133 267.959 37.6133 267.788 37.6133 267.683V267.512C37.6133 267.512 37.6133 267.28 37.6638 266.833C37.6766 266.553 37.707 266.274 37.7547 265.998L37.9818 264.861C38.0928 264.438 38.2645 263.976 38.426 263.463C38.5875 262.95 38.8853 262.421 39.163 261.848L39.6677 260.988L39.9453 260.54L40.2835 260.103C40.5106 259.806 40.7479 259.504 40.9952 259.192L41.8533 258.302C43.2046 256.963 44.7329 255.814 46.396 254.887L47.0825 254.484C47.3197 254.348 47.5872 254.243 47.8194 254.117L49.3336 253.388L50.969 252.739L51.388 252.568L51.6 252.487L51.9129 252.342C52.1592 252.233 52.3901 252.093 52.5994 251.924L53.2454 252.171C53.8814 252.422 54.4569 252.749 55.0626 252.995C56.3767 253.6 57.6588 254.272 58.9037 255.007C59.2924 255.249 59.8224 255.681 60.5139 256.174L61.5234 257.135C61.6092 257.221 61.7001 257.311 61.796 257.397L62.0332 257.703L62.5379 258.337L62.6793 258.508C62.7555 258.599 62.8263 258.695 62.8912 258.795C62.0604 258.175 61.1752 257.631 60.2463 257.17C58.9766 256.49 57.6173 255.991 56.2083 255.687C55.4431 255.543 54.6616 255.508 53.8865 255.581C53.1632 255.653 52.4484 255.793 51.7514 255.998C50.5514 256.372 49.372 256.808 48.2182 257.306C47.2629 257.703 46.331 258.153 45.4269 258.654C44.7989 259.006 44.1952 259.399 43.6199 259.831C43.206 260.148 42.9889 260.334 42.9889 260.334C42.9889 260.334 42.8022 260.485 42.4842 260.792C42.0202 261.23 41.5978 261.71 41.2223 262.225C40.6534 263.004 40.2058 263.863 39.8948 264.775C39.4867 265.946 39.374 267.198 39.5667 268.422C39.8265 269.775 40.4393 271.036 41.3434 272.079C42.2114 273.081 43.2154 273.958 44.3265 274.684C46.3304 276.015 48.5742 276.946 50.9337 277.425C51.2816 277.507 51.6337 277.569 51.9886 277.611C52.3218 277.657 52.6398 277.712 52.9477 277.742C53.5534 277.777 54.0934 277.838 54.5729 277.838H55.8247L56.7181 277.762C59.6255 277.44 61.5334 276.616 63.2092 275.247L65.7683 275.584L67.3381 275.816C68.3829 275.972 69.4278 276.143 70.4776 276.319C74.7081 277.045 78.864 278.151 82.8945 279.623C86.9325 281.132 90.8191 283.144 93.9183 286.072C95.4575 287.51 96.7439 289.194 97.7241 291.056C98.6732 292.935 99.2701 294.97 99.4856 297.062C99.7454 299.15 99.5653 301.27 98.957 303.285C98.3486 305.3 97.3253 307.167 95.9524 308.766C93.2267 312.071 89.426 314.495 85.4284 316.361C81.3595 318.174 77.1116 319.558 72.7541 320.491C64.1381 322.348 55.3288 323.162 46.5171 322.915V322.9Z" fill="white"/>
</g>
<defs>
<clipPath id="clip0_124_10943">
<rect width="102" height="333" fill="white" transform="translate(158 145)"/>
</clipPath>
<clipPath id="clip1_124_10943">
<rect width="102" height="333" fill="white" transform="translate(88 64)"/>
</clipPath>
<clipPath id="clip2_124_10943">
<rect width="102" height="333" fill="white"/>
</clipPath>
</defs>
</svg>
