<svg width="121" height="30" viewBox="0 0 121 30" fill="none" xmlns="http://www.w3.org/2000/svg">
<g clip-path="url(#clip0_194_42)">
<path d="M15.2713 18.1222L28.4844 0V30H15.2713V18.1222Z" fill="#303040"/>
<path d="M-0.00211903 27.2087L13.2109 9.08643V30H-0.00211903V27.2087Z" fill="#303040"/>
</g>
<path d="M42.6404 7.88H34.7204V8.39C36.0404 8.39 36.9704 10.16 36.9704 12.02V24.89C36.9704 26.93 36.0104 28.49 34.7204 28.49V29H42.6404C48.6104 29 55.2104 27.29 55.2104 18.53C55.2104 9.74 48.6104 7.88 42.6404 7.88ZM42.6404 28.49H41.3204V8.39H42.6404C45.5804 8.39 49.9604 9.17 49.9604 18.53C49.9604 27.86 45.5804 28.49 42.6404 28.49ZM62.6377 10.43C62.6377 9.29 61.7077 8.39 60.5677 8.39C59.4277 8.39 58.5277 9.29 58.5277 10.43C58.5277 11.57 59.4277 12.47 60.5677 12.47C61.7077 12.47 62.6377 11.57 62.6377 10.43ZM62.7277 25.34V14.87L57.4777 16.07V16.58C58.7077 17.24 59.0077 17.66 59.0077 18.68V25.34C59.0077 26.87 58.9477 28.13 57.8077 28.49V29H63.9577V28.49C62.8777 28.19 62.7277 27.02 62.7277 25.34ZM79.3845 25.34V19.43C79.3845 15.8 77.9445 14.87 75.6045 14.87C73.7145 14.87 71.3445 16.25 70.6545 18.08V14.87L65.4045 16.07V16.58C66.6345 17.24 66.9045 17.57 66.9045 18.62V25.4C66.9045 26.93 66.8745 28.16 65.7345 28.49V29H71.8845V28.49C70.8345 28.19 70.6545 27.05 70.6545 25.4V19.49C70.6545 18.29 72.0345 17.03 73.2045 17.03C74.7045 17.03 75.6345 18.08 75.6345 19.52V25.34C75.6345 26.87 75.5745 28.16 74.4345 28.49V29H80.6145V28.49C79.5345 28.22 79.3845 26.99 79.3845 25.34ZM89.3464 27.14C87.8464 27.14 87.1264 26.27 87.1264 24.59V15.65H90.5764L90.6964 15.14H87.1264V10.49L83.3764 11.12V15.14H81.7864L81.8764 15.65H83.3764V24.68C83.3764 28.31 84.7864 29.27 87.1564 29.27C89.1664 29.27 90.9964 27.77 91.5964 26.36L91.1464 26.09C90.8764 26.54 90.2164 27.14 89.3464 27.14ZM96.8318 21.29C96.8318 18.41 98.0618 15.38 99.8318 15.38C101.482 15.38 102.712 17.51 102.712 21.29H96.8318ZM99.9818 14.87C95.8418 14.87 92.9618 17.9 92.9618 22.13C92.9618 25.64 95.6618 29.27 99.5918 29.27C103.612 29.27 105.382 26.9 105.862 25.34L105.352 25.07C104.602 26.48 102.202 27.08 100.582 26.72C98.5718 26.27 97.0718 24.74 96.8318 21.8H106.372C106.372 17.12 104.332 14.87 99.9818 14.87ZM116.854 15.02C116.134 15.32 114.904 15.77 113.314 18.26V14.87L108.034 16.07V16.58C109.264 17.21 109.534 17.66 109.534 18.68V25.34C109.534 26.9 109.504 28.13 108.334 28.49V29H114.544V28.49C113.464 28.19 113.314 27.02 113.314 25.34V19.1C114.424 17.3 115.654 17 115.654 17.33C115.654 17.87 115.894 18.38 116.344 18.8C117.304 19.61 118.684 19.49 119.494 18.56C120.304 17.66 120.214 16.22 119.284 15.41C118.624 14.87 117.484 14.75 116.854 15.02Z" fill="#FFFBF3"/>
<defs>
<clipPath id="clip0_194_42">
<rect width="28.4855" height="30" fill="white" transform="matrix(-1 0 0 1 28.4844 0)"/>
</clipPath>
</defs>
</svg>
